<?xml version="1.0" encoding="UTF-8" standalone="no"?>
<!-- Created with Inkscape (http://www.inkscape.org/) -->

<svg
   width="36"
   height="36"
   viewBox="0 0 9.525 9.525"
   version="1.1"
   id="svg5"
   xmlns="http://www.w3.org/2000/svg"
   xmlns:svg="http://www.w3.org/2000/svg"
   xmlns:rdf="http://www.w3.org/1999/02/22-rdf-syntax-ns#"
   xmlns:cc="http://creativecommons.org/ns#">
  <defs
     id="defs2" />
  <g
     id="layer1">
    <path
       style="fill:none;stroke-width:0.022454"
       d="M 1.6848381,3.6918604 4.7975752,0.5291667 8.0519895,3.7143587 4.81841,6.8520529 Z"
       id="path1347" />
    <path
       style="fill:none;stroke:#000000;stroke-width:0.263921;stroke-dasharray:none;stroke-opacity:1"
       d="M 4.7653317,0.75209901 1.7881465,4.7625 4.7672475,8.7770669 7.8073001,4.7625 Z"
       id="path2136" />
    <path
       style="fill:none;stroke:#000000;stroke-width:0.277087;stroke-dasharray:none;stroke-opacity:1"
       d="m 3.2841699,2.7637194 3.0128157,0.017929 v 0 z"
       id="path2160" />
    <path
       d="M 4.0524338,3.0704468 C 3.9523155,3.1956432 3.7684592,3.404352 3.5439996,3.6711387 3.39062,3.8534416 3.2118103,4.0760626 3.0621777,4.325458 c -0.011312,0.02072 -0.020212,0.0358 -0.030328,0.05204 -0.00728,0.01168 -0.014959,0.023621 -0.024546,0.038347 -0.015643,0.024028 -0.041632,0.063192 -0.063209,0.1004638 -0.00911,0.01612 -0.018229,0.03426 -0.026118,0.05477 -0.00747,0.019429 -0.014813,0.04349 -0.01843,0.070486 -0.00352,0.026286 -0.00396,0.05871 0.00514,0.093369 0.00454,0.017293 0.011379,0.034823 0.02106,0.051913 0.00967,0.017071 0.021671,0.032809 0.035816,0.046899 0.00811,0.00807 0.01652,0.015966 0.026279,0.021935 0.00976,0.00597 0.020618,0.00986 0.031498,0.013402 0.047535,0.015455 0.093152,0.019965 0.1292204,0.02181 0.038859,0.00199 0.070273,0.00152 0.09381,0.00265 0.2741962,0.00321 0.4915498,-0.00995 0.6100541,-0.011858 a 0.14570241,0.14570241 90 0 0 -0.0047,-0.291367 c -0.1230815,0.00199 -0.3446479,0.014859 -0.5967111,0.011998 -0.029938,-0.00154 -0.061934,-0.00113 -0.087567,-0.00244 -0.025307,-0.00129 -0.041756,-0.00393 -0.054008,-0.00791 l 0.057777,0.035336 c 0.00442,0.0044 0.00859,0.00976 0.012081,0.015928 0.00348,0.00615 0.0058,0.012226 0.00725,0.017729 0.00287,0.010935 0.00207,0.017519 0.00183,0.019313 -2.468e-4,0.00184 8.13e-5,-6.595e-4 0.00159,-0.00457 0.00168,-0.00436 0.00413,-0.00946 0.00712,-0.014771 0.01592,-0.027483 0.036316,-0.058255 0.054437,-0.086091 0.00996,-0.015304 0.018877,-0.029135 0.027679,-0.043266 0.012264,-0.01969 0.024576,-0.0404 0.036293,-0.062227 C 3.449373,4.2465146 3.6159606,4.0382436 3.7669819,3.8587438 3.9859639,3.5984677 4.1754745,3.3831719 4.2800172,3.2524428 A 0.14570241,0.14570241 90 0 0 4.0524338,3.0704468 Z"
       id="path-1"
       style="fill:#c80074;fill-opacity:1;fill-rule:nonzero;stroke:none;stroke-width:1.04725;stroke-dasharray:none;stroke-opacity:1" />
    <path
       d="m 5.8773365,4.2877505 c -0.033802,0.02152 -0.089099,0.061519 -0.1393116,0.1248311 -0.034875,0.043973 -0.069643,0.1022644 -0.08927,0.174234 -0.01316,0.049348 -0.02311,0.1055314 -0.024369,0.1656051 -4.737e-4,0.022609 2.808e-4,0.045948 0.00263,0.069752 0.00314,0.031769 0.00947,0.06801 0.021621,0.1063133 0.021777,0.070131 0.063736,0.138259 0.1254274,0.1944779 0.053032,0.048328 0.1209346,0.087825 0.1989202,0.1083154 0.090609,0.025831 0.193786,0.025807 0.2916622,-0.00334 0.092098,-0.027425 0.1825852,-0.081879 0.249076,-0.1670816 C 6.5664107,4.9953709 6.6000917,4.9166164 6.6153066,4.8351247 6.6301662,4.755536 6.627562,4.6726281 6.6085395,4.594123 6.5924583,4.5250244 6.5629823,4.4540948 6.5191812,4.3914108 6.4748357,4.3279477 6.4144131,4.2715328 6.3385711,4.2353879 c -0.062307,-0.030414 -0.128806,-0.040834 -0.1903662,-0.03865 -0.06378,0.00226 -0.1242717,0.018022 -0.176838,0.040871 -0.079862,0.031616 -0.1484353,0.084129 -0.2014376,0.1436713 -0.057973,0.065127 -0.098006,0.1393823 -0.121955,0.2126415 -0.00683,0.020229 -0.011607,0.038052 -0.014601,0.050194 a 0.13139109,0.13139109 90 0 0 0.2551428,0.062902 c 0.00172,-0.00697 0.00452,-0.017469 0.00884,-0.030254 0.013959,-0.042681 0.036687,-0.084621 0.068857,-0.1207602 0.029112,-0.032705 0.065113,-0.059545 0.1059938,-0.075766 0.030153,-0.013032 0.058369,-0.019926 0.085314,-0.020881 0.025686,-9.11e-4 0.048209,0.0036 0.066898,0.012722 0.030105,0.014354 0.05677,0.037522 0.07936,0.06985 0.022574,0.032306 0.039483,0.071628 0.049099,0.1129298 0.010752,0.044395 0.012004,0.089773 0.00411,0.1320383 -0.00803,0.042998 -0.025069,0.080739 -0.049234,0.1107855 -0.029599,0.037906 -0.07094,0.064363 -0.118103,0.078407 -0.050259,0.014966 -0.1024502,0.014515 -0.1472914,0.00175 -0.036891,-0.00972 -0.067534,-0.027448 -0.091294,-0.0491 -0.027285,-0.024864 -0.043622,-0.052908 -0.051708,-0.078944 -0.00592,-0.018683 -0.00916,-0.036537 -0.01083,-0.053429 -0.00124,-0.012587 -0.00169,-0.025432 -0.00142,-0.038436 7.316e-4,-0.034919 0.00663,-0.069925 0.015363,-0.1026911 0.00816,-0.029916 0.023691,-0.056981 0.041442,-0.079362 0.025835,-0.032576 0.055331,-0.054217 0.074547,-0.06645 A 0.13139109,0.13139109 90 0 0 5.8773365,4.2877505 Z"
       id="path-1-3"
       style="fill:#c80074;fill-opacity:1;fill-rule:nonzero;stroke:none;stroke-width:1.04725;stroke-dasharray:none;stroke-opacity:1" />
    <path
       d="m 6.3652726,4.7026143 c 0.01967,0.093897 0.064133,0.3286312 0.033145,0.5915932 -0.00749,0.063591 -0.020778,0.1412688 -0.045461,0.2257751 -0.021263,0.071233 -0.053194,0.1526888 -0.1003206,0.2316585 -0.040746,0.068277 -0.091719,0.1327566 -0.1546956,0.1866949 -0.085286,0.068639 -0.1969906,0.1135454 -0.314163,0.1432906 -0.012235,0.00239 -0.030881,0.0042 -0.057657,0.00808 -0.039078,0.00566 -0.069036,0.012708 -0.098162,0.023921 A 0.13139109,0.13139109 90 0 0 5.72237,6.3588616 c 0.00552,-0.00212 0.015176,-0.00529 0.041421,-0.00909 0.011429,-0.00166 0.050906,-0.00634 0.07889,-0.012118 C 5.9849647,6.3016711 6.1368332,6.2443876 6.2658457,6.1404422 6.3571529,6.0623173 6.4256382,5.974535 6.4782911,5.8863057 6.5390546,5.7844858 6.5788424,5.6819771 6.6049815,5.5943982 6.6348704,5.4920769 6.6506044,5.3995559 6.6593949,5.3249599 6.695463,5.0188849 6.6437895,4.7504981 6.622472,4.6487355 a 0.13139109,0.13139109 90 0 0 -0.2571994,0.053879 z"
       id="path-1-6"
       style="fill:#c80074;fill-opacity:1;fill-rule:nonzero;stroke:none;stroke-width:1.04725;stroke-dasharray:none;stroke-opacity:1" />
    <ellipse
       style="fill:none;fill-opacity:1;stroke:#c80074;stroke-width:0.277087;stroke-dasharray:none;stroke-opacity:1"
       id="path3594"
       cx="4.7624998"
       cy="4.7494001"
       rx="0.4194417"
       ry="0.45715314" />
  </g>
  <metadata
     id="metadata4785">
    <rdf:RDF>
      <cc:Work
         rdf:about="">
        <cc:license
           rdf:resource="http://creativecommons.org/licenses/by-nd/4.0/" />
      </cc:Work>
      <cc:License
         rdf:about="http://creativecommons.org/licenses/by-nd/4.0/">
        <cc:permits
           rdf:resource="http://creativecommons.org/ns#Reproduction" />
        <cc:permits
           rdf:resource="http://creativecommons.org/ns#Distribution" />
        <cc:requires
           rdf:resource="http://creativecommons.org/ns#Notice" />
        <cc:requires
           rdf:resource="http://creativecommons.org/ns#Attribution" />
      </cc:License>
    </rdf:RDF>
  </metadata>
</svg>
