<svg width="40" height="40" viewBox="0 0 627 627" fill="none" xmlns="http://www.w3.org/2000/svg">
    <g clip-path="url(#clip0_1697_4775)">
        <rect y="35" width="628" height="556" rx="82" fill="#002ED2"/>
        <rect y="35" width="628" height="556" rx="82" fill="url(#paint0_linear_1697_4775)" fill-opacity="0.56"
              style="mix-blend-mode:hard-light"/>
        <path fill-rule="evenodd" clip-rule="evenodd"
              d="M313.45 108.899C261.079 108.899 218.625 151.354 218.625 203.724V206.149C213.872 207.11 209.339 208.662 205.103 210.723L170.068 173.245C165.463 168.319 157.736 168.059 152.811 172.664C147.885 177.269 147.624 184.995 152.229 189.921L185.888 225.925C177.155 236.594 172.23 250.46 173.121 265.389L174.998 296.828C175.278 301.512 175.692 306.182 176.239 310.831H132.889C126.146 310.831 120.68 316.298 120.68 323.041C120.68 329.784 126.146 335.25 132.889 335.25H180.379C183.948 351.307 189.137 366.994 195.885 382.067L208.911 411.157C209.082 411.538 209.254 411.918 209.429 412.297L160.964 459.882C156.152 464.606 156.081 472.336 160.805 477.148C165.53 481.96 173.26 482.03 178.072 477.306L222.41 433.773C243.41 461.08 276.189 477.695 311.606 477.695C344.079 477.695 374.427 463.716 395.468 440.2L436.58 481.96C441.311 486.766 449.041 486.826 453.846 482.096C458.652 477.365 458.712 469.635 453.982 464.829L409.86 420.011C410.687 418.529 411.483 417.023 412.248 415.495L422.126 395.737C431.733 376.523 438.735 356.182 442.997 335.25H491.034C497.777 335.25 503.244 329.784 503.244 323.041C503.244 316.298 497.777 310.831 491.034 310.831H446.694C447.269 305.081 447.641 299.302 447.807 293.506L448.661 263.621C449.086 248.732 443.768 235.045 434.739 224.648L466.647 188.701C471.123 183.658 470.663 175.941 465.62 171.465C460.577 166.989 452.86 167.448 448.384 172.491L415.079 210.013C412.882 209.023 410.61 208.169 408.274 207.46V203.724C408.274 151.354 365.82 108.899 313.45 108.899ZM384.292 204.826H242.492C242.492 195.332 244.326 185.93 247.889 177.158C251.452 168.385 256.675 160.415 263.258 153.701C269.842 146.987 277.658 141.661 286.26 138.028C294.862 134.394 304.081 132.524 313.392 132.524C322.703 132.524 331.922 134.394 340.524 138.028C349.126 141.661 356.942 146.987 363.526 153.701C370.109 160.415 375.332 168.385 378.895 177.158C382.458 185.93 384.292 195.332 384.292 204.826ZM391.706 229.435H229.997C211.253 229.435 196.379 245.222 197.497 263.934L199.373 295.373C200.955 321.87 207.325 347.861 218.172 372.088L231.198 401.178C245.39 432.874 276.878 453.276 311.606 453.276C344.977 453.276 375.483 434.422 390.407 404.574L400.285 384.817C414.596 356.196 422.484 324.795 423.398 292.809L424.251 262.923C424.775 244.585 410.052 229.435 391.706 229.435Z"
              fill="white"/>
        <path d="M367.874 264.125C363.106 259.357 355.376 259.357 350.608 264.125L311.932 302.8L273.257 264.125C268.488 259.357 260.758 259.357 255.99 264.125C251.222 268.893 251.222 276.624 255.99 281.392L294.665 320.067L253.072 361.661C248.304 366.429 248.304 374.159 253.072 378.928C257.84 383.696 265.57 383.696 270.338 378.928L311.932 337.334L353.526 378.928C358.294 383.696 366.024 383.696 370.792 378.928C375.561 374.159 375.561 366.429 370.792 361.661L329.199 320.067L367.874 281.392C372.643 276.624 372.643 268.893 367.874 264.125Z"
              fill="white"/>
        <path fill-rule="evenodd" clip-rule="evenodd"
              d="M125 83.2017H88.8973C64.0445 83.2017 43.8973 103.349 43.8973 128.202V272.336C43.8973 279.781 42.0532 287.025 38.6288 293.465C36.2864 297.87 33.2045 301.899 29.4675 305.358L21.8184 312.44L28.738 318.57C32.4217 321.833 35.5036 325.64 37.9058 329.817C41.7903 336.572 43.8973 344.294 43.8973 352.253V496.677C43.8973 521.53 64.0445 541.677 88.8974 541.677H125V512.677H88.8974C80.0608 512.677 72.8973 505.514 72.8973 496.677V352.253C72.8973 337.946 68.7562 324.102 61.182 312.294C68.7619 300.478 72.8973 286.632 72.8973 272.336V128.202C72.8973 119.365 80.0608 112.202 88.8973 112.202H125V83.2017ZM503 512.677H538.039C546.875 512.677 554.039 505.514 554.039 496.677V352.886C554.039 338.31 558.336 324.23 566.164 312.296C558.33 300.353 554.039 286.27 554.039 271.706V128.202C554.039 119.365 546.875 112.202 538.039 112.202H503V83.2017H538.039C562.892 83.2017 583.039 103.349 583.039 128.202V271.706C583.039 278.282 584.477 284.697 587.169 290.538C589.758 296.158 593.507 301.246 598.249 305.434L606.181 312.44L598.99 318.518C593.953 322.775 589.977 328.03 587.255 333.868C584.51 339.755 583.039 346.236 583.039 352.886V496.677C583.039 521.53 562.892 541.677 538.039 541.677H503V512.677Z"
              fill="white"/>
    </g>
    <defs>
        <linearGradient id="paint0_linear_1697_4775" x1="76.1497" y1="9.00002" x2="596.862" y2="543.987"
                        gradientUnits="userSpaceOnUse">
            <stop stop-color="white" stop-opacity="0.68"/>
            <stop offset="0.219996" stop-color="#88A2FF" stop-opacity="0"/>
            <stop offset="0.745" stop-color="#02081D" stop-opacity="0.75"/>
            <stop offset="1"/>
        </linearGradient>
        <clipPath id="clip0_1697_4775">
            <rect width="627" height="627" fill="white"/>
        </clipPath>
    </defs>
</svg>
