<svg width="40" height="40" viewBox="0 0 40 40" fill="none" xmlns="http://www.w3.org/2000/svg">
    <g clip-path="url(#clip0_45_79)">
        <ellipse cx="8.56436" cy="36.014" rx="3.07692" ry="3.84615" transform="rotate(71.5404 8.56436 36.014)" fill="#F2C94C"/>
        <ellipse cx="3.07692" cy="3.84615" rx="3.07692" ry="3.84615" transform="matrix(-0.316636 0.948547 0.948547 0.316636 27.9305 32.2609)" fill="#F2C94C"/>
        <path d="M40 22.0871C40 33.0234 31.0457 37.7148 20 37.7148C8.95431 37.7148 0 33.0234 0 22.0871C0 11.1508 8.95431 2.28525 20 2.28525C31.0457 2.28525 40 11.1508 40 22.0871Z" fill="url(#paint0_linear_45_79)"/>
        <path d="M7.35563 15.2828C7.35563 14.773 7.7689 14.3597 8.27871 14.3597H31.7213C32.2311 14.3597 32.6444 14.773 32.6444 15.2828V33.2553C32.6444 33.7651 32.2311 34.1784 31.7213 34.1784H20H8.27871C7.7689 34.1784 7.35563 33.7651 7.35563 33.2553V15.2828Z" fill="#333333"/>
        <rect x="9.25387" y="15.7918" width="12.3077" height="2.9808" fill="#FF0500"/>
        <rect x="9.25387" y="24.7838" width="12.3077" height="2.9808" fill="#FF0500"/>
        <rect x="9.25387" y="20.288" width="20.1384" height="2.9808" fill="#00FA15"/>
        <rect x="9.25387" y="29.2801" width="20.1384" height="2.9808" fill="#00FA15"/>
        <ellipse cx="11.2087" cy="9.73363" rx="2.64438" ry="3.44222" fill="#F2F2F2"/>
        <ellipse cx="27.9305" cy="9.72968" rx="2.64438" ry="3.44615" fill="#F2F2F2"/>
    </g>
    <defs>
        <linearGradient id="paint0_linear_45_79" x1="20" y1="2.28525" x2="20" y2="37.7148" gradientUnits="userSpaceOnUse">
            <stop stop-color="#F2E607"/>
            <stop offset="1" stop-color="#D79535"/>
        </linearGradient>
        <clipPath id="clip0_45_79">
            <rect width="40" height="40" fill="white"/>
        </clipPath>
    </defs>
</svg>
