<?xml version="1.0" encoding="UTF-8"?>
<svg xmlns="http://www.w3.org/2000/svg" xmlns:xlink="http://www.w3.org/1999/xlink" width="40px" height="40px" viewBox="0 0 40 40" version="1.1">
<g id="surface1">
<path style=" stroke:none;fill-rule:evenodd;fill:rgb(98.823529%,98.823529%,98.823529%);fill-opacity:0
;" d="M 0 20 L 0 40 L 40 40 L 40 0 L 0 0 L 0 20 M 15.722656 1.601562 C 17.796875 2.429688 19.351562 5.214844 19.515625 8.390625 C 19.664062 11.265625 19.019531 13.4375 17.589844 14.863281 C 16.484375 15.972656 15.375 16.230469 14.140625 15.671875 C 12.132812 14.761719 10.714844 11.9375 10.589844 8.605469 C 10.460938 5.214844 11.761719 2.496094 13.9375 1.597656 L 14.289062 1.457031 L 14.847656 1.464844 L 15.410156 1.476562 L 15.722656 1.601562 M 28.386719 2.820312 C 29.671875 2.957031 30.769531 4.125 31.136719 5.742188 C 31.304688 6.488281 31.324219 8.335938 31.171875 9.046875 C 31.089844 9.433594 30.863281 10.238281 30.757812 10.535156 C 30.722656 10.632812 30.675781 10.765625 30.652344 10.832031 C 30.582031 11.054688 30.476562 11.304688 30.261719 11.773438 C 30.074219 12.171875 30.042969 12.238281 29.910156 12.46875 C 29.847656 12.585938 29.773438 12.726562 29.746094 12.777344 C 29.335938 13.65625 27.9375 15.164062 26.925781 15.824219 C 23.789062 17.875 20.976562 15.542969 21.363281 11.210938 C 21.726562 7.15625 24.742188 3.09375 27.589844 2.820312 C 27.984375 2.785156 28.058594 2.785156 28.386719 2.820312 M 4.679688 8 C 7.003906 8.585938 9.164062 11.367188 9.996094 14.847656 C 10.320312 16.203125 10.28125 18.140625 9.90625 19.277344 C 9.457031 20.644531 8.441406 21.648438 7.332031 21.820312 C 3.308594 22.449219 -0.867188 15.050781 0.867188 10.371094 C 1.359375 9.035156 2.335938 8.101562 3.410156 7.929688 C 3.652344 7.890625 4.414062 7.933594 4.679688 8 M 36.800781 11.8125 C 36.808594 11.828125 36.886719 11.851562 36.976562 11.863281 C 37.0625 11.875 37.238281 11.921875 37.363281 11.972656 C 37.488281 12.019531 37.601562 12.058594 37.617188 12.058594 C 37.628906 12.058594 37.683594 12.09375 37.738281 12.136719 C 37.792969 12.179688 37.847656 12.210938 37.859375 12.210938 C 37.933594 12.210938 38.636719 12.832031 38.636719 12.894531 C 38.636719 12.914062 38.679688 12.96875 38.730469 13.015625 C 38.78125 13.066406 38.835938 13.132812 38.851562 13.167969 C 38.867188 13.199219 38.898438 13.253906 38.917969 13.289062 C 39.199219 13.75 39.28125 13.960938 39.460938 14.683594 C 40.027344 16.980469 38.53125 20.816406 36.191406 23.0625 C 35.433594 23.789062 34.378906 24.507812 33.695312 24.757812 C 33.636719 24.777344 33.542969 24.816406 33.484375 24.839844 C 32.625 25.222656 31.300781 25.21875 30.589844 24.835938 C 30.140625 24.59375 29.5625 24.089844 29.402344 23.800781 C 28.589844 22.339844 28.472656 20.945312 29.003906 19.011719 C 29.375 17.65625 30.003906 16.394531 30.902344 15.203125 C 31.039062 15.019531 31.152344 14.867188 31.152344 14.859375 C 31.152344 14.792969 32.578125 13.332031 32.644531 13.332031 C 32.664062 13.332031 32.753906 13.273438 32.839844 13.195312 C 32.925781 13.121094 33.007812 13.0625 33.023438 13.0625 C 33.039062 13.0625 33.082031 13.027344 33.121094 12.984375 C 33.160156 12.941406 33.207031 12.910156 33.222656 12.910156 C 33.238281 12.910156 33.335938 12.847656 33.445312 12.773438 C 33.550781 12.699219 33.648438 12.636719 33.65625 12.636719 C 33.664062 12.636719 33.714844 12.605469 33.765625 12.570312 C 33.816406 12.535156 33.960938 12.453125 34.089844 12.390625 C 34.21875 12.328125 34.335938 12.261719 34.347656 12.246094 C 34.359375 12.226562 34.398438 12.210938 34.433594 12.210938 C 34.46875 12.210938 34.558594 12.175781 34.632812 12.136719 C 34.703125 12.09375 34.785156 12.058594 34.8125 12.058594 C 34.839844 12.058594 34.964844 12.027344 35.089844 11.988281 C 35.214844 11.945312 35.433594 11.898438 35.574219 11.875 C 35.71875 11.855469 35.847656 11.828125 35.863281 11.8125 C 35.898438 11.78125 36.78125 11.78125 36.800781 11.8125 M 19.53125 16.5 C 20.449219 16.628906 21.246094 17.03125 22.046875 17.761719 C 22.160156 17.867188 22.292969 17.980469 22.335938 18.007812 C 22.65625 18.210938 23.175781 18.976562 23.828125 20.210938 C 23.925781 20.402344 24.042969 20.613281 24.082031 20.671875 C 24.121094 20.734375 24.152344 20.792969 24.152344 20.804688 C 24.152344 20.8125 24.207031 20.910156 24.273438 21.019531 C 24.339844 21.128906 24.394531 21.222656 24.394531 21.230469 C 24.394531 21.285156 25.402344 22.898438 25.769531 23.4375 C 25.871094 23.585938 25.980469 23.75 26.015625 23.804688 C 26.109375 23.964844 26.59375 24.640625 26.894531 25.039062 C 27.042969 25.238281 27.1875 25.429688 27.210938 25.464844 C 27.683594 26.152344 28.1875 26.734375 29.003906 27.546875 C 30.277344 28.804688 30.894531 29.8125 31.375 31.394531 C 31.621094 32.210938 31.675781 33.277344 31.519531 34.101562 C 31.347656 35.007812 30.894531 35.957031 30.398438 36.464844 C 29.539062 37.34375 28.726562 37.898438 27.9375 38.148438 C 27.8125 38.1875 27.691406 38.230469 27.664062 38.242188 C 27.285156 38.425781 25.902344 38.636719 25.074219 38.636719 C 24.472656 38.636719 24.488281 38.636719 23.136719 38.421875 C 22.9375 38.390625 22.628906 38.34375 22.453125 38.316406 C 22.28125 38.289062 22.109375 38.257812 22.074219 38.242188 C 22.042969 38.226562 21.941406 38.210938 21.847656 38.203125 C 21.597656 38.1875 19.417969 37.847656 19.355469 37.816406 C 19.328125 37.800781 19.246094 37.789062 19.171875 37.789062 C 19.097656 37.789062 18.855469 37.761719 18.632812 37.730469 C 17.546875 37.570312 16.34375 37.425781 16.152344 37.425781 C 16.085938 37.425781 16.027344 37.414062 16.019531 37.398438 C 16.007812 37.382812 15.808594 37.363281 15.570312 37.351562 C 15.332031 37.34375 14.957031 37.320312 14.734375 37.304688 C 14.511719 37.285156 13.722656 37.246094 12.976562 37.210938 C 12.230469 37.179688 11.472656 37.136719 11.289062 37.121094 C 10.78125 37.078125 10.199219 36.996094 10.167969 36.964844 C 10.152344 36.953125 10.09375 36.9375 10.039062 36.9375 C 9.863281 36.9375 8.921875 36.6875 8.621094 36.558594 C 8.570312 36.539062 8.402344 36.472656 8.242188 36.410156 C 5.890625 35.496094 4.496094 33.644531 4.164062 31 C 4.027344 29.914062 4.605469 27.753906 5.21875 27.066406 C 5.566406 26.671875 6.457031 25.867188 6.992188 25.460938 C 7.945312 24.738281 8.160156 24.609375 9.667969 23.886719 C 10.347656 23.558594 11.261719 22.898438 11.832031 22.320312 C 12.050781 22.101562 12.308594 21.847656 12.40625 21.757812 C 12.636719 21.542969 13.949219 20.035156 14.378906 19.484375 C 14.535156 19.285156 14.621094 19.1875 15.238281 18.503906 C 16.660156 16.925781 18.03125 16.285156 19.53125 16.5 "/>
<path style=" stroke:none;fill-rule:evenodd;fill:rgb(41.960784%,67.45098%,83.137255%);fill-opacity:1;" d="M 13.9375 1.597656 C 13.273438 1.875 12.988281 2.066406 12.484375 2.578125 C 9.289062 5.820312 10.316406 13.9375 14.140625 15.671875 C 15.898438 16.46875 17.757812 15.4375 18.792969 13.089844 C 19.382812 11.765625 19.613281 10.261719 19.515625 8.390625 C 19.351562 5.214844 17.796875 2.429688 15.722656 1.601562 L 15.410156 1.476562 L 14.847656 1.464844 L 14.289062 1.457031 L 13.9375 1.597656 M 27.589844 2.820312 C 24.742188 3.09375 21.726562 7.15625 21.363281 11.210938 C 20.976562 15.542969 23.789062 17.875 26.925781 15.824219 C 27.9375 15.164062 29.335938 13.65625 29.746094 12.777344 C 29.773438 12.726562 29.847656 12.585938 29.910156 12.46875 C 30.042969 12.238281 30.074219 12.171875 30.261719 11.773438 C 30.476562 11.304688 30.582031 11.054688 30.652344 10.832031 C 30.675781 10.765625 30.722656 10.632812 30.757812 10.535156 C 31.121094 9.523438 31.246094 8.84375 31.265625 7.789062 C 31.296875 5.734375 30.996094 4.679688 30.105469 3.730469 C 29.394531 2.976562 28.679688 2.71875 27.589844 2.820312 M 3.410156 7.929688 C 2.675781 8.046875 1.984375 8.515625 1.457031 9.25 C -0.742188 12.324219 0.9375 18.617188 4.632812 21.132812 C 6.042969 22.09375 7.6875 22.101562 8.703125 21.152344 C 9.800781 20.128906 10.195312 18.988281 10.195312 16.832031 C 10.195312 15.621094 10.15625 15.335938 9.796875 14.121094 C 8.664062 10.285156 5.835938 7.542969 3.410156 7.929688 M 35.863281 11.8125 C 35.847656 11.828125 35.71875 11.855469 35.574219 11.875 C 35.433594 11.898438 35.214844 11.945312 35.089844 11.988281 C 34.964844 12.027344 34.839844 12.058594 34.8125 12.058594 C 34.785156 12.058594 34.703125 12.09375 34.632812 12.136719 C 34.558594 12.175781 34.46875 12.210938 34.433594 12.210938 C 34.398438 12.210938 34.359375 12.226562 34.347656 12.246094 C 34.335938 12.261719 34.21875 12.328125 34.089844 12.390625 C 33.960938 12.453125 33.816406 12.535156 33.765625 12.570312 C 33.714844 12.605469 33.664062 12.636719 33.65625 12.636719 C 33.648438 12.636719 33.550781 12.699219 33.445312 12.773438 C 33.335938 12.847656 33.238281 12.910156 33.222656 12.910156 C 33.207031 12.910156 33.160156 12.941406 33.121094 12.984375 C 33.082031 13.027344 33.039062 13.0625 33.023438 13.0625 C 33.007812 13.0625 32.925781 13.121094 32.839844 13.195312 C 32.753906 13.273438 32.664062 13.332031 32.644531 13.332031 C 32.578125 13.332031 31.152344 14.792969 31.152344 14.859375 C 31.152344 14.867188 31.039062 15.019531 30.902344 15.203125 C 29.171875 17.496094 28.367188 20.261719 28.816406 22.378906 C 28.910156 22.820312 29.0625 23.1875 29.402344 23.800781 C 29.5625 24.089844 30.140625 24.59375 30.589844 24.835938 C 31.300781 25.21875 32.625 25.222656 33.484375 24.839844 C 33.542969 24.816406 33.636719 24.777344 33.695312 24.757812 C 34.378906 24.507812 35.433594 23.789062 36.191406 23.0625 C 38.53125 20.816406 40.027344 16.980469 39.460938 14.683594 C 39.28125 13.960938 39.199219 13.75 38.917969 13.289062 C 38.898438 13.253906 38.867188 13.199219 38.851562 13.167969 C 38.835938 13.132812 38.78125 13.066406 38.730469 13.015625 C 38.679688 12.96875 38.636719 12.914062 38.636719 12.894531 C 38.636719 12.832031 37.933594 12.210938 37.859375 12.210938 C 37.847656 12.210938 37.792969 12.179688 37.738281 12.136719 C 37.683594 12.09375 37.628906 12.058594 37.617188 12.058594 C 37.601562 12.058594 37.488281 12.019531 37.363281 11.972656 C 37.238281 11.921875 37.0625 11.875 36.976562 11.863281 C 36.886719 11.851562 36.808594 11.828125 36.800781 11.8125 C 36.78125 11.78125 35.898438 11.78125 35.863281 11.8125 M 18.394531 16.488281 C 17.417969 16.628906 16.261719 17.367188 15.238281 18.503906 C 14.621094 19.1875 14.535156 19.285156 14.378906 19.484375 C 13.949219 20.035156 12.636719 21.542969 12.40625 21.757812 C 12.308594 21.847656 12.050781 22.101562 11.832031 22.320312 C 11.261719 22.898438 10.347656 23.558594 9.667969 23.886719 C 8.160156 24.609375 7.945312 24.738281 6.992188 25.460938 C 6.457031 25.867188 5.566406 26.671875 5.21875 27.066406 C 4.605469 27.753906 4.027344 29.914062 4.164062 31 C 4.496094 33.644531 5.890625 35.496094 8.242188 36.410156 C 8.402344 36.472656 8.570312 36.539062 8.621094 36.558594 C 8.921875 36.6875 9.863281 36.9375 10.039062 36.9375 C 10.09375 36.9375 10.152344 36.953125 10.167969 36.964844 C 10.199219 36.996094 10.78125 37.078125 11.289062 37.121094 C 11.472656 37.136719 12.230469 37.179688 12.976562 37.210938 C 13.722656 37.246094 14.511719 37.285156 14.734375 37.304688 C 14.957031 37.320312 15.332031 37.34375 15.570312 37.351562 C 15.808594 37.363281 16.007812 37.382812 16.019531 37.398438 C 16.027344 37.414062 16.085938 37.425781 16.152344 37.425781 C 16.34375 37.425781 17.546875 37.570312 18.632812 37.730469 C 18.855469 37.761719 19.097656 37.789062 19.171875 37.789062 C 19.246094 37.789062 19.328125 37.800781 19.355469 37.816406 C 19.417969 37.847656 21.597656 38.1875 21.847656 38.203125 C 21.941406 38.210938 22.042969 38.226562 22.074219 38.242188 C 22.109375 38.257812 22.28125 38.289062 22.453125 38.316406 C 22.628906 38.34375 22.9375 38.390625 23.136719 38.421875 C 24.488281 38.636719 24.472656 38.636719 25.074219 38.636719 C 25.902344 38.636719 27.285156 38.425781 27.664062 38.242188 C 27.691406 38.230469 27.8125 38.1875 27.9375 38.148438 C 28.726562 37.898438 29.539062 37.34375 30.398438 36.464844 C 30.894531 35.957031 31.347656 35.007812 31.519531 34.101562 C 31.675781 33.277344 31.621094 32.210938 31.375 31.394531 C 30.894531 29.8125 30.277344 28.804688 29.003906 27.546875 C 28.1875 26.734375 27.683594 26.152344 27.210938 25.464844 C 27.1875 25.429688 27.042969 25.238281 26.894531 25.039062 C 26.59375 24.640625 26.109375 23.964844 26.015625 23.804688 C 25.980469 23.75 25.871094 23.585938 25.769531 23.4375 C 25.402344 22.898438 24.394531 21.285156 24.394531 21.230469 C 24.394531 21.222656 24.339844 21.128906 24.273438 21.019531 C 24.207031 20.910156 24.152344 20.8125 24.152344 20.804688 C 24.152344 20.792969 24.121094 20.734375 24.082031 20.671875 C 24.042969 20.613281 23.925781 20.402344 23.828125 20.210938 C 23.175781 18.976562 22.65625 18.210938 22.335938 18.007812 C 22.292969 17.980469 22.160156 17.867188 22.046875 17.761719 C 20.945312 16.753906 19.667969 16.308594 18.394531 16.488281 "/>
</g>
</svg>
