<svg xmlns="http://www.w3.org/2000/svg" width="40px" height="40px" viewBox="0 0 40 40">
    <defs>
        <linearGradient id="linear0"
                        gradientUnits="userSpaceOnUse"
                        x1="0"
                        y1="1"
                        x2="1"
                        y2="0"
                        gradientTransform="matrix(40,0,0,40,0,0)">
            <stop offset="0" style="stop-color:rgb(18.039216%,15.294118%,67.843137%);stop-opacity:1;"/>
            <stop offset="1" style="stop-color:rgb(32.156863%,49.803922%,100%);stop-opacity:1;"/>
        </linearGradient>
    </defs>
    <g id="surface1">
        <path style="stroke:none;fill-rule:evenodd;fill:url(#linear0);"
              d="M 5 0 L 35 0 C 37.761719 0 40 2.238281 40 5 L 40 35 C 40 37.761719 37.761719 40 35 40 L 5 40 C 2.238281 40 0 37.761719 0 35 L 0 5 C 0 2.238281 2.238281 0 5 0 Z M 5 0 "/>
        <path style="stroke:none;fill-rule:evenodd;fill:rgb(100%,100%,100%);fill-opacity:1;"
              d="M 15 15.5 L 17.5 15.5 L 17.5 14.5 L 15 14.5 Z M 18.332031 30.582031 L 17.410156 30.203125 L 21.203125 20.941406 L 22.128906 21.320312 Z M 22.785156 27.890625 L 25.535156 25.480469 L 22.789062 23.097656 L 23.441406 22.34375 L 26.621094 25.097656 C 26.730469 25.195312 26.792969 25.332031 26.796875 25.476562 C 26.796875 25.621094 26.734375 25.757812 26.625 25.851562 L 23.445312 28.640625 Z M 12.753906 25.523438 C 12.753906 25.378906 12.816406 25.242188 12.921875 25.148438 L 16.09375 22.34375 L 16.753906 23.09375 L 14.015625 25.515625 L 16.738281 27.863281 L 16.085938 28.621094 L 12.925781 25.898438 C 12.820312 25.804688 12.753906 25.667969 12.753906 25.523438 Z M 31.265625 17.5 L 9.234375 17.5 C 8.277344 17.5 7.5 16.722656 7.5 15.769531 L 7.5 15.5 L 13.5 15.5 L 13.5 14.5 L 7.5 14.5 L 7.5 9.230469 C 7.5 8.277344 8.277344 7.5 9.234375 7.5 L 31.265625 7.5 C 32.222656 7.5 33 8.277344 33 9.230469 L 33 14.5 L 19 14.5 L 19 15.5 L 33 15.5 L 33 15.769531 C 33 16.722656 32.222656 17.5 31.265625 17.5 Z M 11 33 L 29 33 L 29 18.5 L 11 18.5 Z M 31.265625 6.5 L 9.234375 6.5 C 7.726562 6.5 6.5 7.726562 6.5 9.230469 L 6.5 15.769531 C 6.5 17.273438 7.726562 18.5 9.234375 18.5 L 10 18.5 L 10 33.5 C 10 33.777344 10.222656 34 10.5 34 L 29.5 34 C 29.777344 34 30 33.777344 30 33.5 L 30 18.5 L 31.265625 18.5 C 32.773438 18.5 34 17.273438 34 15.769531 L 34 9.230469 C 34 7.726562 32.773438 6.5 31.265625 6.5 Z M 31.265625 6.5 "/>
    </g>
</svg>
