<?xml version="1.0" encoding="UTF-8" standalone="no"?>

<svg
        xmlns="http://www.w3.org/2000/svg"
        width="136.98447mm"
        height="136.98273mm"
        viewBox="0 0 136.98447 136.98273"
        version="1.1"
>

    <g
            transform="translate(-38.148305,-71.354092)">
        <g
                transform="matrix(0.26458333,0,0,0.26458333,77.466222,118.421)">

            <g
                    transform="matrix(3.4210391,0,0,3.4210391,-141.7838,-158.10293)">
                <path
                        d="M 31.65,109.5 8.38,86.23 C 5.62,83.4 3.91,79.4 3.91,75.49 3.91,73.68 4.93,70.85 5.7,69.23 L 27.18,24.49 Z"
                        style="fill:#01579b"/>

                <path
                        d="M 111.3,28.96 88.03,5.69 C 86,3.65 81.77,1.22 78.19,1.22 c -3.08,0 -6.1,0.62 -8.05,1.79 L 27.19,24.49 Z"
                        style="fill:#40c4ff"/>

                <polygon
                        points="35.23,113.08 59.39,137.24 115.77,137.24 115.77,113.08 73.71,99.65 "
                        style="fill:#40c4ff"/>

                <path
                        d="m 27.18,96.97 c 0,7.18 0.9,8.94 4.47,12.53 l 3.58,3.58 h 80.54 L 76.4,68.34 27.18,24.49 Z"
                        style="fill:#29b6f6"/>

                <path
                        d="M 98.77,24.48 H 27.18 l 88.59,88.59 h 24.16 V 57.59 L 111.29,28.95 c -4.02,-4.03 -7.59,-4.47 -12.52,-4.47 z"
                        style="fill:#01579b"/>

                <path
                        d="M 32.55,110.39 C 28.97,106.8 28.08,103.26 28.08,96.97 V 25.38 l -0.89,-0.89 v 72.48 c -0.01,6.29 -0.01,8.03 5.36,13.42 l 2.68,2.68 v 0 z"
                        style="opacity:0.2;fill:#ffffff"/>

                <polygon
                        points="139.04,112.18 114.88,112.18 115.77,113.08 139.93,113.08 139.93,57.59 139.04,56.7 "
                        style="opacity:0.2;fill:#263238"/>

                <path
                        d="m 111.3,28.96 c -4.44,-4.44 -8.07,-4.47 -13.42,-4.47 H 27.19 l 0.89,0.89 h 69.8 c 2.67,0 9.41,-0.45 13.42,3.58 z"
                        style="opacity:0.2;fill:#ffffff"/>

            </g>

            <path
                    transform="matrix(-0.61131215,0,0,0.61131215,244.89528,-75.221297)"
                    d="m 91.466,1.163 c -5.2,0.8 -7.3,7.1 -3.6,10.8 l 32.5,32.5 c 15.4,15.4 15.4,40.4 0,55.9 l -20,20 c -15.4,15.4 -40.4,15.4 -55.9,0 l -32.5,-32.5 c -3.7,-3.7 -10,-1.6 -10.8,3.6 -4.8,32.5 5.2,66.8 30.3,91.8 24.5,24.5 58,34.7 90,30.5 14.1,-1.9 28.2,2.9 38.2,12.9 l 242.9,242.9 c 18.5,18.5 48.4,18.4 66.9,-0.1 18.5,-18.5 18.6,-48.5 0.1,-66.9 l -242.9,-243 c -10,-10 -14.8,-24.1 -12.9,-38.2 4.2,-31.9 -6,-65.4 -30.5,-90 -25.1,-24.9 -59.4,-35 -91.8,-30.2"
                    stroke="#ffffff"
                    stroke-width="54"
                    style="fill:#dddddd"/>

            <path
                    transform="matrix(-0.61131215,0,0,0.61131215,244.89528,-75.221297)"
                    d="m 91.466,1.163 c -5.2,0.8 -7.3,7.1 -3.6,10.8 l 32.5,32.5 c 15.4,15.4 15.4,40.4 0,55.9 l -20,20 c -15.4,15.4 -40.4,15.4 -55.9,0 l -32.5,-32.5 c -3.7,-3.7 -10,-1.6 -10.8,3.6 -4.8,32.5 5.2,66.8 30.3,91.8 24.5,24.5 58,34.7 90,30.5 14.1,-1.9 28.2,2.9 38.2,12.9 l 242.9,242.9 c 18.5,18.5 48.4,18.4 66.9,-0.1 18.5,-18.5 18.6,-48.5 0.1,-66.9 l -242.9,-243 c -10,-10 -14.8,-24.1 -12.9,-38.2 4.2,-31.9 -6,-65.4 -30.5,-90 -25.1,-24.9 -59.4,-35 -91.8,-30.2"
                    stroke="#000000"
                    stroke-width="24"
                    style="fill:#dddddd"/>

        </g>
    </g>
</svg>
