<?xml version="1.0" standalone="no"?><!DOCTYPE svg PUBLIC "-//W3C//DTD SVG 1.1//EN"
        "http://www.w3.org/Graphics/SVG/1.1/DTD/svg11.dtd">
<svg t="1693879871857" class="icon" viewBox="0 0 1024 1024" version="1.1" xmlns="http://www.w3.org/2000/svg"
     p-id="15873"
     width="16" height="16">
    <path d="M191.872 959.872a128 128 0 0 1-128-128v-640a128 128 0 0 1 128-128h640a128 128 0 0 1 128 128v640a128 128 0 0 1-128 128z m-64-768v640a64 64 0 0 0 64 64h640a64 64 0 0 0 64-64v-640a64.448 64.448 0 0 0-64-64h-640a64 64 0 0 0-64 64z m295.616 568.384v-41.344a79.936 79.936 0 0 0 53.12 19.648 47.616 47.616 0 0 0 25.6-5.76 18.24 18.24 0 0 0 8.384-14.976 20.224 20.224 0 0 0-6.848-14.848 124.288 124.288 0 0 0-35.648-19.2c-30.144-12.8-45.376-31.232-45.376-55.872a48.384 48.384 0 0 1 20.608-41.728 89.6 89.6 0 0 1 54.528-15.232 128.896 128.896 0 0 1 47.616 7.616v38.4a80.512 80.512 0 0 0-45.76-13.12 48.192 48.192 0 0 0-24.384 5.504 16.64 16.64 0 0 0-9.152 14.848 20.992 20.992 0 0 0 6.4 14.144 121.088 121.088 0 0 0 30.848 16.768 104.128 104.128 0 0 1 39.872 26.112 53.184 53.184 0 0 1 10.624 33.024 49.92 49.92 0 0 1-19.648 42.496 94.784 94.784 0 0 1-56 14.656 117.056 117.056 0 0 1-54.784-10.88z m-153.984 0v-41.344a79.936 79.936 0 0 0 53.12 19.648 47.616 47.616 0 0 0 25.6-5.76 18.24 18.24 0 0 0 8.384-14.976 20.224 20.224 0 0 0-6.848-14.848 124.288 124.288 0 0 0-35.648-19.2c-30.144-12.8-45.376-31.232-45.376-55.872a48.384 48.384 0 0 1 20.608-41.728 89.6 89.6 0 0 1 54.528-15.232 128.896 128.896 0 0 1 47.616 7.616v38.4a80.512 80.512 0 0 0-45.76-13.12 48.192 48.192 0 0 0-24.384 5.504 16.64 16.64 0 0 0-9.152 14.848 20.992 20.992 0 0 0 6.4 14.144 121.088 121.088 0 0 0 30.848 16.768 104.128 104.128 0 0 1 39.872 26.112 53.184 53.184 0 0 1 10.624 33.024 49.92 49.92 0 0 1-19.648 42.496 94.784 94.784 0 0 1-56 14.656 117.056 117.056 0 0 1-54.784-10.88z m440.64 7.616V688H627.392v79.872H586.24V574.016h41.152v78.4h82.752V574.016h41.024v193.856z m-435.2-321.344l97.344-97.344L274.944 252.16l45.376-45.376L462.72 349.184 320.32 491.584z m251.008 4.736v-64h241.92v64z"
          fill="#2c2c2c" fill-opacity="0.9" p-id="15874"></path>
</svg>