<?xml version="1.0" encoding="UTF-8" standalone="no"?>
<svg width="40" height="40" viewBox="0 0 40 40" xmlns="http://www.w3.org/2000/svg">
    <defs>
        <linearGradient id="djangoGradient" x1="0%" y1="0%" x2="100%" y2="100%">
            <stop offset="0%" style="stop-color:#092E20;stop-opacity:1"/>
            <stop offset="100%" style="stop-color:#0C4B33;stop-opacity:1"/>
        </linearGradient>
        <linearGradient id="toolsGradient" x1="0%" y1="0%" x2="100%" y2="100%">
            <stop offset="0%" style="stop-color:#666666;stop-opacity:1"/>
            <stop offset="100%" style="stop-color:#999999;stop-opacity:1"/>
        </linearGradient>
    </defs>

    <!-- Background -->
    <rect x="2" y="2" width="36" height="36" rx="6" ry="6" fill="white" stroke="#EEEEEE" stroke-width="1"/>

    <!-- Django "D" -->
    <path d="M10,8 L10,32 L16,32 C22,32 26,28 26,20 C26,12 22,8 16,8 L10,8 Z" fill="url(#djangoGradient)"/>
    <path d="M16,12 C19,12 21,14 21,20 C21,26 19,28 16,28 L15,28 L15,12 L16,12 Z" fill="white"/>

    <!-- Gear icon representing tools -->
    <path d="M30,14 L32,14 L32.5,16 C32.8,16.1 33.1,16.3 33.4,16.5 L35.2,15.4 L36.6,16.8 L35.5,18.6 C35.7,18.9 35.9,19.2 36,19.5 L38,20 L38,22 L36,22.5 C35.9,22.8 35.7,23.1 35.5,23.4 L36.6,25.2 L35.2,26.6 L33.4,25.5 C33.1,25.7 32.8,25.9 32.5,26 L32,28 L30,28 L29.5,26 C29.2,25.9 28.9,25.7 28.6,25.5 L26.8,26.6 L25.4,25.2 L26.5,23.4 C26.3,23.1 26.1,22.8 26,22.5 L24,22 L24,20 L26,19.5 C26.1,19.2 26.3,18.9 26.5,18.6 L25.4,16.8 L26.8,15.4 L28.6,16.5 C28.9,16.3 29.2,16.1 29.5,16 L30,14 Z"
          fill="url(#toolsGradient)"/>
    <circle cx="31" cy="21" r="3" fill="white"/>
</svg>
