<svg xmlns="http://www.w3.org/2000/svg" width="16" height="16" style="shape-rendering:geometricPrecision; text-rendering:geometricPrecision; image-rendering:optimizeQuality; fill-rule:evenodd; clip-rule:evenodd"
     viewBox="0 0 2.52448 2.52448">

 <g id="Layer_x0020_1">
  <g id="_271389296">
   <path id="_99903056" fill="#DD5746" fill-rule="evenodd" d="M0.342609 0l1.83926 0c0.188436,0 0.342609,0.154173 0.342609,0.342609l0 1.83926c0,0.188436 -0.154173,0.342609 -0.342609,0.342609l-1.83926 0c-0.188436,0 -0.342609,-0.154173 -0.342609,-0.342609l0 -1.83926c0,-0.188436 0.154173,-0.342609 0.342609,-0.342609z"/>
   <path id="_99902984" fill="rgb(230,230,230)" fill-rule="evenodd" d="M0.855198 0.637279l0.210306 -4.17874e-006 -0.000986183 -0.578473 0.394989 0.662943 -0.394989 0.758991 0.00132048 -0.648158 -0.0393763 0c-0.168606,0 -0.306554,0.137949 -0.306552,0.306557l0 0.246213c-2.08937e-006,0.140379 0.0956305,0.259498 0.224962,0.295443 0.00485988,0.00130795 0.00844106,0.00574995 0.00844106,0.0110193 2.08937e-006,0.00197028 -0.000501449,0.00382146 -0.00138525,0.00544072l2.08937e-006 0 -0.0941554 0.180952 -4.17874e-006 -2.08937e-006c-0.00274125,0.00525059 -0.00823212,0.00884221 -0.0145587,0.00884221l-0.000248635 -4.17874e-006 -3.76087e-005 2.08937e-006 -0.000106558 -4.17874e-006 -2.92512e-005 0 -0.000422053 -1.6715e-005c-0.298245,-0.00686985 -0.540102,-0.252931 -0.540104,-0.552751l2.08937e-006 -0.14406c0,-0.304114 0.248813,-0.552931 0.552933,-0.552929zm0.814083 1.24992l-0.210306 4.17874e-006 0.000986183 0.578473 -0.394989 -0.662943 0.394989 -0.758991 -0.00132048 0.648158 0.0393763 0c0.168606,0 0.306554,-0.137949 0.306554,-0.306557l0 -0.246213c0,-0.140379 -0.0956326,-0.259498 -0.224965,-0.295443 -0.00485988,-0.00130795 -0.00844106,-0.00574995 -0.00844106,-0.0110193 -2.08937e-006,-0.00197028 0.000501449,-0.00382146 0.00138525,-0.00544072l-2.08937e-006 0 0.0941554 -0.180952 4.17874e-006 2.08937e-006c0.00274125,-0.00525059 0.00823212,-0.00884221 0.0145587,-0.00884221l0.000248635 4.17874e-006 3.76087e-005 -2.08937e-006 0.000106558 4.17874e-006 2.92512e-005 0 0.000422053 1.6715e-005c0.298245,0.00686985 0.540102,0.252931 0.540104,0.552751l-2.08937e-006 0.14406c0,0.304114 -0.248813,0.552931 -0.552933,0.552929z"/>
  </g>
 </g>
</svg>
