<?xml version="1.0" encoding="utf-8"?>
<svg width="40" height="40" viewBox="0 0 40 40" fill="none" xmlns="http://www.w3.org/2000/svg" xmlns:xlink="http://www.w3.org/1999/xlink" xmlns:bx="https://boxy-svg.com">
  <defs>
    <linearGradient gradientUnits="userSpaceOnUse" x1="19" y1="9" x2="19" y2="10.994" id="gradient-0">
      <stop offset="0" style="stop-color: rgb(3.1373% 79.216% 93.333%)"/>
      <stop offset="1" style="stop-color: rgb(0% 46.494% 56.477%)"/>
    </linearGradient>
    <linearGradient gradientUnits="userSpaceOnUse" x1="14" y1="3" x2="14" y2="5" id="gradient-1">
      <stop offset="0" style="stop-color: rgb(92.549% 16.078% 84.314%)"/>
      <stop offset="1" style="stop-color: rgb(60.605% 0% 54.988%)"/>
    </linearGradient>
    <linearGradient gradientUnits="userSpaceOnUse" x1="14" y1="19" x2="14" y2="21" id="gradient-2">
      <stop offset="0" style="stop-color: rgb(86.275% 52.941% 85.098%)"/>
      <stop offset="1" style="stop-color: rgb(56.469% 25.315% 56.109%)"/>
    </linearGradient>
    <linearGradient gradientUnits="userSpaceOnUse" x1="20.5" y1="24" x2="20.5" y2="26" id="gradient-3">
      <stop offset="0" style="stop-color: rgb(13.725% 42.745% 82.353%)"/>
      <stop offset="1" style="stop-color: rgb(0% 25.684% 56.3%)"/>
    </linearGradient>
    <linearGradient gradientUnits="userSpaceOnUse" x1="17.5" y1="29" x2="17.5" y2="31" id="gradient-4">
      <stop offset="0" style="stop-color: rgb(84.314% 50.196% 26.667%)"/>
      <stop offset="1" style="stop-color: rgb(55.487% 25.591% 1.4687%)"/>
    </linearGradient>
    <linearGradient gradientUnits="userSpaceOnUse" x1="20.5" y1="34" x2="20.5" y2="36" id="gradient-5">
      <stop offset="0" style="stop-color: rgb(40.392% 74.51% 12.941%)"/>
      <stop offset="1" style="stop-color: rgb(16.506% 44.293% 0%)"/>
    </linearGradient>
    <pattern x="0" y="0" width="25" height="25" patternUnits="userSpaceOnUse" viewBox="0 0 100 100" id="pattern-0">
      <rect x="0" y="0" width="50" height="100" style="fill: black;"/>
    </pattern>
    <pattern id="pattern-0-0" patternTransform="matrix(1, 0, 0, 1, 7.5, 2.55)" xlink:href="#pattern-0"/>
  </defs>
  <rect x="0.049" y="-0.143" width="40.118" height="40.109" style="stroke: rgb(0, 0, 0); fill: rgb(255, 255, 255); paint-order: stroke;"/>
  <rect x="-0.895" y="0.008" width="39.215" style="fill: rgb(216, 216, 216); stroke: rgb(0, 0, 0);" transform="matrix(1, 0, 0, 1, 1.170897, 13.190418)"/>
  <path style="fill: rgb(216, 216, 216); stroke: rgb(0, 0, 0);" transform="matrix(0, 0, 0, 0, 0.18700000922381887, 14.832000732421875)" d="M NaN 14.832 H NaN A NaN NaN 0 0 1 39.947 NaN V NaN A NaN NaN 0 0 1 NaN 15.921 H NaN A NaN NaN 0 0 1 0.187 NaN V NaN A NaN NaN 0 0 1 NaN 14.832 Z" bx:shape="rect 0.187 14.832 39.76 1.089 NaN NaN NaN NaN NaN NaN NaN NaN 1@f1fd8da4"/>
  <rect y="15.408" width="39.092" height="0.598" style="fill: rgb(216, 216, 216); stroke: rgb(0, 0, 0);" x="1" transform="matrix(1, 0, 0, 0, 0, 15.407999992370605)"/>
  <rect x="4" y="19" width="20" height="2" style="stroke: rgb(0, 0, 0); paint-order: stroke; fill: url('#gradient-2');"/>
  <rect x="8" y="24" width="25" height="2" style="stroke: rgb(0, 0, 0); fill: url('#gradient-3'); paint-order: stroke;"/>
  <rect x="4" y="3" width="20" height="2" style="stroke: rgb(0, 0, 0); fill-rule: nonzero; paint-order: stroke; fill: url('#gradient-1');"/>
  <rect x="4" y="9" width="30" height="1.994" style="stroke: rgb(0, 0, 0); fill: url('#gradient-0'); paint-order: stroke;"/>
  <rect x="4" y="29" width="27" height="2" style="stroke: rgb(0, 0, 0); fill: url('#gradient-4'); paint-order: stroke;"/>
  <rect x="4" y="34" width="33" height="2" style="stroke: rgb(0, 0, 0); paint-order: stroke; fill: url('#gradient-5');"/>
  <rect x="0.725" y="15.054" width="38.892" height="0.4" style="stroke: rgb(0, 0, 0); fill: rgb(212, 212, 212); paint-order: fill;" transform="matrix(1, 0, 0, 0, 0, 15.053998947143555)"/>
  <rect y="15" width="40" height="0.1" style="stroke: rgb(0, 0, 0); paint-order: fill; fill: url('#pattern-0-0');"/>
  <rect width="40" height="40" style="stroke: rgb(0, 0, 0);"/>
</svg>