<?xml version="1.0" standalone="no"?><!DOCTYPE svg PUBLIC "-//W3C//DTD SVG 1.1//EN" "http://www.w3.org/Graphics/SVG/1.1/DTD/svg11.dtd">
<svg class="icon" width="40px" height="40px" viewBox="0 0 1024 1024" version="1.1" xmlns="http://www.w3.org/2000/svg"><path d="M285.160107 193.518933c59.93472 75.1616 131.853653 127.412907 154.66496 109.213014 22.81472-18.18624-12.117333-99.93216-72.052054-175.090347C307.841707 52.48 249.480533 17.237333 226.665813 35.44064c-22.811307 18.18624-1.440427 82.93376 58.494294 158.078293M156.040533 315.040427c99.078827 45.98784 197.372587 65.536 209.65376 39.0656 12.27776-26.48064-66.082133-88.9344-165.1712-134.918827-99.068587-45.98784-153.856-47.039147-166.137173-20.575573-12.27776 26.466987 22.575787 70.44096 121.6512 116.4288M432.708267 953.705813c106.50624 133.563733 95.982933-121.86624 241.384106-237.827413 44.547413-35.519147 81.29536-66.628267 137.786027-78.277973 117.76-24.292693 238.373547-27.880107 147.37408-103.77216-68.799147-57.361067-127.546027-71.693653-214.760107-70.601387-113.9712 1.41312-185.69216 60.416-209.74592 71.133867-160.53248 71.441067-181.947733 319.16032-102.038186 419.345066" fill="#87CEFA" /><path d="M345.25184 822.360747c20.947627 26.251947 52.456107 30.573227 78.721707 9.6256 26.251947-20.933973 30.559573-59.200853 9.6256-85.4528-20.944213-26.2656-52.452693-30.573227-78.70464-9.639254-26.269013 20.944213-30.573227 59.211093-9.642667 85.466454M585.3184 319.266133c-22.38464 0-40.533333-18.14528-40.533333-40.533333 0-22.398293 18.148693-40.546987 40.533333-40.546987 22.401707 0 40.5504 18.148693 40.5504 40.5504 0 22.38464-18.148693 40.52992-40.5504 40.52992m168.37632-11.56096c-0.136533-0.826027-0.187733 0.57344-0.38912-0.22528-42.973867-167.28064-247.650987-146.558293-375.186773-57.361066a16.738987 16.738987 0 0 0-1.23904 0.935253c-94.583467 76.663467-101.86752 156.105387-41.734827 242.5856 54.121813 77.841067 146.868907 123.016533 250.74688 58.466987 114.5344-71.14752 183.002453-146.121387 167.799467-244.401494" fill="#87CEFA" /></svg>