<?xml version="1.0" encoding="UTF-8"?>
<svg id="_图层_1" data-name="图层 1" xmlns="http://www.w3.org/2000/svg" viewBox="0 0 39.43 39.74">
  <defs>
    <style>
      .cls-1 {
        fill: #0e0d0d;
      }

      .cls-1, .cls-2, .cls-3, .cls-4, .cls-5 {
        fill-rule: evenodd;
        stroke-width: 0px;
      }

      .cls-2 {
        fill: #c07cdd;
      }

      .cls-3 {
        fill: #e1546c;
      }

      .cls-4 {
        fill: #de8c83;
      }

      .cls-5 {
        fill: #f7ce84;
      }
    </style>
  </defs>
  <g id="svgg">
    <path id="path0" class="cls-2" d="M14.89,12.69c.33,1.13.31,2.35-.04,3.26l-.13.33h-.28c-.32,0-.31.02-.17-.4.08-.25.09-.33.05-.36-.03-.02-.03-.04.03-.05.05-.01.04-.02-.03-.02-.06,0-.11.01-.11.04s-.08.04-.18.04c-.12,0-.19.02-.21.06-.02.03-.05.06-.06.06-.05-.01-.28.05-.33.09-.06.05-.3.08-.27.03.01-.02.02-.04,0-.04s-.09.12-.19.26l-.18.26h-.29s-.29,0-.29,0l.08-.17.08-.17-.23-.05c-.12-.03-.24-.04-.26-.02-.02.01-.02,0,0-.03.02-.03.01-.04-.02-.03-.03.01-.05.04-.04.07,0,.03,0,.04-.03.02-.02-.01-.03-.04-.02-.06.01-.02-.02-.04-.06-.04s-.07-.02-.06-.04.02-.04,0-.04-.09.12-.18.26l-.16.26h-.22c-.12,0-.22-.02-.22-.04,0-.07.19-.42.3-.55.06-.07.1-.14.08-.15-.01-.01-.04.02-.07.06-.02.05-.07.08-.09.08s-.18.13-.35.3c-.23.24-.32.3-.41.3h-.12s.16-.16.16-.16c.09-.09.26-.24.38-.33l.23-.17-.21-.02c-.11-.01-.34-.02-.5-.03h-.29s-.35.34-.35.34c-.33.32-.35.34-.52.34h-.18l-.16.31c-.69,1.31-1.05,3.29-.79,4.39.08.35.07.34.23.23.41-.29.85-.43,3.34-1.05,3.02-.75,3.89-1.17,4.65-2.21.31-.43.68-1.21.68-1.47,0-.03-.18-.04-.56-.04h-.56l.03-.25c.03-.29.01-.3-.35-.3-.16,0-.19-.01-.17-.07.21-.72.11-1.93-.25-2.92-.15-.41-.23-.46-.12-.08M21.34,16.55c-.14.21-.14.22.03.13.09-.05.22-.12.29-.16l.13-.08h-.19c-.16,0-.2.02-.26.11M3.87,17.21c-.78.85-1.68,2.35-2.17,3.61l-.18.46.15.43c.32.94.83,2.01,1.37,2.91.3.49,1.09,1.66,1.15,1.7.06.04.1-.42.05-.59-.03-.09-.07-.25-.1-.36-.07-.25-.07-.65,0-.78l.06-.1.05.13c.2.58.42.59.24.02-.1-.31-.15-.96-.09-1.17l.04-.14.09.18c.05.1.16.27.25.39l.16.21.18-.33c.19-.36.44-.73.74-1.08.11-.13.19-.25.19-.27s.07,0,.16.02c.24.08.48.08.46-.01-.06-.17-.19-1.16-.23-1.72-.08-1.02.03-2.39.23-3.11.02-.06-.71-.2-.76-.15,0,0-.03.06-.05.11-.03.08-.04.06-.04-.13,0-.26,0-.26-.4-.28h-.22s-.05.31-.05.31c-.3,2.07-.04,3.88.69,4.71l.19.22-.21-.11c-1.06-.58-1.59-2.42-1.35-4.74l.05-.53h-.12c-.07,0-.16-.01-.2-.02-.06-.02-.13.03-.29.21M6.94,17.58c-.11.64-.02,2.43.17,3.37.11.52.06.48.34.29l.24-.17-.03-.16c-.1-.55-.02-1.89.18-2.86.12-.6.15-.54-.33-.61-.55-.08-.52-.09-.56.13M26.49,18.26c-.5.01-.5.01-.4.23.07.14.07.14.32.14.26,0,.24,0,.58-.28.08-.07.09-.12.02-.11-.03,0-.26.01-.52.02M20.59,18.45c-.75.29-1.54.48-4.08.95-3.47.65-4.46.87-5.83,1.3-2.75.86-4.28,1.89-4.98,3.35-.13.27-.26.47-.43.66-1.1,1.22-1.14,3-.11,4.88l.22.41.05-.38c.2-1.58.95-2.6,2.45-3.32.84-.4,1.58-.59,4.26-1.07,2.79-.51,3.34-.68,4.37-1.37.42-.28,1.25-.73,1.81-.97.18-.08-3.35-.08-4.28,0-2.07.17-4.27.91-6.58,2.21-.25.14-.52.29-.6.34l-.14.08.14-.13c.66-.59,2.64-1.73,3.82-2.18,2.09-.81,3.54-.95,7.07-.7l1.37.1.52-.14c.54-.14,1.21-.27,2.11-.42.7-.11,1.02-.19.8-.2-.14,0-.16-.02-.26-.22-.13-.26-.18-.28-.66-.33l-.35-.03-.12-.22-.12-.22.18.02c.1.01.3.04.45.05l.27.03-.1-.17c-.05-.1-.18-.33-.29-.53l-.19-.35.15.02c.08.01.13.01.1,0-.04-.02-.23-.35-.32-.55,0-.02.03-.02.08,0,.19.06.04-.02-.17-.09-.21-.07-.22-.08-.4-.41-.21-.37-.21-.39-.14-.39.03,0,.11-.02.17-.05.06-.03.16-.07.21-.1.29-.12-.11-.02-.5.13M34.77,22.41c0,.28.69.68.81.47.02-.03-.41-.3-.78-.51-.02,0-.03,0-.03.04M36.28,23c0,.09.02.16.03.16s.02-.07.02-.16-.01-.16-.03-.16-.02.07-.02.16M.91,23.7c-.2,1.34-.2,2.11,0,2.73.25.76.55,1.48.87,2.06.1.18.17.33.16.35-.03.03-.02.05-.56-.87-.59-.99-.57-.97-.5-.47.06.49.2,1.19.24,1.23.02.01.64.16,1.38.31.74.16,1.4.3,1.45.31.09.02.08,0-.08-.23-1.25-1.76-2.15-3.54-2.66-5.23-.21-.71-.21-.71-.29-.19M1.55,23.35c-.13,0-.23.02-.23.03,0,.08.23.88.36,1.27.5,1.44,1.3,2.8,2.46,4.16.14.16.14.15.08-.34-.02-.17-.06-.57-.07-.89l-.03-.58-.44-.66c-.56-.84-1.07-1.69-1.46-2.43-.22-.42-.33-.58-.37-.58-.04,0-.17.01-.29.02M13.67,25.45c-.17.03-.87.13-1.54.21-1.76.23-2.63.42-3.39.72-1.51.6-2.52,1.67-3,3.18-.19.6-.19.59-.06.62.06.01.18.04.26.06l.15.04v.25s.02.25.02.25l.2.05c.11.02.26.06.34.07l.13.02.07-.34c.09-.44.07-.43.5-.34l.36.08.14-.28c.66-1.34,2.1-2.23,4.05-2.51.57-.08,1.05-.17,1.23-.24.08-.03.22-.08.33-.12.18-.06.57-.62.43-.62-.02,0,0-.1.04-.22.04-.12.09-.34.1-.49s.03-.3.04-.35c.02-.1.04-.1-.4-.03M12.5,27.97c-1.47.17-3,1.12-3.76,2.35-.3.49-.32.45.16.55l.42.09.24-.19c.13-.11.32-.23.42-.28l.18-.09.73.16.73.16.21-.09c.27-.12.43-.25.63-.49.13-.17.17-.2.26-.18.16.03.19-.04.28-.59.05-.27.13-.69.19-.93.06-.24.11-.44.1-.45-.03-.03-.53-.04-.78,0"/>
    <path id="path1" class="cls-3" d="M29.57,4.04c-.5.7-.72,1.77-.76,3.75-.01.63-.01,1.14,0,1.13.13-.12.67-1.18.81-1.59.19-.55.2-.67.06-.7-.16-.03-.17-.07-.19-.67-.03-.7.06-1.41.25-2.02.04-.12-.05-.07-.17.1M29.77,5.96c0,.13,0,.18.02.11,0-.07,0-.18,0-.24s-.02,0-.02.13M24.35,6.55c.07.08.14.14.15.14s-.04-.06-.12-.14c-.07-.08-.14-.14-.15-.14s.04.06.12.14M15.96,6.65c-.51.05-1.04.2-1.04.28,0,.12.47.38.95.53.78.24,1,.26,3.56.3,1.29.02,2.51.05,2.7.08,1.62.2,2.51.72,3.14,1.85.18.33.19.33.35.35l.17.02h-.17c-.24.02-.17.09.07.09.11,0,.2,0,.2-.02,0-.35-.55-1.11-1.06-1.48-.3-.21-.29-.21-.08-.18.47.05.63-.37.26-.68-.36-.31-.84-.38-1.76-.24-.55.08-1.31.08-1.65,0-.38-.09-.72-.22-.69-.27.01-.02,0-.03-.02-.01-.02.02-.08,0-.12-.01-.67-.36-3.6-.73-4.82-.6M24.24,6.79c-.08.16-.1.18-.26.19-.11,0-.06.02.13.02.17,0,.41.04.54.08l.24.07-.08-.11c-.05-.06-.1-.11-.12-.11s-.11-.07-.2-.16l-.17-.16-.09.18M30.32,6.81c-.11.15-.25.46-.6,1.33-.55,1.33-.96,1.97-1.52,2.35-.23.15-.28.13-.14-.06.14-.19.26-.5.3-.76l.03-.18h-.24c-.22-.03-.24-.02-.26.06-.01.05-.17.31-.35.58-.41.62-.56.93-.73,1.57-.08.28-.16.6-.2.7-.03.11-.05.18-.03.16.07-.07.4-.58.4-.6,0-.13.59-.66,1.62-1.45l.37-.28h.61c.34,0,.65.03.7.04.16.06.52-.23.59-.48.07-.24-.14-1.05-.22-.84-.07.18-.41.63-.55.73-.23.17-.24.14-.09-.1.43-.67.52-1.07.5-2.04-.02-.87-.04-.94-.2-.72M15.2,7.64c.06.17.12.31.13.32.01,0,.12.08.23.17.55.41,1.18.66,2.72,1.1.04.01.06,0,.05-.02-.06-.1,1.61.47,1.96.67.12.07.22.08.97.08h.84s-.8.03-.8.03c-.44.01-.79.03-.78.03s.35.02.76.03c.4,0,1,.03,1.32.04.37.01.58,0,.56-.02-.01-.02-.22-.04-.45-.05h-.43s.42-.03.42-.03l.42-.02-.32-.32c-.6-.61-1.06-.76-3.38-1.09-2.34-.33-3.3-.6-4.16-1.14-.08-.05-.16-.09-.17-.09s.03.14.09.31M28.38,9.12c0,.16,0,.23.02.15,0-.08,0-.22,0-.3,0-.08-.02-.01-.02.15M17.53,9.73l-.84.49.12.07c.07.04.56.32,1.1.62,2.49,1.39,3.22,2.13,3.33,3.36l.02.28-.77.45c-.65.38-.77.44-.8.38-.01-.04-.03.1-.03.3,0,.66-.17,1.23-.5,1.72-.1.14-.17.26-.17.27.04.04.94-.33,1.05-.44.27-.26,1.16-1.94,1.16-2.2,0-.3,0-.32.04-.24.02.04.04.07.04.06,0-.01.06-.23.13-.5.46-1.81-.11-3.38-1.61-4.39-.28-.19-1.18-.65-1.36-.7-.05-.01-.35.14-.92.47M29.39,10.14c-.06,0-.16,0-.22,0-.06,0-.01-.02.11-.02s.17,0,.11.02M32.09,10.23c-.7.21-.86.31-1.97,1.26-1.03.88-1.3,1.05-1.83,1.19-.28.07-.35.06-.17-.04.24-.13.64-.57.98-1.11.2-.31-2.19,1.08-2.66,1.55-.09.09-.26.33-.36.54-.1.2-.26.47-.34.61-.08.14-.17.29-.2.34l-.05.09.19-.03c.87-.13,2.6-.97,4.43-2.16l.7-.45-.39.38c-1.45,1.39-3.32,2.4-4.87,2.62l-.34.05-.22.25c-.27.31-.28.31.54.14,3.94-.85,6.17-2.37,6.95-4.75.21-.65.21-.66-.39-.48M30.35,10.18c-.1,0-.28,0-.4,0-.12,0-.03-.01.19-.01.22,0,.31,0,.21.01M25.91,10.37c0,.09,0,.12.02.07,0-.05,0-.12,0-.16,0-.04-.02,0-.02.09M15.44,10.68s-.05.18-.1.39l-.1.38.16.34c.21.44.39.72.92,1.45,1,1.36,1.34,2.06,1.29,2.67,0,.11,0,.2.02.19.05-.03.04.58-.03.88-.07.31-.24.71-.43.97-.25.35-.24.35.15.12,1.31-.79,2.19-1.97,2.25-3.02,0-.09,0-.09.04.02.07.24,0-.44-.09-.78-.11-.46-.11-.47-.29-.36l-.14.09-.11-.19c-.41-.71-.97-1.24-2.34-2.22-.44-.31-.89-.65-1-.76s-.21-.18-.21-.17M13.7,11.73c-.28.87-.83,1.49-2.51,2.79-.43.33-.86.68-.97.78l-.2.17.49.02.49.02.56-.29c.76-.39,1.16-.78,1.62-1.58.3-.53.62-1.51.64-1.98.01-.29-.01-.28-.12.06M11.74,12.76c-.1.1-.17.18-.16.18s.1-.08.2-.18c.1-.1.17-.18.16-.18s-.1.08-.2.18M13.91,13.58l-.16.17.17-.16c.16-.15.19-.18.16-.18,0,0-.08.08-.17.17M8.15,13.81c-.43.22-1.06.71-1.06.83,0,.03.52.12.69.12.08,0,.13-.06.28-.31.1-.17.28-.44.4-.6s.2-.29.18-.29c-.02,0-.24.11-.5.24M30.56,14.04c-1.62,1.09-3.64,1.77-5.71,1.91l-.4.03-.22.2c-.14.13-.18.18-.12.16.32-.14,1.21-.22,2.96-.28,2.01-.07,2.74-.36,3.43-1.36.09-.13.17-.21.19-.2.02.02.02,0,0-.04-.01-.04,0-.08,0-.09.02-.01.04-.09.06-.18.01-.09.04-.18.05-.22.04-.1-.02-.08-.26.08M32.27,16.11c-.49.25-1.08.84-1.28,1.26-.2.43-.19.66.05,1.24.08.19.02.34-.12.34-.22,0-.5-.36-.55-.72l-.02-.15-.19.1c-.68.34-1.57,1.1-2.16,1.82-1.09,1.33-2.26,1.91-5.51,2.72-3,.74-4.15,1.17-5.52,2.03-3.09,1.95-4.31,5.05-3.48,8.84.04.19.09.39.1.46.04.19-.17-.32-.3-.73-.29-.92-.4-1.64-.4-2.66,0-.65,0-.76-.06-.72-.03.03-.1.04-.15.02-.08-.02-.12.01-.25.18-.19.24-.35.37-.63.49l-.21.09-.73-.16-.73-.16-.17.09c-.45.23-.85.65-1.09,1.14l-.14.28-.26-.06c-.14-.03-.28-.06-.31-.07-.12-.04.29-1.07.62-1.56.76-1.13,2.13-1.99,3.5-2.22l.35-.06-.5.02c-1.95.07-3.71.93-4.28,2.07l-.14.28-.36-.08c-.43-.09-.41-.11-.51.39-.08.38-.08,1.02-.02,2.07.05.73,2.67,2.71,4.57,3.46.58.23.66.28.26.17-1.6-.44-3-1.13-4.18-2.08-.31-.25-.5-.37-.75-.47-1.01-.41-2.01-1.15-2.58-1.91-.39-.52-.41-.61-.07-.28.37.35.63.5,1.22.74.56.22.53.24.26-.17-.26-.39-.62-1.09-.74-1.42-.06-.16-.1-.23-.16-.23-.04,0-.42-.08-.84-.17l-.77-.17-.17-.19c-.18-.2-.22-.19-.08.02.08.13.08.14,0,.12-.17-.05-1.42-.3-1.44-.29-.13.13.97,2.4,1.66,3.43,2.25,3.36,6.15,5.57,10.34,5.86,1.3.09,13.99.06,14.63-.04.6-.09.62-.09,1.29.04.57.11.98.02,1.12-.24.14-.27,0-.8-.27-.95l-.13-.08h.13c.35,0,.48.21.49.74,0,.42.02.47.23.46.54-.02.66-.76.2-1.33-.14-.17-.12-.19.07-.07.08.05.16.15.21.27.16.36.18.39.26.4.42.06.14-.85-.38-1.19-.63-.42-1.28-.39-2.43.09-.7.29-.74.29-.75,0-.02-.31.07-.41.69-.86,1.18-.85,1.68-1.75,1.43-2.58-.09-.3-.12-.32-.7-.5-1.76-.53-2.36-1.26-3.16-3.82-.57-1.84-2.43-3.05-4.88-3.2-.26-.02-.46-.03-.46-.04.1-.1,1.27-.22,1.78-.17,1.99.17,3.37,1.55,4.08,4.07.53,1.87,1.5,2.72,3.33,2.93,2.18.25,4.18-.68,4.69-2.2.02-.06.05-.06.13-.04.14.04.65.03,1.05,0q.31-.03.43.09c.42.42,1.3.09,1.44-.54.06-.25-.02-.43-.27-.61-.22-.16-.22-.23,0-.15.38.14.37-.46-.02-.77-.08-.07-.16-.17-.18-.23-.05-.23-.39-.44-.87-.52-.46-.08-.72-.03-1.72.35l-.32.12-.55-.26-.55-.26h-.7c-.41-.02-.74-.04-.8-.07-.09-.04-.09-.04-.02-.05.84-.03,1.4-.15,1.93-.4.55-.26.74-.31,1.41-.36.85-.06,1.78-.36,1.9-.61.04-.09.07-.1.29-.1.44,0,.89-.32,1.05-.77.16-.42.14-.47-.29-.86-.21-.18-.37-.35-.36-.37.06-.09.26-.03.54.18.33.25.38.26.43.12.1-.27.01-.63-.31-1.27-.3-.61-.37-.8-.43-1.29-.31-2.51-1.92-4.32-4.15-4.66-.43-.06-.45-.08-.55-.35-.09-.25-.36-.66-.64-.97l-.16-.18.07.16c.18.43.07,1.1-.28,1.8-.29.57-.31.84-.1,1.36.1.25.1.24,0,.24-.19,0-.47-.47-.48-.8,0-.24.08-.49.32-1.05.25-.58.4-1.14.38-1.48v-.25s-.22.11-.22.11M17.21,16.87s-.15.11-.32.2c-.26.14-.31.19-.44.41-.08.14-.28.4-.43.59l-.28.33.31-.26c.42-.35,1.3-1.31,1.2-1.31-.01,0-.03.02-.04.04M33.71,17.86c.21.46.08,1.13-.29,1.54-.23.25-.26.23-.12-.07.18-.39.28-.82.28-1.27s.01-.46.13-.2M21.33,19.36c.16.37.28.53.42.57,1.16.31,2.26.45,2.96.36.64-.08.65-.11.05-.11-.76,0-1.9-.28-3.4-.84-.03-.01-.05,0-.04.02M.98,20.95c0,.09,0,.12.02.07,0-.05,0-.12,0-.16,0-.04-.02,0-.02.09M35.82,21.29c.77.24,1.12,1.16.84,2.21-.1.38-.06.36-.97.36h-.79s-.3-.15-.3-.15c-.86-.42-.98-1.22-.29-1.97.43-.47.94-.62,1.51-.45M23.96,21.28s.1,0,.14,0c.04-.01,0-.02-.07-.02s-.11,0-.07.02M35.17,21.65s-.04.04-.01.04c.03,0,.05.04.06.09,0,.06.12.15.42.33.22.13.41.27.42.3s.02-.02.02-.11c0-.19-.08-.4-.2-.51-.06-.05-.07-.05-.05-.01.02.03,0,.02-.05-.04-.04-.05-.1-.08-.12-.07-.02.02-.05,0-.05-.01,0-.05-.36-.05-.44,0M15.35,22.83c.07,0,.2,0,.28,0,.08,0,.02-.02-.13-.02-.15,0-.22,0-.15.02M16.75,22.83c.33,0,.87,0,1.19,0,.32,0,.05-.01-.61-.01s-.92,0-.58.01M27.99,25.38c.5,1.19,1.71,2.08,3.34,2.43l.24.05h-.2c-1.71.12-3.34-1.06-3.5-2.52-.03-.31-.02-.3.12.04M14.41,25.33c-.35.07-.34.05-.37.44-.01.17-.06.41-.1.53-.12.33-.03.29.23-.11.12-.18.32-.46.45-.62.3-.37.32-.35-.2-.25M35.66,31.1c.08,0,.22,0,.3,0,.08,0,.01-.02-.15-.02s-.23,0-.15.02M5.94,31.44c.07.15.14.26.14.26.03-.03-.04-.38-.08-.38-.02,0-.08-.03-.12-.07-.06-.05-.04,0,.05.2M35.05,31.56c-.3.52-.9,1.03-1.57,1.34-.38.18-.39.19-.39.71,0,.99.86,1.64,2.53,1.93,1.39.24,2.38-.04,2.74-.79.24-.5.46-2.32.29-2.38-.11-.04-.33.28-.39.55-.08.38-.19.55-.38.56-.21.02-.31-.08-.3-.28v-.14s-.15.06-.15.06c-.28.1-1.06.11-1.46.02-.57-.14-1.38-.62-1.38-.82,0-.08.46-.44.78-.61l.29-.15-.25-.12-.25-.12-.14.23M32.72,33.83c-1.01.43.59,1.86,2.57,2.29,1.95.42,4.33-.4,3.41-1.17l-.12-.1-.11.17c-.57.89-2.14,1.08-3.9.46-.99-.35-1.39-.69-1.62-1.38l-.11-.32-.12.05M32.24,35.02c-.04.15.09.61.26.96.36.74.94,1.23,1.92,1.63l.15.06-.12.18c-.37.54-.25.8.37.8h.4l.03.13c.09.41.48.53.7.21.32-.48-.04-1-.67-.95-.26.02-.3,0-.24-.08.07-.11.22-.13.79-.13,1.23,0,1.99-.37,2.56-1.25.35-.54.29-.58-.51-.31l-.63.21h-.8c-1.63,0-2.73-.4-3.89-1.4-.22-.19-.29-.21-.33-.07"/>
    <path id="path2" class="cls-1" d="M19.92.17c-.15.23-.22.26-.81.32-3.46.31-6.36,1.9-7.44,4.07-.23.47-.27.63-.18.83l.06.15h.39c1.8,0,3.36,2.03,2.79,3.62-.05.14-.1.27-.11.28-.01.01-.08.11-.15.22-.17.26-.44.53-.46.45-.24-.8-.46-1.22-.81-1.58-.15-.16-.2-.23-.15-.24.12-.02.06-.09-.08-.09-.17,0-.17.02-.04.16.1.1.1.12.06.3-.02.11-.03.36-.02.58.06,1.08-.43,1.92-1.31,2.22-2.22.78-3.23,1.21-4.41,1.88-.48.27-.53.25-.46-.29.05-.38.02-.48-.11-.48-.38,0-.81.6-1.21,1.68l-.13.35-.52.47c-1.52,1.37-2.52,2.66-3.35,4.29-.24.47-.25.48-.27.36-.07-.38-.11-1.15-.09-1.66.02-.63,0-.64-.15,0-.2.8-.27,1.32-.28,2.32-.02.9-.02.97-.13,1.33-.44,1.49-.63,3.51-.48,5.14.6,6.66,6.22,12.09,13.07,12.64,1.08.09,17.44.04,17.76-.05.92-.26,1.33-.74,1.33-1.56,0-1.09-.76-1.7-2.09-1.69-.3,0-.56,0-.59,0-.03,0,.07-.13.22-.29.62-.64.92-1.31.95-2.07.02-.48-.04-.44.71-.48.34-.02.71-.04.84-.06.29-.05.29-.04.08.11-.35.24-.52.64-.62,1.36-.15,1.2.58,2.38,1.94,3.11.12.06.12.07.09.24-.11.59.23.97.85.94l.31-.02.04.13c.37,1.13,1.88.42,1.55-.73l-.04-.13.21-.05c1.16-.27,1.99-.87,2.45-1.74.39-.75.43-1.36.13-1.8l-.17-.25.1-.62c.25-1.48,0-2.52-.82-3.41l-.11-.12.09-.45c.12-.64.06-.99-.24-1.37-.09-.11-.2-.28-.24-.37-.39-.78-1.64-.97-2.89-.44l-.39.16-.14-.07c-.38-.2-.14-.31.87-.39.89-.07,1.31-.19,2.04-.57.17-.09.35-.16.39-.16.46,0,1.17-.73,1.25-1.3.01-.08.07-.25.13-.37.26-.52.24-.98-.07-1.73-.3-.73-.36-.94-.41-1.37-.31-2.89-1.9-4.6-4.7-5.03-.14-.02-.16-.05-.29-.3-.27-.51-.88-.96-1.3-.97-.47,0-1.29.61-1.82,1.36-.35.5-.42.28-.08-.24.63-.97,1.18-2.35,1.33-3.37.02-.16.08-.23.47-.64.57-.59.86-1.16.86-1.66,0-.22-.15-.22-.26,0-.1.19-.1.11,0-.2.15-.47.27-1.07.27-1.45,0-.5-.03-.52-.42-.19-.16.14-.42.32-.58.42l-.28.17-.1-.52c-.06-.29-.21-.87-.33-1.3-.35-1.2-.33-1.95.08-2.35.18-.18.18-.23-.04-.26-.37-.06-.67.07-.84.37l-.11.18-.06-.14c-.19-.44-.08-1.39.23-2.09.21-.47.24-.59.14-.69-.27-.3-1.22.19-1.57.81l-.11.19-.17-.19c-.11-.12-.23-.32-.31-.52-.18-.43-.24-.49-.38-.34-.12.13-.15.11-.26-.18-.11-.27-.26-.5-.49-.71-.23-.22-.24-.22-.2.09l.03.26-.47-.29c-1.13-.7-2.17-1.12-3.56-1.44-.33-.07-.7-.18-.82-.24-.25-.11-.31-.12-.44-.05-.19.1-.98-.04-1.38-.25-.36-.19-.62-.18-.75.03M20.8.99c.39.16.46.17,1.16.24,1.1.1,1.35.24,1.77.94.07.13.15.23.16.23.03,0-.09-.46-.17-.67-.09-.23.38.04.69.4.41.48.48.53.45.32-.04-.28-.05-.41-.03-.41.03,0,.73.44.94.59.3.22.55.45.74.66q.22.26.3,0c.11-.38.23-.29.26.19.04.47.15.51.29.11.1-.26.12-.27.3-.1.12.11.19.14.31.14.17,0,.17,0,.35.48.05.14.16.4.24.57l.14.31-.07.28c-.16.67-.19,1.03-.22,2.7-.04,1.91-.06,2.06-.39,2.5-.12.16-.05.17.17.02.56-.37.98-1.01,1.53-2.36.72-1.76.78-1.8.8-.54.01.98-.08,1.33-.5,1.99-.16.25-.14.27.09.1.14-.1.48-.56.55-.73.08-.2.29.61.22.84-.11.36-.81.76-2.34,1.33-1.21.45-1.35.54-1.72,1.09-.28.41-.28.41-.22.19.03-.11.12-.42.2-.7.17-.63.32-.96.69-1.52.3-.45.41-.67.45-.89.04-.19-.02-.16-.33.19-.16.17-.31.32-.34.32-.15,0-.08-.49.15-1,.28-.64.23-.95-.1-.6-.31.32-.39.07-.2-.62.16-.57.07-.83-.13-.38-.44.99-.4.97-.82.29-.47-.75-.5-.82-.55-1.37-.06-.66-.16-.9-.22-.51-.1.72-.26.73-.3.02-.04-.55-.14-.69-.21-.27-.06.34-.07.38-.14.38-.09,0-.22-.24-.3-.56-.09-.35-.14-.47-.22-.52-.1-.06-.12-.01-.12.33,0,.23-.01.31-.05.3-.1-.03-.27-.38-.3-.59-.06-.44-.34-.45-.39-.01-.01.1-.03.18-.04.18s-.18-.08-.38-.18c-2.39-1.2-5.94-1.41-7.07-.42l-.1.09.18-.09c2.21-1.08,6.97.4,8.82,2.74l.13.16-.25-.08c-.37-.12-1.05-.08-1.86.09-.63.13-1.56.19-1.89.11-.07-.02-.03.01.1.07.54.25,1.35.32,2.25.19.92-.13,1.4-.07,1.76.24.37.32.21.74-.26.68-.22-.02-.22-.03.08.18.69.49,1.14,1.28,1.08,1.87-.26,2.43-1.96,4.76-4.45,6.11l-.32.17.08-.12c2.38-3.64,1.53-6.21-2.45-7.39-.42-.12-.65-.14-.28-.02.25.08,1,.47,1.32.68,2.11,1.42,2.32,3.84.58,6.77-.3.51-.39.58-.93.77-.54.19-.51.2-.3-.12.34-.51.5-1.07.49-1.78,0-.4-.06-.82-.07-.57-.06,1.05-.94,2.23-2.25,3.02-.39.24-.4.23-.15-.12.32-.44.49-.99.49-1.57,0-.36-.02-.35-.18.03-.29.7-1.25,1.7-2.23,2.31-.83.52-1.48.75-3.66,1.3-2.57.64-2.99.78-3.4,1.07-.16.11-.15.12-.22-.19-.24-1.06.01-2.77.6-4.06.6-1.32,1.19-2.1,2.88-3.78,1.03-1.02,1.24-1.26,1.38-1.51.17-.29.47-1.04.51-1.27.08-.4.46.64.46,1.25,0,.93-.54,2.21-1.29,3.03l-.2.22.28-.17c2.27-1.39,3.18-3.39,2.79-6.12-.22-1.55-1.12-2.6-2.6-3.04-.64-.19-.67-.33-.21-.92.25-.32.4-.44,1.3-1.04,1.64-1.09,3.21-1.65,4.1-1.44.4.09.39-.09,0-.23-.27-.09-.99-.09-1.49,0-.46.09-.47.08-.13-.14.99-.66,2.76-.79,3.8-.29.55.27.56.26.37-.11-.23-.43-.19-.47.27-.28M30.1,3.81c.03.11.02.13-.12.66-.14.51-.19.93-.19,1.67,0,.91-.34,1.89-.94,2.72-.23.32.04-3.15.31-4,.25-.77.83-1.44.93-1.05M32.6,10.26c-.11.71-.76,1.88-1.47,2.64-1.05,1.11-2.99,2-5.6,2.56-.82.18-.8.18-.54-.14l.22-.25.34-.05c1.55-.22,3.42-1.23,4.87-2.62l.39-.38-.7.45c-1.82,1.19-3.56,2.03-4.43,2.16l-.19.03.05-.09c.03-.05.12-.21.2-.34.08-.14.24-.41.34-.61.1-.2.26-.44.36-.54.47-.47,2.86-1.86,2.66-1.55-.34.54-.74.98-.98,1.11-.18.09-.11.11.17.04.53-.14.8-.31,1.83-1.19,1.11-.95,1.27-1.05,1.97-1.26.5-.15.54-.15.51.04M9.82,13.52c-1.19,1.82-1.88,3.57-2.14,5.44-.05.39-.07,1.7-.02,1.95l.03.16-.24.17c-.27.19-.24.23-.35-.39-.16-.89-.18-1.12-.18-2.17,0-1.14.04-1.5.27-2.2.15-.47.13-.5-.08-.07-.72,1.47-.95,4.5-.46,6.04.03.09-.22.1-.46.01-.09-.03-.16-.04-.16-.02s-.09.14-.19.27c-.3.36-.54.72-.74,1.08l-.18.33-.16-.21c-.09-.12-.2-.29-.25-.39l-.09-.18-.04.14c-.06.21,0,.86.09,1.17.18.58-.03.57-.24-.02l-.05-.13-.06.1c-.07.13-.07.52,0,.78.03.11.08.27.1.36.05.18.02.63-.05.59-.06-.04-.85-1.2-1.15-1.7-.54-.9-1.05-1.97-1.37-2.91l-.15-.43.18-.46c.59-1.5,1.79-3.36,2.75-4.27l.15-.14-.02.12c-.51,2.65,0,5.11,1.21,5.77l.21.11-.19-.22c-.84-.96-1.02-2.83-.56-5.63.22-1.34.66-2.7.97-2.98.21-.19.26.48.09,1.02-.24.74-.45,1.83-.5,2.68-.02.4-.02.39.16-.38.33-1.4,1.15-2.58,2.16-3.08.65-.32,1.99-.88,2.03-.84,0,0-.14.24-.32.52M30.82,13.96s-.05.19-.08.33c-.55,2.42-2.44,4.95-4.74,6.34-.96.58-1.15.63-2.6.65-1.41.03-1.47.05-.66.27.27.07.5.15.52.17.05.05-.8.23-2.24.46-.36.06-.93.18-1.27.26l-.61.16-1.4-.1c-3.18-.22-4.32-.15-6.15.4-1.47.45-3.79,1.67-4.69,2.48l-.14.13.14-.08c.08-.04.35-.19.6-.34,2.24-1.27,4.27-1.96,6.39-2.2.87-.1,4.7-.12,4.5-.03-1.11.54-1.41.7-1.85.99-1.01.67-1.62.87-4.07,1.31-3.08.56-3.78.73-4.67,1.18-1.39.7-2.11,1.67-2.32,3.19l-.07.47-.21-.37c-1.05-1.91-1.02-3.69.09-4.92.17-.19.3-.39.43-.66.69-1.46,2.22-2.49,4.98-3.35,1.32-.41,2.43-.66,5.61-1.26,2.45-.46,2.83-.54,3.45-.72,1.55-.45,3.09-1.32,4.4-2.48l.3-.27.4-.03c2.08-.14,4.08-.81,5.71-1.91.24-.16.29-.18.26-.08M32.41,16.88c-.05.21-.19.59-.3.84-.24.56-.32.82-.32,1.05,0,.32.28.8.48.8.1,0,.1,0,0-.24-.21-.52-.19-.78.1-1.36.35-.7.46-1.38.28-1.8l-.07-.16.16.18c.28.31.55.72.64.97.1.27.12.28.55.35,2.23.34,3.85,2.15,4.15,4.66.06.48.12.68.43,1.29.32.64.41,1,.31,1.27-.05.14-.11.13-.43-.12-.28-.21-.48-.28-.54-.18-.01.02.15.18.36.37.43.38.45.44.29.86-.17.44-.61.77-1.05.77-.22,0-.24,0-.29.1-.12.26-1.05.56-1.9.61-.67.04-.86.09-1.41.36-.54.26-1.09.37-1.93.4-.07,0-.07,0,.02.05.06.03.39.05.8.06h.7s.55.27.55.27l.55.26.32-.12c1-.38,1.26-.43,1.72-.35.48.08.82.29.87.52.01.06.09.16.18.23.38.31.4.9.02.77-.23-.08-.23,0,0,.15.25.17.33.35.27.61-.14.63-1.02.96-1.44.54q-.12-.12-.43-.09c-.4.04-.91.05-1.05,0-.09-.02-.12-.02-.13.04-.52,1.52-2.51,2.46-4.69,2.2-1.84-.21-2.81-1.07-3.33-2.93-.71-2.51-2.09-3.89-4.08-4.07-.51-.04-1.68.07-1.78.17,0,0,.2.03.46.04,2.45.15,4.31,1.36,4.88,3.2.8,2.57,1.4,3.29,3.16,3.82.58.18.61.19.7.5.25.84-.25,1.74-1.43,2.58-.62.44-.7.55-.69.86.02.3.06.3.75,0,1.15-.48,1.8-.5,2.43-.09.51.34.8,1.25.38,1.19-.08-.01-.1-.04-.26-.4-.05-.12-.13-.22-.21-.27-.19-.12-.21-.1-.07.07.46.57.34,1.31-.2,1.33-.21,0-.23-.04-.23-.46,0-.54-.14-.74-.49-.74h-.13s.13.08.13.08c.26.16.41.68.27.95-.14.26-.55.35-1.12.24-.67-.13-.69-.13-1.29-.04-.64.1-13.33.13-14.63.04-6.41-.45-11.72-5.3-12.49-11.43-.02-.2-.05-.41-.06-.47-.03-.19.04-.09.52.71.61,1.02.67,1.09.28.29-.9-1.82-1.02-2.55-.72-4.55q.08-.52.29.21c.59,2,1.57,3.81,3.23,5.97.08.11.2.36.29.6.18.51.53,1.21.84,1.68.27.42.3.4-.26.18-.59-.24-.85-.39-1.22-.74-.35-.32-.33-.24.07.28.58.76,1.57,1.5,2.58,1.91.25.1.44.22.75.47,1.18.95,2.58,1.64,4.18,2.08.4.11.32.05-.26-.17-2.66-1.04-4.77-2.99-5.72-5.28-.18-.44-.18-.58,0-1.15.79-2.49,2.35-3.52,6.08-4.02,1.36-.18,2.3-.31,2.7-.38.44-.07.43-.08.17.24-.27.32-.59.81-.82,1.23-.22.4-.51.52-1.77.7-1.43.21-2.4.59-3.18,1.26-.18.16-.51.53-.37.43.58-.45.87-.59,1.75-.86.98-.31,1.32-.36,2.25-.36.42,0,.77,0,.78.02.01.01-.02.19-.08.4-.5,1.94-.37,4.06.36,5.65.07.16.08.2-.06-.44-.83-3.8.39-6.9,3.48-8.84,1.36-.86,2.52-1.28,5.52-2.03,3.25-.81,4.42-1.38,5.51-2.72.59-.73,1.49-1.48,2.16-1.82l.19-.1.02.15c.05.36.32.72.55.72.14,0,.2-.15.12-.34-.24-.57-.25-.81-.05-1.24.2-.43.8-1.01,1.28-1.26l.21-.11v.25c.02.17,0,.38-.08.64M33.58,18.06c0,.45-.09.88-.28,1.27-.14.3-.11.31.12.07.38-.41.5-1.07.29-1.54-.12-.26-.13-.24-.13.2M1.22,21.53c.35,1.22,1.21,2.91,2.36,4.65l.54.82.03.58c.02.32.05.72.07.89.07.58.11.59-.49-.16-1.73-2.12-2.8-5.1-2.77-7.69v-.26s.07.4.07.4c.04.22.12.57.18.78M35.03,21.26c-.24.08-.41.17-.6.35l-.17.16.1.12c.09.11.1.15.08.31-.06.48.21.73,1.04.99.37.11.66,0,.75-.28.06-.18.1-.05.09.31v.39s-.23-.09-.23-.09c-.12-.05-.39-.12-.6-.15-.86-.14-1.33-.5-1.42-1.09l-.03-.18-.07.15c-.25.57,0,1.13.64,1.45l.3.15h.79c.9,0,.86.02.97-.36.38-1.41-.49-2.59-1.63-2.23M35.81,21.73c.62.47.01,1.49-.68,1.13-.34-.18-.56-1-.32-1.18.16-.12.82-.09,1,.05M27.87,25.34c.16,1.47,1.79,2.65,3.5,2.54h.2s-.24-.06-.24-.06c-1.63-.35-2.85-1.24-3.34-2.43-.14-.34-.15-.34-.12-.04M38.41,31.53c.25.51.32.86.29,1.51-.07,1.92-.64,2.6-2.16,2.59-2.02-.02-3.44-.84-3.45-2.01,0-.52,0-.54.39-.71.68-.31,1.27-.83,1.57-1.35.26-.47.25-.46.74-.46.39,0,.46.01.74.13.48.2.76.15,1.2-.23l.2-.17.15.17c.08.09.23.33.33.53M33.14,34.55c.62,1,3.53,1.65,4.71,1.05.21-.1.49-.37.63-.58l.11-.17.12.1c.93.78-1.46,1.6-3.41,1.17-1.98-.43-3.58-1.86-2.57-2.29l.12-.05.11.32c.06.17.14.38.19.45M32.57,35.09c1.16,1,2.26,1.4,3.89,1.4h.8s.63-.21.63-.21c.8-.27.86-.23.51.31-.57.88-1.34,1.25-2.56,1.25-.57,0-.72.02-.79.13-.06.09-.03.1.24.08.63-.05.99.47.67.95-.21.32-.61.2-.7-.21l-.03-.13h-.4c-.62,0-.74-.26-.37-.8l.12-.18-.15-.06c-1.2-.48-1.91-1.22-2.14-2.22-.11-.48-.03-.57.29-.29"/>
    <path id="path3" class="cls-5" d="M20.37.92s.07.18.16.35c.21.39.18.4-.42.11-.9-.44-2.42-.38-3.46.14-.32.16-.65.39-.48.34.56-.16,1.39-.19,1.78-.06.51.16.46.34-.07.24-1.32-.25-4.87,1.57-5.53,2.84-.16.31-.11.38.43.54.98.3,1.69.84,2.16,1.64.27.45,1.2.89,2.41,1.14.49.1.58.1.69,0l.09-.08,1.01.11c2.86.3,4.17.82,4.73,1.87.11.21.08.23.41-.15.32-.37.32-.35-.12-.8-1.02-1.04-2.06-1.31-5.25-1.37-1.94-.04-2.19-.06-2.92-.27-.62-.18-1.19-.51-1.03-.61.64-.41,3.55-.31,5.27.2,1.01.29,1.35.3,2.57.07.4-.08.88-.15,1.05-.17l.31-.02.08-.18.08-.18.15.14c.26.25.23.15-.04-.12-2.11-2.15-6.36-3.34-8.43-2.36-.33.16-.34.16-.21.04,1.23-1.07,4.68-.89,7.2.38l.36.18v-.17c0-.2.09-.3.25-.3.12,0,.13.03.17.3.07.46.3.71.3.32,0-.57.23-.5.38.1.16.67.33.8.41.31.08-.49.21-.38.24.2.03.63.16.68.26.1.1-.54.2-.41.27.37.06.62.04.56.51,1.32.35.55.36.57.43.55.03-.01.15-.23.25-.47.25-.6.3-.65.38-.46.03.07.02.19-.08.55-.2.74-.14.9.2.57.2-.19.21-.2.26-.12.09.12.05.3-.24.97-.13.31-.19.77-.09.77.23,0,.66-.76.86-1.53.21-.79.26-2.66.1-3.62-.07-.45-.08-.42.01-.42.07,0,.07-.01-.02-.25-.11-.28-.14-.31-.33-.31-.09,0-.17-.04-.28-.14l-.15-.14-.09.23c-.17.44-.31.42-.32-.05,0-.47-.13-.59-.24-.24-.08.26-.11.26-.34,0-.24-.29-.64-.6-1.18-.94-.51-.32-.48-.32-.45-.03.04.32-.02.33-.25.05-.38-.46-.94-.88-.87-.66.01.04.06.2.11.36.13.44.06.44-.19.01-.37-.62-.62-.74-1.83-.86-.47-.05-.68-.09-.91-.18-.39-.15-.53-.18-.53-.13M29.89,3.77c-.1.07-.22.44-.31.93-.08.49-.09.48.09.48h.15l.05-.29c.03-.16.09-.45.15-.65.13-.46.09-.63-.13-.48M15.49,9.45s.03.21.03.37v.3l.31.3c.17.17.44.39.61.51l.3.2.35-.2c.42-.25.42-.21.04-.42-.45-.26-1.08-.66-1.3-.85-.35-.29-.36-.29-.33-.21M14.23,13.3c-.05.06-.07.15-.08.39,0,.52-.18.91-.74,1.7-.31.44-.3.42-.16.4.07,0,.14-.03.17-.05.05-.04.29-.1.33-.08.01,0,.04-.02.06-.06.03-.05.09-.07.22-.07.1,0,.18-.02.18-.04s.04-.04.1-.04c.09,0,.11-.03.18-.27.17-.59.19-1.36.04-1.36-.02,0-.03-.02-.01-.04.01-.02,0-.04-.01-.04s-.04-.02-.04-.05c-.02-.18-.04-.23-.08-.28-.03-.03-.04-.08-.03-.1.05-.08-.05-.08-.12,0M13.43,14.04c-.09.08-.39.29-.67.48-.52.35-.67.49-.99.99-.15.22-.15.24-.07.25.05,0,.07.03.06.05-.01.02,0,.05.02.06.02.01.04,0,.03-.02,0-.03.01-.06.04-.07.03-.01.05,0,.03.02-.01.02,0,.04.04.04.04,0,.15.02.25.03l.18.03.1-.17c.15-.27.68-1.09.95-1.47.27-.38.27-.42.03-.2M28.23,17.3c-.49.18-1.02.21-2.08.11-.85-.08-.8-.11-.83.39l-.02.38.36.05c.83.11,1.64.02,2.3-.25l.31-.13.09-.28c.13-.39.14-.37-.13-.28M34.84,21.69c-.24.19-.02.56.25.42.15-.07.18-.39.05-.43-.04-.01-.1-.03-.13-.05-.04-.02-.11,0-.17.06M34.14,21.97c-.32.57.3,1.21,1.35,1.39.25.04.53.11.62.15l.16.07v-.36s.02-.36.02-.36l-.11.16c-.22.3-.28.32-.68.19-.84-.26-1.06-.44-1.07-.92,0-.21-.03-.32-.08-.39-.1-.13-.1-.13-.21.06M38.07,31.27c-.19.14-.53.2-1.23.2-.93,0-1.38.14-1.99.64-.3.24-.3.23-.03.47.61.55,1.91.82,2.63.56l.16-.06v.14c-.03.19.07.29.28.28.18-.02.3-.18.38-.56.04-.17.09-.29.18-.4.23-.27.21-.48-.1-1.06-.16-.3-.15-.29-.29-.19"/>
    <path id="path4" class="cls-4" d="M18.32,3.62c.1,0,.27,0,.38,0,.1,0,.02-.01-.19-.01s-.29,0-.19.01M28.17,4.22s.03.19.06.39c.1.57.12,2.12.04,2.76-.08.71-.17,1.05-.49,1.83-.02.04,0,.04.06-.02.1-.09.15-.02.11.18l-.02.12h.22c.18,0,.22-.01.22-.07,0-.04.02-.79.04-1.66.04-1.59.06-1.88.22-2.5l.07-.27-.14-.29c-.08-.16-.16-.33-.18-.39-.04-.1-.21-.16-.2-.08M24.08,4.97c0,.22-.02.28-.06.26-.04-.02-.04-.02,0,.02.08.08.09.03.08-.29v-.29s-.02.29-.02.29M29.48,5.69c0,.46.04.86.08.9,0,0,.07.03.13.04l.12.03-.02-.39c-.01-.21-.01-.55,0-.74l.03-.35h-.34v.51M20.43,7.79c1.92.15,2.93.52,3.74,1.35.44.45.44.43.12.8-.33.38-.3.37-.41.15-.56-1.05-1.87-1.57-4.73-1.87l-1.01-.11-.09.08s-.13.09-.19.09c-.18,0,.21.08,1.47.26,2.45.35,2.87.49,3.48,1.11l.32.32-.42.02-.42.02h.43c.23.01.44.03.45.05.02.03-.29.03-1.94-.01l-.59-.02.32.22c1.86,1.27,2.1,3.43.64,5.84l-.22.36.24-.02c.51-.04,1.88-1.14,2.62-2.09.95-1.22,1.57-2.66,1.64-3.83l.02-.37h-.2c-.25,0-.31-.07-.08-.09l.17-.02h-.16c-.16-.01-.17-.02-.35-.35-.71-1.27-1.72-1.78-3.74-1.9-.6-.03-1.51-.05-1.11-.01M15.35,8.09c.02.07.06.39.09.72l.07.59.22.18c.25.21.96.68,1.4.93.38.21.38.18-.04.42l-.35.2-.3-.2c-.16-.11-.44-.34-.61-.51l-.31-.3v-.33c-.01-.25-.02-.19-.04.26l-.03.6.2.19c.11.11.56.45,1,.76,1.38.98,1.93,1.51,2.35,2.22l.11.19.14-.09c.11-.07.15-.08.17-.03.06.1.19.73.22,1.07.04.54-.03.53.85.03l.77-.45-.02-.28c-.1-1.22-.89-2.01-3.32-3.35-.44-.24-.9-.5-1.02-.57l-.21-.13.83-.48c.45-.26.82-.48.82-.49,0,0-.29-.09-.62-.19-.99-.29-1.68-.59-2.15-.94-.26-.19-.25-.19-.22-.03M20.88,9.98c.22,0,.59,0,.82,0,.22,0,.04-.01-.41-.01s-.63,0-.41.01M29.17,10.14c.06,0,.16,0,.22,0,.06,0,.01-.02-.11-.02s-.17,0-.11.02M29.95,10.18c.12,0,.29,0,.4,0,.1,0,0-.01-.21-.01-.22,0-.3,0-.19.01M13.4,10.23s-.08.22-.15.42c-.32.93-.46,1.12-1.59,2.21-1.33,1.28-2.7,2.94-2.7,3.26,0,.14.35.02.56-.19.34-.35.95-.86,1.73-1.47,1.63-1.26,2.17-1.87,2.47-2.78l.11-.34-.06-.29c-.07-.34-.32-.91-.36-.82M28.59,10.51c-.84.64-1.2.94-1.41,1.19l-.22.26.2-.19c.26-.24.38-.3,1.34-.65.83-.31,1.89-.79,1.84-.84-.02-.02-.33-.04-.69-.05l-.66-.02-.39.3M15.18,11.66c-.04.1-.13.3-.2.45l-.13.26.14.37c.37.99.48,2.22.27,2.95-.02.06,0,.07.17.07.37,0,.38.01.35.3l-.03.25h1.12l-.03.13c-.02.07-.08.28-.15.47l-.13.34.31-.18c.35-.2.45-.32.63-.78.29-.73.02-1.42-1.18-3.06-.54-.74-.7-.98-.91-1.42l-.17-.35-.07.19M14.71,12.61c-.18.29-.74.96-.93,1.11-.1.08-.17.15-.16.16,0,0-.09.17-.22.36-.5.72-.91,1.39-1.08,1.77l-.1.23h.29s.29,0,.29,0l.42-.58c.76-1.05.92-1.41.94-1.97,0-.23.02-.33.08-.39.07-.08.17-.07.12,0-.01.02,0,.07.03.1.05.05.06.1.08.28,0,.03.02.05.04.05s.02.02.01.04c-.01.02,0,.04.01.04.2,0,.13.85-.17,1.81-.1.33-.18.61-.18.63s.12.03.28.03h.28l.13-.33c.35-.91.37-2.12.05-3.25l-.07-.26-.1.17M9.54,13.23c-.31.12-.62.24-.7.28-.16.07-.45.43-.77.95l-.19.31-.22-.02c-.12-.01-.3-.03-.4-.05l-.18-.02-.19.25c-.47.64-1.02,1.97-1.02,2.47,0,.05.74.17.78.13.01-.01.08-.18.14-.37.13-.4.44-1.06.51-1.1.06-.04.06-.02-.04.22-.07.17-.27.97-.27,1.07,0,.01.18.05.41.07.22.03.44.06.49.08.07.03.1-.03.28-.59.41-1.25,1.1-2.63,1.8-3.62.23-.32.24-.32-.41-.07M6.17,13.7c-.34.46-.7,1.58-.9,2.8-.05.28-.09.55-.1.6-.01.07,0,.08.11.08.07,0,.22,0,.33.02l.2.02v-.16c.06-.7.25-1.69.48-2.41.21-.66.13-1.27-.11-.94M30.54,14.63c-.64,1.01-1.44,1.34-3.46,1.41-1.37.05-2.1.1-2.53.18-.46.08-.43.07-.77.36-.61.51-1.27.94-2.14,1.39-.3.16-.53.29-.5.3.03,0-.02.04-.1.07-.09.03-.18.07-.2.09-.02.02-.07.03-.11.03-.1,0-.09.01.12.39l.19.33.82.3c1.6.58,2.11.7,2.94.7.6,0,.56.04-.13.11-.57.06-1.19,0-2.34-.22-.49-.1-.9-.17-.9-.17,0,0,.11.23.26.51.15.27.25.5.23.51-.02,0-.21,0-.41-.03-.45-.06-.44-.07-.29.19l.12.2.35.03c.19.01.39.04.44.06.06.03.09.02.11-.02.02-.05.16-.06.77-.06,1.68,0,2.08-.1,3.13-.75,2.04-1.26,3.65-3.3,4.42-5.6.16-.49.17-.57,0-.31M21.22,14.85c0,.08,0,.11.02.07,0-.04,0-.1,0-.14-.01-.04-.02,0-.02.07M12.14,14.91c-.08.05-.35.21-.62.34-.54.28-.87.5-1.13.77l-.18.18h.12c.09,0,.17-.05.34-.22.42-.42.75-.67.49-.36-.11.13-.3.48-.3.55,0,.02.09.04.21.04h.21l.3-.45c.16-.25.39-.56.5-.7.11-.14.2-.25.19-.25,0,0-.07.05-.15.1M4.22,16.8c-.18.2-.29.33-.23.28.08-.07.13-.08.3-.06l.21.02.03-.23c.01-.13.04-.26.05-.3.03-.12,0-.09-.35.3M28.45,17.26c0,.45-.26.68-.99.87-.24.06-.4.13-.46.19-.25.26-.34.31-.6.31h-.25l-.07-.18c-.08-.19-.08-.19-.55-.24l-.23-.03.02-.38c.03-.5-.02-.47.83-.39,1.06.1,1.59.07,2.08-.11.19-.07.22-.07.22-.04M15.82,18.28l-.16.17.17-.16c.16-.15.19-.18.16-.18,0,0-.08.08-.17.17M.99,20.85c.04.85.23,2.33.32,2.47.02.04.31.05.49.01l.12-.02-.2-.44c-.35-.77-.58-1.54-.72-2.33,0-.05,0,.09,0,.32M22.24,21.43c0,.24.44.56.54.4.01-.02.06-.03.1-.02.04.01.08,0,.1-.01.01-.02.07-.03.14-.03.13,0,.2-.04.11-.07-.13-.05-.99-.28-.99-.27M35.21,21.95c0,.16-.22.25-.35.15l-.11-.08.02.17c.02.17.02.18.45.43l.43.26.13-.08c.12-.08.26-.29.26-.4,0-.11-.83-.56-.83-.45M1.09,28.75s.28,1.03.29,1.04c0,0,.31.07.69.15.37.08.71.15.75.17.07.02.07.02,0-.12-.13-.22-.1-.23.08-.02l.17.19.82.18c.45.1.82.17.83.17.05-.04-.2-.53-.4-.8l-.25-.32-1.48-.32c-.82-.17-1.48-.31-1.48-.31M5.54,30.3c0,.28.33,1.01.46,1.01.03,0,.06.09.08.21.03.22.16.46.53.99q.28.4.22-.02c-.03-.2-.05-.64-.05-.97,0-.59,0-.61-.09-.63-.05-.01-.2-.04-.33-.07l-.24-.05v-.25s-.02-.25-.02-.25l-.15-.04c-.41-.1-.41-.11-.41.06M8.35,31.04c-.15.38-.23.71-.17.72.03,0,.16.04.31.07l.26.06.14-.28c.08-.16.2-.36.28-.46.08-.1.14-.18.13-.19-.02-.02-.74-.17-.8-.17-.03,0-.1.11-.16.25M37.76,30.99c-.4.37-.77.44-1.21.25-.36-.16-1.1-.19-1.24-.05-.14.13-.13.15.14.27l.24.1-.28.15c-.28.15-.67.42-.76.55-.03.04.06-.03.21-.14.62-.5.95-.61,2.01-.64,1.18-.04,1.45-.15,1.21-.47-.07-.09-.12-.16-.13-.16,0,0-.09.07-.18.16"/>
  </g>
</svg>