<?xml version="1.0" encoding="UTF-8" standalone="no"?>
<!-- Generator: Adobe Illustrator 19.0.0, SVG Export Plug-In . SVG Version: 6.00 Build 0)  -->

<svg
   xmlns:dc="http://purl.org/dc/elements/1.1/"
   xmlns:cc="http://creativecommons.org/ns#"
   xmlns:rdf="http://www.w3.org/1999/02/22-rdf-syntax-ns#"
   xmlns:svg="http://www.w3.org/2000/svg"
   xmlns="http://www.w3.org/2000/svg"
   xmlns:sodipodi="http://sodipodi.sourceforge.net/DTD/sodipodi-0.dtd"
   xmlns:inkscape="http://www.inkscape.org/namespaces/inkscape"
   version="1.1"
   id="Layer_1"
   x="0px"
   y="0px"
   viewBox="0 0 40 40"
   xml:space="preserve"
   sodipodi:docname="icon-search-handle.svg"
   inkscape:version="0.92.5 (2060ec1f9f, 2020-04-08)"
   width="40"
   height="40"><metadata
   id="metadata1147"><rdf:RDF><cc:Work
       rdf:about=""><dc:format>image/svg+xml</dc:format><dc:type
         rdf:resource="http://purl.org/dc/dcmitype/StillImage" /><dc:title></dc:title></cc:Work></rdf:RDF></metadata><defs
   id="defs1145" /><sodipodi:namedview
   pagecolor="#ffffff"
   bordercolor="#666666"
   borderopacity="1"
   objecttolerance="10"
   gridtolerance="10"
   guidetolerance="10"
   inkscape:pageopacity="0"
   inkscape:pageshadow="2"
   inkscape:window-width="1920"
   inkscape:window-height="1031"
   id="namedview1143"
   showgrid="false"
   inkscape:zoom="5"
   inkscape:cx="125.98919"
   inkscape:cy="-35.5315"
   inkscape:window-x="0"
   inkscape:window-y="25"
   inkscape:window-maximized="1"
   inkscape:current-layer="Layer_1" />
<path
   style="fill:#344e5d;stroke-width:0.05420566"
   d="m 37.79566,18.468631 c 0,-7.090859 -5.747747,-12.8379596 -12.837792,-12.8379596 -7.090425,0 -12.838181,5.7473176 -12.838181,12.8379596 0,7.089828 5.747756,12.837579 12.838181,12.837579 7.090045,0 12.837792,-5.747751 12.837792,-12.837579 z"
   id="path1104"
   inkscape:connector-curvature="0" />
<g
   id="g1110"
   transform="matrix(0.05420566,0,0,0.05420566,12.119687,5.6304553)">
	<path
   style="fill:#ffffff"
   d="m 414.449,297.547 c -17.243,-27.052 -34.494,-54.108 -51.741,-81.156 -2.909,-4.57 -9.218,-4.458 -12.12,0.045 -17.374,26.966 -34.756,53.936 -52.133,80.902 -1.881,2.917 -1.245,5.733 0.52,7.681 1.092,1.653 2.909,2.831 5.505,2.838 9.151,0.022 18.301,0.045 27.448,0.067 -42.22,67.081 -144.695,73.228 -192.797,4.342 -15.407,-22.06 -51.86,-0.995 -36.293,21.304 33.963,48.633 89.746,76.474 149.359,69.65 57.361,-6.57 103.657,-43.663 126.644,-95.18 9.835,0.026 19.674,0.049 29.513,0.075 5.183,0.011 9.012,-5.995 6.095,-10.568 z"
   id="path1106"
   inkscape:connector-curvature="0" />
	<path
   style="fill:#ffffff"
   d="m 370.457,138.899 c -33.97,-48.633 -89.75,-76.478 -149.366,-69.65 -57.933,6.63 -104.547,44.43 -127.288,96.761 -12.232,-0.03 -24.476,-0.06 -36.708,-0.09 -5.187,-0.015 -9.02,5.987 -6.099,10.561 17.243,27.052 34.49,54.108 51.733,81.16 2.913,4.566 9.218,4.454 12.124,-0.045 17.374,-26.97 34.759,-53.936 52.133,-80.902 1.877,-2.917 1.245,-5.729 -0.512,-7.677 -1.092,-1.653 -2.909,-2.835 -5.508,-2.842 -6.847,-0.015 -13.694,-0.034 -20.545,-0.049 41.599,-68.55 145.267,-75.322 193.744,-5.92 15.407,22.053 51.864,0.988 36.292,-21.307 z"
   id="path1108"
   inkscape:connector-curvature="0" />
</g>
<g
   id="g1112"
   transform="translate(0,-433.677)">
</g>
<g
   id="g1114"
   transform="translate(0,-433.677)">
</g>
<g
   id="g1116"
   transform="translate(0,-433.677)">
</g>
<g
   id="g1118"
   transform="translate(0,-433.677)">
</g>
<g
   id="g1120"
   transform="translate(0,-433.677)">
</g>
<g
   id="g1122"
   transform="translate(0,-433.677)">
</g>
<g
   id="g1124"
   transform="translate(0,-433.677)">
</g>
<g
   id="g1126"
   transform="translate(0,-433.677)">
</g>
<g
   id="g1128"
   transform="translate(0,-433.677)">
</g>
<g
   id="g1130"
   transform="translate(0,-433.677)">
</g>
<g
   id="g1132"
   transform="translate(0,-433.677)">
</g>
<g
   id="g1134"
   transform="translate(0,-433.677)">
</g>
<g
   id="g1136"
   transform="translate(0,-433.677)">
</g>
<g
   id="g1138"
   transform="translate(0,-433.677)">
</g>
<g
   id="g1140"
   transform="translate(0,-433.677)">
</g>
<rect
   style="opacity:1;fill:#344e5d;fill-opacity:1;stroke:#344e5d;stroke-width:1.02435887;stroke-linecap:butt;stroke-linejoin:round;stroke-miterlimit:4;stroke-dasharray:none;stroke-opacity:1;paint-order:normal"
   id="rect1149"
   width="4.6616864"
   height="15.719639"
   x="25.744764"
   y="0.57685459"
   ry="2.3308432"
   transform="rotate(55)" /></svg>