<?xml version="1.0" encoding="UTF-8" standalone="no"?>
<!-- Created with Inkscape (http://www.inkscape.org/) -->

<svg
   width="97"
   height="97"
   viewBox="0 0 25.664583 25.664583"
   version="1.1"
   id="svg1"
   inkscape:version="1.3.2 (091e20e, 2023-11-25)"
   sodipodi:docname="pluginIcon_v2.svg"
   xmlns:inkscape="http://www.inkscape.org/namespaces/inkscape"
   xmlns:sodipodi="http://sodipodi.sourceforge.net/DTD/sodipodi-0.dtd"
   xmlns="http://www.w3.org/2000/svg"
   xmlns:svg="http://www.w3.org/2000/svg">
  <sodipodi:namedview
     id="namedview1"
     pagecolor="#ffffff"
     bordercolor="#666666"
     borderopacity="1.0"
     inkscape:showpageshadow="2"
     inkscape:pageopacity="0.0"
     inkscape:pagecheckerboard="0"
     inkscape:deskcolor="#d1d1d1"
     inkscape:document-units="px"
     inkscape:zoom="6.7277216"
     inkscape:cx="16.35026"
     inkscape:cy="55.739524"
     inkscape:window-width="1712"
     inkscape:window-height="997"
     inkscape:window-x="0"
     inkscape:window-y="43"
     inkscape:window-maximized="1"
     inkscape:current-layer="layer1"
     showgrid="true">
    <inkscape:grid
       id="grid2"
       units="px"
       originx="0"
       originy="0"
       spacingx="0.26458334"
       spacingy="0.26458334"
       empcolor="#0099e5"
       empopacity="0.30196078"
       color="#0099e5"
       opacity="0.14901961"
       empspacing="5"
       dotted="false"
       gridanglex="30"
       gridanglez="30"
       visible="true" />
  </sodipodi:namedview>
  <defs
     id="defs1" />
  <g
     inkscape:label="Warstwa 1"
     inkscape:groupmode="layer"
     id="layer1">
    <path
       style="display:inline;fill:#f05133;fill-opacity:1;stroke:none;stroke-width:0;stroke-dasharray:none"
       d="M 11.888614,25.369487 C 10.916524,25.104852 10.854918,25.050872 5.9287867,20.14762 3.3269588,17.557876 1.0695812,15.246192 0.9123917,15.010548 0.43190932,14.290244 0.24879464,13.615108 0.2971722,12.742257 0.33281984,12.099087 0.38271535,11.904791 0.65637816,11.343476 0.96157283,10.717489 1.1630152,10.502726 5.7320097,5.9322344 8.3488132,3.3145742 10.657452,1.0694031 10.862321,0.94296557 c 1.2213,-0.75374485 2.916246,-0.73655847 4.028762,0.0408504 0.190371,0.13302823 2.504595,2.40985243 5.142722,5.05960973 5.590133,5.6147773 5.291582,5.2281703 5.291582,6.8523313 0,1.626184 0.309807,1.226486 -5.376335,6.936294 -2.684767,2.695939 -5.044889,4.998815 -5.244717,5.117503 -0.822936,0.488783 -1.947005,0.656424 -2.815721,0.419933 z"
       id="path3"
       inkscape:label="background" />
    <path
       id="rect1-6"
       style="stroke-width:0.200988"
       d="M 14.116451 1.2841593 L 14.116968 2.7497029 L 14.116968 2.9812133 L 14.116968 3.030306 L 14.106116 3.0308227 A 1.2978019 1.1925315 89.990133 0 1 12.923242 4.1816568 A 1.2978019 1.1925315 89.990133 0 1 11.740368 3.0313395 L 11.729 3.0308227 L 11.729 2.6086263 L 11.729516 2.4970052 L 11.729 1.2908773 A 2.5956037 2.5956037 0 0 0 11.43341 1.4727783 L 11.432894 1.4727783 A 2.5956037 2.5956037 0 0 0 10.639661 2.38125 A 2.5956037 2.5956037 0 0 0 10.615889 2.4349935 A 2.5956037 2.5956037 0 0 0 10.327535 3.5884114 A 2.5956037 2.5956037 0 0 0 10.616923 4.7516479 A 2.5956037 2.5956037 0 0 0 10.665499 4.8307128 A 2.5956037 2.5956037 0 0 0 11.743469 5.882845 L 11.743469 10.413835 L 10.802958 8.7079955 A 2.5956037 2.5956037 0 0 0 11.049971 7.6450113 A 2.5956037 2.5956037 0 0 0 11.056173 7.5525105 A 2.5956037 2.5956037 0 0 0 10.768335 6.3887572 A 2.5956037 2.5956037 0 0 0 9.9745848 5.50354 A 2.5956037 2.5956037 0 0 0 9.9285928 5.4673665 A 2.5956037 2.5956037 0 0 0 8.8025634 5.0348347 A 2.5956037 2.5956037 0 0 0 8.4558145 5.0120971 L 9.0190876 6.0786987 L 9.0712808 6.1774006 L 9.2686848 6.5510212 L 9.2588663 6.5561889 A 1.2978019 1.1925315 62.158384 0 1 8.7503702 8.1261189 A 1.2978019 1.1925315 62.158384 0 1 7.1670043 7.661031 L 7.1571858 7.6656819 L 7.1349649 7.6222737 L 7.0264444 7.4171182 L 6.3422485 6.1215901 A 2.5956037 2.5956037 0 0 0 5.937622 8.1488565 A 2.5956037 2.5956037 0 0 0 6.0239216 8.4506469 A 2.5956037 2.5956037 0 0 0 6.1779174 8.8134154 A 2.5956037 2.5956037 0 0 0 7.4522582 9.9740681 A 2.5956037 2.5956037 0 0 0 7.7819538 10.083622 A 2.5956037 2.5956037 0 0 0 9.1162393 10.106876 L 11.000879 13.526306 L 7.724593 12.101587 A 2.5956037 2.5956037 0 0 0 7.6501789 11.260294 A 2.5956037 2.5956037 0 0 0 7.6320922 11.168827 A 2.5956037 2.5956037 0 0 0 7.0502156 10.121346 A 2.5956037 2.5956037 0 0 0 6.0523437 9.474357 A 2.5956037 2.5956037 0 0 0 5.9980834 9.4516193 A 2.5956037 2.5956037 0 0 0 4.7981567 9.3286294 A 2.5956037 2.5956037 0 0 0 4.457609 9.3973591 L 5.2802978 10.279476 L 5.3567789 10.360608 L 5.6451334 10.669633 L 5.6368652 10.677384 A 1.2978019 1.1925315 46.992983 0 1 5.5567667 12.325862 A 1.2978019 1.1925315 46.992983 0 1 3.9067382 12.291239 L 3.89847 12.297957 L 3.8653971 12.2623 L 3.7072672 12.092802 L 2.707845 11.021549 A 2.5956037 2.5956037 0 0 0 2.8473714 13.083439 A 2.5956037 2.5956037 0 0 0 3.0101521 13.352673 A 2.5956037 2.5956037 0 0 0 3.2535481 13.662215 A 2.5956037 2.5956037 0 0 0 4.7873046 14.44873 A 2.5956037 2.5956037 0 0 0 5.1340535 14.468367 A 2.5956037 2.5956037 0 0 0 6.4580037 14.123686 L 11.706779 16.40675 L 11.743469 16.322518 L 11.743469 20.239591 A 2.4888718 2.4332545 0 0 0 10.434505 22.374345 A 2.4888718 2.4332545 0 0 0 12.923242 24.807788 A 2.4888718 2.4332545 0 0 0 15.412496 22.374345 A 2.4888718 2.4332545 0 0 0 14.103015 20.239591 L 14.103015 16.343705 L 19.395715 14.04152 A 2.5956037 2.5956037 0 0 0 20.85299 14.468367 A 2.5956037 2.5956037 0 0 0 21.200256 14.44873 A 2.5956037 2.5956037 0 0 0 22.733496 13.662215 A 2.5956037 2.5956037 0 0 0 22.976892 13.352673 A 2.5956037 2.5956037 0 0 0 23.139673 13.083439 A 2.5956037 2.5956037 0 0 0 23.279199 11.021549 L 22.279777 12.092802 L 22.121647 12.2623 L 22.088574 12.297957 L 22.080306 12.291239 A 1.1925315 1.2978019 43.007017 0 1 20.430277 12.325862 A 1.1925315 1.2978019 43.007017 0 1 20.350179 10.677384 L 20.342427 10.669633 L 20.630265 10.360608 L 20.706746 10.279476 L 21.529435 9.3973591 A 2.5956037 2.5956037 0 0 0 21.188887 9.3286294 A 2.5956037 2.5956037 0 0 0 19.988961 9.4516193 A 2.5956037 2.5956037 0 0 0 19.9347 9.474357 A 2.5956037 2.5956037 0 0 0 18.937345 10.121346 A 2.5956037 2.5956037 0 0 0 18.354952 11.168827 A 2.5956037 2.5956037 0 0 0 18.336865 11.260294 A 2.5956037 2.5956037 0 0 0 18.256767 11.963611 L 14.943274 13.40435 L 16.7566 10.114628 A 2.5956037 2.5956037 0 0 0 18.065047 10.083622 A 2.5956037 2.5956037 0 0 0 18.394743 9.9740681 A 2.5956037 2.5956037 0 0 0 19.668567 8.8134154 A 2.5956037 2.5956037 0 0 0 19.822562 8.4506469 A 2.5956037 2.5956037 0 0 0 19.909379 8.1488565 A 2.5956037 2.5956037 0 0 0 19.504752 6.1221069 L 18.820556 7.417635 L 18.712036 7.6222737 L 18.689298 7.6656819 L 18.67948 7.661031 A 1.1925315 1.2978019 27.841616 0 1 17.096114 8.1261189 A 1.1925315 1.2978019 27.841616 0 1 16.587618 6.5561889 L 16.577799 6.5510212 L 16.775203 6.1774006 L 16.827396 6.0786987 L 17.391186 5.0120971 A 2.5956037 2.5956037 0 0 0 17.043921 5.0348347 A 2.5956037 2.5956037 0 0 0 15.918408 5.4673665 A 2.5956037 2.5956037 0 0 0 15.872416 5.50354 A 2.5956037 2.5956037 0 0 0 15.078149 6.389274 A 2.5956037 2.5956037 0 0 0 14.790311 7.5525105 A 2.5956037 2.5956037 0 0 0 14.797029 7.6450113 A 2.5956037 2.5956037 0 0 0 15.057995 8.7364175 L 14.103015 10.468612 L 14.103015 5.8818114 A 2.5956037 2.5956037 0 0 0 14.694193 5.459615 A 2.5956037 2.5956037 0 0 0 14.934489 5.2089843 A 2.5956037 2.5956037 0 0 0 15.518949 3.5878946 A 2.5956037 2.5956037 0 0 0 15.485876 3.1951538 A 2.5956037 2.5956037 0 0 0 15.421281 2.887679 A 2.5956037 2.5956037 0 0 0 14.116451 1.2841593 z M 12.923242 21.45037 A 0.92419231 0.92419231 0 0 1 13.847733 22.374345 A 0.92419231 0.92419231 0 0 1 12.923242 23.298836 A 0.92419231 0.92419231 0 0 1 11.999267 22.374345 A 0.92419231 0.92419231 0 0 1 12.923242 21.45037 z " />
  </g>
</svg>
