<?xml version="1.0" encoding="utf-8"?>
<svg version="1.1" id="Layer_1" xmlns="http://www.w3.org/2000/svg" xmlns:xlink="http://www.w3.org/1999/xlink" x="0px" y="0px"
	 viewBox="0 0 250 250" style="enable-background:new 0 0 250 250;" xml:space="preserve">
<style type="text/css">
	.st0{fill:#373354;}
</style>
<path d="M236.5,103.9c-0.8-4-4.4-7.1-8.7-7.1c-0.9,0-1.8,0.1-2.7,0.4l-12.5-16.7
	c-0.3-0.4-0.8-0.5-1.3-0.5h-8.8c0,0-0.1-0.1-0.1-0.1c-0.7-4.1-4.4-7.3-8.7-7.3c-4.9,0-8.8,3.9-8.8,8.8c0,4.9,4,8.8,8.8,8.8
	c4.3,0,7.9-3.2,8.7-7.3c0,0,0.1,0.1,0.1,0.1h8l11.8,15.9c-1.5,1.3-2.6,3.1-3,5.1h-29.4l-18.8-22.5c-0.3-0.4-0.8-0.5-1.3-0.5h-9.5
	h-0.6c-0.6-4.3-4.2-7.5-8.7-7.5c-4.9,0-8.8,3.9-8.8,8.8c0,4.9,4,8.8,8.8,8.8c4.5,0,7.5-2.8,8.7-7.1l0,0l9.3,0l16.6,20h-37.8
	c-0.9-4-4.4-7.1-8.6-7.1c-4.9,0-8.8,3.9-8.8,8.8c0,4.9,4,8.7,8.8,8.7c4.4,0,8-3.5,8.7-7.5h54l-15,17.6c-0.3,0.3-0.6,0.8-0.6,1.2V139
	c-4,0.8-7,4.4-7,8.7c0,4.9,4.1,8.8,9,8.8c4.9,0,9-4,9-8.8c0-4.3-3-7.9-7-8.7v-12.6l16-19.4h13.1c0.7,4,4.4,7.4,8.7,7.4
	c4.3,0,8-3.1,8.7-7.2 M199.1,81.3c0,3.1-2.4,5.5-5.5,5.5s-5.5-2.4-5.5-5.5s2.4-5.5,5.5-5.5S199.1,78.3,199.1,81.3z M156.3,82.2
	c0,3.1-2.4,5.5-5.5,5.5c-3.1,0-5.5-2.4-5.5-5.5s2.4-5.5,5.5-5.5C153.9,76.7,156.3,79.1,156.3,82.2z M233.3,105.6
	c0,3.1-2.4,5.5-5.5,5.5c-3.1,0-5.5-2.4-5.5-5.5c0-3.1,2.4-5.5,5.5-5.5C230.9,100.1,233.3,102.6,233.3,105.6z M144.4,105.7
	c0,3.1-2.4,5.5-5.5,5.5c-3.1,0-5.5-2.4-5.5-5.5c0-3.1,2.4-5.5,5.5-5.5C142,100.2,144.4,102.6,144.4,105.7z M193.5,147.7
	c0,3.1-2.4,5.5-5.5,5.5c-3.1,0-5.5-2.4-5.5-5.5c0-3.1,2.4-5.5,5.5-5.5C191.1,142.2,193.5,144.6,193.5,147.7z M161,81h-2" fill="#7a86b8"/>
<path d="M14.6,174.4c-0.3,1.3,0.6,2.6,2,2.6h7.7c1.3,0,2.6-1.3,2.9-2.6
	l2-10.8c0.3-1.3,1.6-2.7,2.9-2.7h8.3c4.7,0,8.7-0.3,11.7-1.3c3.1-1,5.9-2.6,8.4-4.9c2.1-1.9,3.8-4,5.1-6.3c1.3-2.3,2.2-4.8,2.8-7.6
	c1.3-6.8,0-11.8-3-15.8c-3.8-5-13.5-5.5-13.5-5.5c-1.3-0.2-3.5-0.5-4.8-0.5H27.8c-1.3,0-2.6,1.3-2.9,2.7L14.6,174.4z M44.8,128
	c4.8,0,8,1.1,9.5,2.8c1.6,1.7,2,4.8,1.1,9.1c-0.9,4.4-2.5,7.6-5,9.5c-2.5,1.9-8.9,2.4-8.9,2.4c-1.3,0.1-3.5,0.1-4.9,0.1h-2.8
	c-1.3,0-2.2-0.9-2-2.2l3.8-19.3c0.3-1.3,1.6-2.5,2.9-2.5H45" fill="#7a86b8"/>
<path d="M80.6,106.4c0.3-1.3,1.6-2.4,2.9-2.4h7.6c1.3,0,2.2,1.1,2,2.4
	L91,116.8c-0.3,1.3,0.6,2.2,2,2.2h6.2c1.3,0,3.5,0.3,4.9,0.4c0,0,9.1,0.2,12,3.5c2.4,2.7,3.4,6.4,2.4,11.8l-4.7,24.1
	c-0.3,1.3-1.6,2.2-2.9,2.2h-7.8c-1.3,0-2.2-0.9-2-2.2l4-20.5c0.3-1.3,0.5-3.4,0.6-4.7c0,0,0.2-2.2-0.8-3.2c-1-1-3.1-1.3-6.3-1.3
	h-7.5c-1.3,0-2.6,0.9-2.9,2.2l-5.5,27.8c-0.3,1.3-1.6,2.1-2.9,2.1h-7.6c-1.3,0-2.2-0.9-2-2.2L80.6,106.4" fill="#7a86b8"/>
<path d="M119.1,174.4c-0.3,1.3,0.6,2.6,2,2.6h7.7c1.3,0,2.6-1.3,2.9-2.6
	l2.1-10.8c0.3-1.3,1.6-2.7,2.9-2.7h8.3c4.7,0,8.7-0.3,11.7-1.3c3.1-1,5.9-2.6,8.4-4.9c2.1-1.9,3.8-4,5.1-6.3
	c1.3-2.3,2.2-4.8,2.8-7.6c1.3-6.8,0.1-11.9-3-15.8c-3.9-4.9-13.5-5.5-13.5-5.5c-1.3-0.2-3.5-0.5-4.8-0.5h-19.3
	c-1.3,0-2.6,1.3-2.9,2.7L119.1,174.4z M149.1,128.2c4.8,0,8,1,9.6,2.7c1.6,1.7,2,4.8,1.2,9.1c-0.9,4.4-2.5,7.6-5,9.5
	c-2.5,1.9-8.9,2.4-8.9,2.4c-1.3,0.1-3.5,0.1-4.8,0.1h-2.8c-1.3,0-2.2-0.9-2-2.2l3.8-19.3c0.3-1.3,1.6-2.5,2.9-2.5h5.9" fill="#7a86b8"/>
</svg>
