<?xml version="1.0" encoding="UTF-8"?>
<svg id="Layer_1" data-name="Layer 1" xmlns="http://www.w3.org/2000/svg" version="1.1" viewBox="0 0 40 40">
  <defs>
    <style>
      .cls-1 {
        fill: #533946;
      }

      .cls-1, .cls-2, .cls-3, .cls-4, .cls-5, .cls-6, .cls-7 {
        stroke-width: 0px;
      }

      .cls-2 {
        fill: #e6d1b4;
      }

      .cls-3 {
        fill: #2f9ca1;
      }

      .cls-4 {
        fill: #efa00f;
      }

      .cls-5 {
        fill: #000;
      }

      .cls-6 {
        fill: #0f2c32;
      }

      .cls-7 {
        fill: #21616a;
      }
    </style>
  </defs>
  <path class="cls-2" d="M37.09,16.61c.21,1.09.33,2.23.33,3.39,0,.92-.07,1.81-.21,2.68h-.01c-.51,1.11-1.17,2.17-1.97,3.14-.46-3.14-1.65-5.81-3.04-7.98,1.28-1.51,2-3.27,2-5.16,0-.21-.01-.42-.03-.62,1.23,1.11,2.3,2.59,2.95,4.53h0Z"/>
  <path class="cls-7" d="M35.22,25.82c.8-.96,1.46-2.02,1.97-3.14h.01c-.95,6.18-5.16,11.28-10.8,13.52v-.02c.48-1.5.67-3.17.67-4.9,3.32-1.14,6.15-3.04,8.14-5.46Z"/>
  <path class="cls-4" d="M34.14,12.07c.02.2.03.41.03.62,0,1.88-.72,3.65-2,5.16-2.96-4.65-6.85-7.08-6.85-7.08l-.05-.05c.53-.6.84-1.31.84-2.07,0,0,4.62.31,8.02,3.43Z"/>
  <path class="cls-1" d="M32.37,7.75c1.02,1.29,1.65,2.76,1.78,4.32-3.4-3.11-8.02-3.43-8.02-3.43,0-.8-.34-1.56-.93-2.18l.14-.13s3.01-.81,6.53.98l.02-.02c.17.14.34.3.49.46Z"/>
  <path class="cls-1" d="M32.18,17.84c1.39,2.17,2.58,4.84,3.04,7.98-1.99,2.42-4.82,4.32-8.14,5.46.01-3.08-.62-6.36-1.43-9.31,2.74-.85,5.03-2.3,6.53-4.12Z"/>
  <path class="cls-2" d="M31.88,7.28l-.02.02c-3.52-1.79-6.53-.98-6.53-.98l-.14.13c-.71-.77-1.78-1.37-3.05-1.68h0s2.13-1.52,2.13-1.52l.03-.14c2.88.73,5.48,2.18,7.58,4.17Z"/>
  <path class="cls-3" d="M25.33,10.76s3.89,2.44,6.85,7.08c-1.5,1.82-3.79,3.27-6.53,4.12-1.44-5.27-3.46-9.45-3.46-9.45v-.02c1.31-.34,2.4-.96,3.09-1.78l.05.05Z"/>
  <path class="cls-4" d="M25.66,21.96c.81,2.95,1.44,6.24,1.43,9.31-2.18.74-4.58,1.15-7.08,1.15-.81,0-1.61-.05-2.39-.13-.02-3.17.15-6.55.38-9.6.66.07,1.32.1,2.01.1,2.01,0,3.93-.3,5.66-.84Z"/>
  <path class="cls-6" d="M27.08,31.28c0,1.73-.2,3.4-.69,4.9v.02c-1.97.79-4.13,1.22-6.4,1.22-.72,0-1.44-.05-2.14-.14-.16-1.53-.24-3.22-.26-4.98.78.08,1.58.13,2.39.13,2.51,0,4.9-.41,7.08-1.15Z"/>
  <path class="cls-6" d="M25.19,6.46c.59.63.93,1.38.93,2.18,0,.75-.3,1.46-.84,2.07-.69.81-1.78,1.44-3.09,1.78-.67.19-1.42.28-2.19.28-.33,0-.64-.01-.94-.06-1.14-.1-2.16-.44-3-.91-.88-.5-1.56-1.17-1.9-1.93-.19-.39-.28-.8-.28-1.23,0-.49.13-.95.36-1.39.35-.67.96-1.27,1.74-1.73.84-.49,1.87-.82,3.02-.95.33-.03.66-.06,1-.06.75,0,1.47.09,2.14.27,1.28.31,2.35.92,3.05,1.68Z"/>
  <path class="cls-4" d="M24.3,3.11l-.03.14-2.13,1.51h0c-.66-.16-1.38-.26-2.14-.26-.34,0-.67.02-1,.06v-.02l-.88-1.79v-.07c.6-.07,1.24-.1,1.88-.1,1.49,0,2.93.19,4.3.53Z"/>
  <path class="cls-7" d="M22.19,12.51s2.02,4.18,3.46,9.45c-1.73.53-3.65.84-5.66.84-.69,0-1.35-.03-2.01-.1.43-5.54,1.07-9.96,1.07-9.96v-.02c.3.05.62.06.94.06.78,0,1.52-.09,2.19-.28v.02Z"/>
  <path class="cls-2" d="M19.06,12.71v.02s-.64,4.42-1.07,9.96c-2.72-.27-5.19-1.09-7.19-2.32,2.14-4.95,5.18-8.43,5.18-8.43l.08-.14c.84.46,1.86.8,3,.91Z"/>
  <path class="cls-7" d="M19,4.54v.02c-1.15.13-2.18.46-3.02.95,0,0-1.81-1.2-4.51-.63l-.03-.06c2.01-1.14,4.26-1.89,6.67-2.15v.07s.89,1.79.89,1.79Z"/>
  <path class="cls-3" d="M17.99,22.69c-.23,3.05-.41,6.43-.38,9.6-3.31-.35-6.34-1.42-8.85-3,.01-3.19.89-6.27,2.04-8.93,2,1.23,4.47,2.06,7.19,2.32Z"/>
  <path class="cls-1" d="M17.61,32.3c.01,1.77.09,3.45.26,4.98-3.17-.38-6.07-1.63-8.48-3.48-.44-1.5-.64-3.01-.63-4.49,2.51,1.58,5.54,2.65,8.85,3Z"/>
  <path class="cls-1" d="M14.16,9.87c.35.75,1.02,1.43,1.9,1.93l-.08.14s-3.04,3.48-5.18,8.43c-1.92-1.16-3.39-2.68-4.22-4.41,3.14-3.98,7.4-6.03,7.4-6.03l.17-.06Z"/>
  <path class="cls-3" d="M15.98,5.52c-.78.46-1.39,1.06-1.74,1.73l-.14-.07s-4.55,1.28-7.97,3.38c.24-.81.56-1.68,1.06-2.4v.03c1.24-1.34,2.67-2.46,4.25-3.36l.03.06c2.69-.57,4.51.63,4.51.63Z"/>
  <path class="cls-4" d="M14.1,7.18l.14.07c-.23.44-.36.91-.36,1.39,0,.43.09.84.28,1.23l-.17.06s-4.26,2.04-7.4,6.03c-.5-1.02-.77-2.13-.77-3.27,0-.73.1-1.44.31-2.13,3.41-2.1,7.97-3.38,7.97-3.38Z"/>
  <path class="cls-7" d="M6.59,15.96c.82,1.73,2.3,3.25,4.22,4.41-1.15,2.66-2.03,5.74-2.04,8.93-2.29-1.45-4.13-3.33-5.39-5.49.24-3.14,1.57-5.76,3.22-7.85Z"/>
  <path class="cls-2" d="M8.76,29.3c-.01,1.49.19,3,.63,4.49-2.86-2.18-5.01-5.25-6.06-8.78,0-.41.01-.81.05-1.21,1.25,2.16,3.1,4.04,5.39,5.49Z"/>
  <path class="cls-6" d="M6.13,10.56c-.21.69-.31,1.39-.31,2.13,0,1.15.27,2.25.77,3.27-1.65,2.09-2.97,4.71-3.22,7.85-.03.39-.05.8-.05,1.21-.49-1.59-.74-3.27-.74-5.02,0-4.56,1.75-8.71,4.62-11.81l.06.06c-.5.72-.88,1.5-1.13,2.31Z"/>
  <g>
    <path class="cls-5" d="M15.15,33.48c.28.05.41-.16.62-.27-.32-.14-.39-.11-.62.27Z"/>
    <path class="cls-5" d="M11.96,25.28s0,.09-.03.16c-.26.52-.17,1,.27,1.48.03.03.05.06.07.1.01.02.02.04.04.06.09.13.1.21.04.31v.02s-.07.08-.05.13c.01.04.04.06.09.08.09.04.18.01.24-.07.11-.16.13-.32.05-.47-.01-.03-.03-.05-.04-.08-.06-.12-.12-.22-.23-.35-.35-.39-.26-.76-.12-1.16.04-.11.08-.12.21-.09.02,0,.05.01.08.01.17.03.32.07.31.18,0,.19-.07.38-.17.53,0,.01-.03.02-.05.04-.05.03-.1.06-.11.12,0,.04.01.09.06.13s.09.07.14.07h0c.09,0,.16-.09.22-.15h.01c.06-.09.1-.19.13-.27.15-.43.15-.44.61-.31l.1.03c.36.1.56.15.61.25.05.1-.01.29-.14.65v.02s-.01.03-.02.04c-.08.2-.21.27-.4.23-.15-.03-.22-.14-.21-.28.02-.17.11-.26.28-.26h.07s.1.01.14-.02c.03-.02.04-.06.04-.1,0-.14-.13-.17-.19-.18-.29-.04-.52.06-.63.33-.09.21-.08.41.03.56.12.16.35.25.63.25h.08c-.06.31-.07.31-.25.39-.01,0-.02,0-.04.01-.05.01-.1.03-.13.08-.02.03-.02.07,0,.12.04.14.15.11.22.1h.04c.11-.01.19,0,.23.04s.05.09.04.17c0,.09-.06.13-.1.16-.08.05-.2.06-.32,0-.22-.09-.39-.26-.49-.5-.06-.14-.16-.13-.23-.1-.13.06-.09.17-.07.24.12.37.61.7,1,.7h.08c.19-.03.35-.14.42-.3s.05-.35-.05-.51l-.04-.05c-.06-.07-.08-.12-.06-.19.03-.09.05-.18.08-.28.04-.13.07-.26.12-.39.07-.21.2-.28.39-.24.16.04.23.12.22.27-.01.19-.12.28-.32.28h-.03s-.17,0-.18.13c0,.16.13.17.19.17h.03c.16.02.32-.03.44-.14.13-.11.2-.26.21-.42.01-.35-.23-.59-.62-.62-.08,0-.13,0-.17.02v-.02c.03-.1.05-.19.08-.29,0,0,0-.02.01-.02.02,0,.07,0,.11.02.02,0,.03.01.04.01.09.02.18.05.27.07.13.04.27.07.4.11.01,0,.02,0,.04.01.08.02.22.06.26-.06.01-.05.01-.09,0-.12-.04-.06-.12-.08-.19-.1h-.04c-.75-.21-1.5-.42-2.24-.62-.5-.14-1.01-.27-1.51-.41h-.02c-.06-.02-.17-.06-.22.07-.02.06-.01.1,0,.12.03.06.11.08.15.09.06.01.09.03.1.06v-.05Z"/>
    <path class="cls-5" d="M23.52,28.43c-.28-.03-.34-.18-.34-.42,0-.45-.02-.91-.07-1.36-.02-.18.13-.5-.2-.5-.35,0-.17.32-.17.49,0,.57.04,1.13.06,1.7,0,.43-.2.7-.62.81-.54.14-.99-.14-1.05-.69-.07-.64-.09-1.29-.14-1.94,0-.12,0-.28-.18-.29s-.21.11-.2.25c0,.34.09,1.66.12,1.99.05.5.3.88.8.97.52.1,1.04.07,1.43-.38.13-.14.15-.43.44-.36.26.06.31.26.32.48,0,.15.09.19.22.17.13-.03.13-.13.11-.23-.06-.32-.12-.66-.54-.7h.01Z"/>
    <path class="cls-5" d="M7.49,21.64c0-.15-.13-.22-.24-.22-.16,0-.18.15-.16.27.06.25.14.5.21.75.11.39.04.73-.3.97-.23.17-.5.16-.73-.02-.33-.26-.3-.59-.14-.94.05-.11.15-.21,0-.31-.16-.1-.25,0-.34.12-.38.49-.18,1.16.55,1.53.25.14.62.15.97-.1.37-.27.5-.66.43-1.1-.05-.32-.24-.61-.24-.95h-.01Z"/>
    <path class="cls-5" d="M23.71,34.18c.11,0,.18-.09.18-.19,0-.11-.08-.19-.18-.19-.11,0-.19.08-.19.19,0,.1.08.19.19.19Z"/>
    <path class="cls-5" d="M24.4,34.17c.11,0,.18-.09.18-.19,0-.11-.08-.19-.18-.19-.11,0-.18.08-.18.19,0,.1.07.19.18.19Z"/>
    <path class="cls-5" d="M28.25,26.17c.25.48.56.87,1.15.88.65,0,1.15-.3,1.53-.82.06-.08.13-.18,0-.26-.12-.07-.16.04-.2.11-.14.25-.24.2-.36-.02-.17-.33-.34-.66-.54-.97-.14-.23-.24-.43.12-.56.08-.03.18-.09.1-.2-.07-.1-.16-.03-.24,0-.31.16-.61.33-.91.5h0c-.3.17-.61.33-.91.5-.09.05-.28.17-.13.24.28.13.29.4.4.6h-.01ZM29.2,24.94c.15-.09.23-.03.3.11.11.21.23.42.35.64.11.2.22.4.33.6.08.13.13.26-.06.34-.14.06-.26.08-.35-.09-.23-.43-.46-.85-.7-1.27-.1-.17-.01-.25.13-.32h0ZM28.5,25.32c.15-.07.25-.09.34.08.1.21.22.4.33.61.1.18.2.36.3.54.03.06.11.14.05.21-.06.08-.17.05-.25.02-.46-.12-.69-.46-.84-.87-.07-.2-.27-.41.07-.58h0Z"/>
    <path class="cls-5" d="M30.83,24.55c.23.4.44.81.67,1.2.06.1.08.33.28.21.18-.1,0-.22-.04-.32-.05-.12-.11-.23-.18-.34-.13-.19-.09-.3.12-.42.22-.12.29,0,.37.16.08.16.17.31.26.47.04.07.09.12.18.07.08-.05.1-.11.06-.19-.07-.14-.13-.28-.22-.4-.23-.32-.12-.48.24-.55.07.16.06.34.18.49.19.23.42.28.68.14.07-.03.15-.07.1-.17-.03-.07-.09-.06-.16-.05-.49.03-.63-.17-.44-.61.03-.07.09-.13.03-.2-.08-.1-.16-.01-.24.02-.09.04-.19.09-.27.15-.31.24-.53.2-.66-.18-.02-.06-.05-.12-.09-.17-.12-.17-.07-.27.11-.36.2-.09.38-.21.57-.32.07-.04.14-.08.09-.18-.05-.09-.13-.06-.2-.03-.6.33-1.19.65-1.79.99-.11.06-.14.2,0,.22.24.03.26.22.35.36h0ZM31.1,23.88c.38-.2.33.18.46.29.08.19.31.37-.03.54-.36.18-.37-.14-.47-.31-.1-.16-.3-.34.03-.52h.01Z"/>
    <path class="cls-5" d="M37.66,16.61v-.06c-.69-3.46-2.38-6.62-4.87-9.13-.17-.18-.35-.37-.51-.49-2.2-2.07-4.91-3.56-7.84-4.31-2.08-.53-4.32-.68-6.39-.44-2.43.26-4.74,1-6.89,2.22-.01,0-.02.01-.03.02-.08.03-.14.07-.2.12-1.55.91-2.95,2.02-4.15,3.33-3.08,3.33-4.78,7.66-4.78,12.2,0,1.78.26,3.52.77,5.18,1.07,3.58,3.3,6.81,6.26,9.07h.01c2.55,1.97,5.57,3.21,8.74,3.59.72.1,1.46.15,2.21.15,2.29,0,4.52-.42,6.62-1.26,5.92-2.35,10.19-7.7,11.16-13.97.14-.89.22-1.83.22-2.77,0-1.15-.11-2.31-.33-3.46h0ZM34.7,11.9s0-.02-.02-.02v-.02s.02.03.03.04h0ZM33.59,12.76c0,1.44-.5,2.85-1.4,4.14-2.33-3.39-5.03-5.49-6.1-6.24.26-.41.45-.84.53-1.29,1.27.19,4.43.86,6.94,3.07,0,.11.02.22.02.33h.01ZM14.67,9.7c-.15-.32-.22-.64-.22-.98,0-.38.1-.75.29-1.13.29-.56.82-1.08,1.52-1.49.78-.46,1.75-.76,2.79-.88.31-.03.62-.05.94-.05.69,0,1.36.08,2,.25,1.14.28,2.12.82,2.77,1.52.49.52.75,1.11.76,1.73h0v.07c0,.58-.24,1.16-.7,1.67-.6.72-1.59,1.28-2.8,1.59-.87.24-1.85.37-2.93.2-.99-.09-1.95-.38-2.76-.83-.78-.44-1.37-1.03-1.67-1.67h0ZM15.21,12.02c-.8.99-2.94,3.79-4.66,7.55-1.45-.98-2.56-2.17-3.27-3.48,2.5-3.04,5.65-4.87,6.63-5.4.32.49.76.94,1.3,1.32h0ZM19.55,13.41h.44c.66,0,1.27-.08,1.85-.2.5,1.08,1.94,4.39,3.08,8.4-2.02.55-4.16.76-6.32.6.34-4.11.78-7.55.95-8.81h0ZM22.98,12.91c.94-.32,1.74-.8,2.35-1.37.93.65,3.77,2.81,6.11,6.32-1.31,1.46-3.2,2.66-5.4,3.43-1.11-3.88-2.49-7.11-3.06-8.38ZM31.6,7.9c.11.09.21.19.31.3.61.77,1.04,1.62,1.32,2.49-2.61-1.82-5.47-2.36-6.6-2.51-.07-.46-.24-.91-.49-1.32,1.03-.11,3.11-.14,5.44,1.04,0,0,.01,0,.02,0ZM24.5,3.87c1.53.42,2.98,1.08,4.32,1.92-1.85-.3-3.21-.04-3.56.04-.52-.47-1.15-.87-1.88-1.17l1.11-.79h0ZM19.99,3.24c1,0,2,.12,2.98.29l-.98.7c-.84-.19-1.75-.25-2.63-.19l-.37-.75c.34-.02.67-.06,1.01-.06h0ZM17.74,3.4l.39.79c-.78.16-1.51.41-2.16.75-.36-.17-1.01-.45-1.92-.61,1.19-.45,2.42-.77,3.68-.93h.01ZM7.7,8.58c1.12-1.2,2.42-2.23,3.86-3.07,1.36-.26,2.51-.03,3.25.22-.35.3-.64.62-.87.97h0c-.16.05-3.54,1-6.67,2.63.13-.25.27-.5.43-.75ZM6.63,11.01c2.39-1.43,5.31-2.46,6.74-2.92-.04.21-.08.42-.08.63,0,.31.06.62.14.92-.96.5-4.05,2.26-6.68,5.28-.23-.7-.36-1.42-.36-2.16,0-.6.09-1.18.24-1.75ZM3.84,15.87c.05.05.06.13.02.19-.06.08-.12,0-.17-.03,0,0-.02-.02-.03-.02.02-.07.04-.15.06-.22.05.02.09.05.13.09h0ZM3.15,20.07c0-.99.1-1.98.27-2.94.44.2.88.04,1.17-.44.1-.16.13-.34.15-.52.02-.16.06-.33.3-.21.13.06.23-.01.28-.14.05-.12-.03-.2-.14-.25-.18-.09-.33-.16-.36.14,0,.04-.05.11-.11.12,0,0-.02,0-.02-.01-.08-.11-.1-.31-.23-.33-.16-.01-.11.2-.19.31-.17.24-.09.41.2.46.1.02.13.04.11.14-.06.28-.41.61-.7.65-.13.02-.28-.02-.42-.08.05-.27.11-.54.18-.81.05.03.1.06.15.08.05.03.1.07.15,0,.11-.14.15-.29.05-.44-.06-.08-.13-.14-.22-.17.36-1.3.87-2.56,1.53-3.74-.03.29-.06.58-.06.87,0,1.1.24,2.18.68,3.2-1.3,1.72-2.21,3.54-2.71,5.43-.03-.44-.05-.87-.05-1.31h-.01ZM4.54,16.12s-.14.02-.18-.03c-.11-.14.04-.22.1-.32.07.11.17.22.08.35ZM6.68,30.31c.11-.03.2.12.31.18,0,0,.01.01.02.02.11.04.24.25.32.14.1-.15-.14-.2-.24-.28-.36-.27-.36-.26-.08-.6.09-.11.16-.11.27-.03.15.11.3.22.46.32.05.03.1.09.16.02s0-.11-.05-.15c-.22-.16-.45-.32-.67-.48-.1-.07-.16-.04-.22.04-.14.2-.29.41-.43.61h0c-.19-.25-.38-.5-.55-.76.22-.32.23-.39.61-.11.05.04.11.08.16.01.06-.08-.01-.11-.06-.15-.29-.21-.59-.43-.89-.64-.05-.03-.1-.09-.16-.01-.05.07.02.11.06.15.1.1.32.2.3.28-.03.09-.09.17-.15.26-.59-.92-1.11-1.88-1.51-2.9,1.07,1.3,2.37,2.47,3.85,3.45,0,.87.09,1.74.24,2.6-.64-.6-1.21-1.27-1.74-1.96h-.01ZM8.24,28.3c-1.76-1.27-3.24-2.82-4.27-4.56.22-2.33,1.08-4.56,2.56-6.65.83,1.36,2.04,2.58,3.57,3.58-1.09,2.64-1.7,5.2-1.85,7.63h0ZM12.19,34.07c-.18-.06-.36-.07-.39-.2-.03-.12,0-.41.13-.61.05-.08.1-.08.18-.08.85.02,1.28.63,1.01,1.45-.09.29-.22.48-.39.6-.41-.2-.82-.39-1.21-.62.04-.11.08-.21.15-.3.1-.13.3-.02.44.04.11.05.24.12.3-.06.07-.21-.12-.19-.23-.23h.01ZM14.08,35.8c0-.09.05-.24.12-.52.06-.25.15-.29.41-.24.08.02.18.04.27.07.22.07.5.19.54.03.04-.17-.23-.18-.48-.25-.61-.19-.61-.17-.43-.76.06-.22.16-.27.37-.21.26.08.53.15.8.21.08.02.19.06.23-.07.04-.14-.08-.14-.16-.17-.38-.11-.76-.2-1.14-.31-.18-.05-.27,0-.31.17-.08.34-.18.68-.27,1.02-.08.3-.16.6-.25.9-.24-.1-.48-.2-.72-.3.05-.05.1-.09.14-.15.73-.97.4-1.94-.79-2.26-.47-.13-.76.04-.89.5-.19.69-.05.26-.08.26-.51.1-.06.37-.06.37,0,0-.06.13-.13.31-.46-.28-.91-.57-1.34-.89-.29-1.02-.46-2.06-.53-3.12,2.3,1.28,4.93,2.12,7.67,2.47.02,1.36.08,2.64.18,3.79-1.07-.18-2.12-.49-3.13-.87l-.02.02ZM17.02,31.69c-2.77-.38-5.41-1.28-7.67-2.65.06-2.46.65-5.07,1.75-7.78,1.84,1.02,3.98,1.7,6.27,2-.23,3.13-.34,5.96-.34,8.43h-.01ZM17.45,22.1c-2.16-.28-4.18-.94-5.91-1.91,1.76-3.89,4.05-6.81,4.69-7.58.68.32,1.41.55,2.17.67-.17,1.29-.61,4.72-.95,8.83h0ZM21.57,36.81l.42-1.17c.13-.35.23-.66.31-.96h.01c0,.31.02.73.04,1.09l.06.95c-.28.04-.56.06-.85.09h.01ZM24.5,36.06l.07.19c-.36.1-.73.19-1.1.27l.15-.45h.89,0ZM23.67,35.82l.24-.73c.05-.15.09-.31.12-.46h0c.04.14.08.29.13.46l.25.72h-.76.02ZM25.9,35.84c-.33.13-.68.21-1.02.32l-.63-1.81h-.39l-.75,2.24c-.13.02-.25.05-.38.07l-.16-2.31h-.41l-.44,1.22c-.11.32-.2.59-.26.85h-.01c-.06-.26-.15-.54-.26-.84l-.44-1.21h-.41l-.16,2.52h.31l.06-1.08c.02-.38.04-.8.04-1.11h0c.07.3.17.62.3.98l.4,1.16c-.97.08-1.95.09-2.91,0-.11-1.17-.18-2.45-.2-3.82.61.05,1.21.08,1.8.08,2.24,0,4.41-.33,6.48-.95-.05,1.38-.24,2.62-.57,3.7h.01ZM18.18,31.84c0-2.47.11-5.31.34-8.46.49.04.97.08,1.47.08,1.8,0,3.56-.25,5.23-.7.8,3.03,1.22,5.77,1.25,8.18-2.6.83-5.36,1.15-8.29.91h0ZM26.34,22.41c2.29-.79,4.29-2.01,5.73-3.51,1.28,2.16,2.13,4.45,2.52,6.82-1.77,2.07-4.16,3.72-6.97,4.8-.07-2.42-.5-5.13-1.28-8.11ZM32.21,31.62c-.37-.43-.96-.71-1.47-.6-.11.02-.12.09-.13.17-.01.12.08.12.16.13.32.02.62.09.9.23.14.07.25.17.35.27-.24.25-.5.49-.75.73-.07,0-.14.06-.21.18-.1.09-.2.18-.3.27-.08.02-.16.04-.24.04-.19,0-.35-.08-.43-.26-.07-.17-.05-.33.11-.44.11-.08.24-.07.31.06.05.09.11.24.23.12.12-.12.06-.28-.07-.39-.29-.24-.79-.03-.86.36-.05.27,0,.53.26.68.11.06.22.1.32.12-.96.76-2,1.42-3.13,1.96.24-1.06.36-2.24.38-3.51,2.81-1.02,5.26-2.57,7.16-4.53.03.25.05.5.06.73-.71,1.34-1.61,2.57-2.65,3.67h0ZM36.64,22.55c-.31.68-.7,1.32-1.12,1.94-.49-2.27-1.38-4.46-2.65-6.52,1.04-1.34,1.67-2.83,1.83-4.38.8.96,1.41,2.05,1.82,3.26.15.78.23,1.57.27,2.36,0-.02-.03-.04-.04-.06-.3-.43-.44-.48-.75-.35-.19.09-.36.34-.55.29-.2-.05-.3-.32-.43-.49s-.21-.07-.29.04.03.14.09.2c.15.14.33.29.36.48.02.14-.18.23-.27.36-.14.19-.23.39-.15.63.04.13.1.26.24.31.07.02.11-.03.14-.08.1-.15-.1-.18-.12-.29,0,0,0-.02,0-.03-.12-.22-.04-.5.21-.66.24-.16.24.14.35.21.06.04.1.12.15.17.08.07.16.05.22-.03.06-.07.07-.13,0-.2-.05-.04-.1-.07-.13-.12-.06-.12-.32-.19-.16-.37.15-.17.37-.28.61-.16.11.06.2.16.28.26.09.11.17.24.26.36,0,.01.02,0,.02.02,0,.13.02.26.02.38,0,.84-.07,1.67-.19,2.48h-.01Z"/>
    <path class="cls-5" d="M20.69,19.5l1.42-.1.52,1.23.55-.04-1.66-3.92-.63.04-1.08,4.12.54-.04.33-1.29h0ZM21.08,17.9c.06-.25.11-.5.15-.74h.01c.08.23.15.46.26.72l.48,1.13-1.21.09.31-1.19h0Z"/>
    <path class="cls-5" d="M16.35,17.18c-.38-.25-.81-.4-1.26-.44-.44-.04-.79.14-.95.58-.08.23-.16.47-.24.7h0c-.1.28-.19.55-.29.83-.06.17-.05.3.16.37.21.07.28-.05.34-.21.16-.44.32-.89.47-1.33.18-.53.55-.59,1.02-.44.49.16.8.42.6.99-.15.44-.3.89-.45,1.34-.05.16-.06.3.14.38.2.07.3,0,.35-.18.18-.55.37-1.1.52-1.66.11-.39-.08-.71-.4-.92h-.01Z"/>
    <path class="cls-5" d="M17.09,16.42c-.69-.24-1.39-.49-2.09-.73-.13-.04-.27-.08-.31.11-.04.15.08.19.18.23.34.12.67.24,1.01.35.36.12.72.25,1.08.37.13.04.27.08.32-.11.03-.14-.08-.19-.18-.23h-.01Z"/>
    <path class="cls-5" d="M11.93,13.89c-.22-.27-.45-.54-.67-.81-.06-.07-.12-.14-.21-.06-.08.07-.02.14.03.19.24.25,0,.38-.15.47-.62.35-.82.89-.73,1.57.02.11.03.25.03.37,0,.2-.06.36-.28.45-.06.03-.16.03-.11.14.04.09.12.13.22.1.22-.06.35-.19.41-.41.06-.21.06-.34,0-.67-.14-.71.31-1.06.78-1.42.18-.14.27-.06.39.08.16.19.42.43.27.6-.18.2-.38.41-.67.47-.1.02-.26-.05-.24.15.03.19.2.15.32.14.28-.04.46-.24.66-.41.14-.11.27-.25.43-.02.05.07.12.15.21.05.08-.09,0-.16-.06-.23-.2-.25-.41-.49-.62-.74h-.01Z"/>
    <path class="cls-5" d="M8.39,11.95c.55-.44,1.1-.89,1.65-1.33.09-.08.18-.15.06-.27-.1-.11-.18-.04-.26.02-.28.22-.55.44-.82.66-.27.22-.55.44-.82.66-.09.08-.17.15-.06.28.1.12.18.04.25-.02Z"/>
    <path class="cls-5" d="M26.94,16.51s.01.1.02.14c.02.08.05.13.1.15.06.03.14.01.19-.01.2-.08.39-.09.58-.03h.02s.12.06.18-.03c.05-.07,0-.14-.02-.18v-.02c-.11-.18-.21-.36-.31-.54,0-.01-.02-.03-.02-.04-.01-.02-.03-.05-.03-.06l.03-.02.06-.03c.09-.05.11-.07.16,0l.03.05c.03.05.07.1.1.16.33.56.61,1.14.84,1.63,0,.01.01.02.01.04.02.06.06.15.2.21l.12.05-.07-.19s-.03-.08-.04-.12c-.12-.26-.25-.53-.38-.78-.21-.44-.44-.89-.62-1.35-.02-.05-.05-.09-.09-.1-.05-.02-.1,0-.14.02l-.75.36-.25.12c-.06.03-.12.09-.13.15,0,.04.01.07.05.1.12.08.13.19.15.32h0ZM27.19,16.13c.07-.06.12-.09.16-.09h0s.07.03.11.08c.03.04.06.08.1.12.07.08.14.16.19.27-.12-.04-.24-.06-.34-.06-.08,0-.15.01-.23.03h-.04v-.1c-.02-.12-.02-.2.04-.25h0Z"/>
    <path class="cls-5" d="M26.4,17.68c.2,0,.37-.1.51-.29.13-.19.12-.4-.05-.61-.14-.18-.34-.21-.58-.07-.02,0-.02.01-.03.01h0s-.02-.03-.03-.04h0s-.02-.07-.02-.07c0,0,.01-.02.03-.02.01,0,.03-.01.04-.02.03-.01.07-.03.1-.06.01-.01.04-.02.06-.03.05-.02.12-.04.14-.1.01-.04,0-.08-.02-.13-.02-.04-.05-.07-.09-.08-.06-.01-.13.02-.18.06-.02.01-.04.02-.05.03-.18.07-.33.15-.47.23-.02.01-.05.02-.07.03-.07.02-.14.05-.17.12-.02.04-.01.08,0,.13.02.05.05.08.09.09.07.02.14-.02.19-.06.02-.01.04-.03.06-.04.12-.05.19-.02.24.1.04.1.01.15-.12.21-.07.04-.15.03-.23.03h-.19l-.14.02.12.08c.07.05.14.1.2.15.17.13.34.27.57.31.04,0,.08.01.12.01h-.03ZM26.28,17.08s.07-.06.11-.09c.12-.08.21-.09.3-.04.09.06.12.15.09.26s-.11.17-.24.18h-.05c-.15,0-.28-.07-.43-.16.09-.05.16-.11.23-.16h-.01Z"/>
    <path class="cls-5" d="M25.67,16.12s-.04-.06-.08-.06h0s-.07.03-.09.05c0,0-.02.01-.02.02h-.03c-.08.03-.1.03-.12,0-.01-.03-.04-.07.08-.13s.24-.07.39-.03c.13.04.26.08.39.12l.5.16-.29-.21c-.26-.18-.52-.37-.86-.38h-.01c-.14,0-.28.07-.35.19-.12.18-.11.38.04.55.06.06.11.08.17.08.1,0,.18-.06.22-.09.13-.1.1-.2.07-.24v-.03Z"/>
    <path class="cls-5" d="M30.59,13.69c.12.07.18-.04.23-.12.21-.33.42-.66.62-.99.1-.23.08.19.08.28,0,.38.01.77.03,1.15,0,.14-.04.29.14.36.1.04.19-.16.25-.26.22-.33.43-.66.62-1,.06-.11.23-.31.11-.37-.15-.09-.21.15-.29.25-.2.28-.38.59-.59.93-.02-.11-.03-.14-.03-.18-.01-.49-.02-.98-.03-1.47,0-.12-.05-.18-.16-.24-.1-.06-.14.08-.18.15-.27.42-.53.84-.79,1.27-.04.07-.15.17-.02.24h.01Z"/>
    <path class="cls-5" d="M29.53,13.04c.37.23.71.16.96-.22.19-.29.37-.58.55-.87.04-.07.16-.15.03-.24-.15-.1-.18.05-.23.13-.19.29-.36.59-.56.87-.2.29-.44.34-.68.17-.23-.16-.27-.38-.09-.68.19-.31.38-.62.58-.92.04-.07.08-.13-.02-.19-.09-.06-.14-.01-.18.06-.1.16-.2.32-.3.49-.1.15-.2.3-.29.46-.23.4-.15.71.23.95h0Z"/>
    <path class="cls-5" d="M30.14,8.75c.22.05.37,0,.42-.13.06-.15.01-.27-.17-.38-.06-.04-.13-.08-.19-.13-.06-.05-.1-.11-.07-.19.03-.09.1-.12.18-.11.12,0,.22.05.25.19,0,.05.02.1.08.09.08-.02.05-.08.04-.12-.04-.15-.16-.21-.3-.24-.17-.03-.32.02-.38.14s0,.26.15.36c.08.05.16.1.23.16.06.04.08.11.05.18-.02.07-.08.1-.15.11-.15.02-.27-.06-.31-.21-.02-.06-.05-.09-.1-.08-.07.02-.04.08-.03.11.04.15.16.22.28.25h.02Z"/>
    <path class="cls-5" d="M30.66,8.85s.08.04.11-.01c.02-.04.05-.08.08-.12.05-.08.09-.09.17-.07.05.01.1.02.15.04.16.04.2.07.2.21,0,.04,0,.09.03.12.02.01.05.03.07.02,0,0,.01,0,.02-.01v-.04s0-.05-.01-.08c0-.05-.01-.1-.02-.16-.03-.24-.07-.48-.1-.72,0-.04-.01-.08-.06-.09s-.08.01-.1.05c-.18.26-.36.53-.53.79-.02.02-.05.06,0,.08h-.01ZM31.1,8.34c.06-.09.11-.17.17-.26.02.14.03.29.06.43.02.09-.02.1-.1.09-.26-.04-.26-.05-.12-.26h0Z"/>
    <path class="cls-5" d="M29.62,8.53c.03-.14.06-.27.09-.41.03-.15.07-.29.1-.44,0-.04.02-.08-.04-.1-.07-.02-.08.02-.09.07-.06.28-.13.56-.19.84,0,.04-.02.08.04.1.07.02.08-.02.09-.07h0Z"/>
  </g>
</svg>