<svg xmlns="http://www.w3.org/2000/svg" viewBox="0 0 128 128">
    <defs>
        <style>
            .brain { fill: #6B57FF; }
            .server { fill: #3C3C3C; }
            .connection { fill: #4CAF50; stroke: #4CAF50; stroke-width: 2; }
            .light { fill: #64B5F6; }
        </style>
    </defs>

    <!-- Server rack -->
    <rect class="server" x="24" y="64" width="80" height="48" rx="4" ry="4"/>

    <!-- Server lights/slots -->
    <rect class="light" x="32" y="72" width="8" height="8" rx="1" ry="1"/>
    <rect class="light" x="32" y="88" width="8" height="8" rx="1" ry="1"/>
    <rect class="light" x="32" y="104" width="8" height="8" rx="1" ry="1"/>

    <rect class="light" x="48" y="72" width="32" height="4" rx="1" ry="1"/>
    <rect class="light" x="48" y="88" width="32" height="4" rx="1" ry="1"/>
    <rect class="light" x="48" y="104" width="32" height="4" rx="1" ry="1"/>

    <!-- Brain/AI symbol -->
    <path class="brain" d="M64,16 C42,16 24,34 24,56 L104,56 C104,34 86,16 64,16 Z"/>
    <circle class="light" cx="52" cy="36" r="6"/>
    <circle class="light" cx="76" cy="36" r="6"/>

    <!-- Connection lines between brain and server -->
    <line class="connection" x1="44" y1="56" x2="44" y2="64"/>
    <line class="connection" x1="64" y1="56" x2="64" y2="64"/>
    <line class="connection" x1="84" y1="56" x2="84" y2="64"/>
</svg>