<svg xmlns="http://www.w3.org/2000/svg" width="40px" height="40px" viewBox="0 0 2048 2048">
    <rect fill="#0F1436" x="3.66" y="3.66" width="2048" height="2048" rx="98.19" ry="84.16"/>
    <rect fill="#131947" x="53.66" y="53.66" width="1948" height="1948" rx="98.19" ry="84.16"/>
    <g transform="scale(0.5)">
        <path  fill="#FFD858" transform="translate(140, 160) scale(1, 1)" d="M1811.33 1796.11l-298.71 0 0 -761.16c0,-155.1 -25.86,-267.12 -77.56,-336.06 -63.19,-86.17 -174.24,-129.25 -333.19,-129.25 -158.93,0 -270.95,43.08 -336.05,129.25 -51.71,68.94 -77.55,180.96 -77.55,336.06l0 761.16 -298.73 0 0 -759.71c0,-508.4 237.46,-762.6 712.33,-762.6 472.98,0 709.46,254.2 709.46,762.6l0 759.71zm1637.21 0l-709.46 0c-474.89,0 -712.33,-253.24 -712.33,-759.71 0,-508.4 237.44,-762.6 712.33,-762.6 472.98,0 709.46,253.71 709.46,761.63l0 148.88 -1114.45 0c30.64,210.63 165.64,315.95 404.99,315.95l709.46 0 0 295.85zm-307.35 -907.65c-30.63,-212.55 -164.66,-318.82 -402.11,-318.82l0 0c-239.35,0 -374.35,106.27 -404.99,318.82l807.1 0zm-1328.41 1851.71c0,506.48 -236.5,759.71 -709.45,759.71 -474.9,0 -712.34,-253.23 -712.34,-759.71 0,-508.4 237.44,-762.58 712.34,-762.58l0 0c472.95,0 709.45,254.18 709.45,762.58zm-298.73 0c0,-155.58 -26.43,-267.81 -77.56,-337.03 -63.61,-86.17 -174.24,-129.71 -333.16,-129.71 -158.94,0 -269.58,43.54 -333.19,129.71 -51.11,69.22 -77.56,181.45 -77.56,337.03 0,155.57 26.03,268.11 77.56,337.02 63.19,84.55 174.25,126.85 333.19,126.85l0 0c158.92,0 269.96,-42.3 333.16,-126.85 51.51,-68.93 77.56,-181.45 77.56,-337.02zm1941.67 759.71l-298.71 0 0 -761.16c0,-155.1 -26.37,-266.89 -77.55,-336.05 -63.51,-85.77 -174.25,-129.24 -333.19,-129.24 -158.94,0 -271.2,43.06 -336.06,129.24 -51.74,68.74 -77.55,181.16 -77.55,336.05l0 761.16 -298.73 0 0 -759.71c0,-508.4 237.46,-762.58 712.34,-762.58 472.97,0 709.45,254.39 709.45,762.58l0 759.71z"/>
    </g>
    <rect x="1068" y="1578" width="1000" height="470" fill="#FF0000" />
    <text x="1158" y="1958" font-size="380" fill="#FFFFFF" font-family="Arial" font-weight="bold">PRO</text>
</svg>