<svg xmlns="http://www.w3.org/2000/svg" version="1.1" viewBox="0 0 100 100" width="100px" height="100px">
    <path fill="#95c11f" class="st1"
          d="M 79.579 59.151 C 71.916 59.151 66.751 64.512 61.742 69.62 C 61.742 69.62 61.742 69.62 61.742 69.62 C 59.215 72.428 54.459 75.377 50.085 75.377 C 50.028 75.377 49.958 75.377 49.901 75.377 C 45.216 75.758 40.77 72.442 38.244 69.62 C 38.244 69.62 38.244 69.62 38.244 69.62 C 36.946 68.294 35.634 66.968 34.279 65.712 C 33.023 64.357 31.682 63.045 30.37 61.747 C 30.37 61.747 30.37 61.747 30.37 61.747 C 27.562 59.221 24.612 54.466 24.612 50.092 C 24.612 50.035 24.612 49.965 24.612 49.908 C 24.231 45.224 27.547 40.779 30.37 38.253 C 30.37 38.253 30.37 38.253 30.37 38.253 C 35.478 33.244 40.841 28.08 40.841 20.418 C 40.841 9.143 31.696 0.014 20.421 0 C 9.145 0.014 0 9.129 0 20.418 C 0 28.08 5.363 33.244 10.471 38.253 C 10.471 38.253 10.471 38.253 10.471 38.253 C 13.279 40.779 16.723 44.814 16.229 49.908 C 16.229 49.965 16.229 50.035 16.229 50.092 C 16.229 54.776 14.183 57.993 11.869 60.406 C 11.403 60.886 9.371 62.396 8.849 62.763 C 3.514 66.446 0.014 72.598 0 79.582 C 0 79.582 0 79.582 0 79.582 C 0 79.582 0 79.582 0 79.582 C 0 85.226 2.286 90.32 5.984 94.017 C 9.088 97.121 13.181 99.238 17.754 99.831 C 18.628 99.944 21.733 99.972 22.368 99.901 C 28.295 99.337 33.475 96.247 36.833 91.717 C 37.158 91.28 39.402 88.302 40.065 87.682 C 42.549 85.424 45.894 83.378 49.901 83.773 C 49.958 83.773 50.028 83.773 50.085 83.773 C 55.702 83.773 59.215 86.708 61.742 89.53 C 61.742 89.53 61.742 89.53 61.742 89.53 C 66.751 94.638 71.916 100 79.579 100 C 90.855 100 99.986 90.856 100 79.582 C 99.986 68.308 90.869 59.165 79.579 59.165 L 79.579 59.151 Z"/>
    <circle fill="#706f6f" class="st0" cx="298.63" cy="411.49" r="17.118"
            transform="matrix(1, 0, 0, 0.999859, -247.23291, -362.835907)"/>
</svg>