<svg width="40" height="40" viewBox="0 0 40 40" fill="none" xmlns="http://www.w3.org/2000/svg">
<rect width="40" height="40" fill="#838383"/>
<path d="M21.9928 17.4061L22.7305 15.5482L31.1973 19.0289L30.4596 20.8868L21.9928 17.4061ZM23.9137 36.0772L30.7554 18.8472L33 19.77L26.1584 37L23.9137 36.0772Z" fill="#F5F5F5"/>
<path d="M18.9031 23.7507L18.0914 25.5764L9.77143 21.7466L10.5831 19.921L18.9031 23.7507ZM17.7334 5.01529L10.2057 21.9465L8 20.9313L15.5277 4L17.7334 5.01529Z" fill="#F5F5F5"/>
<path d="M11.2818 20.3917L19.9494 23.9654V26.4669L9.68873 21.6297V20.1619L11.2818 20.3917ZM19.9494 17.4562L11.2943 21.0809L9.68873 21.2596V19.7791L19.9494 14.9546V17.4562Z" fill="#F5F5F5"/>
<path d="M30.4128 20.9022L21.4943 17.3668V14.9291L32.2065 19.7535V21.2468L30.4128 20.9022ZM21.4943 24.0164L30.4379 20.4044L32.2065 20.1364V21.6169L21.4943 26.4542V24.0164Z" fill="#F5F5F5"/>
</svg>
