<?xml version="1.0" encoding="UTF-8" standalone="no"?><!DOCTYPE svg PUBLIC "-//W3C//DTD SVG 1.1//EN" "http://www.w3.org/Graphics/SVG/1.1/DTD/svg11.dtd"><svg width="40" height="40" viewBox="0 0 134 134" version="1.1" xmlns="http://www.w3.org/2000/svg" xmlns:xlink="http://www.w3.org/1999/xlink" xml:space="preserve" xmlns:serif="http://www.serif.com/" style="fill-rule:evenodd;clip-rule:evenodd;stroke-linecap:round;stroke-linejoin:round;"><rect x="0" y="0" width="133.333" height="133.333" style="fill:none;"/><path d="M20.633,25.067c13.995,0.466 29.823,-5.756 47.156,-17.528c12.844,12.283 28.339,18.733 46.744,18.778c7.428,41.994 -6.939,75.716 -45.072,97.655c-47.078,-18.8 -57.405,-54.505 -48.828,-98.905" style="fill:#fff;"/><path d="M66.356,123.239c-29.306,-8.883 -49.928,-40.045 -49.928,-75.439c-0,-7.439 0.911,-14.839 2.705,-21.978c17.3,0.922 34.25,-6.066 47.223,-19.483c12.972,13.417 29.916,20.405 47.222,19.483c3.155,12.556 3.528,25.7 1.239,38.25" style="fill:none;fill-rule:nonzero;stroke:#0c71c3;stroke-width:12.11px;"/><path d="M89.128,103.989c-0,6.094 5.016,11.111 11.111,11.111c6.094,-0 11.111,-5.017 11.111,-11.111c-0,-6.095 -5.017,-11.111 -11.111,-11.111c-6.095,-0 -11.111,5.016 -11.111,11.111" style="fill:none;fill-rule:nonzero;stroke:#8aa39b;stroke-width:11.11px;"/><path d="M100.239,84.544l-0,8.334" style="fill:none;fill-rule:nonzero;stroke:#8aa39b;stroke-width:11.11px;"/><path d="M100.239,115.1l-0,8.333" style="fill:none;fill-rule:nonzero;stroke:#8aa39b;stroke-width:11.11px;"/><path d="M117.078,94.267l-7.217,4.166" style="fill:none;fill-rule:nonzero;stroke:#8aa39b;stroke-width:11.11px;"/><path d="M90.622,109.544l-7.222,4.167" style="fill:none;fill-rule:nonzero;stroke:#8aa39b;stroke-width:11.11px;"/><path d="M83.4,94.267l7.222,4.166" style="fill:none;fill-rule:nonzero;stroke:#8aa39b;stroke-width:11.11px;"/><path d="M109.861,109.544l7.222,4.167" style="fill:none;fill-rule:nonzero;stroke:#8aa39b;stroke-width:11.11px;"/><g><path d="M41.531,75.506l-6.731,-0l0,-34.349l18.494,-0l-0,5.967l-11.763,0l0,8.858l10.946,-0l0,5.944l-10.946,-0l0,13.58Z" style="fill-rule:nonzero;"/><path d="M72.053,75.506l-6.842,-0l0,-28.288l-8.761,0l-0,-6.061l24.364,-0l0,6.061l-8.761,0l-0,28.288Z" style="fill-rule:nonzero;"/><path d="M85.78,75.506l-0,-34.349l6.841,-0l-0,28.334l13.087,-0l-0,6.015l-19.928,-0Z" style="fill-rule:nonzero;"/></g></svg>