<svg id="Layer_1" data-name="Layer 1" xmlns="http://www.w3.org/2000/svg" xmlns:xlink="http://www.w3.org/1999/xlink" viewBox="0 0 20 20"><defs><linearGradient id="linear-gradient" x1="6.2" y1="11.35" x2="15.14" y2="11.35" gradientUnits="userSpaceOnUse"><stop offset="0.01" stop-color="#5d6c81"/><stop offset="0.52" stop-color="#8498b3"/><stop offset="0.99" stop-color="#94aac7"/></linearGradient><linearGradient id="linear-gradient-2" x1="10.56" y1="11.25" x2="15.56" y2="11.25" gradientUnits="userSpaceOnUse"><stop offset="0.01" stop-color="#a6b7d1"/><stop offset="0.52" stop-color="#a6b9d1"/><stop offset="0.99" stop-color="#a6b9d1"/></linearGradient></defs><ellipse cx="10.19" cy="11.06" rx="7.07" ry="6.75" style="fill:#181719"/><path d="M4,11.05l0,0L8.11,13.5A7.41,7.41,0,0,1,7.41,15a.48.48,0,0,1-.56.09L1.47,12a.46.46,0,0,1-.24-.47V10.42a.52.52,0,0,1,.33-.36L7.63,6.6,8,9Z" style="fill:#9fd9d7"/><path d="M16,11.1,11.39,8.44l1.09-1.67,5.88,3.3a.71.71,0,0,1,.39.68v.81a.6.6,0,0,1-.33.59L12.7,15.41l-1.25-1.82Z" style="fill:#9fd9d7"/><path d="M14,18.79a4.71,4.71,0,0,0,1.14-1.44S7,13.52,12.87,5.05c0,0-2.95-1.55-4.28-1C8.59,4,.54,14.62,14,18.79Z" style="fill:url(#linear-gradient)"/><path d="M12.82,5.13s1.41.75,1.57,1.57c0,0-6.09,5.17,1.17,9.67a5.6,5.6,0,0,1-.41,1S6.63,13.2,12.82,5.13Z" style="fill:url(#linear-gradient-2)"/><path d="M14,18.78a6.82,6.82,0,0,0,1.56-2.43,1.58,1.58,0,0,1,1.09.77,3.33,3.33,0,0,1-1.18,2S14.41,19.37,14,18.78Z" style="fill:#7b82b1"/><path d="M8.59,4a6.38,6.38,0,0,1,5.73,2.64l2-1.09S13.93.75,9.61,2.36Z" style="fill:#7b82b1"/><path d="M12.79,5.16a5.61,5.61,0,0,1,1.53,1.6l2-1.17s-.4-1.95-2.12-2.18" style="fill:#686d95"/><path d="M9.61,2.36S13.74.8,16.27,5.59c0,0,1.34-.26.61-1.27,0,0,1.3-1.81-1.31-2,0,0,0-1-1.2-.67,0,0-.37-2-2.12-.56,0,0-1.07-.94-1.46.35C10.79,1.45,9.45.89,9.61,2.36Z" style="fill:#fff"/><path d="M13.67,2.71s.36.7.58.77V4.86s.34,1.28.68,0V3.72l.2.14V4.5s.13.6.34,0V4.23l.12-.65Z" style="fill:#fff"/><path d="M6.23,9.92,8,9a.44.44,0,0,0,.2-.55L7.41,7.17A.35.35,0,0,0,7,7l-.84.48Z" style="fill:#9fd9d7"/></svg>