<svg width="350" height="350" viewBox="0 0 350 350" fill="none" xmlns="http://www.w3.org/2000/svg">
<rect width="350" height="350" rx="24" fill="#373737"/>
<g clip-path="url(#clip0_630_724)">
<path d="M138.474 168.457C139.38 167.761 140.355 167.273 141.364 166.96C141.991 166.786 142.548 166.681 143.245 166.577L145.578 166.263C149.269 165.915 152.195 165.88 154.911 166.194C158.045 166.542 161.075 167.238 163.93 168.213C166.786 169.223 169.711 170.756 171.766 172.357L172.392 172.845L177.094 168.039L176.467 167.413C173.193 164.244 169.746 162.433 166.786 161.075C163.478 159.577 159.856 158.532 155.99 157.94C152.717 157.383 149.2 157.244 144.847 157.453L142.096 157.662C141.121 157.766 139.972 158.01 138.962 158.254C136.768 158.846 134.644 159.891 132.798 161.318C128.689 164.592 126.913 169.223 126.147 172.532C125.311 176.118 125.032 179.879 125.276 184.023C125.798 191.371 127.505 198.266 130.499 205.057L130.813 205.788L137.429 203.525L137.29 202.793C136.872 200.565 136.454 198.336 136.071 196.107C135.897 194.993 135.723 193.879 135.549 192.764L135.514 192.381C135.653 192.486 135.828 192.555 135.967 192.625C136.872 193.112 137.917 193.495 139.066 193.67C145.961 194.923 154.772 192.172 160.03 189.108C162.607 187.61 164.313 186.043 165.254 184.302C166.507 182.004 166.298 179.427 164.662 177.616C162.955 175.666 159.786 174.551 155.259 174.308C151.637 174.099 144.777 174.168 139.31 176.989C137.638 177.86 135.897 179.218 134.678 181.029C134.609 179.287 134.609 177.616 134.922 175.84C135.549 172.288 136.698 169.885 138.474 168.457Z" fill="#F9F8F0"/>
<path d="M231.767 208.121L237.025 212.44L237.582 211.778C246.358 201.331 246.706 185.173 238.383 174.168C235.388 170.338 231.697 167.621 228.458 165.253C226.961 164.174 225.568 163.164 224.314 162.084C222.225 160.378 220.623 158.672 219.126 156.513C217.976 154.911 216.932 153.135 215.783 151.254L214.599 149.304C208.052 138.056 196.804 129.42 184.546 126.251C171.87 122.908 157.975 125.136 147.319 132.171L146.623 132.624L150.175 138.753L150.906 138.404C160.726 133.633 172.079 132.484 182.108 135.235C192.485 138.126 201.505 144.986 206.868 154.075C207.251 154.702 207.669 155.363 208.052 156.025C209.201 157.906 210.385 159.856 211.778 161.771C213.623 164.383 216.166 167.029 218.743 168.98C220.344 170.233 221.946 171.348 223.513 172.427C226.717 174.656 229.747 176.745 231.801 179.357C238.07 187.123 238.279 199.764 232.219 207.495L231.767 208.121Z" fill="#F9F8F0"/>
<path d="M239.777 132.032C230.931 126.216 222.887 121.062 214.181 116.535C203.664 111.068 194.575 107.585 185.591 105.635C174.726 103.267 164.209 103.128 154.319 105.217C143.071 107.62 133.32 113.157 126.843 120.888L126.321 121.515L131.37 126.425L131.962 125.903C138.474 120.226 146.832 116.256 156.2 114.376C165.08 112.565 174.587 112.6 183.676 114.515C192.207 116.326 200.948 119.425 210.455 123.987C218.952 128.096 227.449 132.902 235.633 137.569L236.956 138.3L240.473 132.519L239.777 132.032Z" fill="#F9F8F0"/>
<path d="M117.371 97.173C115.038 101.178 113.331 105.705 112.217 111.033C111.346 115.072 110.789 119.356 110.406 124.893L110.337 125.694L117.301 126.773L118.207 122.943C120.018 115.212 121.759 107.934 125.38 101.944C127.644 98.2525 130.186 95.4318 133.007 93.621C135.828 91.7405 139.38 90.661 143.524 90.4172C149.235 90.069 155.189 91.3574 161.493 92.7504C164 93.3076 166.507 93.8299 169.119 94.3175C174.691 95.3273 179.462 95.5015 183.745 94.9095C189.386 94.1782 194.297 92.1584 197.953 89.0242L198.58 88.4671L194.366 83.1739L193.705 83.6614C190.849 85.716 187.123 86.9696 182.944 87.2482C179.357 87.492 175.492 87.1438 170.686 86.1339C168.423 85.6463 166.124 85.0892 163.721 84.4623C157.209 82.7908 150.488 81.0496 143.071 81.363C139.101 81.5023 133.285 82.4077 127.992 85.8553C123.744 88.5715 120.087 92.4718 117.371 97.173Z" fill="#F9F8F0"/>
<path d="M97.6259 125.903H98.392L99.3322 118.973L98.5661 118.799C91.6014 117.092 83.5222 118.938 77.045 123.744C69.9758 128.897 66.3542 136.28 64.5433 141.573C62.3842 147.702 61.6181 154.702 62.1753 162.363C62.6977 169.815 64.5085 176.815 66.0756 182.073L66.3193 182.874L72.8662 181.272L72.7269 180.471C71.3339 173.124 70.6375 167.238 70.4982 161.98C70.3589 155.747 71.2295 149.861 73.11 144.603C75.1297 139.031 78.4032 134.4 82.6517 131.265C87.1787 127.783 92.3675 125.937 97.6259 125.903Z" fill="#F9F8F0"/>
<path d="M79.239 115.142C80.7365 114.341 82.408 113.54 84.4974 112.704C86.0645 112.112 87.736 111.625 89.7906 111.207C91.5318 110.894 93.3078 110.754 95.1187 110.754H96.0937C97.5911 110.754 99.1234 110.754 100.83 110.615L101.422 110.58L103.442 104.242L102.919 103.859C100.899 102.431 98.2876 101.596 95.3624 101.456C92.8551 101.387 90.313 101.665 87.7709 102.362C85.5073 102.954 83.2438 103.894 80.8758 105.252C78.856 106.401 76.9059 107.899 75.095 109.744L74.5378 110.302L78.5774 115.49L79.239 115.142Z" fill="#F9F8F0"/>
<path d="M138.753 52.529C140.772 53.5389 143.036 54.4095 145.509 55.0711C147.911 55.7328 150.384 56.2203 152.961 56.7775C153.553 56.9168 154.18 57.0213 154.772 57.1606C154.702 57.2302 154.597 57.2998 154.528 57.3695C153.553 58.1008 152.543 58.8321 151.533 59.5634C149.722 60.8867 147.946 62.21 146.17 63.5681C144.533 64.8566 143.14 66.0754 141.956 67.3639C139.902 69.523 139.937 71.9606 142.061 74.2242C142.409 74.5724 142.757 74.9555 143.14 75.2689C145.822 77.428 148.155 77.3235 150.314 74.8858C152.125 72.8661 153.657 70.5329 154.981 68.5479C156.199 66.6674 157.383 64.6825 158.498 62.802C158.811 62.2796 159.09 61.7573 159.403 61.2698L159.96 63.0458C160.622 65.2397 161.318 67.4684 162.05 69.6274C162.816 71.891 163.686 74.3286 164.801 76.6618C165.671 78.4727 167.169 79.5174 168.91 79.5174C169.154 79.5174 169.398 79.4826 169.676 79.4477C172.462 78.9602 174.377 77.6369 175.143 75.5475C175.596 74.3286 175.492 72.5875 174.9 71.4035C173.925 69.523 172.636 67.8514 171.174 66.0406C169.746 64.2646 168.283 62.5234 166.821 60.7822C166.159 59.9813 165.497 59.2152 164.836 58.4142H166.298C168.423 58.4142 170.477 58.4142 172.532 58.449C173.089 58.449 173.681 58.4839 174.238 58.5187C176.432 58.6231 178.696 58.7276 180.959 57.9963C183.083 57.2998 184.616 55.6283 185.068 53.5041C185.486 51.4146 184.79 49.3252 183.118 47.8626C182.352 47.201 181.133 46.7483 179.81 46.6786C177.303 46.5045 175.109 47.5144 172.984 48.4894L172.532 48.6984C169.92 49.8824 167.273 50.9968 164.662 52.1459C164.313 52.2852 163.965 52.3897 163.582 52.4942L163.686 52.0763C163.965 50.8226 164.244 49.6735 164.592 48.5243C165.01 47.0617 165.462 45.6339 165.915 44.1713C166.472 42.0819 167.099 40.0621 167.656 37.9727C168.353 35.4654 167.9 33.5849 166.298 32.4357C164.244 30.9383 161.771 30.5901 159.508 31.4955C158.324 31.983 157.174 33.4804 156.896 34.8385C156.478 37.0673 156.339 39.4005 156.478 41.7685C156.617 44.4151 156.931 47.0965 157.244 49.6735C157.349 50.4047 157.418 51.136 157.488 51.9022L157.035 51.5539C155.99 50.8575 154.981 50.161 153.971 49.4297C153.135 48.8029 152.299 48.1064 151.463 47.4447C150.245 46.4697 148.991 45.4598 147.668 44.5195C146.414 43.6489 144.847 42.9176 143.106 42.3256C140.877 41.5943 139.101 42.2908 137.812 44.3802C137.36 45.1115 136.977 45.9125 136.663 46.8179C135.828 49.3949 136.559 51.4146 138.753 52.529Z" fill="#F9F8F0"/>
<path d="M189.177 75.0949C190.257 78.3684 192.311 79.5175 195.41 78.647C198.022 77.9157 200.564 76.8013 202.758 75.7914C204.813 74.8512 206.833 73.8413 208.783 72.8662C209.34 72.5876 209.862 72.309 210.419 72.0304L209.932 73.8065C209.305 76.0352 208.678 78.2639 208.121 80.4926C207.529 82.8258 206.972 85.3331 206.659 87.9101C206.38 90.2084 207.355 92.0541 209.235 92.8899C210.419 93.4122 211.569 93.656 212.579 93.656C213.832 93.656 214.947 93.3077 215.922 92.5764C216.966 91.7755 217.837 90.2432 217.941 88.9548C218.116 86.8653 217.941 84.7411 217.698 82.4427C217.454 80.1792 217.175 77.9157 216.862 75.6869C216.723 74.677 216.583 73.6323 216.479 72.6224L217.698 73.3886C219.508 74.5378 221.215 75.6521 222.921 76.7665C223.409 77.0799 223.861 77.4281 224.314 77.7415C226.09 78.9952 227.971 80.2837 230.269 80.9105C232.428 81.4677 234.622 80.9105 236.154 79.3434C237.652 77.8112 238.174 75.6521 237.547 73.5627C237.269 72.5876 236.468 71.5429 235.388 70.7768C233.334 69.2794 230.966 68.9311 228.667 68.6177L228.18 68.5481C225.359 68.1302 222.503 67.6775 219.683 67.19C219.334 67.1203 218.986 67.0158 218.603 66.9114L218.916 66.5979C219.822 65.6925 220.693 64.8568 221.598 64.0906C222.747 63.0807 223.896 62.1057 225.045 61.1306C226.682 59.7377 228.319 58.3447 229.886 56.917C231.836 55.1758 232.463 53.3649 231.732 51.5193C230.791 49.1513 228.911 47.5145 226.543 47.0618C225.324 46.8181 223.478 47.4797 222.538 48.4548C221.006 50.0915 219.613 52.0068 218.464 54.0614C217.175 56.3598 215.991 58.7974 214.842 61.1306C214.529 61.7923 214.18 62.4539 213.867 63.1156L213.623 62.5584C213.136 61.444 212.648 60.2949 212.196 59.1457C211.812 58.1706 211.499 57.1607 211.151 56.1508C210.663 54.6534 210.141 53.1212 209.514 51.6586C208.922 50.2308 208.017 48.803 206.833 47.3404C205.37 45.5296 203.49 45.1465 201.296 46.2261C200.53 46.6091 199.763 47.0967 199.032 47.6887C196.908 49.3602 196.455 51.4845 197.709 53.6087C198.858 55.5588 200.321 57.509 202.027 59.3894C203.699 61.2351 205.475 62.9763 207.355 64.8219C207.808 65.2746 208.26 65.6925 208.713 66.1452C208.609 66.1452 208.504 66.1801 208.4 66.1801C207.146 66.2845 205.927 66.3542 204.674 66.4238C202.445 66.5631 200.216 66.7024 197.987 66.9114C195.933 67.0855 194.087 67.3989 192.381 67.8168C189.49 68.5481 188.202 70.6375 188.759 73.6323C188.898 74.1199 189.003 74.6074 189.177 75.0949Z" fill="#F9F8F0"/>
<path d="M243.049 91.8449C244.233 94.0388 245.522 96.1283 246.915 98.357C247.263 98.9142 247.576 99.4365 247.925 100.029C247.82 100.029 247.716 99.9937 247.611 99.9937C246.358 99.7848 245.139 99.541 243.885 99.3321C241.691 98.949 239.532 98.5311 237.338 98.1829C235.284 97.8695 233.403 97.7302 231.662 97.7302C228.667 97.7302 226.926 99.4365 226.752 102.536C226.717 103.023 226.717 103.546 226.752 104.033C227.03 107.446 228.737 109.083 231.975 108.978C234.692 108.874 237.443 108.421 239.776 108.003C241.97 107.585 244.164 107.098 246.288 106.61C246.88 106.471 247.507 106.332 248.099 106.192L247.159 107.864C246.044 109.849 244.895 111.834 243.85 113.854C242.736 115.978 241.552 118.276 240.647 120.714C239.811 122.873 240.298 124.927 241.97 126.146C243.502 127.295 245 127.853 246.462 127.853C247.193 127.853 247.89 127.713 248.552 127.435C249.77 126.912 250.954 125.659 251.407 124.37C252.104 122.385 252.417 120.296 252.73 117.998C253.044 115.734 253.288 113.47 253.566 111.207C253.671 110.197 253.81 109.187 253.914 108.177L254.855 109.187C256.317 110.754 257.745 112.252 259.138 113.749C259.521 114.167 259.904 114.585 260.252 115.038C261.68 116.674 263.177 118.415 265.267 119.565C267.217 120.644 269.481 120.609 271.326 119.46C273.137 118.346 274.147 116.361 274.077 114.167C274.042 113.157 273.52 111.973 272.65 110.963C271.013 109.013 268.784 108.108 266.625 107.237L266.172 107.063C263.526 105.983 260.879 104.834 258.267 103.685C257.919 103.546 257.606 103.372 257.257 103.163L257.641 102.954C258.755 102.292 259.765 101.7 260.844 101.143C262.202 100.446 263.561 99.7848 264.919 99.0883C266.834 98.148 268.749 97.173 270.63 96.1631C272.928 94.9443 273.973 93.3075 273.729 91.3574C273.381 88.8153 271.953 86.7955 269.759 85.7856C268.61 85.2633 266.695 85.4374 265.546 86.2035C263.665 87.4223 261.854 88.9198 260.217 90.6609C258.407 92.5762 256.7 94.6308 255.029 96.6158C254.541 97.2078 254.054 97.765 253.566 98.3222L253.462 97.6953C253.253 96.4765 253.044 95.2925 252.904 94.0737C252.8 93.029 252.696 91.9494 252.626 90.9047C252.521 89.3376 252.382 87.7357 252.138 86.1687C251.895 84.6364 251.372 83.0345 250.571 81.3282C249.596 79.2388 247.855 78.403 245.452 78.8905C244.616 79.0646 243.781 79.3432 242.91 79.7611C240.438 80.8755 239.497 82.8256 240.194 85.1588C240.89 87.3875 241.831 89.6162 243.049 91.8449Z" fill="#F9F8F0"/>
<path d="M80.2142 82.5819C82.1992 85.4374 84.4279 85.9598 87.2138 84.2186C89.5122 82.7908 91.6364 81.0148 93.4821 79.4477C95.1884 77.9851 96.86 76.4181 98.4619 74.9206C98.9146 74.5028 99.3325 74.1197 99.7852 73.7018L99.82 75.6171C99.8548 77.9155 99.8548 80.179 99.9593 82.4774C100.064 84.8802 100.203 87.4572 100.621 89.9993C101.004 92.2977 102.432 93.7951 104.486 94.0389C104.904 94.1085 105.322 94.1085 105.74 94.1085C107.969 94.1085 109.71 93.3424 110.824 91.845C111.625 90.8003 112.008 89.0939 111.765 87.7706C111.347 85.6812 110.581 83.731 109.71 81.572C108.874 79.4826 107.934 77.4279 107.028 75.3385C106.611 74.3983 106.193 73.4232 105.775 72.483L107.098 72.866C109.153 73.458 111.138 74.05 113.123 74.6769C113.68 74.851 114.202 75.0251 114.759 75.2341C116.814 75.9305 118.903 76.6618 121.341 76.627C123.57 76.5922 125.52 75.4082 126.53 73.4929C127.54 71.6124 127.435 69.3837 126.251 67.538C125.694 66.7022 124.649 65.9013 123.396 65.4834C121.028 64.6476 118.625 64.9611 116.326 65.2745L115.839 65.3441C112.983 65.7272 110.163 66.0754 107.307 66.4237C106.959 66.4585 106.576 66.4933 106.193 66.4585L106.402 66.0754C107.028 64.9611 107.62 63.9163 108.247 62.9413C109.083 61.6528 109.919 60.3991 110.755 59.1107C111.939 57.3347 113.123 55.5238 114.237 53.713C115.595 51.4843 115.7 49.569 114.516 48.0367C112.949 46.017 110.685 44.9722 108.282 45.216C107.028 45.3553 105.461 46.4697 104.835 47.6885C103.79 49.7083 102.989 51.9022 102.467 54.2005C101.875 56.7775 101.422 59.4241 100.969 62.001C100.83 62.7323 100.725 63.4636 100.586 64.1949L100.203 63.7422C99.4021 62.802 98.6012 61.8269 97.8699 60.8519C97.243 60.0161 96.651 59.1455 96.0242 58.2401C95.1536 56.9864 94.2482 55.6283 93.2383 54.4095C92.2632 53.2255 90.9748 52.0763 89.4425 50.9967C87.5272 49.6734 85.6467 49.8127 83.8011 51.4843C83.1743 52.0415 82.5822 52.7379 82.0251 53.5041C80.4928 55.698 80.5973 57.857 82.4081 59.5286C84.0448 61.0608 85.995 62.5234 88.1889 63.8467C90.3131 65.1352 92.507 66.3192 94.8054 67.538C95.3626 67.8166 95.9197 68.13 96.4769 68.4434C96.3724 68.4783 96.268 68.5479 96.1983 68.5827C95.0143 69.0006 93.8651 69.4533 92.6811 69.8712C90.5917 70.6373 88.4675 71.4034 86.4129 72.2044C84.4976 72.9357 82.7912 73.7715 81.2938 74.6421C78.7168 76.1395 78.0552 78.5075 79.4481 81.2586C79.6919 81.7113 79.9356 82.164 80.2142 82.5819Z" fill="#F9F8F0"/>
<path d="M285.674 148.294C284.804 147.389 282.923 146.866 281.6 147.145C279.371 147.598 277.177 148.364 275.018 149.409C272.615 150.558 270.282 151.881 268.019 153.135C267.357 153.483 266.73 153.866 266.068 154.214L266.173 153.622C266.417 152.403 266.66 151.185 266.974 150.001C267.252 148.991 267.531 147.981 267.844 146.971C268.297 145.473 268.75 143.906 269.098 142.339C269.411 140.842 269.516 139.136 269.377 137.255C269.203 134.922 267.914 133.564 265.476 133.146C264.641 133.007 263.735 132.972 262.795 133.041C260.114 133.216 258.512 134.678 258.338 137.116C258.163 139.379 258.268 141.817 258.581 144.324C258.895 146.797 259.382 149.234 259.835 151.811C259.939 152.438 260.079 153.065 260.183 153.692C260.079 153.657 260.009 153.587 259.905 153.553C258.825 152.926 257.78 152.264 256.701 151.637C254.786 150.488 252.87 149.304 250.955 148.19C249.144 147.145 247.473 146.344 245.836 145.717C243.05 144.673 240.821 145.613 239.533 148.434C239.324 148.886 239.15 149.374 239.01 149.826C238.035 153.135 239.045 155.224 242.11 156.304C244.652 157.174 247.403 157.731 249.771 158.184C251.965 158.602 254.228 158.915 256.387 159.229C257.014 159.299 257.606 159.403 258.233 159.507L256.805 160.691C255.029 162.154 253.253 163.617 251.512 165.149C249.701 166.751 247.786 168.492 246.045 170.407C244.513 172.148 244.234 174.203 245.313 175.979C246.811 178.382 248.831 179.67 250.99 179.566C252.313 179.531 253.88 178.765 254.716 177.755C256.074 176.118 257.119 174.308 258.268 172.288C259.347 170.303 260.392 168.318 261.437 166.298C261.924 165.358 262.412 164.452 262.899 163.512L263.457 164.835C264.258 166.82 265.058 168.701 265.825 170.616C266.034 171.139 266.243 171.696 266.417 172.218C267.148 174.273 267.949 176.397 269.481 178.208C270.665 179.636 272.337 180.402 274.078 180.402C274.461 180.402 274.809 180.367 275.192 180.297C277.282 179.914 278.953 178.417 279.65 176.362C279.963 175.422 279.893 174.099 279.476 172.845C278.64 170.442 276.899 168.805 275.192 167.203L274.809 166.855C272.72 164.87 270.665 162.885 268.611 160.866C268.367 160.622 268.123 160.343 267.879 159.995L268.332 159.925C269.586 159.716 270.735 159.542 271.919 159.403C273.416 159.229 274.914 159.09 276.411 158.95C278.535 158.741 280.694 158.532 282.819 158.289C285.396 157.975 286.963 156.826 287.415 154.911C288.007 152.438 287.381 150.035 285.674 148.294Z" fill="#F9F8F0"/>
<path d="M260.427 295.773C245.209 297.2 231.244 279.231 225.533 266.799C220.693 256.283 218.116 245.348 217.28 231.349C217.21 230.095 217.141 228.841 217.071 227.553C216.967 225.394 216.862 223.235 216.688 221.111C219.752 218.882 223.479 214.633 224.558 211.151C225.603 208.121 225.951 204.778 225.638 200.634C225.289 196.908 224.454 193.635 223.13 190.64C221.598 187.088 219.16 183.884 216.444 181.899C211.047 177.72 203.943 176.362 197.848 178.347L197.222 178.556L197.256 179.218C197.326 181.307 197.43 183.257 197.605 185.138L197.674 186.043L198.58 185.904C202.759 185.277 207.286 186.531 210.698 189.247C213.832 191.615 215.992 196.072 216.618 201.47C216.862 203.977 216.723 206.415 216.131 208.504C215.608 210.559 214.529 212.196 212.823 213.589C209.41 216.305 201.331 217.907 195.446 218.499L194.645 218.568L194.888 225.289H195.724C196.804 225.289 199.833 225.011 202.306 224.732C202.445 224.732 202.55 224.697 202.689 224.697C202.619 224.802 202.55 224.906 202.515 225.011C202.375 225.255 202.271 225.429 202.201 225.533C201.609 226.369 200.983 227.17 200.356 227.971C198.998 229.642 197.605 231.244 196.386 232.602C195.48 233.299 194.714 234.239 193.948 235.145C193.6 235.562 193.286 235.945 192.973 236.329L189.351 240.264C187.262 242.527 184.929 244.791 182.352 246.95C179.566 249.283 176.258 251.964 172.81 254.089C165.671 258.476 158.289 261.611 150.871 263.421C146.797 264.501 142.653 264.954 139.17 265.267C135.409 265.476 131.892 265.372 128.932 264.988C119.948 256.213 112.565 247.019 106.993 237.582C103.163 231.105 99.9589 224.071 97.4168 216.688C95.78 211.917 94.3871 206.694 92.9941 199.798C92.9941 199.764 92.9941 199.729 92.9593 199.694C94.0737 200.495 95.5711 200.808 97.173 200.565C99.5758 200.216 102.188 199.032 103.929 198.162C104.974 197.639 105.774 197.152 106.471 196.629C106.924 196.316 107.342 195.968 107.69 195.55C107.794 196.037 107.934 196.525 108.073 196.978L108.56 198.719C108.595 198.893 108.665 199.067 108.734 199.276C108.839 199.589 108.978 199.973 108.978 200.39C109.675 203.176 110.302 205.997 110.894 208.748L112.495 216.583L113.192 220.623C113.331 221.703 113.819 222.887 114.411 223.688C115.699 225.568 117.893 226.717 120.122 226.717C120.714 226.717 121.306 226.648 121.863 226.508C122.246 226.404 122.385 226.369 122.699 226.264L123.987 226.021C125.763 225.498 127.504 225.011 129.211 224.593C132.484 223.792 136.001 223.13 139.867 222.608L140.703 222.504L140.111 215.783L139.275 215.817C135.549 215.957 131.753 216.375 127.644 217.071C125.45 217.454 123.604 217.802 121.898 218.22L121.306 218.359L120.017 209.654C119.425 206.067 118.694 202.55 117.754 198.405C116.883 194.645 115.943 190.918 114.898 187.297C113.749 183.188 112.286 178.904 109.396 175.491C106.366 171.556 101.317 168.945 96.581 168.84C94.3871 168.701 92.2977 168.91 90.1386 169.467C90.1386 169.432 90.1386 169.397 90.1386 169.328C90.1386 168.771 90.1386 168.178 90.1386 167.621C90.4172 160.97 91.2878 155.189 92.82 150.001C93.5165 147.354 94.5612 144.638 95.9193 141.921C96.581 140.633 97.3123 139.414 98.0784 138.3C98.7749 137.22 99.7848 136.071 100.446 135.444L101.004 134.922L96.8248 129.141L96.1283 129.698C92.7156 132.415 90.8003 135.34 89.1287 138.126C87.3179 141.295 85.8901 144.429 84.915 147.458C82.9649 153.274 81.7809 159.682 81.2237 167.064C80.4576 179.287 81.572 191.998 84.6016 205.962C87.5965 218.951 92.4718 231.175 99.0883 242.318C105.461 252.939 113.749 263.108 123.743 272.51L124.788 273.485L126.007 273.66C130.43 274.252 134.783 274.391 139.379 274.043C140.041 283.863 138.927 291.594 135.967 297.653C133.982 301.762 130.917 305.21 127.33 307.369C124.649 308.971 122.351 309.145 118.868 309.389C117.998 309.458 117.127 309.528 116.222 309.598L115.351 309.667L116.256 319L117.127 318.93C117.893 318.861 118.624 318.791 119.565 318.721C123.535 318.443 127.609 318.129 132.206 315.378C137.325 312.314 141.643 307.439 144.429 301.727C149.374 291.559 149.304 280.415 148.712 272.684C150.105 272.406 151.533 272.092 152.926 271.744C161.214 269.585 169.363 265.998 177.198 260.984C177.929 260.427 178.695 259.904 179.427 259.347C182.213 257.362 185.068 255.273 187.541 252.835C188.098 252.313 188.655 251.825 189.212 251.338C190.292 250.397 191.371 249.422 192.346 248.343L196.699 243.537C198.057 242.179 199.172 240.647 200.251 239.149L204.709 233.16C206.206 230.826 207.669 228.458 209.096 226.056C209.201 227.657 209.305 229.224 209.41 230.826C210.211 244.094 211.081 257.85 217.001 270.734C225.289 288.738 242.423 306.847 261.297 305.105L262.168 305.036L261.262 295.703L260.427 295.773ZM95.6756 177.546C98.2525 177.929 100.342 179.148 102.013 181.237C102.153 181.586 102.431 181.969 102.849 182.456C102.989 182.63 103.093 182.77 103.163 182.839C103.511 183.431 103.824 184.058 104.138 184.65C104.486 185.347 104.799 186.043 105.113 186.74C105.182 186.914 105.252 187.088 105.357 187.262C103.65 186.287 101.247 185.973 99.4365 185.834C97.765 185.695 96.0935 185.799 94.4567 186.113L94.213 186.148C93.1683 186.356 91.845 186.6 90.9047 187.366C90.6261 184.824 90.069 179.461 90.0341 177.72C92.1932 177.337 94.1433 177.267 95.6756 177.546Z" fill="#F9F8F0"/>
<path d="M184.894 160.134L185.346 160.657C187.471 163.094 190.048 165.985 193.112 168.701C196.351 171.626 199.798 173.75 203.385 174.969L204.151 175.248L206.833 169.154L206.136 168.771C203.176 167.099 200.704 164.696 198.893 162.781C197.221 161.005 195.689 159.055 194.052 157C193.495 156.304 192.938 155.572 192.346 154.841C190.013 151.881 187.68 149.026 184.859 146.414C181.411 143.21 177.755 141.225 174.064 140.459L173.367 140.32L170.755 146.623L171.312 147.041C173.75 148.851 176.014 150.802 178.451 153.204C180.61 155.259 182.7 157.627 184.894 160.134Z" fill="#F9F8F0"/>
</g>
<defs>
<clipPath id="clip0_630_724">
<rect width="247.64" height="288" fill="white" transform="translate(51 31)"/>
</clipPath>
</defs>
</svg>
