<?xml version="1.0" encoding="UTF-8"?>
<svg id="_图层_1" data-name="图层 1" xmlns="http://www.w3.org/2000/svg" viewBox="0 0 37.88 38.76">
  <defs>
    <style>
      .cls-1 {
        font-family: Arial-Black, 'Arial Black';
        font-size: 4.71px;
        font-weight: 800;
      }

      .cls-1, .cls-2 {
        fill: #e15919;
      }

      .cls-2 {
        stroke-width: 0px;
      }
    </style>
  </defs>
  <path class="cls-2" d="M17.01,0c-.69.02-1.37.35-1.93.98-.31.35-.58.76-.8,1.17-.57,1.07-.68,2.29-.9,3.46l-1.17,6.6c-.04.26-.16.37-.39.44l-8.56,2.72c-.62.2-1.25.47-1.8.82-1.68,1.07-1.93,2.83-.67,4.37.56.68,1.28,1.16,2.07,1.51l5.33,2.37s.09.04.14.05l1.13.81s-1.12,12.4.98,13.26c-.02,0-.12-.02-.12-.02,0,0,.21.23.79.16.44.08.38.07.02,0,.78-.1,2.22-.76,4.72-3.27.18-.16.36-.33.54-.51l5.39-5.82,1.26.44c.05.06.11.1.22.13l6,1.83c.82.25,1.63.44,2.51.31,1.56-.23,2.71-1.51,2.7-3.09,0-.69-.25-1.31-.57-1.92l-3.98-7.54c-.13-.24-.12-.39.06-.61l6.68-7.85c.43-.52.82-1.07,1.05-1.71.5-1.41-.15-2.54-1.61-2.81-.67-.12-1.34-.06-2,.12l-9.57,2.54c-.28.08-.42.02-.57-.23l-3.91-6.49c-.3-.49-.65-.97-1.05-1.37C18.4.27,17.7-.02,17.01,0ZM17.3,5.98c.15.11.23.22.31.34l4.2,7c.12.19.22.26.45.2l7.4-1.97,1.78-.47c-.03.15-.09.24-.16.32l-6.1,7.17c-.17.21-.19.35-.06.6l3.86,7.32.18.37h0s-6.88-1.89-6.88-1.89h0s-1.3-.37-1.3-.37l-7.72,8.56,1.41-11.25-1.27-.55h0s-7.17-2.85-7.17-2.85c.14-.13.26-.18.39-.22l8.71-2.75c.2-.06.32-.14.34-.38l.12-.71,1.17-6.6.34-1.87h0Z"/>
  <text class="cls-1" transform="translate(11.76 20.7) rotate(-17.55)"><tspan x="0" y="0">Helper</tspan></text>
</svg>