<?xml version="1.0" encoding="UTF-8"?>
<svg xmlns="http://www.w3.org/2000/svg" xmlns:xlink="http://www.w3.org/1999/xlink" width="40px" height="40px" viewBox="0 0 40 40" version="1.1">
<g id="surface1">
<path style=" stroke:none;fill-rule:nonzero;fill:rgb(0%,0%,0%);fill-opacity:1;" d="M 32.570312 4.570312 C 32.453125 4.632812 32.335938 4.742188 32.304688 4.820312 C 32.117188 5.273438 30.625 9.828125 30.625 9.9375 C 30.625 10.015625 30.976562 10.78125 31.40625 11.640625 L 32.1875 13.203125 L 32.1875 20.742188 L 26.15625 14.710938 C 20.890625 9.460938 20.078125 8.671875 19.804688 8.601562 C 19.632812 8.5625 18.289062 8.289062 16.820312 8 C 13.875 7.429688 13.796875 7.421875 13.554688 7.898438 C 13.335938 8.3125 13.46875 10.257812 13.828125 11.914062 C 14.359375 14.34375 15.585938 16.890625 17.210938 18.90625 C 17.476562 19.226562 19.21875 21.03125 21.085938 22.914062 L 24.484375 26.328125 L 12.8125 26.328125 L 12.664062 26.023438 C 12.429688 25.578125 11.773438 25.023438 11.304688 24.882812 C 11.0625 24.8125 10.59375 24.765625 10.101562 24.765625 C 9.65625 24.765625 9.296875 24.742188 9.296875 24.703125 C 9.296875 24.671875 9.492188 23.929688 9.726562 23.046875 C 10.304688 20.90625 10.296875 20.773438 9.609375 20.429688 C 9.171875 20.210938 9.0625 20.054688 9.0625 19.65625 C 9.0625 19.210938 9.320312 18.984375 9.898438 18.914062 C 10.773438 18.8125 10.851562 18.617188 10.914062 16.523438 C 10.976562 14.523438 10.773438 13.515625 10.195312 12.828125 C 9.734375 12.273438 8.914062 12.109375 8.21875 12.421875 C 7.460938 12.765625 6.5 13.9375 5.75 15.445312 C 4.898438 17.148438 4.609375 18.023438 3.46875 22.265625 C 2.710938 25.085938 2.554688 25.601562 2.40625 25.695312 C 2.304688 25.757812 1.945312 26.09375 1.59375 26.4375 C 1.078125 26.953125 0.898438 27.203125 0.601562 27.8125 C 0.140625 28.75 -0.0390625 29.609375 0.0234375 30.546875 C 0.117188 31.921875 0.601562 32.960938 1.640625 33.992188 C 2.195312 34.546875 2.445312 34.726562 3.054688 35.03125 C 4.414062 35.695312 3.96875 35.65625 10.664062 35.6875 C 15.078125 35.703125 16.648438 35.6875 16.820312 35.617188 C 17.265625 35.429688 17.40625 34.78125 17.078125 34.398438 L 16.890625 34.179688 L 10.921875 34.140625 C 5.4375 34.101562 4.929688 34.085938 4.53125 33.953125 C 2.53125 33.296875 1.351562 31.546875 1.640625 29.671875 C 1.882812 28.070312 3.09375 26.773438 4.664062 26.445312 C 5.070312 26.359375 5.859375 26.328125 7.96875 26.328125 C 10.5625 26.328125 10.757812 26.335938 10.984375 26.476562 C 11.210938 26.617188 11.28125 26.78125 11.914062 28.664062 C 12.453125 30.296875 12.632812 30.734375 12.789062 30.859375 C 12.984375 31.015625 13.09375 31.015625 20 31.015625 C 26.90625 31.015625 27.015625 31.015625 27.210938 30.859375 C 27.367188 30.734375 27.546875 30.296875 28.085938 28.664062 C 28.71875 26.78125 28.789062 26.617188 29.015625 26.476562 C 29.25 26.328125 29.390625 26.320312 32.148438 26.351562 C 34.65625 26.375 35.09375 26.398438 35.46875 26.515625 C 37.023438 27.023438 38.109375 28.210938 38.359375 29.679688 C 38.695312 31.6875 37.195312 33.742188 35.15625 34.0625 C 34.851562 34.109375 32.398438 34.140625 28.921875 34.140625 L 23.1875 34.140625 L 22.960938 34.367188 C 22.601562 34.734375 22.6875 35.359375 23.132812 35.59375 C 23.453125 35.757812 34.703125 35.757812 35.570312 35.59375 C 38.742188 34.984375 40.734375 31.640625 39.726562 28.617188 C 39.328125 27.429688 38.335938 26.195312 37.304688 25.617188 L 36.875 25.375 L 36.875 13.203125 L 37.65625 11.640625 C 38.085938 10.78125 38.4375 10.015625 38.4375 9.9375 C 38.4375 9.828125 36.945312 5.273438 36.757812 4.820312 C 36.625 4.5 36.351562 4.453125 34.515625 4.453125 C 33.15625 4.460938 32.726562 4.484375 32.570312 4.570312 Z M 36.179688 7.945312 L 36.820312 9.882812 L 36.0625 11.382812 L 35.3125 12.890625 L 35.3125 23.867188 L 33.75 22.304688 L 33.75 12.890625 L 33 11.382812 L 32.242188 9.882812 L 32.882812 7.945312 L 33.53125 6.015625 L 35.53125 6.015625 Z M 17.304688 9.695312 L 19.335938 10.101562 L 26.664062 17.414062 L 33.984375 24.726562 L 31.390625 24.765625 C 28.882812 24.804688 28.773438 24.8125 28.429688 24.984375 C 28 25.195312 27.539062 25.632812 27.335938 26.03125 C 27.03125 26.632812 27.164062 26.742188 22.609375 22.164062 C 20.203125 19.757812 18.289062 17.765625 18.039062 17.421875 C 16.476562 15.296875 15.484375 12.898438 15.164062 10.507812 C 15.117188 10.164062 15.0625 9.75 15.039062 9.585938 C 15.007812 9.34375 15.023438 9.296875 15.132812 9.296875 C 15.210938 9.296875 16.1875 9.476562 17.304688 9.695312 Z M 9.1875 14.234375 C 9.28125 14.53125 9.328125 15.023438 9.359375 15.992188 L 9.390625 17.328125 L 8.90625 17.546875 C 8.023438 17.9375 7.5 18.742188 7.5 19.6875 C 7.5 20.296875 7.6875 20.789062 8.09375 21.242188 C 8.28125 21.453125 8.4375 21.671875 8.4375 21.726562 C 8.4375 21.84375 7.679688 24.695312 7.640625 24.726562 C 7.625 24.742188 6.890625 24.765625 6.007812 24.78125 C 4.929688 24.796875 4.40625 24.78125 4.421875 24.726562 C 4.4375 24.6875 4.765625 23.46875 5.148438 22.03125 C 6.109375 18.453125 6.53125 17.265625 7.414062 15.664062 C 7.960938 14.664062 8.664062 13.828125 8.953125 13.828125 C 9.007812 13.828125 9.117188 14.015625 9.1875 14.234375 Z M 26.617188 27.984375 C 26.601562 28.039062 26.484375 28.390625 26.359375 28.765625 L 26.140625 29.453125 L 13.859375 29.453125 L 13.640625 28.765625 C 13.515625 28.390625 13.398438 28.039062 13.382812 27.984375 C 13.351562 27.914062 14.703125 27.890625 20 27.890625 C 25.296875 27.890625 26.648438 27.914062 26.617188 27.984375 Z M 26.617188 27.984375 "/>
<path style=" stroke:none;fill-rule:nonzero;fill:rgb(0%,0%,0%);fill-opacity:1;" d="M 19.445312 34.367188 C 18.8125 35 19.578125 36.007812 20.382812 35.59375 C 20.828125 35.359375 20.914062 34.734375 20.554688 34.367188 C 20.234375 34.046875 19.765625 34.046875 19.445312 34.367188 Z M 19.445312 34.367188 "/>
<path style=" stroke:none;fill-rule:nonzero;fill:rgb(99.607843%,57.254902%,33.72549%);fill-opacity:1;" d="M 9.765625 26.328125 C 11.269531 26.3125 11.226562 26.265625 11.683594 27.671875 C 11.972656 28.558594 12.273438 29.445312 12.570312 30.332031 C 12.746094 30.855469 12.96875 31.015625 13.519531 31.015625 C 17.894531 31.015625 22.269531 31.015625 26.644531 31.015625 C 27.191406 31.015625 27.410156 30.855469 27.585938 30.324219 C 27.953125 29.230469 28.316406 28.132812 28.683594 27.035156 C 28.867188 26.488281 29.085938 26.328125 29.65625 26.328125 C 31.269531 26.328125 32.882812 26.3125 34.5 26.335938 C 36.171875 26.363281 37.726562 27.460938 38.28125 28.957031 C 39.203125 31.4375 37.335938 34.109375 34.632812 34.132812 C 31.875 34.160156 29.113281 34.140625 26.351562 34.140625 C 25.53125 34.140625 24.710938 34.140625 23.890625 34.140625 C 23.171875 34.140625 23.003906 34.253906 22.769531 34.914062 C 22.148438 34.914062 21.523438 34.914062 20.902344 34.914062 C 20.699219 34.351562 20.453125 34.128906 20.054688 34.144531 C 19.667969 34.15625 19.429688 34.382812 19.273438 34.90625 C 18.644531 34.90625 18.011719 34.90625 17.375 34.90625 C 17.164062 34.269531 16.980469 34.140625 16.292969 34.140625 C 12.832031 34.140625 9.367188 34.152344 5.902344 34.136719 C 4.191406 34.128906 2.839844 33.410156 2.042969 31.871094 C 0.773438 29.429688 2.609375 26.410156 5.390625 26.339844 C 6.835938 26.300781 8.28125 26.328125 9.765625 26.328125 M 36.949219 30.0625 C 36.921875 29.921875 36.90625 29.777344 36.871094 29.640625 C 36.589844 28.523438 35.476562 27.761719 34.335938 27.902344 C 33.179688 28.042969 32.289062 29.023438 32.265625 30.175781 C 32.242188 31.480469 33.28125 32.5625 34.574219 32.578125 C 35.921875 32.59375 36.941406 31.542969 36.949219 30.0625 M 4.792969 31.996094 C 5 32.4375 5.324219 32.640625 5.695312 32.5625 C 6.097656 32.480469 6.324219 32.160156 6.328125 31.65625 C 6.332031 31.453125 6.328125 31.25 6.328125 31.015625 C 6.597656 31.015625 6.832031 31.019531 7.0625 31.015625 C 7.554688 31 7.898438 30.664062 7.886719 30.214844 C 7.878906 29.78125 7.542969 29.46875 7.066406 29.453125 C 6.824219 29.449219 6.582031 29.453125 6.328125 29.453125 C 6.328125 29.164062 6.335938 28.929688 6.324219 28.695312 C 6.308594 28.222656 5.980469 27.890625 5.546875 27.894531 C 5.109375 27.894531 4.785156 28.226562 4.769531 28.699219 C 4.757812 28.941406 4.765625 29.183594 4.765625 29.453125 C 4.492188 29.453125 4.257812 29.449219 4.027344 29.453125 C 3.546875 29.46875 3.214844 29.78125 3.207031 30.21875 C 3.195312 30.667969 3.535156 31 4.035156 31.015625 C 4.273438 31.023438 4.515625 31.015625 4.777344 31.015625 C 4.777344 31.359375 4.777344 31.644531 4.792969 31.996094 Z M 4.792969 31.996094 "/>
<path style=" stroke:none;fill-rule:nonzero;fill:rgb(94.509804%,92.941176%,93.333333%);fill-opacity:1;" d="M 16.652344 15.070312 C 15.746094 13.230469 15.230469 11.316406 15.097656 9.242188 C 16.046875 9.429688 16.953125 9.675781 17.871094 9.777344 C 19.015625 9.898438 19.820312 10.460938 20.613281 11.261719 C 24.953125 15.667969 29.34375 20.023438 33.714844 24.394531 C 33.816406 24.496094 33.929688 24.582031 34.109375 24.738281 C 33.902344 24.75 33.796875 24.765625 33.6875 24.765625 C 32.335938 24.765625 30.980469 24.769531 29.628906 24.765625 C 28.589844 24.757812 27.824219 25.199219 27.363281 26.128906 C 27.199219 26.460938 26.976562 26.328125 26.75 26.257812 C 26.707031 26.246094 26.675781 26.191406 26.636719 26.152344 C 24.199219 23.714844 21.753906 21.277344 19.324219 18.832031 C 18.230469 17.734375 17.367188 16.472656 16.652344 15.070312 M 20.996094 13.886719 C 20.421875 13.320312 19.859375 12.742188 19.28125 12.183594 C 18.9375 11.847656 18.46875 11.84375 18.160156 12.144531 C 17.835938 12.457031 17.847656 12.921875 18.183594 13.289062 C 18.230469 13.339844 18.277344 13.382812 18.324219 13.429688 C 21.433594 16.539062 24.539062 19.648438 27.652344 22.757812 C 27.742188 22.847656 27.832031 22.945312 27.9375 23.019531 C 28.261719 23.25 28.703125 23.199219 28.964844 22.914062 C 29.214844 22.640625 29.234375 22.21875 28.996094 21.914062 C 28.902344 21.789062 28.789062 21.683594 28.675781 21.570312 C 26.128906 19.023438 23.582031 16.476562 20.996094 13.886719 Z M 20.996094 13.886719 "/>
<path style=" stroke:none;fill-rule:nonzero;fill:rgb(94.901961%,93.333333%,93.72549%);fill-opacity:1;" d="M 35.390625 15.15625 C 35.390625 18.054688 35.390625 20.914062 35.390625 23.773438 C 35.363281 23.792969 35.335938 23.816406 35.3125 23.835938 C 34.839844 23.347656 34.359375 22.863281 33.902344 22.363281 C 33.828125 22.277344 33.832031 22.097656 33.832031 21.960938 C 33.828125 19.074219 33.832031 16.1875 33.820312 13.296875 C 33.816406 13.023438 33.742188 12.730469 33.628906 12.480469 C 33.253906 11.683594 32.84375 10.902344 32.457031 10.109375 C 32.398438 9.992188 32.347656 9.828125 32.382812 9.714844 C 32.78125 8.480469 33.199219 7.253906 33.609375 6.023438 C 34.277344 6.023438 34.925781 6.023438 35.609375 6.023438 C 36.019531 7.257812 36.441406 8.496094 36.84375 9.738281 C 36.878906 9.839844 36.824219 9.988281 36.769531 10.097656 C 36.40625 10.84375 36.003906 11.570312 35.667969 12.328125 C 35.511719 12.683594 35.433594 13.089844 35.402344 13.480469 C 35.359375 14.023438 35.390625 14.570312 35.390625 15.15625 Z M 35.390625 15.15625 "/>
<path style=" stroke:none;fill-rule:nonzero;fill:rgb(94.509804%,92.941176%,93.333333%);fill-opacity:1;" d="M 7.816406 18.617188 C 7.335938 19.660156 7.539062 20.675781 8.355469 21.453125 C 8.441406 21.53125 8.480469 21.675781 8.515625 21.792969 C 8.53125 21.847656 8.488281 21.917969 8.472656 21.980469 C 8.226562 22.90625 7.976562 23.832031 7.71875 24.796875 C 6.640625 24.796875 5.578125 24.796875 4.484375 24.796875 C 4.757812 23.773438 5.039062 22.730469 5.316406 21.683594 C 5.820312 19.765625 6.324219 17.84375 7.261719 16.074219 C 7.566406 15.503906 7.925781 14.960938 8.300781 14.433594 C 8.480469 14.179688 8.753906 13.992188 8.988281 13.773438 C 9.039062 13.78125 9.09375 13.789062 9.144531 13.796875 C 9.246094 14.253906 9.398438 14.707031 9.433594 15.167969 C 9.480469 15.816406 9.453125 16.46875 9.425781 17.117188 C 9.421875 17.234375 9.28125 17.410156 9.164062 17.453125 C 8.578125 17.675781 8.132812 18.046875 7.816406 18.617188 Z M 7.816406 18.617188 "/>
<path style=" stroke:none;fill-rule:nonzero;fill:rgb(75.686275%,69.019608%,70.980392%);fill-opacity:1;" d="M 20.234375 27.890625 C 22.417969 27.890625 24.558594 27.890625 26.75 27.890625 C 26.570312 28.433594 26.402344 28.933594 26.234375 29.441406 C 22.125 29.441406 18.03125 29.441406 13.917969 29.441406 C 13.75 28.933594 13.585938 28.433594 13.40625 27.890625 C 15.699219 27.890625 17.949219 27.890625 20.234375 27.890625 Z M 20.234375 27.890625 "/>
<path style=" stroke:none;fill-rule:nonzero;fill:rgb(1.176471%,0.784314%,0.392157%);fill-opacity:1;" d="M 36.949219 30.09375 C 36.941406 31.542969 35.921875 32.59375 34.574219 32.578125 C 33.28125 32.5625 32.242188 31.480469 32.265625 30.175781 C 32.289062 29.023438 33.179688 28.042969 34.335938 27.902344 C 35.476562 27.761719 36.589844 28.523438 36.871094 29.640625 C 36.90625 29.777344 36.921875 29.921875 36.949219 30.09375 M 34.878906 29.507812 C 34.546875 29.382812 34.222656 29.445312 34.042969 29.726562 C 33.914062 29.933594 33.847656 30.238281 33.890625 30.476562 C 33.953125 30.828125 34.25 31.003906 34.613281 31.011719 C 34.957031 31.019531 35.265625 30.773438 35.363281 30.4375 C 35.460938 30.089844 35.324219 29.792969 34.878906 29.507812 Z M 34.878906 29.507812 "/>
<path style=" stroke:none;fill-rule:nonzero;fill:rgb(1.176471%,0.392157%,0.392157%);fill-opacity:1;" d="M 4.785156 31.964844 C 4.777344 31.644531 4.777344 31.359375 4.777344 31.015625 C 4.515625 31.015625 4.273438 31.023438 4.035156 31.015625 C 3.535156 31 3.195312 30.667969 3.207031 30.21875 C 3.214844 29.78125 3.546875 29.46875 4.027344 29.453125 C 4.257812 29.449219 4.492188 29.453125 4.765625 29.453125 C 4.765625 29.183594 4.757812 28.941406 4.769531 28.699219 C 4.785156 28.226562 5.109375 27.894531 5.546875 27.894531 C 5.980469 27.890625 6.308594 28.222656 6.324219 28.695312 C 6.335938 28.929688 6.328125 29.164062 6.328125 29.453125 C 6.582031 29.453125 6.824219 29.449219 7.066406 29.453125 C 7.542969 29.46875 7.878906 29.78125 7.886719 30.214844 C 7.898438 30.664062 7.554688 31 7.0625 31.015625 C 6.832031 31.019531 6.597656 31.015625 6.328125 31.015625 C 6.328125 31.25 6.332031 31.453125 6.328125 31.65625 C 6.324219 32.160156 6.097656 32.480469 5.695312 32.5625 C 5.324219 32.640625 5 32.4375 4.785156 31.964844 Z M 4.785156 31.964844 "/>
<path style=" stroke:none;fill-rule:nonzero;fill:rgb(0.784314%,0.784314%,0.784314%);fill-opacity:1;" d="M 21.015625 13.90625 C 23.582031 16.476562 26.128906 19.023438 28.675781 21.570312 C 28.789062 21.683594 28.902344 21.789062 28.996094 21.914062 C 29.234375 22.21875 29.214844 22.640625 28.964844 22.914062 C 28.703125 23.199219 28.261719 23.25 27.9375 23.019531 C 27.832031 22.945312 27.742188 22.847656 27.652344 22.757812 C 24.539062 19.648438 21.433594 16.539062 18.324219 13.429688 C 18.277344 13.382812 18.230469 13.339844 18.183594 13.289062 C 17.847656 12.921875 17.835938 12.457031 18.160156 12.144531 C 18.46875 11.84375 18.9375 11.847656 19.28125 12.183594 C 19.859375 12.742188 20.421875 13.320312 21.015625 13.90625 Z M 21.015625 13.90625 "/>
<path style=" stroke:none;fill-rule:nonzero;fill:rgb(92.54902%,90.980392%,91.372549%);fill-opacity:1;" d="M 34.90625 29.519531 C 35.324219 29.792969 35.460938 30.089844 35.363281 30.4375 C 35.265625 30.773438 34.957031 31.019531 34.613281 31.011719 C 34.25 31.003906 33.953125 30.828125 33.890625 30.476562 C 33.847656 30.238281 33.914062 29.933594 34.042969 29.726562 C 34.222656 29.445312 34.546875 29.382812 34.90625 29.519531 Z M 34.90625 29.519531 "/>
</g>
</svg>
