<svg xmlns="http://www.w3.org/2000/svg" width="40" height="40" viewBox="0 0 40 40">
  <path fill="url(#icon-gradient)" fill-rule="evenodd" d="M6,7 L34,7 C35.1045695,7 36,7.8954305 36,9 L36,31 C36,32.1045695 35.1045695,33 34,33 L6,33 C4.8954305,33 4,32.1045695 4,31 L4,9 C4,7.8954305 4.8954305,7 6,7 Z M18.3743687,21.8388348 L20.1421356,20.0710678 L13.0710678,13 L11.3033009,14.767767 L16.6066017,20.0710678 L11.3033009,25.3743687 L13.0710678,27.1421356 L18.3743687,21.8388348 Z M22,24.642135 L22,27.1421356 L30,27.1421356 L30,24.642135 L22,24.642135 Z"/>
  <path fill="none" stroke="black" stroke-width="1" d="M6,7 L34,7 C35.1045695,7 36,7.8954305 36,9 L36,31 C36,32.1045695 35.1045695,33 34,33 L6,33 C4.8954305,33 4,32.1045695 4,31 L4,9 C4,7.8954305 4.8954305,7 6,7 Z"/>
  <defs>
    <linearGradient id="icon-gradient" x1="16.748%" x2="47.286%" y1="-3.61%" y2="85.907%">
      <stop offset="10%" stop-color="#11eeee"/>
      <stop offset="90%" stop-color="#087CFA"/>
    </linearGradient>
  </defs>
</svg>
