<svg xmlns="http://www.w3.org/2000/svg" viewBox="0 0 270 284">
    <title>tl;dr vertical logo</title>
    <path fill="#34d399" d="M133.7,29.2l-43.5,5.3l11.8,95.7l-30.2,3.7L60.1,38.2l-40.6,5l-3.5-28.5l114.3-14L133.7,29.2z"/>
    <path fill="#ec4899" d="M259.4,109.2l-3.4,28l-105.3-12.9L165.9,0l30.6,3.7L184.7,100L259.4,109.2z"/>
    <path fill="#38bdf8" d="M208.1,221.4l-17.8,2.2l5.1,41.2l-30.6,3.7l-15.3-124.3l55.9-6.8c29.7-3.6,48.6,9,51.8,35.5 c2.3,18.3-5.4,31.9-19.6,40.1l32.5,42.6l-34.7,4.3L208.1,221.4z M187.1,198.4l20.8-2.6c13.1-1.6,19.6-7.7,18.3-18.2 c-1.3-10.6-9-14.6-22.2-13l-20.8,2.6L187.1,198.4z"/>
    <polygon points="63.2,131 93.7,131 93.7,34.6 137.5,34.6 137.5,5.8 22.3,5.8 22.3,34.6 63.2,34.6"/>
    <polygon points="187.6,102.8 187.6,5.8 156.8,5.8 156.8,131 262.9,131 262.9,102.8"/>
    <path d="M260.2,179.8c0-26.7-17.2-41.5-47.1-41.5h-56.4v125.2h30.8v-41.5h18l22.3,41.5h35l-27-46.2 C250.9,210.9,260.2,198.3,260.2,179.8z M208.6,196.6h-21v-31.4h21c13.2,0,20.4,4.9,20.4,15.6C229,191.3,221.8,196.6,208.6,196.6z" />
    <path d="M36.9,160.5l1.5,1.5c12.3-8.9,28.6-14.4,44-12.8c-14.1,2.1-27.4,9.7-37,19.7l10.5,10.4c15.9-14.1,32.7-13.7,49.1,2.6 c17,16.9,16.3,34,0.4,49.8l-11.9,11.6l-34.4-34.1l-16.7-16.6l-18.9-18.7L1.8,195.5L90.8,284l34.4-34.2c29-28.8,30.1-63.7,2.1-91.4 C99.4,130.6,65.7,131.9,36.9,160.5z M42.5,226.3l-30.6-30.5l11.7-11.7l30.6,30.5L42.5,226.3z"/>
    <path fill="#fde047" d="M13.6,166.4c1.7-5.6,6.1-9.9,11.7-11.6c-5.6-1.7-10-6.1-11.7-11.6c-1.7,5.6-6.1,9.9-11.7,11.6 C7.5,156.5,11.9,160.8,13.6,166.4z M21.1,229.4c-3.1,10.1-11,17.9-21.1,21c10.1,3.1,18,10.9,21.1,21c3.1-10.1,11-17.9,21.1-21 C32.1,247.3,24.2,239.4,21.1,229.4z M83.8,186.5c-2.1,6.8-7.4,12.1-14.3,14.2c6.8,2.1,12.2,7.4,14.3,14.2c2.1-6.8,7.4-12.1,14.3-14.2 C91.2,198.6,85.8,193.3,83.8,186.5z"/>
</svg>
