<?xml version="1.0" encoding="UTF-8"?>
<!DOCTYPE svg PUBLIC "-//W3C//DTD SVG 1.1//EN" "http://www.w3.org/Graphics/SVG/1.1/DTD/svg11.dtd">
<svg xmlns="http://www.w3.org/2000/svg" xmlns:xlink="http://www.w3.org/1999/xlink" version="1.1" width="40px" height="40px" viewBox="-0.5 -0.5 40 40" style="background-color: rgb(255, 255, 255);"><defs/><g><rect x="0" y="0" width="40" height="40" fill="none" stroke="none" pointer-events="all"/><rect x="10" y="10" width="20" height="20" fill="none" stroke="#4889f0" pointer-events="all"/><rect x="10" y="10" width="3" height="3" fill="none" stroke="#4889f0" pointer-events="all"/><rect x="18.5" y="10" width="3" height="3" fill="none" stroke="#4889f0" pointer-events="all"/><rect x="30" y="10" width="3" height="3" fill="none" stroke="#4889f0" pointer-events="all"/><rect x="27" y="10" width="3" height="3" fill="none" stroke="#4889f0" pointer-events="all"/><rect x="7" y="10" width="3" height="3" fill="none" stroke="#4889f0" pointer-events="all"/><rect x="10" y="7" width="3" height="3" fill="none" stroke="#4889f0" pointer-events="all"/><rect x="18.5" y="7" width="3" height="3" fill="none" stroke="#4889f0" pointer-events="all"/><rect x="27" y="7" width="3" height="3" fill="none" stroke="#4889f0" pointer-events="all"/><rect x="10" y="18.5" width="3" height="3" fill="none" stroke="#4889f0" pointer-events="all"/><rect x="18.5" y="18.5" width="3" height="3" fill="none" stroke="#4889f0" pointer-events="all"/><rect x="30" y="18.5" width="3" height="3" fill="none" stroke="#4889f0" pointer-events="all"/><rect x="27" y="18.5" width="3" height="3" fill="none" stroke="#4889f0" pointer-events="all"/><rect x="7" y="18.5" width="3" height="3" fill="none" stroke="#4889f0" pointer-events="all"/><rect x="10" y="30" width="3" height="3" fill="none" stroke="#4889f0" pointer-events="all"/><rect x="18.5" y="30" width="3" height="3" fill="none" stroke="#4889f0" pointer-events="all"/><rect x="27" y="30" width="3" height="3" fill="none" stroke="#4889f0" pointer-events="all"/><rect x="10" y="27" width="3" height="3" fill="none" stroke="#4889f0" pointer-events="all"/><rect x="18.5" y="27" width="3" height="3" fill="none" stroke="#4889f0" pointer-events="all"/><rect x="30" y="27" width="3" height="3" fill="none" stroke="#4889f0" pointer-events="all"/><rect x="27" y="27" width="3" height="3" fill="none" stroke="#4889f0" pointer-events="all"/><rect x="7" y="27" width="3" height="3" fill="none" stroke="#4889f0" pointer-events="all"/><rect x="21.5" y="18.5" width="3" height="3" fill="none" stroke="#4889f0" pointer-events="all"/><rect x="18.5" y="21.5" width="3" height="3" fill="none" stroke="#4889f0" pointer-events="all"/><rect x="18.5" y="15.5" width="3" height="3" fill="none" stroke="#4889f0" pointer-events="all"/><rect x="15.5" y="18.5" width="3" height="3" fill="none" stroke="#4889f0" pointer-events="all"/></g></svg>