<?xml version="1.0" encoding="UTF-8" standalone="no"?>
<!DOCTYPE svg PUBLIC "-//W3C//DTD SVG 1.1//EN" "http://www.w3.org/Graphics/SVG/1.1/DTD/svg11.dtd">
<svg width="100%" height="100%" viewBox="0 0 80 80" version="1.1" xmlns="http://www.w3.org/2000/svg" xmlns:xlink="http://www.w3.org/1999/xlink" xml:space="preserve" xmlns:serif="http://www.serif.com/" style="fill-rule:evenodd;clip-rule:evenodd;stroke-linejoin:round;stroke-miterlimit:2;">
    <g id="_---ї-Њ-є-1" serif:id="–°–ї–Њ–є 1" transform="matrix(0.12292,0,0,0.1,0,0)">
        <g transform="matrix(0.957746,0,0,1,11.2291,-0.002)">
            <g transform="matrix(0.8875,0,0,1,73.2186,0)">
                <path d="M481.395,508.535C475.995,437.275 453.013,391.085 441.821,364.907C430.634,338.733 413.434,314.232 413.423,314.27C413.39,314.382 397.937,397.658 370.152,457.909C365.514,467.973 359.355,480.535 353.139,490.653L353.141,490.654C333.958,524.52 306.128,556.919 289.537,589.759C273.088,622.305 270.036,654.539 271.567,691.186C273.11,728.036 281.621,764.178 289.794,800.002C320.604,793.355 347.422,781.979 370.619,767.439C431.669,729.165 468.558,667.947 479.042,601.995C479.042,601.995 479.553,599.317 479.78,596.05C484.509,545.078 482.945,528.996 481.395,508.535Z" style="fill:rgb(64,179,216);fill-rule:nonzero;"/>
            </g>
            <g transform="matrix(0.8875,0,0,1,73.2186,0)">
                <path d="M481.395,508.535C475.995,437.275 453.013,391.085 441.821,364.907C430.634,338.733 413.434,314.232 413.423,314.27C413.423,314.27 413.419,314.287 413.419,314.288C413.42,314.277 413.423,314.265 413.423,314.265L409.317,308.16C319.288,181.78 146.627,118.681 0.747,177.164C-6.277,265.748 34.793,418.168 184.622,460.681C245.194,479.315 293.698,474.484 353.143,490.647C353.14,490.649 353.14,490.651 353.138,490.652C353.138,490.652 413.562,511.71 448.714,543.29C464.527,557.492 480.36,576.181 479.565,598.411C484.574,545.505 482.97,529.32 481.395,508.535Z" style="fill:rgb(131,201,51);fill-rule:nonzero;"/>
            </g>
            <g transform="matrix(0.8875,0,0,1,280.507,496.875)">
                <path d="M182.406,-256.769C161.117,-319.051 170.139,-360.785 209.085,-418.865C227.66,-446.576 259.733,-478.719 287.841,-496.875C401.25,-425.808 443.183,-293.436 401.476,-170.5C371.122,-81.05 342.643,-43.545 270.636,48.49C279.029,-50.079 244.339,-118.411 210.277,-194.341C201.61,-213.659 189.622,-235.652 182.406,-256.769" style="fill:rgb(241,138,42);"/>
            </g>
            <g transform="matrix(0.8875,0,0,1,291.014,498.558)">
                <path d="M234.164,99.853C234.959,77.623 219.126,58.934 203.312,44.732C168.16,13.153 107.738,-7.905 107.738,-7.905C113.955,-18.023 120.113,-30.586 124.75,-40.65C152.536,-100.902 167.989,-184.176 168.022,-184.289C168.033,-184.327 185.232,-159.825 196.42,-133.652C207.613,-107.473 230.595,-61.284 235.994,9.976C237.567,30.761 239.171,46.947 234.164,99.853Z" style="fill:rgb(127,185,60);fill-rule:nonzero;"/>
            </g>
        </g>
        <g transform="matrix(0.304889,0,0,0.383083,22.1354,473.608)">
            <g>
                <path d="M690.335,300.478L676.711,268.177C723.37,162.718 720.276,159.584 711.215,150.436L651.609,92.201L645.694,87.217L638.789,87.217C635.147,87.217 624.276,87.217 533.669,128.313L500.322,114.867C457.222,8.026 452.802,8.026 440.182,8.026L356.097,8.026C343.49,8.026 338.591,8.012 298.618,115.248L265.414,128.729C204.184,102.875 168.274,89.786 158.583,89.786L150.634,90.033L86.521,152.893C76.792,162.041 73.397,165.267 122.732,269.094L109.157,301.282C0,343.481 0,347.574 0,360.486L0,442.932C0,455.866 0,460.424 109.524,499.656L123.096,531.788C76.444,637.19 79.578,640.355 88.642,649.415L148.248,707.721L154.177,712.818L161.115,712.818C164.7,712.818 175.437,712.818 266.171,671.638L299.46,685.175C342.566,792.002 346.993,791.976 359.642,791.976L443.741,791.976C456.601,791.976 461.162,791.976 501.255,684.794L534.628,671.299C595.788,697.161 631.616,710.291 641.246,710.291L649.249,710.065L713.853,646.82C723.043,637.545 726.262,634.338 677.202,530.942L690.683,498.727C799.998,456.486 799.998,452.052 799.998,439.432L799.998,357.077C799.986,344.102 799.986,339.571 690.335,300.478ZM399.979,537.153C322.869,537.153 260.082,475.586 260.082,399.937C260.082,324.343 322.872,262.835 399.979,262.835C477.046,262.835 539.702,324.357 539.702,399.937C539.687,475.586 477.032,537.153 399.979,537.153Z" style="fill:rgb(123,123,123);fill-rule:nonzero;"/>
            </g>
        </g>
    </g>
</svg>
