<?xml version="1.0" encoding="UTF-8"?>
<!DOCTYPE svg PUBLIC "-//W3C//DTD SVG 1.1//EN" "http://www.w3.org/Graphics/SVG/1.1/DTD/svg11.dtd">
<svg version="1.1" xmlns="http://www.w3.org/2000/svg" xmlns:xlink="http://www.w3.org/1999/xlink" x="0" y="0" width="200" height="200" viewBox="0, 0, 200, 200">
  <g id="Background">
    <rect x="0" y="0" width="200" height="200" fill="#000000" fill-opacity="0"/>
  </g>
  <g id="Background"/>
  <g id="Layer_1">
    <g>
      <path d="M0,0 L200,0 L200,200 L0,200 L0,0 z" fill="#000000"/>
      <path d="M200,0 L200,200 L0,200 L0,0 L200,0 z M186,14 L14,14 L14,186 L186,186 L186,14 z" fill="#F27017"/>
    </g>
    <g>
      <path d="M125.086,158.686 L125.086,109.314 L156.286,109.314 L156.286,118.229 L135.371,118.229 L135.371,128.925 L153.886,128.925 L153.886,137.84 L135.371,137.84 L135.371,149.771 L156.286,149.771 L156.286,158.686 z" fill="#FFFFFF"/>
      <path d="M99.029,149.086 Q102.182,149.086 104.102,147.303 Q106.022,145.52 106.022,142.572 L106.022,125.36 Q106.022,122.48 104.102,120.697 Q102.182,118.914 99.029,118.914 L93.063,118.914 L93.063,149.086 z M82.777,158.686 L82.777,109.314 L99.029,109.314 Q102.937,109.314 106.125,110.446 Q109.314,111.577 111.577,113.702 Q113.84,115.828 115.074,118.777 Q116.308,121.726 116.308,125.36 L116.308,142.572 Q116.308,146.206 115.074,149.189 Q113.84,152.172 111.577,154.263 Q109.314,156.354 106.125,157.52 Q102.937,158.686 99.029,158.686 z" fill="#FFFFFF"/>
      <path d="M42.457,158.686 L42.457,149.771 L52.743,149.771 L52.743,118.229 L42.457,118.229 L42.457,109.314 L73.314,109.314 L73.314,118.229 L63.028,118.229 L63.028,149.771 L73.314,149.771 L73.314,158.686 z" fill="#FFFFFF"/>
      <path d="M122.343,90.686 L122.343,41.314 L134.274,41.314 Q139.956,54.443 139.953,54.442 L145.932,41.314 L158,41.314 L158,90.686 L149.018,90.686 L149.223,52.49 L139.953,72.099 L131.12,52.49 L131.326,90.686 z" fill="#FFFFFF"/>
      <path d="M83.943,90.685 L83.943,41.314 L115.143,41.314 L115.143,50.228 L94.229,50.228 L94.229,60.925 L112.743,60.925 L112.743,69.84 L94.229,69.84 L94.229,81.771 L115.143,81.771 L115.143,90.685 z" fill="#FFFFFF"/>
      <path d="M38,90.685 L51.166,41.314 L64.88,41.314 L77.771,90.685 L67.348,90.685 L64.742,79.371 L50.96,79.371 L48.354,90.685 z M62.822,71.348 L59.051,55.097 Q58.845,54.068 58.64,52.868 Q58.434,51.668 58.297,50.571 Q58.16,49.405 58.022,48.171 L57.611,48.171 Q57.474,49.405 57.268,50.571 Q57.131,51.668 56.959,52.868 Q56.789,54.068 56.514,55.097 L52.811,71.348 z" fill="#FFFFFF"/>
    </g>
  </g>
</svg>
