<?xml version="1.0" encoding="UTF-8"?>
<svg version="1.1" viewBox="0 0 96 96" xmlns="http://www.w3.org/2000/svg">
 <defs>
  <linearGradient id="linearGradient2149" x1="48" x2="48" y1=".49485" y2="95.505" gradientUnits="userSpaceOnUse">
   <stop stop-color="#c18bfa" offset=".49518"/>
   <stop stop-color="#a259f8" offset="1"/>
  </linearGradient>
 </defs>
 <rect x=".49485" y=".49485" width="95.01" height="95.01" rx="14.505" ry="14.505" fill="url(#linearGradient2149)" stroke="#c18bfa" stroke-width=".98969"/>
 <path d="m48 10.016c4.6693 0 8.8716 2.7907 10.895 6.6667-1.0895 0.62016-2.0233 1.3953-2.9572 2.3256-2.0233 2.0155-4.8249 3.2558-7.7821 3.2558s-5.7588-1.0853-7.7821-3.2558c-0.93385-0.93023-1.8677-1.7054-2.9572-2.3256 1.7121-3.876 5.9144-6.6667 10.584-6.6667zm11.984 10.698v1.3953c0 7.7519 6.3813 13.953 14.008 13.953h1.4008c-0.31129 0.46512-0.77821 0.93023-1.0895 1.3953-2.8016 2.7907-4.358 6.5116-4.358 10.543s1.5564 7.7519 4.358 10.543c0.46693 0.46512 0.77821 0.93023 1.0895 1.3953h-1.4008c-7.7821 0-14.008 6.2016-14.008 13.953v1.3953c-0.46693-0.31008-0.93385-0.77519-1.4008-1.0853-2.8016-2.7907-6.537-4.3411-10.584-4.3411s-7.7821 1.5504-10.584 4.3411c-0.46693 0.46512-0.93385 0.77519-1.4008 1.0853v-1.3953c0-7.7519-6.2257-13.953-14.008-13.953h-1.4008c0.31128-0.46512 0.77821-0.93023 1.0895-1.3953 2.8016-2.7907 4.358-6.5116 4.358-10.543s-1.5564-7.7519-4.358-10.543c-0.46693-0.46512-0.77821-0.93023-1.0895-1.3953h1.4008c7.7821 0 14.008-6.2016 14.008-13.953v-1.3953c0.46692 0.31008 0.93385 0.77519 1.4008 1.0853 2.8016 2.7907 6.537 4.3411 10.584 4.3411s7.7821-1.5504 10.584-4.3411c0.46693-0.31008 0.93385-0.62015 1.4008-1.0853zm19.455 16.589c4.0467 2.0155 6.6926 6.0465 6.6926 10.698 0 4.6512-2.8016 8.8372-6.6926 10.698-0.62257-1.0853-1.4008-2.0155-2.3346-2.9457-2.0233-2.0155-3.2685-4.8062-3.2685-7.7519s1.0895-5.7364 3.2685-7.7519c0.93385-0.93023 1.7121-1.8605 2.3346-2.9457zm-20.545 42.016c-2.0233 4.031-6.07 6.6667-10.895 6.6667-4.6693 0-8.8716-2.7907-10.895-6.6667 1.0895-0.62016 2.0233-1.3953 2.9572-2.3256 2.0233-2.0155 4.8249-3.2558 7.7821-3.2558s5.7588 1.0853 7.7821 3.2558c1.0895 0.93023 2.179 1.7054 3.2685 2.3256zm-42.335-20.465c-4.0467-2.0155-6.6926-6.0465-6.6926-10.698s2.8016-8.8372 6.6926-10.698c0.62257 1.0853 1.4008 2.0155 2.3346 2.9457 2.0233 2.0155 3.2685 4.8062 3.2685 7.7519s-1.0895 5.7364-3.2685 7.7519c-0.93385 0.93023-1.7121 1.8605-2.3346 2.9457zm31.44 29.147c5.4475 0 10.272-3.2558 12.607-7.7519 1.8677 0.77519 3.7354 1.2403 5.9144 1.2403 4.0467 0 7.7821-1.5504 10.584-4.3411 2.8016-2.7907 4.358-6.5116 4.358-10.543 0-2.0155-0.46693-4.031-1.2451-5.8915 4.6693-2.3256 7.7821-6.9767 7.7821-12.558 0-5.5814-3.2685-10.233-7.7821-12.558 0.77821-1.8605 1.2451-3.876 1.2451-5.8915 0-4.031-1.5564-7.7519-4.358-10.543-2.8016-2.9457-6.6926-4.4961-10.584-4.4961-2.0233 0-4.0467 0.46512-5.9144 1.2403-2.3346-4.6512-7.0039-7.907-12.607-7.907-5.4475 0-10.272 3.2558-12.607 7.907-1.8677-0.77519-3.8911-1.2403-5.9144-1.2403-4.0467 0-7.7821 1.5504-10.584 4.3411-2.8016 2.7907-4.358 6.6667-4.358 10.543 0 2.0155 0.46693 4.031 1.2451 5.8915-4.6693 2.3256-7.7821 6.9767-7.7821 12.558 0 5.5814 3.2685 10.233 7.7821 12.558-0.77821 1.8605-1.2451 3.876-1.2451 5.8915 0 4.031 1.5564 7.7519 4.358 10.543 2.8016 2.7907 6.537 4.3411 10.584 4.3411 2.0233 0 4.0467-0.46512 5.9144-1.2403 2.3346 4.8062 7.1595 7.907 12.607 7.907zm13.852-11.473c0.15564-0.7752 0.15564-1.5504 0.15564-2.4806 0-6.6667 5.4475-11.938 11.984-11.938 0.77821 0 1.5564 0 2.3346-0.15504 0.62257 1.3954 0.93385 2.9457 0.93385 4.6512 0 2.9457-1.0895 5.7364-3.2685 7.7519-2.0233 2.0155-4.8249 3.2558-7.7821 3.2558-1.4008-0.15504-2.9572-0.46512-4.358-1.0853zm14.63-42.171c-0.77821-0.15504-1.5564-0.15504-2.3346-0.15504-6.6926 0-11.984-5.4264-11.984-11.938 0-0.77519 0-1.5504-0.15564-2.4806 1.4008-0.62015 2.9572-0.93023 4.6693-0.93023 2.9572 0 5.7588 1.0853 7.7821 3.2558 2.0233 2.0155 3.2685 4.8062 3.2685 7.7519-0.15564 1.3953-0.62257 2.9457-1.2451 4.4961zm-42.335-14.729c-0.15564 0.77519-0.15564 1.5504-0.15564 2.4806 0 6.6667-5.4475 11.938-11.984 11.938-0.77821 0-1.5564 0-2.3346 0.15504-0.62257-1.3953-0.93385-2.9457-0.93385-4.6512 0-2.9457 1.0895-5.7364 3.2685-7.7519 2.0233-2.0155 4.8249-3.2558 7.7821-3.2558 1.4008 0.15504 2.9572 0.46512 4.358 1.0853zm-14.63 42.171c0.77821 0.15504 1.5564 0.15504 2.3346 0.15504 6.6926 0 11.984 5.4264 11.984 11.938 0 0.77519 0 1.5504 0.15564 2.4806-1.4008 0.62015-2.9572 0.93023-4.6693 0.93023-2.9572 0-5.7588-1.0853-7.7821-3.2558-2.0233-2.0155-3.2685-4.8062-3.2685-7.7519 0.15564-1.3953 0.62257-2.9457 1.2451-4.4961z" fill="#fff" stroke-width=".88889"/>
</svg>
