<?xml version="1.0" encoding="utf-8"?>
<svg viewBox="0 0 36 26" xmlns="http://www.w3.org/2000/svg">
    <path d="M 327.028 138.857 L 329.45 127.435 L 332.364 127.435 Q 333.458 127.435 334.181 127.712 Q 334.903 127.99 335.263 128.525 Q 335.622 129.06 335.622 129.849 Q 335.622 130.67 335.298 131.295 Q 334.974 131.92 334.376 132.318 Q 333.778 132.716 332.958 132.865 L 332.95 132.912 Q 333.833 133.13 334.329 133.732 Q 334.825 134.334 334.825 135.295 Q 334.825 136.505 334.235 137.295 Q 333.645 138.084 332.626 138.47 Q 331.606 138.857 330.302 138.857 Z M 327.981 138.146 L 330.442 138.146 Q 331.442 138.146 332.243 137.845 Q 333.044 137.545 333.517 136.912 Q 333.989 136.279 333.989 135.295 Q 333.989 134.248 333.298 133.732 Q 332.606 133.216 331.302 133.216 L 329.028 133.216 Z M 329.177 132.513 L 331.505 132.513 Q 332.466 132.513 333.204 132.24 Q 333.942 131.966 334.368 131.388 Q 334.794 130.81 334.794 129.912 Q 334.794 129.045 334.173 128.595 Q 333.552 128.146 332.239 128.146 L 330.106 128.146 Z"
          transform="matrix(1.631136, 0, 0, 1.471692, -532.217041, -185.034164)"
          style="fill: rgb(218, 99, 93); white-space: pre;"/>
    <path d="M 336.286 138.857 L 338.7 127.435 L 341.09 127.435 L 340.145 131.912 L 343.825 131.912 L 344.77 127.435 L 347.153 127.435 L 344.739 138.857 L 342.348 138.857 L 343.395 133.927 L 339.715 133.927 L 338.668 138.857 Z"
          transform="matrix(1.631136, 0, 0, 1.471692, -532.217041, -185.034164)"
          style="fill: rgb(218, 99, 93); white-space: pre;"/>
    <rect x="1.197" y="-25.074" width="32.508" height="2.795" style="fill: rgb(218, 99, 93);"
          transform="matrix(1, 0, 0, -1, 0, 0)"/>
</svg>