<?xml version="1.0" encoding="UTF-8" standalone="no"?>
<!DOCTYPE svg PUBLIC "-//W3C//DTD SVG 1.1//EN" "http://www.w3.org/Graphics/SVG/1.1/DTD/svg11.dtd">
<svg width="100%" height="100%" viewBox="0 0 40 40" version="1.1" xmlns="http://www.w3.org/2000/svg" xmlns:xlink="http://www.w3.org/1999/xlink" xml:space="preserve" xmlns:serif="http://www.serif.com/" style="fill-rule:evenodd;clip-rule:evenodd;stroke-linejoin:round;stroke-miterlimit:2;">
    <g transform="matrix(1,0,0,1,-0.375,0.125)">
        <path d="M0.875,19.5C0.859,12.597 2.712,9.045 5.075,6.6C7.95,3.625 11.12,2.08 15.12,1.08C19.12,0.08 23.91,0.795 25.285,1.295C26.66,1.795 29.83,2.84 32.08,4.715C34.33,6.59 37.683,9.623 39.125,16.375C40.352,22.122 38.25,28 36,31.25C33.211,35.279 27.011,38.248 23.25,38.49C17.42,38.865 15.635,38.257 12.255,36.905C9.555,35.825 6.43,33.655 4.93,32.03C3.43,30.405 0.89,26.055 0.875,19.5Z" style="fill:url(#_Linear1);"/>
    </g>
    <path d="M6.861,19.656C6.311,19.734 6.18,21.019 7.124,21.15C8.067,21.281 8.88,21.648 9.247,21.307C9.614,20.966 10.243,20.809 9.326,20.442C8.408,20.075 7.412,19.577 6.861,19.656Z" style="fill:white;"/>
    <path d="M8.644,24.243C8.723,24.61 8.723,24.689 9.509,24.689C10.295,24.689 10.925,24.034 10.741,23.798C10.558,23.562 10.033,23.273 9.719,23.457C9.404,23.64 8.565,23.876 8.644,24.243Z" style="fill:white;"/>
    <path d="M11.921,21.569C12.497,21.963 12.943,21.989 13.022,21.596C13.1,21.202 13.363,20.783 12.655,20.888C11.947,20.993 11.344,21.176 11.921,21.569Z" style="fill:white;"/>
    <path d="M21.804,30.482C22.328,30.692 22.826,30.744 22.878,30.273C22.931,29.801 22.38,28.621 22.04,28.831C21.699,29.04 21.279,30.273 21.804,30.482Z" style="fill:white;"/>
    <path d="M28.174,24.977C28.777,25.03 29.851,24.191 28.777,23.404C27.702,22.618 27.073,22.094 26.837,22.461C26.601,22.828 27.073,24.165 27.492,24.479C27.912,24.794 27.571,24.925 28.174,24.977Z" style="fill:white;"/>
    <path d="M30.166,23.457C30.376,23.876 30.874,25.056 31.372,25.161C31.87,25.266 32.735,25.213 32.787,24.636C32.84,24.06 32.08,23.247 31.608,23.011C31.136,22.775 30.454,22.094 30.218,22.382C29.982,22.67 29.956,23.037 30.166,23.457Z" style="fill:white;"/>
    <path d="M25.316,10.507C25.683,10.874 25.841,11.188 26.181,10.769C26.522,10.35 26.784,8.829 26.181,8.829C25.578,8.829 25.211,9.013 25.211,9.327C25.211,9.642 24.949,10.14 25.316,10.507Z" style="fill:white;"/>
    <path d="M2.302,16.62C2.591,15.129 3.241,13.204 4.136,11.458C4.85,10.065 7.135,8.232 7.515,7.883C9.052,6.472 11.197,5.335 12.605,4.651C13.927,4.009 15.333,3.582 16.76,3.472C18.113,3.369 20.102,3.22 21.572,3.394C22.814,3.542 25.148,4.372 26.312,4.685C27.536,5.016 28.725,5.403 29.823,5.99C30.996,6.615 32.153,7.364 33.031,8.463C33.97,9.639 34.915,11.255 35.341,12.371C35.95,13.968 36.352,15.693 36.413,17.456C36.488,19.633 35.973,23.09 35.763,24.365C35.532,25.773 33.636,29.597 33.234,30.018C32.168,31.135 30.289,32.298 29.491,32.81C27.634,34.001 25.699,34.799 23.816,35.411C22.525,35.831 21.06,35.964 19.507,35.912C18.337,35.872 16.669,35.774 15.233,35.561C14.435,35.443 12.407,34.309 12.044,34.075C11.081,33.455 10.252,33.244 9.033,32.577C7.826,31.917 6.528,30.657 5.941,30.006C5.055,29.024 4.373,27.953 3.896,27.044C2.48,24.341 2.254,23.339 2.033,20.644C1.973,19.91 2.173,17.284 2.302,16.62ZM9.809,8.77C9.619,8.912 8.243,9.6 7.173,10.738C6.073,11.908 5.281,13.53 5.207,13.744C4.794,14.938 4.532,15.625 4.316,16.82C4.097,18.029 4.147,19.535 4.208,20.753C4.304,22.688 5.063,24.274 6.064,26.211C6.486,27.03 6.758,28.058 7.545,28.944C8.075,29.54 8.664,30.08 9.203,30.561C9.459,30.79 10.811,31.434 13.319,32.653C13.84,32.907 15.46,33.482 16.22,33.544C17.475,33.648 18.758,33.523 19.734,33.569C21.089,33.632 22.416,33.381 23.547,33.03C25.342,32.473 26.42,31.845 28.246,30.822C28.861,30.508 29.994,30.168 30.579,29.816C31.125,29.488 32.54,28.123 32.812,27.655C33.233,26.931 34.032,25.354 34.531,22.785C34.606,22.401 34.797,19.992 34.735,19.117C34.518,16.034 34.065,14.427 33.443,13.043C33.026,12.113 31.953,10.802 31.085,9.896C28.873,7.588 26.614,7.007 25.875,6.776C24.783,6.435 23.138,5.676 20.992,5.35C20.553,5.283 16.928,5.317 16.818,5.333C15.84,5.476 15.133,5.858 14.197,6.233C12.596,6.874 11.142,7.756 9.809,8.77Z" style="fill:white;"/>
    <path d="M10.451,7.625C10.347,7.558 12.028,5.816 12.059,5.81C12.087,5.806 13.628,7.502 14.107,8.211C14.533,8.842 15.898,11.438 16.111,12.129C16.559,13.188 16.979,13.779 17.441,14.768C17.587,15.079 18.266,16.577 18.335,16.639C18.575,16.993 18.095,17.605 17.742,17.846C17.388,18.087 16.784,17.801 16.721,17.675C16.468,17.172 15.953,16.296 15.751,15.802C15.395,14.932 14.696,13.925 14.341,12.992C14.06,12.442 13.164,10.703 12.847,10.115C12.148,8.821 11.302,8.179 10.451,7.625Z" style="fill:white;"/>
    <path d="M16.915,17.194C17.089,17.025 18.391,16.264 18.782,16.199C19.351,16.105 19.923,16.121 20.417,16.332C20.568,16.397 21.145,16.99 21.297,17.199C21.622,17.642 22.002,18.343 22.162,19.035C22.293,19.598 22.267,20.155 22.034,20.608C21.856,20.901 21.513,21.214 21.112,21.501C20.608,21.861 20.026,22.204 19.657,22.369C19.416,22.549 17.744,22.618 17.585,22.165C17.425,21.706 17.127,21.18 16.893,20.64C16.61,20.005 16.302,19.329 16.294,18.685C16.287,18.167 16.452,17.663 16.915,17.194ZM18.826,17.796C18.621,17.857 17.753,18.293 17.8,18.621C17.863,19.062 18.308,19.514 18.488,19.948C18.677,20.39 18.588,21.347 18.805,21.305C18.805,21.305 19.551,20.839 19.966,20.502C20.208,20.305 20.96,20.248 20.888,20.043C20.433,18.75 19.659,17.541 19.591,17.515C19.24,17.377 19.218,17.68 18.826,17.796Z" style="fill:white;"/>
    <path d="M22.598,4.8C22.581,4.64 24.379,4.916 24.397,5.077C24.513,5.643 23.744,8.6 23.675,8.844C23.535,9.331 22.85,10.881 22.705,11.138C22.358,11.75 21.791,13.629 21.653,13.918C21.45,14.343 20.577,16.096 20.353,16.53C20.254,16.721 18.587,16.505 18.641,16.285C18.732,15.904 18.953,15.71 19.08,15.315C19.141,15.123 19.63,13.764 20.02,12.587C20.415,11.393 21.156,9.962 21.55,9.16C21.55,9.16 22.439,7.065 22.482,6.624C22.528,6.153 22.608,5.256 22.598,4.8Z" style="fill:white;"/>
    <path d="M21.152,17.773C21.051,17.844 20.24,16.858 20.415,16.732C20.811,16.448 21.713,15.848 22.118,15.588C22.722,15.202 23.299,14.789 23.913,14.424C24.882,13.848 25.428,13.388 26.332,12.655C26.598,12.479 28.218,11.069 28.526,10.695C29.306,9.747 29.44,8.242 29.977,7.19C30.131,6.896 31.739,8.173 31.585,8.467C31.087,9.395 30.796,10.454 30.12,11.316C29.648,11.918 27.423,13.834 27.321,13.919C26.736,14.398 24.3,15.952 23.85,16.172C23.335,16.422 21.547,17.493 21.152,17.773Z" style="fill:white;"/>
    <path d="M21.7,20.17C21.583,20.172 21.462,18.522 21.454,18.433C21.461,18.427 24.016,17.926 24.828,17.917C25.627,17.933 26.263,18.095 26.955,18.094C27.184,18.094 28.47,17.448 28.805,17.289C29.402,17.006 31.126,16.457 31.779,16.407C33.187,16.3 35.273,16.148 35.273,16.148C35.659,16.08 36.13,18.209 35.743,18.277C34.868,18.443 33.953,18.221 33.064,18.21C31.076,18.186 29.825,18.704 29.708,18.78C28.743,19.411 27.477,19.802 27.127,19.806C26.422,19.814 24.038,19.951 23.968,19.952C23.252,19.958 22.452,20.158 21.7,20.17Z" style="fill:white;"/>
    <path d="M19.1,22.04C19.145,22.086 20.266,21.03 20.313,21.062C20.518,21.199 20.717,21.346 20.918,21.491C21.365,21.816 21.809,22.147 22.301,22.397C22.876,22.688 23.487,22.894 24.031,23.219C24.311,23.387 25.486,24.649 25.722,25.126C26.037,25.763 26.254,26.459 26.483,27.119L28.646,31.838C28.745,32.134 26.821,32.791 26.692,32.453C26.484,31.908 26.291,30.595 26.072,30.054C25.743,29.238 24.079,26.084 23.758,25.519C23.201,24.535 22.118,24.056 21.629,23.853C21.022,23.599 20.441,23.282 19.905,22.9C19.683,22.742 19.112,22.09 19.1,22.04Z" style="fill:white;"/>
    <path d="M17.54,21.175C17.562,21.154 19.255,22 19.275,22.025C19.398,22.181 19.255,22.422 19.239,22.62C19.079,24.542 19.438,24.963 19.278,26.886C19.165,27.88 18.853,29.696 18.886,30.802C18.903,31.364 18.348,32.647 18.227,33.036C18.041,33.635 18.335,34.339 18.015,34.846C17.976,34.908 15.918,34.47 15.939,34.399C16.072,33.951 16.303,33.266 16.36,32.781C16.41,32.353 16.812,30.767 16.821,30.328C16.841,29.261 17.387,28.083 17.428,27.118C17.568,25.187 17.271,24.384 17.464,22.457C17.482,22.27 17.403,21.304 17.54,21.175Z" style="fill:white;"/>
    <path d="M16.985,20.165C17.107,20.055 17.715,21.303 17.701,21.319C17.513,21.537 16.496,22.463 15.91,23.256C15.316,24.06 14.815,25.4 13.913,26.406C12.941,27.491 9.92,29.571 9.447,30.04C9.379,30.107 8.739,30.753 8.661,30.811C8.598,30.858 7.292,29.536 7.366,29.433C7.54,29.194 7.979,28.78 8.199,28.597C8.584,28.278 10.471,26.931 10.668,26.734C11.615,25.787 12.513,25.202 13.219,24.554C13.939,23.894 14.658,22.398 15.105,21.519C15.46,20.898 15.914,20.333 16.502,19.939C16.521,19.926 16.537,19.908 16.56,19.909C17.132,19.931 16.497,19.868 16.985,20.165Z" style="fill:white;"/>
    <path d="M17.139,17.809C17.453,17.86 16.822,19.314 16.731,19.307C15.582,19.214 14.732,18.921 13.933,18.814C13.488,18.754 11.601,18.922 8.47,18.069C6.78,17.608 6.23,17.295 5.786,17.223C5.653,17.201 3.884,16.874 3.745,16.809C3.387,16.638 3.736,14.148 4.095,14.319C4.337,14.434 5.635,15.018 6.09,15.119C7.778,15.494 9.164,16.188 9.478,16.298C10.334,16.598 13.311,16.695 13.745,16.775C14.539,16.921 15.168,17.08 16.29,17.354C16.379,17.376 17.059,17.666 17.139,17.809Z" style="fill:white;"/>
    <defs>
        <linearGradient id="_Linear1" x1="0" y1="0" x2="1" y2="0" gradientUnits="userSpaceOnUse" gradientTransform="matrix(-9.75,27.5,-27.5,-9.75,19.75,4.25)"><stop offset="0" style="stop-color:rgb(255,157,56);stop-opacity:1"/><stop offset="1" style="stop-color:rgb(255,194,12);stop-opacity:1"/></linearGradient>
    </defs>
</svg>
