<svg width="40" height="40" viewBox="0 0 40 40" fill="none" xmlns="http://www.w3.org/2000/svg">
<path d="M20.5 22.5C25.2442 22.5 29.488 22.9957 32.501 23.7705C34.0187 24.1608 35.1399 24.6012 35.8457 25.0303C36.2024 25.2471 36.3691 25.4087 36.4463 25.5C36.3691 25.5913 36.2024 25.7529 35.8457 25.9697C35.1399 26.3988 34.0187 26.8392 32.501 27.2295C29.488 28.0043 25.2442 28.5 20.5 28.5C15.7558 28.5 11.512 28.0043 8.49902 27.2295C6.98125 26.8392 5.86006 26.3988 5.1543 25.9697C4.79701 25.7525 4.62972 25.5912 4.55273 25.5C4.62972 25.4088 4.79701 25.2475 5.1543 25.0303C5.86006 24.6012 6.98125 24.1608 8.49902 23.7705C11.512 22.9957 15.7558 22.5 20.5 22.5Z" stroke="url(#paint0_linear_2_10)" stroke-width="3"/>
<g filter="url(#filter0_d_2_10)">
<path d="M10.2235 12.3092L7.2804 14.0298L10.2235 15.7141L9.57149 16.7374L6.04883 14.5459V13.5227L9.5896 11.3221L10.2235 12.3092Z" fill="#12B67F"/>
<path d="M13.6702 15.8952C13.8513 15.8952 14.0264 15.862 14.1954 15.7956C14.3644 15.7232 14.5455 15.6206 14.7387 15.4877L15.3726 16.3933C15.1432 16.5865 14.8776 16.7404 14.5757 16.8551C14.2739 16.9699 13.9449 17.0272 13.5887 17.0272C13.0755 17.0272 12.6318 16.9216 12.2575 16.7103C11.8892 16.499 11.6055 16.2031 11.4062 15.8228C11.207 15.4425 11.1074 15.0018 11.1074 14.5007C11.1074 13.9996 11.21 13.5528 11.4153 13.1604C11.6206 12.768 11.9103 12.4601 12.2846 12.2368C12.665 12.0134 13.1087 11.9017 13.6158 11.9017C13.972 11.9017 14.292 11.953 14.5757 12.0556C14.8595 12.1522 15.1251 12.3032 15.3726 12.5084L14.7568 13.3687C14.4067 13.1272 14.0475 13.0065 13.6792 13.0065C12.9608 13.0065 12.6016 13.5045 12.6016 14.5007C12.6016 15.0018 12.6952 15.361 12.8823 15.5783C13.0695 15.7896 13.3321 15.8952 13.6702 15.8952Z" fill="#12B67F"/>
<path d="M18.2669 11.9017C18.9974 11.9017 19.5679 12.1341 19.9784 12.599C20.395 13.0578 20.6033 13.6766 20.6033 14.4554C20.6033 15.2644 20.398 15.8952 19.9875 16.348C19.577 16.8008 19.0034 17.0272 18.2669 17.0272C17.5304 17.0272 16.9569 16.8038 16.5463 16.3571C16.1358 15.9043 15.9305 15.2734 15.9305 14.4644C15.9305 13.9513 16.0211 13.5045 16.2022 13.1242C16.3894 12.7378 16.658 12.439 17.0082 12.2277C17.3644 12.0104 17.7839 11.9017 18.2669 11.9017ZM18.2669 12.9612C17.9711 12.9612 17.7538 13.0819 17.6149 13.3234C17.4761 13.5589 17.4066 13.9392 17.4066 14.4644C17.4066 14.9957 17.4761 15.3821 17.6149 15.6236C17.7538 15.859 17.9711 15.9767 18.2669 15.9767C18.5627 15.9767 18.7801 15.856 18.9189 15.6145C19.0578 15.373 19.1272 14.9867 19.1272 14.4554C19.1272 13.9362 19.0578 13.5589 18.9189 13.3234C18.7801 13.0819 18.5627 12.9612 18.2669 12.9612Z" fill="#12B67F"/>
<path d="M25.4174 10.1539V16.8733H24.1496L24.0771 16.348C23.9322 16.5533 23.7481 16.7193 23.5247 16.8461C23.3013 16.9668 23.0418 17.0272 22.7459 17.0272C22.1664 17.0272 21.7257 16.7978 21.4238 16.339C21.128 15.8802 20.9801 15.2523 20.9801 14.4554C20.9801 13.9603 21.0586 13.5196 21.2155 13.1333C21.3725 12.7469 21.5959 12.445 21.8856 12.2277C22.1754 12.0104 22.5135 11.9017 22.8999 11.9017C23.3346 11.9017 23.6968 12.0526 23.9866 12.3545V10L25.4174 10.1539ZM23.2802 12.9521C23.0206 12.9521 22.8184 13.0759 22.6735 13.3234C22.5286 13.5649 22.4562 13.9453 22.4562 14.4644C22.4562 15.0199 22.5195 15.4123 22.6463 15.6417C22.7791 15.8651 22.9633 15.9767 23.1987 15.9767C23.5006 15.9767 23.7632 15.7926 23.9866 15.4243V13.3506C23.8839 13.2178 23.7753 13.1182 23.6606 13.0518C23.5519 12.9854 23.4251 12.9521 23.2802 12.9521Z" fill="#12B67F"/>
<path d="M27.56 14.8901C27.6506 15.6206 28.0369 15.9858 28.7191 15.9858C29.1297 15.9858 29.5402 15.853 29.9507 15.5874L30.5212 16.3661C30.2858 16.5714 30.005 16.7344 29.679 16.8551C29.353 16.9699 28.9938 17.0272 28.6014 17.0272C28.0641 17.0272 27.6083 16.9216 27.234 16.7103C26.8597 16.4929 26.576 16.1941 26.3828 15.8137C26.1956 15.4274 26.102 14.9806 26.102 14.4735C26.102 13.9905 26.1926 13.5559 26.3737 13.1695C26.5609 12.7771 26.8295 12.4692 27.1797 12.2458C27.5359 12.0164 27.9585 11.9017 28.4475 11.9017C28.9063 11.9017 29.3047 12.0013 29.6428 12.2005C29.9809 12.3937 30.2405 12.6775 30.4216 13.0518C30.6088 13.42 30.7023 13.8607 30.7023 14.3739C30.7023 14.5731 30.6933 14.7452 30.6752 14.8901H27.56ZM28.4475 12.8616C28.1879 12.8616 27.9796 12.9582 27.8226 13.1514C27.6657 13.3385 27.5721 13.6283 27.5419 14.0207H29.3078C29.2957 13.248 29.0089 12.8616 28.4475 12.8616Z" fill="#12B67F"/>
<path d="M35.5617 13.5136V14.5459L32.03 16.7374L31.387 15.7594L34.3211 14.0298L31.387 12.3545L32.0209 11.3221L35.5617 13.5136Z" fill="#12B67F"/>
</g>
<g filter="url(#filter1_d_2_10)">
<path d="M21.128 18.3101V23.2651C21.2442 23.0573 21.364 22.8777 21.4872 22.7263C21.6105 22.5713 21.7813 22.3847 21.9996 22.1663L22.7445 21.4373L23.7059 22.4621L20.3568 25.6052L17.0077 22.4621L17.9691 21.4373L18.7245 22.1769C18.9428 22.3952 19.1154 22.5819 19.2422 22.7368C19.3725 22.8918 19.4869 23.0643 19.5855 23.2545V18.3101H21.128Z" fill="#12B67F"/>
</g>
<defs>
<filter id="filter0_d_2_10" x="2.04883" y="10" width="37.5128" height="15.0272" filterUnits="userSpaceOnUse" color-interpolation-filters="sRGB">
<feFlood flood-opacity="0" result="BackgroundImageFix"/>
<feColorMatrix in="SourceAlpha" type="matrix" values="0 0 0 0 0 0 0 0 0 0 0 0 0 0 0 0 0 0 127 0" result="hardAlpha"/>
<feOffset dy="4"/>
<feGaussianBlur stdDeviation="2"/>
<feComposite in2="hardAlpha" operator="out"/>
<feColorMatrix type="matrix" values="0 0 0 0 0 0 0 0 0 0 0 0 0 0 0 0 0 0 0.25 0"/>
<feBlend mode="normal" in2="BackgroundImageFix" result="effect1_dropShadow_2_10"/>
<feBlend mode="normal" in="SourceGraphic" in2="effect1_dropShadow_2_10" result="shape"/>
</filter>
<filter id="filter1_d_2_10" x="13.0077" y="18.3101" width="14.6981" height="15.2951" filterUnits="userSpaceOnUse" color-interpolation-filters="sRGB">
<feFlood flood-opacity="0" result="BackgroundImageFix"/>
<feColorMatrix in="SourceAlpha" type="matrix" values="0 0 0 0 0 0 0 0 0 0 0 0 0 0 0 0 0 0 127 0" result="hardAlpha"/>
<feOffset dy="4"/>
<feGaussianBlur stdDeviation="2"/>
<feComposite in2="hardAlpha" operator="out"/>
<feColorMatrix type="matrix" values="0 0 0 0 0 0 0 0 0 0 0 0 0 0 0 0 0 0 0.25 0"/>
<feBlend mode="normal" in2="BackgroundImageFix" result="effect1_dropShadow_2_10"/>
<feBlend mode="normal" in="SourceGraphic" in2="effect1_dropShadow_2_10" result="shape"/>
</filter>
<linearGradient id="paint0_linear_2_10" x1="20.5" y1="21" x2="20.5" y2="30" gradientUnits="userSpaceOnUse">
<stop stop-color="#00FFAA"/>
<stop offset="1" stop-color="#868F8C"/>
</linearGradient>
</defs>
</svg>
