<?xml version="1.0" encoding="UTF-8" standalone="no"?>
<svg
   width="198.4375mm"
   height="198.4375mm"
   viewBox="0 0 198.4375 198.4375"
   version="1.1"
   xmlns="http://www.w3.org/2000/svg">
  <g
     transform="translate(-5.7547031,-49.410946)">
    <rect
       style="fill:#24afda;fill-opacity:1;stroke:#24afda;stroke-width:1.00247;stroke-opacity:1"
       width="177.59128"
       height="177.59128"
       x="16.177814"
       y="59.834057" />
    <path
       style="fill:#ffffff;"
       d="m 82.817741,169.41838 v -37.8324 q 0,-8.658 -2.376,-11.9673 -2.367,-3.312 -8.55,-3.312 -6.345,0 -10.0368,4.851 -3.699009,4.851 -3.699009,13.6764 v 34.5789 h -9.8721 v -46.9314 q 0,-10.4238 -0.36,-12.7395 h 9.3753 q 0.0477,0.27 0.09,1.485 0.0477,1.215 0.09,2.808 0.09,1.539 0.18,5.904 h 0.18 q 3.195009,-6.345 7.335009,-8.82 4.14,-2.484 10.0917,-2.484 6.786,0 10.6992,2.7 3.968999,2.7 5.516999,8.604 h 0.18 q 3.087,-6.012 7.443,-8.658 4.41,-2.646 10.6434,-2.646 9.045,0 13.1256,4.905 4.14,4.905 4.14,16.1037 v 39.762 h -9.8163 v -37.8324 q 0,-8.658 -2.376,-11.9673 -2.367,-3.312 -8.55,-3.312 -6.507,0 -10.1466,4.851 -3.582,4.797 -3.582,13.6773 v 34.578 z m 44.312399,-41.5773 v 37.8324 q 0,8.658 2.367,11.9673 2.367,3.312 8.55,3.312 6.345,0 10.0368,-4.851 3.699,-4.851 3.699,-13.6773 v -34.578 h 9.8712 v 46.9314 q 0,10.4238 0.36,12.7395 h -9.3753 q -0.045,-0.27 -0.09,-1.485 -0.045,-1.215 -0.09,-2.808 -0.09,-1.539 -0.18,-5.904 h -0.18 q -3.195,6.345 -7.335,8.82 -4.131,2.484 -10.0917,2.484 -6.786,0 -10.6992,-2.7 -3.969,-2.7 -5.517,-8.604 h -0.18 q -3.087,6.012 -7.443,8.658 -4.41,2.646 -10.6443,2.646 -9.0441,0 -13.1247,-4.905 -4.139999,-4.905 -4.139999,-16.1037 v -39.762 h 9.816299 v 37.8315 q 0,8.658 2.367,11.9673 2.376,3.312 8.55,3.312 6.507,0 10.1475,-4.851 3.582,-4.797 3.582,-13.6773 v -34.578 z" />
  </g>
</svg>
