<?xml version="1.0" encoding="UTF-8"?>
<svg version="1.1" xmlns="http://www.w3.org/2000/svg" width="1024" height="1024">
<path d="M0 0 C337.92 0 675.84 0 1024 0 C1024 337.92 1024 675.84 1024 1024 C686.08 1024 348.16 1024 0 1024 C0 686.08 0 348.16 0 0 Z " fill="#B1B9BC" transform="translate(0,0)"/>
<path d="M0 0 C1.56911908 -0.00302936 3.13823669 -0.00692273 4.70735174 -0.01159257 C8.97100578 -0.02178005 13.23457487 -0.01971467 17.49823558 -0.01541197 C22.11523691 -0.0129278 26.73221867 -0.02197966 31.34921265 -0.02944946 C40.37519531 -0.04215107 49.40114816 -0.0439959 58.42713826 -0.0416492 C65.76786118 -0.03986106 73.1085751 -0.04162628 80.44929695 -0.04587364 C81.49685809 -0.04646883 82.54441924 -0.04706402 83.62372466 -0.04767724 C85.75230268 -0.04888908 87.88088071 -0.05010321 90.00945873 -0.05131962 C109.93750093 -0.06217733 129.86552618 -0.06004085 149.79356933 -0.05393478 C167.99729392 -0.0487652 186.20096499 -0.06002531 204.40467899 -0.07903299 C223.13070816 -0.09843508 241.85671205 -0.10666337 260.58275133 -0.10290974 C271.08226411 -0.10100155 281.58173134 -0.10344808 292.08123589 -0.11762428 C301.01793535 -0.12956918 309.95456121 -0.13090808 318.89126175 -0.11883412 C323.44430094 -0.11296769 327.99720571 -0.11178373 332.55023575 -0.12383652 C336.72944422 -0.13477058 340.90840724 -0.13150377 345.08760459 -0.11757483 C346.58809173 -0.11494847 348.08859859 -0.11722846 349.58906626 -0.1253107 C364.56220787 -0.20027534 378.80262404 1.86663926 392.82655334 7.32319641 C394.35143372 7.90810852 394.35143372 7.90810852 395.90711975 8.50483704 C408.30203113 13.43692576 419.01839386 19.9797951 428.65077209 29.25288391 C430.80149543 31.3655535 430.80149543 31.3655535 433.53358459 33.39350891 C434.63766663 34.31776672 434.63766663 34.31776672 435.76405334 35.26069641 C435.76405334 35.92069641 435.76405334 36.58069641 435.76405334 37.26069641 C436.33639709 37.48886047 436.90874084 37.71702454 437.49842834 37.95210266 C440.3715714 39.61159046 441.95665856 41.60359299 444.01405334 44.19819641 C445.07366272 45.51110657 445.07366272 45.51110657 446.15467834 46.85054016 C447.76405334 49.26069641 447.76405334 49.26069641 447.76405334 52.26069641 C448.75405334 52.59069641 449.74405334 52.92069641 450.76405334 53.26069641 C452.34679118 55.69704567 453.76352301 58.08608046 455.13905334 60.63569641 C455.53971008 61.371026 455.94036682 62.10635559 456.35316467 62.8639679 C457.14769697 64.33492416 457.93632684 65.80908589 458.71864319 67.28657532 C459.54791586 68.85254889 460.39673953 70.40816664 461.25233459 71.95991516 C464.43816725 78.23818473 466.19652112 84.92690256 468.01405334 91.69819641 C468.40210144 93.12820984 468.40210144 93.12820984 468.79798889 94.58711243 C471.8829312 106.6335188 471.91359876 118.74557536 471.91122437 131.10932922 C471.91453092 132.68523148 471.91825812 134.2611329 471.92236584 135.83703327 C471.9323034 140.13811288 471.93608918 144.43917854 471.93875515 148.74026799 C471.9426827 153.39079574 471.95225889 158.0413127 471.96096802 162.6918335 C471.98065943 173.90541238 471.99078745 185.11899207 471.99969581 196.3325839 C472.00408909 201.62377702 472.00945303 206.91496916 472.01468468 212.2061615 C472.03168652 229.81111442 472.04617995 247.41606675 472.05343342 265.02102661 C472.05534304 269.58154806 472.05726341 274.14206951 472.05921936 278.70259094 C472.0597031 279.83596417 472.06018684 280.9693374 472.06068524 282.13705528 C472.0689831 300.4909807 472.09432062 318.8448409 472.12680004 337.19873786 C472.15992955 356.07494277 472.17788733 374.95111459 472.18107766 393.82734871 C472.18323685 404.41255369 472.19189922 414.99766345 472.21753883 425.58283997 C472.23932616 434.59787742 472.24725678 443.61279647 472.23757205 452.62785727 C472.23305109 457.21976521 472.23478409 461.81142923 472.2543335 466.40330315 C472.39641804 501.71721059 472.39641804 501.71721059 467.76405334 518.26069641 C467.45318944 519.40096786 467.14232553 520.54123932 466.82204151 521.71606445 C459.67747351 546.42736456 441.94565927 571.41319496 419.71376038 584.46430969 C415.71218556 586.614649 411.61717768 588.54671858 407.49012756 590.44233704 C405.2910687 591.48494599 403.19638851 592.69163596 401.07655334 593.88569641 C396.09529236 596.37211264 390.84152748 597.89098559 385.51405334 599.44819641 C384.66883118 599.69843567 383.82360901 599.94867493 382.95277405 600.20649719 C370.34926686 603.73524061 357.76571327 604.55745859 344.74411011 604.52139282 C343.17401772 604.52442053 341.60392681 604.52831308 340.03383845 604.53298539 C335.75812552 604.54319464 331.48249709 604.54110178 327.20677745 604.5368048 C322.58015932 604.53432457 317.95356086 604.5433678 313.32695007 604.55084229 C304.27729554 604.56355602 295.22767073 604.56538709 286.17800877 604.56304202 C278.81675559 604.56125477 271.45551138 604.56301722 264.09425926 604.56726646 C262.5192142 604.56815925 262.5192142 604.56815925 260.91235005 604.56907007 C258.77878342 604.5702819 256.6452168 604.57149603 254.51165017 604.57271244 C234.52680595 604.58357543 214.54197862 604.58143153 194.55713346 604.5753276 C176.30613395 604.57016106 158.05518785 604.58140917 139.8041989 604.60042582 C121.03076288 604.61983572 102.25735208 604.6280546 83.48390597 604.62430257 C72.95747188 604.62239511 62.43108323 604.62483342 51.90465736 604.63901711 C42.94198224 604.65097221 33.97938051 604.6522898 25.0167043 604.64022694 C20.45127975 604.63436677 15.88598917 604.63315874 11.32057381 604.64522934 C-22.65191072 604.72904222 -22.65191072 604.72904222 -39.23594666 601.26069641 C-41.56599491 600.89270846 -43.89752909 600.57304257 -46.23594666 600.26069641 C-46.23594666 599.60069641 -46.23594666 598.94069641 -46.23594666 598.26069641 C-47.48504822 598.09440735 -47.48504822 598.09440735 -48.75938416 597.92475891 C-76.75331506 592.57760357 -98.72120671 572.03001383 -114.23594666 549.26069641 C-115.13313416 547.94778625 -115.13313416 547.94778625 -116.04844666 546.60835266 C-128.99001116 526.35345613 -132.55239673 501.63016164 -132.51010132 478.07785034 C-132.51456449 476.48998402 -132.51988204 474.90211992 -132.52597004 473.31425899 C-132.54003111 468.98926902 -132.54181562 464.66435131 -132.54137313 460.33934176 C-132.54303194 455.65947107 -132.5561181 450.97962925 -132.56756592 446.29977417 C-132.59033303 436.08450901 -132.59832755 425.86926473 -132.60339236 415.65397763 C-132.606659 409.2645641 -132.61318726 402.87515653 -132.62039375 396.48574638 C-132.63994872 378.7631948 -132.65635944 361.04064873 -132.65927029 343.31808567 C-132.65945786 342.18586535 -132.65964543 341.05364503 -132.65983868 339.887115 C-132.66020491 337.59226382 -132.66056861 335.29741264 -132.66092979 333.00256146 C-132.6611126 331.86353945 -132.66129541 330.72451744 -132.66148376 329.55097961 C-132.66175459 327.8403389 -132.66175459 327.8403389 -132.66203088 326.09513979 C-132.66557 307.63018281 -132.69258101 289.16534262 -132.72998165 270.70042611 C-132.7681542 251.70096712 -132.78742841 232.70156595 -132.7877298 213.70206779 C-132.78831235 203.05138679 -132.79667317 192.40084517 -132.82572746 181.75020027 C-132.85036132 172.67891291 -132.85744379 163.60781577 -132.84247994 154.53650392 C-132.8353599 149.91783527 -132.8359537 145.29954134 -132.85889053 140.68091583 C-133.01044359 108.18309662 -129.55376948 79.39135885 -110.23594666 52.26069641 C-109.10286072 50.65388 -109.10286072 50.65388 -107.94688416 49.01460266 C-102.6361778 41.70553773 -96.87795269 34.27909957 -89.23594666 29.26069641 C-88.24594666 29.26069641 -87.25594666 29.26069641 -86.23594666 29.26069641 C-86.23594666 28.60069641 -86.23594666 27.94069641 -86.23594666 27.26069641 C-75.28348009 18.35835428 -62.00223044 10.54439713 -48.23594666 7.26069641 C-43.75733495 6.03953543 -43.75733495 6.03953543 -39.36875916 4.54194641 C-26.94046721 -0.14797508 -13.11228673 -0.03653511 0 0 Z " fill="#039284" transform="translate(342.23594665527344,195.7393035888672)"/>
<path d="M0 0 C0.66 0 1.32 0 2 0 C2.3403125 1.0828125 2.3403125 1.0828125 2.6875 2.1875 C3.85455887 5.12318032 3.85455887 5.12318032 6.296875 7.23046875 C9.30464555 10.31212961 11.35975398 13.45390878 13.5625 17.125 C14.44077394 18.55898121 15.31970834 19.99255807 16.19921875 21.42578125 C16.65603027 22.17424316 17.1128418 22.92270508 17.58349609 23.69384766 C19.97676333 27.59022862 22.42747348 31.45005944 24.875 35.3125 C25.89469477 36.92437573 26.91422484 38.53635567 27.93359375 40.1484375 C28.44132324 40.95120117 28.94905273 41.75396484 29.47216797 42.58105469 C30.97536435 44.96099552 32.47463147 47.34336373 33.97265625 49.7265625 C38.57984537 57.04962431 43.21481568 64.3488417 47.95922852 71.58398438 C52.89815618 79.11796637 57.67523241 86.69985827 62.19189453 94.49438477 C67.58822955 103.78879613 73.31314201 112.88166465 79 122 C79.91161707 123.46604714 80.82308517 124.93218693 81.734375 126.3984375 C85.21003052 131.98274598 88.70026872 137.55432369 92.28393555 143.07006836 C96.85193919 150.10350605 101.18702124 157.26099901 105.48120117 164.46459961 C109.05631036 170.45383186 112.71354315 176.38410339 116.43041992 182.28613281 C119.09815988 186.53106408 121.69249391 190.81293939 124.25 195.125 C127.90076484 201.26574013 131.71144963 207.29566905 135.5625 213.3125 C140.93025347 221.70381009 146.21487461 230.14288102 151.4375 238.625 C152.08726807 239.67856689 152.73703613 240.73213379 153.40649414 241.81762695 C157.18246752 247.96454909 160.85972918 254.15727452 164.44165039 260.41943359 C165.93495692 263.00005468 165.93495692 263.00005468 167.70092773 265.21728516 C169 267 169 267 169 269 C156.60445306 269.23186346 144.20942314 269.40946425 131.81214809 269.51812172 C126.05521915 269.57027753 120.2997753 269.64099549 114.54370117 269.75439453 C108.98685729 269.86318144 103.43144001 269.92286829 97.87361336 269.94877243 C95.75515339 269.96722754 93.63677022 270.00326935 91.51891899 270.05730057 C74.94781183 270.46319059 74.94781183 270.46319059 70.2308197 266.9197998 C68.38378005 264.3407448 67.16558387 261.94162427 66 259 C65.34733154 257.93426758 64.69466309 256.86853516 64.0222168 255.77050781 C63.50312744 254.84077148 62.98403809 253.91103516 62.44921875 252.953125 C61.84231201 251.87587158 61.23540527 250.79861816 60.61010742 249.6887207 C59.97564697 248.55394287 59.34118652 247.41916504 58.6875 246.25 C57.28593728 243.76686087 55.87838879 241.28715595 54.46875 238.80859375 C53.92585579 237.85384407 53.92585579 237.85384407 53.37199402 236.87980652 C49.23936638 229.63386419 44.98048147 222.46434048 40.6875 215.3125 C40.11486923 214.35833191 40.11486923 214.35833191 39.53067017 213.3848877 C34.68354447 205.32204055 29.72334885 197.34702118 24.55078125 189.48803711 C21.24376537 184.44599329 18.24937621 179.26619275 15.296875 174.0078125 C12.28143366 168.6931668 9.10572299 163.47446754 5.9375 158.25 C5.35959717 157.2914209 4.78169434 156.3328418 4.1862793 155.34521484 C0.8304647 149.82913326 -2.70164979 144.50236129 -6.43920898 139.23828125 C-8.4488252 136.35635392 -10.22797105 133.40959958 -12 130.375 C-16.00186421 123.58775244 -20.17642553 116.91699317 -24.375 110.25 C-30.82735196 99.9809576 -37.15727234 89.63145067 -43 79 C-43.37664795 78.31647461 -43.7532959 77.63294922 -44.14135742 76.92871094 C-45.33691311 74.24321479 -44.91725028 72.75175083 -44 70 C-43.36384766 69.39671875 -43.36384766 69.39671875 -42.71484375 68.78125 C-40.22378257 66.19372404 -38.5541774 63.1439131 -36.75 60.0625 C-36.35449951 59.39444336 -35.95899902 58.72638672 -35.55151367 58.03808594 C-34.3632866 56.02793996 -33.18138481 54.01417255 -32 52 C-31.36191406 50.92105469 -30.72382812 49.84210938 -30.06640625 48.73046875 C-27.27832333 43.99259064 -24.57748423 39.23073547 -22 34.375 C-19.62703113 29.97876294 -16.9280067 26.00365355 -14.00390625 21.9609375 C-10.88666396 17.35495377 -8.14129543 12.53575264 -5.37597656 7.71240234 C-4.96702148 7.00293457 -4.55806641 6.2934668 -4.13671875 5.5625 C-3.77280029 4.92441406 -3.40888184 4.28632813 -3.03393555 3.62890625 C-2 2 -2 2 0 0 Z " fill="#F9FDFC" transform="translate(564,354)"/>
<path d="M0 0 C1.79467773 0.17797852 1.79467773 0.17797852 4 1 C5.65649414 3.21459961 5.65649414 3.21459961 7.28515625 6.15234375 C8.19696655 7.76991577 8.19696655 7.76991577 9.12719727 9.42016602 C9.44310822 9.99437286 9.75901917 10.56857971 10.08450317 11.16018677 C11.39885328 13.54875467 12.74099031 15.92125246 14.08213806 18.29484558 C14.7572678 19.4901848 15.43098195 20.68632465 16.10328674 21.883255 C18.98560204 27.00836872 21.98309517 32.05385563 25.0625 37.0625 C25.50948242 37.79082031 25.95646484 38.51914062 26.41699219 39.26953125 C29.0691714 43.56296031 31.8294856 47.76609497 34.67578125 51.93359375 C36.81584546 55.27310398 38.62367758 58.78628507 40.47265625 62.29296875 C42.38399039 65.68057633 44.62160924 68.75531824 46.99609375 71.83203125 C48.45786111 74.98876621 47.95605681 76.6740566 47 80 C45.68067943 82.59840043 44.3311658 85.02497322 42.8125 87.5 C42.37542725 88.22775635 41.93835449 88.9555127 41.48803711 89.70532227 C37.19455897 96.80015548 32.72320636 103.78464801 28.24975586 110.7668457 C24.0934324 117.256346 20.03725661 123.79799235 16.04101562 130.38696289 C12.77748435 135.75709644 9.43456206 141.0724678 6.0625 146.375 C-0.13925951 156.1432218 -6.08061139 166.05898301 -12 176 C-18.69057566 187.21920814 -25.45280068 198.3869067 -32.34643555 209.48266602 C-36.6135054 216.35671021 -40.79986345 223.27472415 -44.93945312 230.22607422 C-46.03107023 232.05196967 -47.13152443 233.87227622 -48.234375 235.69140625 C-52.59886611 242.90160951 -56.83707733 250.16489731 -60.90625 257.54663086 C-61.25300781 258.17190674 -61.59976563 258.79718262 -61.95703125 259.44140625 C-62.25585205 259.98482666 -62.55467285 260.52824707 -62.86254883 261.08813477 C-63.23790771 261.71905029 -63.6132666 262.34996582 -64 263 C-64.50755325 264.01571075 -65.01510651 265.03142151 -65.53804016 266.07791138 C-68 269 -68 269 -71.81942749 269.71479797 C-73.38924263 269.72911923 -74.95957102 269.71020653 -76.52880859 269.6652832 C-77.38782272 269.66455307 -78.24683685 269.66382294 -79.13188171 269.66307068 C-81.97168755 269.6537927 -84.80910899 269.60223586 -87.6484375 269.55078125 C-89.62373149 269.53704495 -91.5990468 269.52611334 -93.57437134 269.51786804 C-98.77738408 269.48928706 -103.97937357 269.42558418 -109.1819458 269.35369873 C-115.49275411 269.27227284 -121.80390826 269.2284138 -128.11506081 269.18278027 C-133.02805965 269.14707024 -137.94064275 269.10452925 -142.85336304 269.04060364 C-143.75932724 269.03065369 -144.66529144 269.02070374 -145.59870911 269.01045227 C-147.28247654 268.99192297 -148.96620779 268.96948632 -150.64985657 268.94223022 C-154.89105882 268.90104302 -158.82056482 269.14927544 -163 270 C-162.46758737 265.66599518 -161.48168481 262.58298395 -159.26171875 258.83203125 C-158.69469238 257.86563721 -158.12766602 256.89924316 -157.54345703 255.90356445 C-156.93099121 254.88351318 -156.31852539 253.86346191 -155.6875 252.8125 C-155.05956543 251.75184326 -154.43163086 250.69118652 -153.78466797 249.59838867 C-148.45049174 240.63570864 -142.90912529 231.8117363 -137.28710938 223.02783203 C-135.4444462 220.12472878 -133.66036168 217.18870533 -131.875 214.25 C-129.0346403 209.60053154 -126.0529044 205.07295725 -123 200.5625 C-119.71852893 195.71241708 -116.66355987 190.80249292 -113.8125 185.6875 C-111.53166567 181.60215016 -109.18555672 177.72371148 -106.4375 173.9375 C-103.85007998 170.35940114 -101.72687948 166.72925218 -99.6875 162.8125 C-97.1608468 158.00009402 -94.42727593 153.48505087 -91.375 149 C-85.59186026 140.49205846 -80.21220733 131.7521421 -74.83300781 122.98486328 C-72.86974469 119.78789272 -70.90022412 116.59483584 -68.9296875 113.40234375 C-62.85946503 103.56261171 -56.79855393 93.72000173 -50.88012695 83.78808594 C-48.24633538 79.379028 -45.50915352 75.0439283 -42.734375 70.72265625 C-40.15943547 66.68046514 -37.66411169 62.59032293 -35.16015625 58.50390625 C-33.66162853 56.0649089 -32.14692697 53.63685009 -30.62109375 51.21484375 C-25.9183637 43.74804118 -21.34451711 36.22794388 -16.91088867 28.59814453 C-13.05806927 22.0095282 -8.97955993 15.57069198 -4.84619141 9.1550293 C-4.35940918 8.39488525 -3.87262695 7.63474121 -3.37109375 6.8515625 C-2.93724365 6.17947754 -2.50339355 5.50739258 -2.05639648 4.81494141 C-0.84555062 2.87653403 -0.84555062 2.87653403 0 0 Z " fill="#9FE73A" transform="translate(455,353)"/>
<path d="M0 0 C0.66 0 1.32 0 2 0 C2.4125 0.88300781 2.825 1.76601563 3.25 2.67578125 C6.579154 9.64989447 10.16070016 15.82248757 14.8515625 21.99609375 C17.36222998 25.50646337 19.52964677 29.14111408 21.6875 32.875 C30.5296301 48.14574581 39.96723878 63.00373051 49.67651367 77.7355957 C53.74371554 83.9508068 57.51563646 90.25395671 61.0690918 96.77416992 C63.52350913 101.25270372 66.27636205 105.35435802 69.2734375 109.48046875 C71.63830275 112.9314599 73.63996367 116.55979178 75.67700195 120.21118164 C78.52870547 125.27662818 81.61249399 130.17004933 84.75 135.0625 C89.79689331 142.94372859 94.50795768 150.98092304 99.07910156 159.14672852 C99.78437988 160.40247681 99.78437988 160.40247681 100.50390625 161.68359375 C100.91455322 162.42150146 101.3252002 163.15940918 101.74829102 163.91967773 C102.97673968 166.06324166 102.97673968 166.06324166 104.65600586 168.08227539 C106 170 106 170 106 173 C90.87500997 173.03146194 75.75001856 173.05126956 60.625 173.0625 C59.48050385 173.06335602 58.33600769 173.06421204 57.15682983 173.06509399 C18.9353949 173.09026197 -19.28057555 172.88799672 -57.5 172.5 C-58.67850273 172.48804218 -59.85700546 172.47608437 -61.0712204 172.46376419 C-75.38091052 172.31779335 -89.6904987 172.16341405 -104 172 C-101.92578731 167.03771761 -99.62544671 162.58053892 -96.6875 158.0625 C-91.51299698 149.96374846 -86.68989442 141.67528992 -81.91088867 133.33813477 C-77.15041571 125.0862409 -77.15041571 125.0862409 -74.33203125 121.22265625 C-71.95461889 117.93728741 -69.95846558 114.54012424 -68 111 C-67.1992054 109.59617518 -66.3956641 108.19391475 -65.58984375 106.79296875 C-65.1630835 106.05087158 -64.73632324 105.30877441 -64.29663086 104.54418945 C-56.36550622 90.79187292 -48.07257505 77.27881574 -39.63305664 63.83398438 C-36.44238912 58.73907568 -33.33412382 53.5983587 -30.25561523 48.43505859 C-27.85480128 44.41121152 -25.40971807 40.41810844 -22.9375 36.4375 C-20.23717034 32.07870016 -17.68092602 27.66755813 -15.1875 23.1875 C-12.05816276 17.66916574 -8.6917532 12.37104848 -5.125 7.125 C-4.64828857 6.41625732 -4.17157715 5.70751465 -3.68041992 4.97729492 C-2.50787705 3.27941243 -1.26033809 1.6337716 0 0 Z " fill="#3EC8FD" transform="translate(510,450)"/>
<path d="M0 0 C2.71507667 1.67081641 4.01662079 2.68512115 6 5 C6.52722656 5.59296875 7.05445313 6.1859375 7.59765625 6.796875 C8.77241317 8.13486693 9.93869584 9.48033344 11.09765625 10.83203125 C16.98834352 17.54523748 23.47370739 23.29934695 30.43359375 28.875 C33.25867073 31.21418094 35.80265354 33.70892366 38.34765625 36.34375 C40.03757536 38.03766419 41.80059906 39.5774832 43.625 41.125 C47.51678708 44.5024878 51.24665906 48.03083593 54.9375 51.625 C55.51773926 52.17559082 56.09797852 52.72618164 56.69580078 53.29345703 C59.15490191 55.71750118 60.7930357 57.4300269 61.984375 60.7109375 C62.0090068 64.31949562 60.15734136 66.20128688 58 69 C57.4225 69.86625 56.845 70.7325 56.25 71.625 C52.22753895 75.87093111 47.4534499 78.15228621 41.625 78.8125 C35.69829974 78.47987907 32.44244287 74.52566672 28.4765625 70.48046875 C26.29864728 68.29679185 24.02999918 66.21560822 21.76513672 64.12280273 C19.82759299 62.33116291 17.90103991 60.5283181 15.9765625 58.72265625 C13.37530821 56.28406009 10.7659003 53.8547801 8.1484375 51.43359375 C4.82005655 48.35027264 1.52042542 45.23815492 -1.76708984 42.11132812 C-3.36102903 40.60417898 -4.96393948 39.10649452 -6.57275391 37.61523438 C-9.25808338 35.12001242 -11.9119178 32.59455022 -14.5625 30.0625 C-15.41489258 29.28173096 -16.26728516 28.50096191 -17.14550781 27.6965332 C-22.79234952 22.22213645 -22.79234952 22.22213645 -23.37329102 18.80297852 C-22.68576796 11.87720661 -18.78920953 7.04481089 -14.375 2 C-9.56949997 -0.84770372 -5.45381098 -0.9960553 0 0 Z " fill="#F6FDFB" transform="translate(698,249)"/>
<path d="M0 0 C3.125 1.5625 3.125 1.5625 6 4 C6.63421875 4.50917969 7.2684375 5.01835937 7.921875 5.54296875 C11.33560757 8.52657101 12.83484178 10.32835656 13.9375 14.8125 C13.45194752 20.56008632 8.95479945 25.12461419 5 29 C4.34 29 3.68 29 3 29 C3 29.66 3 30.32 3 31 C1.56352234 32.41400146 1.56352234 32.41400146 -0.44262695 34.06933594 C-5.18825194 38.10745079 -9.54646646 42.45455537 -13.91796875 46.890625 C-15.60077891 48.58606907 -17.28372561 50.28137762 -18.96679688 51.9765625 C-21.5887673 54.62342427 -24.20909768 57.27187137 -26.8269043 59.92285156 C-29.37370551 62.49983321 -31.92667271 65.07057777 -34.48046875 67.640625 C-35.65091988 68.83126556 -35.65091988 68.83126556 -36.84501648 70.04595947 C-37.57960587 70.78392761 -38.31419525 71.52189575 -39.07104492 72.28222656 C-39.71087814 72.92951721 -40.35071136 73.57680786 -41.00993347 74.24371338 C-44.3169712 77.1622621 -46.97252258 78.86680848 -51.375 79.4375 C-56.69364575 78.79559448 -60.18474546 77.03175279 -63.703125 73.09375 C-70.69432571 63.9984015 -70.69432571 63.9984015 -70 58 C-68.29101562 55.70751953 -68.29101562 55.70751953 -65.90625 53.3828125 C-65.04 52.52816406 -64.17375 51.67351562 -63.28125 50.79296875 C-62.3634375 49.91253906 -61.445625 49.03210938 -60.5 48.125 C-59.1696875 46.81595703 -59.1696875 46.81595703 -57.8125 45.48046875 C-53.19722404 40.96700035 -48.50110243 36.59342659 -43.57617188 32.41943359 C-41.82433409 30.918974 -41.82433409 30.918974 -40 28.5 C-38.2775156 26.3468945 -36.71045332 24.82677591 -34.625 23.0625 C-29.85976019 19.01249318 -25.52809572 14.55850433 -21.18798828 10.06274414 C-14.94959273 3.69795435 -9.44782178 -1.837558 0 0 Z " fill="#F5FCFB" transform="translate(336,249)"/>
<path d="M0 0 C6.0186804 2.15764014 8.55627351 5.83441027 12 11 C12.87580244 15.2038517 12.5729991 17.01910323 10.38671875 20.76171875 C5.23286403 28.03146862 5.23286403 28.03146862 1.66796875 30.83203125 C-0.56474614 32.64631641 -2.19666044 34.29971757 -4.04296875 36.46875 C-8.65597407 41.85788003 -13.65853074 46.84458751 -18.67211914 51.85742188 C-20.33183598 53.51936188 -21.98334457 55.1891961 -23.63476562 56.859375 C-24.68961614 57.91715357 -25.7449371 58.97446325 -26.80078125 60.03125 C-27.29347 60.53112427 -27.78615875 61.03099854 -28.29377747 61.54602051 C-31.77112877 65 -31.77112877 65 -34 65 C-34.2371875 65.56332031 -34.474375 66.12664062 -34.71875 66.70703125 C-36.28649943 69.51272916 -38.20914597 71.43755408 -40.5 73.6875 C-41.2940625 74.47511719 -42.088125 75.26273438 -42.90625 76.07421875 C-46.44678222 79.33071573 -49.03966204 79.28542208 -53.6875 79.2109375 C-58.53672936 78.76860915 -61.27959896 76.70364752 -64.6875 73.375 C-65.49233649 72.27406982 -66.26165152 71.14658211 -67 70 C-67.44988281 69.36191406 -67.89976562 68.72382812 -68.36328125 68.06640625 C-69.76455515 65.44202729 -70.21079168 63.98696296 -70 61 C-67.0267395 56.0206055 -63.07442209 52.09141773 -59 48 C-57.80658434 46.76761165 -56.61388412 45.53453011 -55.421875 44.30078125 C-50.89468182 39.6690536 -46.34430622 35.12200845 -41.41015625 30.921875 C-35.15410425 25.50493018 -29.4390369 19.50628822 -23.625 13.625 C-21.28672085 11.26015669 -18.94515631 8.89863758 -16.6015625 6.5390625 C-16.06826324 5.9974649 -15.53496399 5.45586731 -14.98550415 4.89785767 C-10.01571857 -0.10512122 -6.90364134 -0.640304 0 0 Z " fill="#F8FCFD" transform="translate(745,663)"/>
<path d="M0 0 C3.47267745 2.59018186 6.14367107 5.76213976 9 9 C10.39264112 10.297117 11.80807846 11.5703953 13.25 12.8125 C13.89453125 13.369375 14.5390625 13.92625 15.203125 14.5 C16.77107604 15.80889826 18.38234266 17.0655558 20 18.3125 C20.66 18.869375 21.32 19.42625 22 20 C22 20.66 22 21.32 22 22 C22.59070282 22.26571304 23.18140564 22.53142609 23.79000854 22.80519104 C26.05977406 24.03231623 27.54370251 25.2961073 29.35986328 27.11694336 C29.99376984 27.74777328 30.62767639 28.37860321 31.28079224 29.02854919 C31.95383392 29.7087764 32.62687561 30.3890036 33.3203125 31.08984375 C34.0201828 31.79017227 34.7200531 32.49050079 35.44113159 33.21205139 C36.91771809 34.69165537 38.39187699 36.17368543 39.86376953 37.65795898 C42.11830118 39.93074694 44.38073201 42.19543104 46.64453125 44.45898438 C48.07859782 45.89796645 49.51220722 47.33740431 50.9453125 48.77734375 C51.62240265 49.45554672 52.2994928 50.13374969 52.99710083 50.83250427 C53.62470306 51.46648636 54.2523053 52.10046844 54.89892578 52.75366211 C55.4508963 53.30944443 56.00286682 53.86522675 56.57156372 54.43785095 C59.27469464 57.394016 60 58.66354397 60 62.75 C59.21498578 67.70654325 56.76605131 70.79376713 53 74 C48.97213675 76.31229187 44.89039611 77.84933274 40.16796875 77.67578125 C36.20887572 76.44168559 33.58476425 73.51534981 30.6875 70.65234375 C28.58752393 68.5798383 26.47422655 66.66269715 24.23828125 64.74609375 C19.65044254 60.76627538 15.4337977 56.46270439 11.1875 52.125 C5.57118903 46.43999498 -0.03612317 41.14292534 -6.328125 36.21875 C-9.75013696 33.37707925 -12.90832403 30.32087063 -16.0625 27.1875 C-16.62364502 26.63537842 -17.18479004 26.08325684 -17.76293945 25.5144043 C-21.23933421 22.01230211 -23.60611312 19.47074497 -24.38671875 14.57421875 C-23.84930513 10.99688967 -22.25327768 9.44439894 -19.8125 6.8125 C-19.03519531 5.95269531 -18.25789063 5.09289062 -17.45703125 4.20703125 C-12.52248338 -0.22543226 -6.43855858 -1.57600538 0 0 Z " fill="#F8FDFD" transform="translate(289,664)"/>
<path d="M0 0 C0.99 0.99 0.99 0.99 2 2 C1.5875 2.350625 1.175 2.70125 0.75 3.0625 C-1.1399457 5.15493988 -2.36241053 7.38765669 -3.73779297 9.83520508 C-6.88070403 15.22557112 -10.37649858 20.41388806 -13.77929688 25.64257812 C-17.60510606 31.58970977 -20.98528418 37.60232556 -24 44 C-24.66 44 -25.32 44 -26 44 C-26.10828125 44.57363281 -26.2165625 45.14726563 -26.328125 45.73828125 C-27.0918937 48.30933984 -28.20425819 50.00035502 -29.75 52.1875 C-32.28615402 55.88630895 -34.52615022 59.63735231 -36.66796875 63.57421875 C-43.49682474 76.01034653 -50.7686274 88.37141361 -58.74609375 100.109375 C-60.21207293 102.31976106 -61.5182865 104.60701642 -62.8046875 106.92578125 C-65.08980401 110.89113049 -67.56562059 114.74605622 -70 118.62109375 C-71.42350467 121.02603817 -72.6816477 123.34352327 -73.890625 125.84765625 C-76.15631683 130.46827093 -78.91761433 134.71053403 -81.75 139 C-82.25660156 139.77472656 -82.76320313 140.54945313 -83.28515625 141.34765625 C-84.51963549 143.2343132 -85.75794226 145.11832738 -87 147 C-87.33 146.01 -87.66 145.02 -88 144 C-86.56276132 141.39444464 -85.08174575 138.9698375 -83.4375 136.5 C-79.886876 131.08649256 -76.65480972 125.5986956 -73.5871582 119.89648438 C-70.82135164 114.84902567 -67.8453164 109.9289921 -64.875 105 C-64.21902832 103.90840576 -63.56305664 102.81681152 -62.88720703 101.69213867 C-58.49535562 94.40950906 -53.99684997 87.20373041 -49.42163086 80.03540039 C-45.05147254 73.15608129 -40.91096971 66.15007101 -36.78466797 59.12255859 C-32.09726023 51.1428884 -27.30715442 43.23174168 -22.45068359 35.35400391 C-20.86650875 32.78338562 -19.28693369 30.20996479 -17.70703125 27.63671875 C-11.96851816 18.30926352 -6.19209183 9.03559019 0 0 Z " fill="#0B6632" transform="translate(475,476)"/>
<path d="M0 0 C0.495 0.99 0.495 0.99 1 2 C-0.16015625 4.265625 -0.16015625 4.265625 -2.0625 7.25 C-2.41393066 7.80647217 -2.76536133 8.36294434 -3.12744141 8.9362793 C-4.41030978 10.96269539 -5.70547848 12.98100924 -7 15 C-8.10093452 16.73003996 -9.20115147 18.46053669 -10.30078125 20.19140625 C-12.69722771 23.9617447 -15.09763568 27.72952389 -17.5 31.49609375 C-22.04715251 38.63467446 -26.53090436 45.81237614 -31 53 C-31.33 52.34 -31.66 51.68 -32 51 C-30.86286381 48.73475251 -29.67843361 46.6044016 -28.375 44.4375 C-27.63238595 43.17342758 -26.89019886 41.90910423 -26.1484375 40.64453125 C-25.78202148 40.02529785 -25.41560547 39.40606445 -25.03808594 38.76806641 C-23.65271846 36.4085106 -22.32194867 34.02055438 -21 31.625 C-20.608125 30.91601562 -20.21625 30.20703125 -19.8125 29.4765625 C-19.544375 28.98929687 -19.27625 28.50203125 -19 28 C-18.34 28 -17.68 28 -17 28 C-16.60554688 26.92298828 -16.60554688 26.92298828 -16.203125 25.82421875 C-14.9623658 22.91165738 -13.48488581 20.45781012 -11.75 17.8125 C-8.80206016 13.27058016 -5.99220175 8.67157834 -3.26171875 3.99609375 C-2 2 -2 2 0 0 Z " fill="#B3F26F" transform="translate(484,459)"/>
<path d="M0 0 C1 3 1 3 0.15136719 4.89770508 C-0.51910645 5.94800903 -0.51910645 5.94800903 -1.203125 7.01953125 C-1.68910156 7.79490234 -2.17507813 8.57027344 -2.67578125 9.36914062 C-3.19527344 10.17544922 -3.71476562 10.98175781 -4.25 11.8125 C-5.25742795 13.40093819 -6.26268641 14.99075468 -7.265625 16.58203125 C-7.98576782 17.72297241 -7.98576782 17.72297241 -8.72045898 18.88696289 C-10.12826486 21.14686669 -10.12826486 21.14686669 -11.61328125 24.234375 C-13.12115286 27.24162316 -14.90998429 29.75619804 -16.9375 32.4375 C-19.28112539 35.58956864 -21.49116843 38.6772328 -23.375 42.125 C-25 45 -25 45 -27 46 C-25.65442129 41.34276385 -23.74986573 37.77375918 -21.0625 33.75 C-20.2545687 32.52471563 -19.44868077 31.29808216 -18.64453125 30.0703125 C-18.00378662 29.09239746 -18.00378662 29.09239746 -17.35009766 28.09472656 C-14.44236012 23.58326398 -11.68072828 18.98076589 -8.89477539 14.39355469 C-5.96570148 9.5727759 -3.00139323 4.77611608 0 0 Z " fill="#0F672C" transform="translate(503,430)"/>
<path d="M0 0 C0.66015625 1.73828125 0.66015625 1.73828125 1 4 C-0.00390625 6.04296875 -0.00390625 6.04296875 -1.5625 8.1875 C-2.11679687 8.96738281 -2.67109375 9.74726562 -3.2421875 10.55078125 C-4.11230469 11.76314453 -4.11230469 11.76314453 -5 13 C-6.06751798 14.62170793 -7.13023032 16.24659217 -8.1875 17.875 C-9.9282591 20.55087762 -11.66929609 22.81367598 -14 25 C-12.73162957 20.7387752 -11.13691256 17.32898973 -8.6875 13.625 C-8.07132812 12.68269531 -7.45515625 11.74039063 -6.8203125 10.76953125 C-5.91925781 9.39861328 -5.91925781 9.39861328 -5 8 C-4.01589312 6.44060676 -3.0360415 4.87851104 -2.0625 3.3125 C-1.381875 2.219375 -0.70125 1.12625 0 0 Z " fill="#5FD058" transform="translate(354,518)"/>
<path d="M0 0 C0 0.33 0 0.66 0 1 C-0.556875 0.99097656 -1.11375 0.98195312 -1.6875 0.97265625 C-7.88050533 1.21326288 -10.89092959 2.98920838 -15.2734375 7.30859375 C-17 9 -17 9 -20 11 C-18.84484436 6.6360787 -16.62102953 3.97857001 -13.21875 1.16015625 C-9.0472823 -1.02105133 -4.56919579 -0.44617825 0 0 Z " fill="#C8FCF1" transform="translate(698,249)"/>
<path d="M0 0 C1.8125 0.1875 1.8125 0.1875 4 1 C5.8125 3.4375 5.8125 3.4375 7 6 C6.67 6.66 6.34 7.32 6 8 C5.01 7.01 4.02 6.02 3 5 C2.071875 5.4640625 2.071875 5.4640625 1.125 5.9375 C-0.25 6.625 -1.625 7.3125 -3 8 C-2.690625 7.236875 -2.38125 6.47375 -2.0625 5.6875 C-1.32106407 3.81210323 -0.63771783 1.91315348 0 0 Z " fill="#9CF489" transform="translate(455,353)"/>
</svg>
