<svg width="16" height="16" viewBox="0 0 16 16" fill="none" xmlns="http://www.w3.org/2000/svg">
    <g id="icon-template-to-code-arrow">
        <path d="M3.5 1.5H9.20711L12.5 4.79289V13.5C12.5 14.0523 12.0523 14.5 11.5 14.5H3.5C2.94772 14.5 2.5 14.0523 2.5 13.5V2.5C2.5 1.94772 2.94772 1.5 3.5 1.5Z" stroke="#4A5568" stroke-width="1" stroke-linecap="round" stroke-linejoin="round"/>
        <path d="M9 1.5V5H12.5" stroke="#4A5568" stroke-width="1" stroke-linecap="round" stroke-linejoin="round"/>
        <path d="M4.5 7.5L5.5 8.5L4.5 9.5" stroke="#4299E1" stroke-width="1" stroke-linecap="round" stroke-linejoin="round"/>
        <path d="M7.5 7.5L6.5 8.5L7.5 9.5" stroke="#4299E1" stroke-width="1" stroke-linecap="round" stroke-linejoin="round"/>

        <path d="M10 10.5L9 11.5L10 12.5" stroke="#38A169" stroke-width="1.2" stroke-linecap="round" stroke-linejoin="round"/>
        <path d="M13 10.5L14 11.5L13 12.5" stroke="#38A169" stroke-width="1.2" stroke-linecap="round" stroke-linejoin="round"/>
    </g>
    <path d="M7 6L10 9" stroke="#A0AEC0" stroke-width="0.8" stroke-dasharray="1 1"/>
</svg>

