<svg width="40" height="40" viewBox="0 0 40 40" fill="none" xmlns="http://www.w3.org/2000/svg">
  <!-- Globe background -->
  <circle cx="20" cy="20" r="18" fill="url(#paint0_linear)" stroke="#2563EB" stroke-width="2"/>
  
  <!-- Globe grid lines -->
  <path d="M4 20 H36 M20 4 V36" stroke="#E5E7EB" stroke-width="1" opacity="0.6"/>
  <path d="M20 4 Q12 12 20 20 Q28 12 20 4" stroke="#E5E7EB" stroke-width="1" opacity="0.4"/>
  <path d="M20 20 Q12 28 20 36 Q28 28 20 20" stroke="#E5E7EB" stroke-width="1" opacity="0.4"/>
  <path d="M4 20 Q12 12 20 20 Q12 28 4 20" stroke="#E5E7EB" stroke-width="1" opacity="0.4"/>
  <path d="M36 20 Q28 12 20 20 Q28 28 36 20" stroke="#E5E7EB" stroke-width="1" opacity="0.4"/>
  
  <!-- Translation arrows -->
  <g transform="translate(20, 20)">
    <!-- Left to right arrow -->
    <path d="M-8 -4 L8 -4 M5 -7 L8 -4 L5 -1" stroke="#FFFFFF" stroke-width="2" fill="none" stroke-linecap="round" stroke-linejoin="round"/>
    <!-- Right to left arrow -->
    <path d="M8 4 L-8 4 M-5 1 L-8 4 L-5 7" stroke="#FFFFFF" stroke-width="2" fill="none" stroke-linecap="round" stroke-linejoin="round"/>
  </g>
  
  <!-- Language indicators -->
  <text x="8" y="12" font-family="monospace" font-size="6" fill="#FFFFFF" font-weight="bold">EN</text>
  <text x="26" y="32" font-family="monospace" font-size="6" fill="#FFFFFF" font-weight="bold">多</text>
  
  <!-- JVM branding badge -->
  <rect x="28" y="2" width="10" height="8" rx="2" fill="#10B981" stroke="#059669" stroke-width="0.5"/>
  <text x="33" y="7.2" font-family="monospace" font-size="3.2" fill="#FFFFFF" font-weight="bold" text-anchor="middle">JVM</text>
  
  <defs>
    <linearGradient id="paint0_linear" x1="2" y1="6" x2="38" y2="34" gradientUnits="userSpaceOnUse">
      <stop offset="0%" stop-color="#3B82F6"/>
      <stop offset="50%" stop-color="#1D4ED8"/>
      <stop offset="100%" stop-color="#1E40AF"/>
    </linearGradient>
  </defs>
</svg>