<svg version="1.0" width="16" height="16" viewBox="0 0 555 543" xmlns="http://www.w3.org/2000/svg"><path d="M280.602 32.886H39.282a19.859 20.708 0 0 0-20.107 20.409v204.528a19.859 20.708 0 0 0 20.107 20.448h241.32a19.859 20.708 0 0 0 20.126-20.448V53.315a19.859 20.708 0 0 0-20.126-20.449zM59.39 176.047l40.23-40.917-40.23-40.918 20.126-20.468 60.34 61.366-60.34 61.346zm160.893 20.43h-80.447v-20.43h80.447z" fill="#666" style="stroke-width:19.4987"/><path d="m69.47 185.804-9.585-9.697L79.992 155.5l20.107-20.588-3.838-3.783c-2.1-2.051-11.152-11.17-20.088-20.27l-16.25-16.526 9.605-10.015c5.29-5.536 9.796-9.976 10.006-9.896.954.398 59.576 60.43 59.442 60.868-.287.837-58.87 60.251-59.423 60.251-.268 0-4.812-4.38-10.082-9.716zm70.843.299v-10.036h79.549v20.09h-79.55z" fill="#eee" style="stroke-width:19.4987"/><path fill="#499c54" fill-rule="evenodd" d="m368.656 16.717-.04-.023 58.857-2.333-.165 15.71-20.163 10.696-31.121 33.915 55.597 62.26 13.889 1.618 91.898 102.875-43.586 48.793-91.919-102.922-1.486-15.594-55.741-62.423-1.899 11.482-2.745 7-33.02 36.964-37.353-41.815 31.224-34.954 9.287-3.697a10.319 11.551 0 0 1 2.89-9.934l48.786-54.614 6.81-3.027z" style="stroke-width:21.8351"/><path d="M279.527 403.729s-49.695 104.304-130.449 104.304c-56.031 0-101.46-46.72-101.46-104.304s45.429-104.305 101.46-104.305c38.834 0 73.507 24.349 97.32 52.152m33.129 52.153s49.695-104.305 130.45-104.305c56.03 0 101.46 46.72 101.46 104.305s-45.43 104.304-101.46 104.304c-38.835 0-73.508-24.348-97.32-52.152" style="fill:none;stroke:#d78a46;stroke-width:33.9394px;stroke-linecap:round;stroke-miterlimit:10"/></svg>
