<svg version="1.0" width="16" height="16" viewBox="0 0 16 16" xmlns="http://www.w3.org/2000/svg"><path d="M7.948 11.451s-1.512 3.62-3.97 3.62c-1.705 0-3.088-1.62-3.088-3.62 0-1.998 1.383-3.62 3.088-3.62 1.182 0 2.237.845 2.962 1.81m1.008 1.81s1.512-3.62 3.97-3.62c1.705 0 3.088 1.622 3.088 3.62 0 2-1.383 3.62-3.088 3.62-1.182 0-2.237-.844-2.962-1.81" style="fill:none;stroke:#d78a46;stroke-width:1.10306px;stroke-linecap:round;stroke-miterlimit:10"/><path fill-rule="evenodd" clip-rule="evenodd" stroke-width=".216" stroke="#2684ff" d="M1.635 2.545q-.294.358-.484.777l.537.843a1 1 0 0 1 0 1.078l-.537.843c.126.278.289.54.484.777l1.053-.01c.416-.005.8.201 1.004.538l.517.853a3.84 3.568 0 0 0 .966 0l.517-.853a1.16 1.16 0 0 1 1.003-.539l1.054.01q.294-.357.484-.776l-.538-.843a1.139 1.059 0 0 1 0-1.078l.538-.843a3.84 3.568 0 0 0-.484-.777l-1.054.011a1.139 1.059 0 0 1-1.003-.539l-.517-.853a3.84 3.568 0 0 0-.966 0l-.517.853a1.16 1.16 0 0 1-1.004.539Zm4.753 2.16a1.696 1.577 0 1 1-3.393 0 1.696 1.577 0 0 1 3.393 0M2.695 1.96a.5.464 0 0 0 .44-.236L3.69.808a.467.434 0 0 1 .336-.221 4.479 4.163 0 0 1 1.331 0 .467.434 0 0 1 .337.221l.555.917c.09.148.257.238.44.236L7.82 1.95a.467.434 0 0 1 .373.16 4.479 4.163 0 0 1 .668 1.072.467.434 0 0 1-.039.38l-.577.908a.5.464 0 0 0 0 .47l.577.908a.41.41 0 0 1 .039.38A4.479 4.163 0 0 1 8.194 7.3a.467.434 0 0 1-.373.16l-1.133-.012a.5.464 0 0 0-.439.235l-.555.918a.467.434 0 0 1-.337.221 4.479 4.163 0 0 1-1.33 0A.467.434 0 0 1 3.69 8.6l-.556-.918a.5.464 0 0 0-.439-.235l-1.132.012a.467.434 0 0 1-.374-.16 4.479 4.163 0 0 1-.667-1.072.467.434 0 0 1 .038-.38l.577-.907a.5.464 0 0 0 0-.471L.56 3.562a.467.434 0 0 1-.038-.381 4.479 4.163 0 0 1 .667-1.072.467.434 0 0 1 .374-.16Zm3.053 2.743a1.056.982 0 1 1-2.113 0 1.056.982 0 0 1 2.113 0" fill="#2684ff"/><path style="fill:#ff0;stroke:#969696;stroke-width:.0055534" d="M4.478 8.26a1.92 1.784 0 0 1-.242-.02c-.023-.008-.095-.117-.283-.429a17.916 16.652 0 0 0-.307-.494 1.19 1.106 0 0 0-.52-.392c-.206-.074-.22-.075-.886-.071l-.604.004-.083-.111a3.84 3.568 0 0 1-.313-.493c-.069-.13-.08-.161-.07-.183.006-.014.13-.21.274-.436s.276-.436.292-.466a1.184 1.1 0 0 0-.003-.936 25.594 23.788 0 0 0-.29-.46 26.874 24.978 0 0 1-.273-.435c-.023-.046.18-.406.37-.66l.096-.129.56.006c.687.009.77 0 1-.1a1.216 1.13 0 0 0 .45-.364c.03-.041.168-.264.307-.494.188-.311.26-.42.282-.429.076-.026.728-.03.887-.005l.05.008.26.428c.143.235.28.456.304.49a1.177 1.094 0 0 0 .683.442c.112.026.128.027.72.023l.607-.003.062.078c.144.182.41.625.41.684 0 .012-.123.215-.273.45-.3.472-.336.536-.377.675a1.408 1.308 0 0 0 0 .532c.04.14.077.203.377.675.15.235.273.438.273.45 0 .059-.266.502-.41.684l-.062.079-.606-.004c-.593-.004-.61-.003-.721.023a1.17 1.088 0 0 0-.682.44c-.026.036-.162.257-.305.492l-.26.428-.05.008a5 5 0 0 1-.644.014zM5 6.257a1.715 1.594 0 0 0 1.346-1.184c.032-.119.034-.145.034-.37s-.002-.252-.034-.37a1.664 1.546 0 0 0-.438-.73 1.683 1.564 0 0 0-.914-.456 1.984 1.844 0 0 0-.638.006c-.34.067-.618.207-.863.433-.243.224-.396.49-.472.813a2 2 0 0 0 0 .609c.074.314.228.584.459.8.146.137.258.214.43.296.196.094.409.154.626.176.094.01.355-.004.464-.023z"/></svg>