<svg id="fs" data-name="fs" xmlns="http://www.w3.org/2000/svg" viewBox="0 0 16 16" width="32" height="32"><defs><style>.cls-1{fill:#6e6e6e;}.cls-1,.cls-2{fill-rule:evenodd;}.cls-2{fill:#499c54;}.cls-3,.cls-4{fill:#40b6e0;}.cls-3{fill-opacity:0.6;}</style></defs><path class="cls-1" d="M1,2H15V14H1ZM2,5v8H14V5Z" transform="translate(-1 -2)"/><polygon class="cls-2" points="1.3 4 4.67 7 1.3 10 1.3 4"/><polygon class="cls-3" points="8.55 7 8.55 7 8.55 7 8.55 7 8.55 7 8.55 7 8.55 7 8.55 7 8.55 7"/><path class="cls-4" d="M9.61,7.33H7.35L7.13,8.47H9.18L9,9.4H7l-.46,2.32h-1l1-5.32H9.79Z" transform="translate(-1 -2)"/><path class="cls-4" d="M11.47,9.35a2.42,2.42,0,0,1-.91-.55,1.09,1.09,0,0,1-.22-.72,1.61,1.61,0,0,1,.58-1.28,2.2,2.2,0,0,1,1.49-.5,3.36,3.36,0,0,1,.71.08,3.28,3.28,0,0,1,.67.22l-.2,1A1.47,1.47,0,0,0,13,7.28a2,2,0,0,0-.72-.11,1,1,0,0,0-.68.2.59.59,0,0,0-.26.51c0,.2.21.4.65.6h0l.41.18a1.78,1.78,0,0,1,.76.56,1.28,1.28,0,0,1,.24.79,1.63,1.63,0,0,1-.57,1.31,2.31,2.31,0,0,1-1.55.49,3.7,3.7,0,0,1-.8-.09,5.35,5.35,0,0,1-.85-.29l.21-1.08a2.74,2.74,0,0,0,.72.44,2.06,2.06,0,0,0,.76.15,1.16,1.16,0,0,0,.74-.21.68.68,0,0,0,.27-.56.6.6,0,0,0-.12-.38.89.89,0,0,0-.37-.27Z" transform="translate(-1 -2)"/></svg>