<?xml version="1.0" encoding="UTF-8" standalone="no"?>
<!-- Created with Inkscape (http://www.inkscape.org/) -->

<svg
  width="97"
  height="97"
  viewBox="0 0 25.664583 25.664583"
  version="1.1"
  id="svg1"
  inkscape:version="1.3.2 (091e20e, 2023-11-25)"
  sodipodi:docname="pluginIcon.svg"
  xmlns:inkscape="http://www.inkscape.org/namespaces/inkscape"
  xmlns:sodipodi="http://sodipodi.sourceforge.net/DTD/sodipodi-0.dtd"
  xmlns="http://www.w3.org/2000/svg"
>
  <sodipodi:namedview
     id="namedview1"
     pagecolor="#ffffff"
     bordercolor="#666666"
     borderopacity="1.0"
     inkscape:showpageshadow="2"
     inkscape:pageopacity="0.0"
     inkscape:pagecheckerboard="0"
     inkscape:deskcolor="#d1d1d1"
     inkscape:document-units="px"
     inkscape:zoom="6.7277216"
     inkscape:cx="16.275941"
     inkscape:cy="55.813843"
     inkscape:window-width="1712"
     inkscape:window-height="998"
     inkscape:window-x="0"
     inkscape:window-y="43"
     inkscape:window-maximized="0"
     inkscape:current-layer="layer1"
     showgrid="true">
    <inkscape:grid
       id="grid2"
       units="px"
       originx="0"
       originy="0"
       spacingx="0.26458334"
       spacingy="0.26458334"
       empcolor="#0099e5"
       empopacity="0.30196078"
       color="#0099e5"
       opacity="0.14901961"
       empspacing="5"
       dotted="false"
       gridanglex="30"
       gridanglez="30"
       visible="true" />
  </sodipodi:namedview>
  <defs
     id="defs1" />
  <g
     inkscape:label="Warstwa 1"
     inkscape:groupmode="layer"
     id="layer1">
    <path
       style="display:inline;fill:#f05133;fill-opacity:1;stroke:none;stroke-width:0;stroke-dasharray:none"
       d="M 11.888614,25.369487 C 10.916524,25.104852 10.854918,25.050872 5.9287867,20.14762 3.3269588,17.557876 1.0695812,15.246192 0.9123917,15.010548 0.43190932,14.290244 0.24879464,13.615108 0.2971722,12.742257 0.33281984,12.099087 0.38271535,11.904791 0.65637816,11.343476 0.96157283,10.717489 1.1630152,10.502726 5.7320097,5.9322344 8.3488132,3.3145742 10.657452,1.0694031 10.862321,0.94296557 c 1.2213,-0.75374485 2.916246,-0.73655847 4.028762,0.0408504 0.190371,0.13302823 2.504595,2.40985243 5.142722,5.05960973 5.590133,5.6147773 5.291582,5.2281703 5.291582,6.8523313 0,1.626184 0.309807,1.226486 -5.376335,6.936294 -2.684767,2.695939 -5.044889,4.998815 -5.244717,5.117503 -0.822936,0.488783 -1.947005,0.656424 -2.815721,0.419933 z"
       id="path3"
       inkscape:label="background" />
    <path
       id="rect1"
       style="fill:#000000;fill-opacity:1;stroke-width:0.235805"
       d="M 8.4573648 3.231844 L 6.7737467 4.8849731 L 10.259839 8.4351439 A 2.5956037 2.5956037 0 0 0 11.263912 10.868587 A 2.5956037 2.5956037 0 0 0 11.688175 11.11405 L 11.688175 17.761706 A 2.4888718 2.4332545 0 0 0 10.379211 19.896976 A 2.4888718 2.4332545 0 0 0 12.867948 22.33042 A 2.4888718 2.4332545 0 0 0 15.357202 19.896976 A 2.4888718 2.4332545 0 0 0 14.047721 17.761706 L 14.047721 12.29279 L 14.947925 13.209529 A 2.5956037 2.5956037 0 0 0 14.855424 14.525211 A 2.5956037 2.5956037 0 0 0 15.712219 16.020211 A 2.5956037 2.5956037 0 0 0 16.309082 16.399516 A 2.5956037 2.5956037 0 0 0 18.375622 16.443441 L 17.258895 15.494661 L 17.044954 15.31276 L 17.051672 15.304492 A 1.2978019 1.1925315 40.350449 0 1 16.940568 13.658081 A 1.2978019 1.1925315 40.350449 0 1 18.583362 13.501501 L 18.590596 13.493233 L 18.997807 13.838948 L 19.916614 14.619779 A 2.5956037 2.5956037 0 0 0 19.96984 14.276648 A 2.5956037 2.5956037 0 0 0 19.79104 13.083439 A 2.5956037 2.5956037 0 0 0 19.073254 12.063863 A 2.5956037 2.5956037 0 0 0 17.999935 11.531079 A 2.5956037 2.5956037 0 0 0 16.643428 11.568286 L 15.103471 9.9999063 A 2.5956037 2.5956037 0 0 0 15.235246 9.7146524 A 2.5956037 2.5956037 0 0 0 15.145329 7.6496622 L 14.270963 8.825301 L 14.132471 9.0113361 L 14.103532 9.0506102 L 14.094747 9.0444091 A 1.1925315 1.2978019 36.63821 0 1 12.458671 9.2619668 A 1.1925315 1.2978019 36.63821 0 1 12.196155 7.632609 L 12.18737 7.625891 L 12.439551 7.2868936 L 12.506213 7.1974934 L 13.226066 6.2295938 A 2.5956037 2.5956037 0 0 0 12.879834 6.1991047 A 2.5956037 2.5956037 0 0 0 11.701094 6.4543863 A 2.5956037 2.5956037 0 0 0 11.649935 6.4833251 L 8.4573648 3.231844 z M 14.895731 10.33477 A 2.5956037 2.5956037 0 0 1 14.682308 10.580749 A 2.5956037 2.5956037 0 0 0 14.895731 10.33477 z M 14.609961 10.648962 A 2.5956037 2.5956037 0 0 1 14.437878 10.799857 A 2.5956037 2.5956037 0 0 0 14.609961 10.648962 z M 14.34331 10.870137 A 2.5956037 2.5956037 0 0 1 14.169161 10.985376 A 2.5956037 2.5956037 0 0 0 14.34331 10.870137 z M 14.063224 11.047388 A 2.5956037 2.5956037 0 0 1 14.047721 11.056689 L 14.047721 11.055139 A 2.5956037 2.5956037 0 0 0 14.063224 11.047388 z M 12.867948 18.973002 A 0.92419231 0.92419231 0 0 1 13.79244 19.896976 A 0.92419231 0.92419231 0 0 1 12.867948 20.821468 A 0.92419231 0.92419231 0 0 1 11.943974 19.896976 A 0.92419231 0.92419231 0 0 1 12.867948 18.973002 z " />
  </g>
</svg>
