<svg xmlns="http://www.w3.org/2000/svg" viewBox="0 0 16 16">
    <g fill="none" fill-rule="evenodd">
        <path fill="#FC6D26" d="M15.97 9.058l-.895-2.756L13.3 2.458c-.068-.21-.138-.42-.356-.42s-.288.21-.356.42L10.813 6.3H5.187L3.412 2.458c-.068-.21-.138-.42-.356-.42s-.288.21-.356.42L.925 6.302.03 9.058c-.082.251-.008.528.19.687l7.468 5.43.312.227.312-.227 7.468-5.43c.198-.16.272-.436.19-.687"/>
        <circle cx="8" cy="8" r="3.5" fill="#FFF" />
        <path fill="#FC6D26" d="M10.5 10.5l3 3" stroke="#000" stroke-width="1.5" stroke-linecap="round" />
    </g>
</svg>
