<?xml version="1.0" encoding="UTF-8"?>
<svg xmlns="http://www.w3.org/2000/svg" xmlns:xlink="http://www.w3.org/1999/xlink" width="38px" height="40px" viewBox="0 0 38 39" version="1.1">
<defs>
<filter id="alpha" filterUnits="objectBoundingBox" x="0%" y="0%" width="100%" height="100%">
  <feColorMatrix type="matrix" in="SourceGraphic" values="0 0 0 0 1 0 0 0 0 1 0 0 0 0 1 0 0 0 1 0"/>
</filter>
<mask id="mask0">
  <g filter="url(#alpha)">
<rect x="0" y="0" width="38" height="39" style="fill:rgb(0%,0%,0%);fill-opacity:0.309804;stroke:none;"/>
  </g>
</mask>
<clipPath id="clip1">
  <rect x="0" y="0" width="38" height="39"/>
</clipPath>
<g id="surface5" clip-path="url(#clip1)">
<path style=" stroke:none;fill-rule:nonzero;fill:rgb(11.372549%,11.372549%,10.588235%);fill-opacity:1;" d="M 18.054688 34.535156 C 16.269531 34.535156 14.824219 33.121094 14.824219 31.375 C 14.824219 29.628906 16.269531 28.214844 18.054688 28.214844 C 19.246094 28.214844 20.285156 28.847656 20.84375 29.785156 C 20.230469 28.589844 18.96875 27.769531 17.507812 27.769531 C 15.449219 27.769531 13.777344 29.40625 13.777344 31.417969 C 13.777344 33.433594 15.449219 35.070312 17.507812 35.070312 C 19.199219 35.070312 20.625 33.96875 21.082031 32.460938 C 20.632812 33.667969 19.445312 34.535156 18.054688 34.535156 Z M 18.054688 34.535156 "/>
</g>
<mask id="mask1">
  <g filter="url(#alpha)">
<rect x="0" y="0" width="38" height="39" style="fill:rgb(0%,0%,0%);fill-opacity:0.309804;stroke:none;"/>
  </g>
</mask>
<clipPath id="clip2">
  <rect x="0" y="0" width="38" height="39"/>
</clipPath>
<g id="surface8" clip-path="url(#clip2)">
<path style=" stroke:none;fill-rule:nonzero;fill:rgb(11.372549%,11.372549%,10.588235%);fill-opacity:1;" d="M 19.347656 8.140625 C 17.5625 8.140625 16.117188 6.726562 16.117188 4.980469 C 16.117188 3.234375 17.5625 1.820312 19.347656 1.820312 C 20.539062 1.820312 21.578125 2.453125 22.136719 3.394531 C 21.523438 2.199219 20.261719 1.378906 18.800781 1.378906 C 16.738281 1.378906 15.070312 3.011719 15.070312 5.027344 C 15.070312 7.042969 16.738281 8.675781 18.800781 8.675781 C 20.492188 8.675781 21.917969 7.574219 22.375 6.070312 C 21.925781 7.277344 20.742188 8.140625 19.347656 8.140625 Z M 19.347656 8.140625 "/>
</g>
<mask id="mask2">
  <g filter="url(#alpha)">
<rect x="0" y="0" width="38" height="39" style="fill:rgb(0%,0%,0%);fill-opacity:0.309804;stroke:none;"/>
  </g>
</mask>
<clipPath id="clip3">
  <rect x="0" y="0" width="38" height="39"/>
</clipPath>
<g id="surface11" clip-path="url(#clip3)">
<path style=" stroke:none;fill-rule:nonzero;fill:rgb(11.372549%,11.372549%,10.588235%);fill-opacity:1;" d="M 30.191406 29.5625 C 28.308594 29.5625 26.78125 28.066406 26.78125 26.226562 C 26.78125 24.382812 28.308594 22.890625 30.191406 22.890625 C 31.058594 22.890625 31.851562 23.207031 32.457031 23.730469 C 31.769531 22.964844 30.769531 22.484375 29.648438 22.484375 C 27.585938 22.484375 25.917969 24.117188 25.917969 26.132812 C 25.917969 28.148438 27.585938 29.78125 29.648438 29.78125 C 30.300781 29.78125 30.910156 29.617188 31.445312 29.328125 C 31.058594 29.476562 30.636719 29.5625 30.191406 29.5625 Z M 30.191406 29.5625 "/>
</g>
<mask id="mask3">
  <g filter="url(#alpha)">
<rect x="0" y="0" width="38" height="39" style="fill:rgb(0%,0%,0%);fill-opacity:0.309804;stroke:none;"/>
  </g>
</mask>
<clipPath id="clip4">
  <rect x="0" y="0" width="38" height="39"/>
</clipPath>
<g id="surface14" clip-path="url(#clip4)">
<path style=" stroke:none;fill-rule:nonzero;fill:rgb(11.372549%,11.372549%,10.588235%);fill-opacity:1;" d="M 8.011719 22.6875 C 5.953125 22.6875 4.28125 24.320312 4.28125 26.335938 C 4.28125 28.351562 5.953125 29.984375 8.011719 29.984375 C 10.070312 29.984375 11.742188 28.351562 11.742188 26.335938 C 11.742188 24.320312 10.070312 22.6875 8.011719 22.6875 Z M 8.539062 29.441406 C 6.769531 29.441406 5.335938 28.042969 5.335938 26.3125 C 5.335938 24.582031 6.769531 23.183594 8.539062 23.183594 C 10.304688 23.183594 11.738281 24.582031 11.738281 26.3125 C 11.738281 28.042969 10.304688 29.441406 8.539062 29.441406 Z M 8.539062 29.441406 "/>
</g>
<mask id="mask4">
  <g filter="url(#alpha)">
<rect x="0" y="0" width="38" height="39" style="fill:rgb(0%,0%,0%);fill-opacity:0.309804;stroke:none;"/>
  </g>
</mask>
<clipPath id="clip5">
  <rect x="0" y="0" width="38" height="39"/>
</clipPath>
<g id="surface17" clip-path="url(#clip5)">
<path style=" stroke:none;fill-rule:nonzero;fill:rgb(11.372549%,11.372549%,10.588235%);fill-opacity:1;" d="M 6.417969 15.953125 C 4.417969 15.953125 2.796875 14.367188 2.796875 12.410156 C 2.796875 10.453125 4.417969 8.867188 6.417969 8.867188 C 6.707031 8.867188 6.984375 8.898438 7.25 8.960938 C 6.769531 8.765625 6.242188 8.65625 5.6875 8.65625 C 3.421875 8.65625 1.582031 10.457031 1.582031 12.671875 C 1.582031 14.890625 3.421875 16.6875 5.6875 16.6875 C 7.277344 16.6875 8.652344 15.804688 9.335938 14.511719 C 8.675781 15.386719 7.613281 15.953125 6.417969 15.953125 Z M 6.417969 15.953125 "/>
</g>
<mask id="mask5">
  <g filter="url(#alpha)">
<rect x="0" y="0" width="38" height="39" style="fill:rgb(0%,0%,0%);fill-opacity:0.309804;stroke:none;"/>
  </g>
</mask>
<clipPath id="clip6">
  <rect x="0" y="0" width="38" height="39"/>
</clipPath>
<g id="surface20" clip-path="url(#clip6)">
<path style=" stroke:none;fill-rule:nonzero;fill:rgb(11.372549%,11.372549%,10.588235%);fill-opacity:1;" d="M 36.621094 12.476562 C 36.621094 12.503906 36.621094 12.527344 36.621094 12.550781 C 36.621094 14.464844 35.035156 16.015625 33.078125 16.015625 C 31.117188 16.015625 29.53125 14.464844 29.53125 12.550781 C 29.53125 10.636719 31.117188 9.082031 33.078125 9.082031 C 33.433594 9.082031 33.777344 9.136719 34.105469 9.230469 C 33.625 9.035156 33.097656 8.929688 32.542969 8.929688 C 30.277344 8.929688 28.4375 10.726562 28.4375 12.945312 C 28.4375 15.160156 30.277344 16.957031 32.542969 16.957031 C 34.808594 16.957031 36.648438 15.160156 36.648438 12.945312 C 36.648438 12.785156 36.636719 12.632812 36.621094 12.476562 Z M 36.621094 12.476562 "/>
</g>
</defs>
<g id="surface1">
<path style="fill-rule:nonzero;fill:rgb(42.745098%,42.352942%,42.352942%);fill-opacity:1;stroke-width:4;stroke-linecap:round;stroke-linejoin:round;stroke:rgb(11.372549%,11.764706%,10.588235%);stroke-opacity:1;stroke-miterlimit:10;" d="M 216.178861 244.17107 L 192.211748 244.17107 L 184.089421 187.825652 L 202.183466 186.777959 Z M 216.178861 244.17107 " transform="matrix(0.156301,0,0,0.152866,0,0.00274581)"/>
<path style="fill-rule:nonzero;fill:rgb(85.882354%,85.09804%,84.705883%);fill-opacity:1;stroke-width:4;stroke-linecap:round;stroke-linejoin:round;stroke:rgb(11.372549%,11.764706%,10.588235%);stroke-opacity:1;stroke-miterlimit:10;" d="M 216.178861 244.17107 L 210.480736 244.17107 L 189.537628 187.493457 L 202.183466 186.777959 Z M 216.178861 244.17107 " transform="matrix(0.156301,0,0,0.152866,0,0.00274581)"/>
<path style="fill-rule:nonzero;fill:rgb(42.745098%,42.352942%,42.352942%);fill-opacity:1;stroke-width:4;stroke-linecap:round;stroke-linejoin:round;stroke:rgb(11.372549%,11.764706%,10.588235%);stroke-opacity:1;stroke-miterlimit:10;" d="M 23.167376 244.477712 L 47.159481 244.477712 L 55.256816 188.132294 L 37.162771 187.084601 Z M 23.167376 244.477712 " transform="matrix(0.156301,0,0,0.152866,0,0.00274581)"/>
<path style="fill-rule:nonzero;fill:rgb(85.882354%,85.09804%,84.705883%);fill-opacity:1;stroke-width:4;stroke-linecap:round;stroke-linejoin:round;stroke:rgb(11.372549%,11.764706%,10.588235%);stroke-opacity:1;stroke-miterlimit:10;" d="M 23.167376 244.477712 L 28.865501 244.477712 L 49.808609 187.825652 L 37.162771 187.084601 Z M 23.167376 244.477712 " transform="matrix(0.156301,0,0,0.152866,0,0.00274581)"/>
<path style=" stroke:none;fill-rule:nonzero;fill:rgb(65.490198%,64.705884%,65.098041%);fill-opacity:1;" d="M 21.222656 31.316406 C 21.222656 29.300781 19.550781 27.667969 17.492188 27.667969 C 15.429688 27.667969 13.761719 29.300781 13.761719 31.316406 C 13.761719 33.332031 15.429688 34.964844 17.492188 34.964844 C 19.550781 34.964844 21.222656 33.332031 21.222656 31.316406 Z M 21.222656 31.316406 "/>
<path style="fill:none;stroke-width:4;stroke-linecap:butt;stroke-linejoin:miter;stroke:rgb(11.372549%,11.372549%,10.588235%);stroke-opacity:1;stroke-miterlimit:10;" d="M 135.155524 205.380891 C 135.155524 192.195297 124.459044 181.488389 111.288378 181.488389 C 98.09272 181.488389 87.421232 192.195297 87.421232 205.380891 C 87.421232 218.540932 98.09272 229.247839 111.288378 229.247839 C 124.459044 229.247839 135.155524 218.540932 135.155524 205.380891 Z M 135.155524 205.380891 " transform="matrix(0.156301,0,0,0.152866,0,0.00274581)"/>
<use xlink:href="#surface5" mask="url(#mask0)"/>
<path style=" stroke:none;fill-rule:nonzero;fill:rgb(65.490198%,64.705884%,65.098041%);fill-opacity:1;" d="M 22.515625 4.921875 C 22.515625 2.910156 20.84375 1.273438 18.785156 1.273438 C 16.722656 1.273438 15.054688 2.910156 15.054688 4.921875 C 15.054688 6.9375 16.722656 8.574219 18.785156 8.574219 C 20.84375 8.574219 22.515625 6.9375 22.515625 4.921875 Z M 22.515625 4.921875 "/>
<path style="fill:none;stroke-width:4;stroke-linecap:butt;stroke-linejoin:miter;stroke:rgb(11.372549%,11.372549%,10.588235%);stroke-opacity:1;stroke-miterlimit:10;" d="M 143.427801 32.716043 C 143.427801 19.530448 132.731321 8.849095 119.560655 8.849095 C 106.364998 8.849095 95.668518 19.530448 95.668518 32.716043 C 95.668518 45.901637 106.364998 56.582991 119.560655 56.582991 C 132.731321 56.582991 143.427801 45.901637 143.427801 32.716043 Z M 143.427801 32.716043 " transform="matrix(0.156301,0,0,0.152866,0,0.00274581)"/>
<use xlink:href="#surface8" mask="url(#mask1)"/>
<path style=" stroke:none;fill-rule:nonzero;fill:rgb(65.490198%,64.705884%,65.098041%);fill-opacity:1;" d="M 33.359375 26.027344 C 33.359375 24.011719 31.691406 22.378906 29.628906 22.378906 C 27.570312 22.378906 25.898438 24.011719 25.898438 26.027344 C 25.898438 28.042969 27.570312 29.675781 29.628906 29.675781 C 31.691406 29.675781 33.359375 28.042969 33.359375 26.027344 Z M 33.359375 26.027344 "/>
<path style="fill:none;stroke-width:4;stroke-linecap:butt;stroke-linejoin:miter;stroke:rgb(11.372549%,11.372549%,10.588235%);stroke-opacity:1;stroke-miterlimit:10;" d="M 212.804971 170.781482 C 212.804971 157.595888 202.133483 146.888981 188.937825 146.888981 C 175.767159 146.888981 165.070679 157.595888 165.070679 170.781482 C 165.070679 183.941523 175.767159 194.64843 188.937825 194.64843 C 202.133483 194.64843 212.804971 183.941523 212.804971 170.781482 Z M 212.804971 170.781482 " transform="matrix(0.156301,0,0,0.152866,0,0.00274581)"/>
<use xlink:href="#surface11" mask="url(#mask2)"/>
<path style=" stroke:none;fill-rule:nonzero;fill:rgb(65.490198%,64.705884%,65.098041%);fill-opacity:1;" d="M 11.726562 26.230469 C 11.726562 24.214844 10.054688 22.582031 7.996094 22.582031 C 5.933594 22.582031 4.265625 24.214844 4.265625 26.230469 C 4.265625 28.246094 5.933594 29.878906 7.996094 29.878906 C 10.054688 29.878906 11.726562 28.246094 11.726562 26.230469 Z M 11.726562 26.230469 "/>
<path style="fill:none;stroke-width:4;stroke-linecap:butt;stroke-linejoin:miter;stroke:rgb(11.372549%,11.372549%,10.588235%);stroke-opacity:1;stroke-miterlimit:10;" d="M 74.400517 172.110263 C 74.400517 158.924669 63.704037 148.243315 50.508379 148.243315 C 37.337713 148.243315 26.641233 158.924669 26.641233 172.110263 C 26.641233 185.295858 37.337713 195.977211 50.508379 195.977211 C 63.704037 195.977211 74.400517 185.295858 74.400517 172.110263 Z M 74.400517 172.110263 " transform="matrix(0.156301,0,0,0.152866,0,0.00274581)"/>
<use xlink:href="#surface14" mask="url(#mask3)"/>
<path style="fill-rule:nonzero;fill:rgb(50.980395%,51.372552%,51.372552%);fill-opacity:1;stroke-width:4;stroke-linecap:round;stroke-linejoin:round;stroke:rgb(11.372549%,11.372549%,10.588235%);stroke-opacity:1;stroke-miterlimit:10;" d="M 106.140072 44.291768 L 51.558034 74.189337 C 49.708642 75.211476 47.384407 74.521532 46.359744 72.656128 C 45.360073 70.790724 46.034851 68.465358 47.884242 67.468772 L 102.466281 37.571203 C 104.315672 36.549064 106.639907 37.213455 107.66457 39.078859 C 108.689233 40.944262 107.989463 43.269629 106.140072 44.291768 Z M 106.140072 44.291768 " transform="matrix(0.156301,0,0,0.152866,0,0.00274581)"/>
<path style="fill-rule:nonzero;fill:rgb(50.980395%,51.372552%,51.372552%);fill-opacity:1;stroke-width:4;stroke-linecap:round;stroke-linejoin:round;stroke:rgb(11.372549%,11.372549%,10.588235%);stroke-opacity:1;stroke-miterlimit:10;" d="M 185.988796 74.547086 L 132.956247 41.991955 C 131.156839 40.867602 130.582029 38.516682 131.681667 36.702385 C 132.806297 34.913642 135.155524 34.351465 136.954931 35.450265 L 189.98748 68.005395 C 191.786888 69.129748 192.361698 71.480668 191.26206 73.269412 C 190.13743 75.083709 187.788203 75.645885 185.988796 74.547086 Z M 185.988796 74.547086 " transform="matrix(0.156301,0,0,0.152866,0,0.00274581)"/>
<path style=" stroke:none;fill-rule:nonzero;fill:rgb(100%,100%,100%);fill-opacity:1;" d="M 29.617188 23.402344 C 29.949219 23.3125 30.316406 23.292969 30.664062 23.398438 C 30.84375 23.4375 31.003906 23.527344 31.167969 23.609375 C 31.242188 23.660156 31.316406 23.71875 31.390625 23.769531 C 31.464844 23.824219 31.523438 23.894531 31.589844 23.957031 C 31.839844 24.214844 32.019531 24.535156 32.117188 24.863281 C 32.210938 25.195312 32.246094 25.542969 32.164062 25.878906 C 32 25.578125 31.847656 25.304688 31.683594 25.050781 C 31.519531 24.792969 31.347656 24.5625 31.152344 24.355469 C 31.058594 24.246094 30.945312 24.160156 30.839844 24.0625 C 30.722656 23.984375 30.613281 23.886719 30.480469 23.820312 C 30.417969 23.785156 30.355469 23.734375 30.285156 23.707031 C 30.214844 23.675781 30.144531 23.640625 30.074219 23.605469 C 30.007812 23.558594 29.929688 23.539062 29.855469 23.507812 C 29.777344 23.476562 29.699219 23.445312 29.617188 23.402344 Z M 29.617188 23.402344 "/>
<path style=" stroke:none;fill-rule:nonzero;fill:rgb(100%,100%,100%);fill-opacity:1;" d="M 7.875 23.578125 C 8.027344 23.542969 8.1875 23.523438 8.347656 23.515625 C 8.429688 23.519531 8.507812 23.523438 8.585938 23.53125 C 8.628906 23.535156 8.667969 23.539062 8.707031 23.542969 L 8.828125 23.570312 C 8.90625 23.589844 8.984375 23.609375 9.0625 23.632812 C 9.140625 23.664062 9.214844 23.699219 9.289062 23.730469 C 9.367188 23.761719 9.433594 23.808594 9.503906 23.851562 C 9.574219 23.898438 9.644531 23.941406 9.707031 23.996094 C 9.96875 24.203125 10.164062 24.476562 10.292969 24.773438 C 10.414062 25.066406 10.472656 25.390625 10.410156 25.699219 C 10.25 25.429688 10.09375 25.195312 9.921875 24.976562 C 9.75 24.761719 9.566406 24.566406 9.359375 24.402344 C 9.3125 24.355469 9.253906 24.320312 9.203125 24.28125 C 9.148438 24.238281 9.09375 24.199219 9.035156 24.167969 C 8.976562 24.132812 8.921875 24.09375 8.863281 24.054688 C 8.804688 24.027344 8.742188 23.992188 8.679688 23.960938 L 8.585938 23.90625 L 8.492188 23.863281 C 8.425781 23.835938 8.359375 23.804688 8.292969 23.769531 C 8.160156 23.707031 8.015625 23.65625 7.875 23.578125 Z M 7.875 23.578125 "/>
<path style="fill-rule:nonzero;fill:rgb(50.980395%,51.372552%,51.372552%);fill-opacity:1;stroke-width:4;stroke-linecap:round;stroke-linejoin:round;stroke:rgb(11.372549%,11.372549%,10.588235%);stroke-opacity:1;stroke-miterlimit:10;" d="M 44.085493 151.871909 L 35.663264 103.269194 C 35.338371 101.403791 36.58796 99.615047 38.462343 99.282852 L 39.237088 99.155085 C 41.111471 98.848443 42.885887 100.100563 43.21078 101.965967 L 51.633009 150.568682 C 51.957902 152.434085 50.708313 154.197275 48.83393 154.529471 L 48.059185 154.657238 C 46.184802 154.989433 44.410386 153.737313 44.085493 151.871909 Z M 44.085493 151.871909 " transform="matrix(0.156301,0,0,0.152866,0,0.00274581)"/>
<path style="fill-rule:nonzero;fill:rgb(50.980395%,51.372552%,51.372552%);fill-opacity:1;stroke-width:4;stroke-linecap:round;stroke-linejoin:round;stroke:rgb(11.372549%,11.372549%,10.588235%);stroke-opacity:1;stroke-miterlimit:10;" d="M 192.186756 150.594235 L 198.684618 107.741053 C 199.009511 105.645668 200.958869 104.18912 203.058178 104.521315 C 205.132496 104.827957 206.582019 106.795574 206.257126 108.890959 L 199.759264 151.744141 C 199.434371 153.839527 197.485012 155.270521 195.410695 154.938326 C 193.311386 154.631684 191.861863 152.68962 192.186756 150.594235 Z M 192.186756 150.594235 " transform="matrix(0.156301,0,0,0.152866,0,0.00274581)"/>
<path style="fill-rule:nonzero;fill:rgb(50.980395%,51.372552%,51.372552%);fill-opacity:1;stroke-width:4;stroke-linecap:round;stroke-linejoin:round;stroke:rgb(11.372549%,11.372549%,10.588235%);stroke-opacity:1;stroke-miterlimit:10;" d="M 91.869768 201.368995 L 66.403148 186.675745 C 64.578749 185.602499 63.928963 183.277133 65.003609 181.437283 C 66.053263 179.597432 68.40249 178.984149 70.22689 180.031841 L 95.69351 194.750644 C 97.517909 195.798337 98.167695 198.149257 97.093049 199.963554 C 96.043394 201.803404 93.694168 202.442241 91.869768 201.368995 Z M 91.869768 201.368995 " transform="matrix(0.156301,0,0,0.152866,0,0.00274581)"/>
<path style="fill-rule:nonzero;fill:rgb(50.980395%,51.372552%,51.372552%);fill-opacity:1;stroke-width:4;stroke-linecap:round;stroke-linejoin:round;stroke:rgb(11.372549%,11.372549%,10.588235%);stroke-opacity:1;stroke-miterlimit:10;" d="M 101.941454 146.275697 L 68.702392 167.203995 C 66.902984 168.328348 64.528765 167.791725 63.429127 166.002982 C 62.279505 164.214239 62.829324 161.837765 64.628732 160.738966 L 97.842802 139.810667 C 99.64221 138.660761 102.016429 139.197384 103.141059 141.011681 C 104.265689 142.800424 103.71587 145.151344 101.941454 146.275697 Z M 101.941454 146.275697 " transform="matrix(0.156301,0,0,0.152866,0,0.00274581)"/>
<path style="fill-rule:nonzero;fill:rgb(50.980395%,51.372552%,51.372552%);fill-opacity:1;stroke-width:4;stroke-linecap:round;stroke-linejoin:round;stroke:rgb(11.372549%,11.372549%,10.588235%);stroke-opacity:1;stroke-miterlimit:10;" d="M 173.492908 165.313038 L 149.225893 148.728831 C 147.476469 147.527818 147.026617 145.151344 148.226222 143.388154 C 149.400836 141.650518 151.800046 141.190555 153.549471 142.391569 L 177.841477 158.975776 C 179.590901 160.176789 180.040753 162.553263 178.841148 164.316452 C 177.641542 166.054089 175.242332 166.514052 173.492908 165.313038 Z M 173.492908 165.313038 " transform="matrix(0.156301,0,0,0.152866,0,0.00274581)"/>
<path style="fill-rule:nonzero;fill:rgb(50.980395%,51.372552%,51.372552%);fill-opacity:1;stroke-width:4;stroke-linecap:round;stroke-linejoin:round;stroke:rgb(11.372549%,11.372549%,10.588235%);stroke-opacity:1;stroke-miterlimit:10;" d="M 138.779331 187.544564 L 170.918755 180.287376 C 172.993072 179.80186 175.042398 181.105087 175.517242 183.174919 C 175.992085 185.219197 174.667521 187.289029 172.618196 187.748991 L 140.45378 195.031733 C 138.404454 195.491695 136.330137 194.188468 135.880285 192.118636 C 135.405441 190.074358 136.705014 188.03008 138.779331 187.544564 Z M 138.779331 187.544564 " transform="matrix(0.156301,0,0,0.152866,0,0.00274581)"/>
<path style=" stroke:none;fill-rule:nonzero;fill:rgb(65.490198%,64.705884%,65.098041%);fill-opacity:1;" d="M 9.964844 12.589844 C 9.964844 10.371094 8.125 8.574219 5.859375 8.574219 C 3.59375 8.574219 1.753906 10.371094 1.753906 12.589844 C 1.753906 14.808594 3.59375 16.605469 5.859375 16.605469 C 8.125 16.605469 9.964844 14.808594 9.964844 12.589844 Z M 9.964844 12.589844 "/>
<path style="fill:none;stroke-width:4;stroke-linecap:butt;stroke-linejoin:miter;stroke:rgb(11.372549%,11.372549%,10.588235%);stroke-opacity:1;stroke-miterlimit:10;" d="M 63.129226 82.877519 C 63.129226 68.363144 51.358099 56.608544 36.862869 56.608544 C 22.367639 56.608544 10.596513 68.363144 10.596513 82.877519 C 10.596513 97.366341 22.367639 109.120941 36.862869 109.120941 C 51.358099 109.120941 63.129226 97.366341 63.129226 82.877519 Z M 63.129226 82.877519 " transform="matrix(0.156301,0,0,0.152866,0,0.00274581)"/>
<use xlink:href="#surface17" mask="url(#mask4)"/>
<path style="fill-rule:nonzero;fill:rgb(50.980395%,51.372552%,51.372552%);fill-opacity:1;stroke-width:4;stroke-linecap:round;stroke-linejoin:round;stroke:rgb(11.372549%,11.372549%,10.588235%);stroke-opacity:1;stroke-miterlimit:10;" d="M 81.34823 108.405443 L 51.458066 94.529905 C 49.5337 93.635533 48.708971 91.361274 49.583683 89.41921 C 50.483387 87.502699 52.757639 86.684987 54.682005 87.579359 L 84.572169 101.454897 C 86.496536 102.349269 87.321265 104.623529 86.446553 106.54004 C 85.546849 108.45655 83.272597 109.299815 81.34823 108.405443 Z M 81.34823 108.405443 " transform="matrix(0.156301,0,0,0.152866,0,0.00274581)"/>
<path style=" stroke:none;fill-rule:nonzero;fill:rgb(65.490198%,64.705884%,65.098041%);fill-opacity:1;" d="M 36.628906 12.839844 C 36.628906 10.625 34.792969 8.824219 32.527344 8.824219 C 30.257812 8.824219 28.421875 10.625 28.421875 12.839844 C 28.421875 15.058594 30.257812 16.855469 32.527344 16.855469 C 34.792969 16.855469 36.628906 15.058594 36.628906 12.839844 Z M 36.628906 12.839844 "/>
<path style="fill:none;stroke-width:4;stroke-linecap:butt;stroke-linejoin:miter;stroke:rgb(11.372549%,11.372549%,10.588235%);stroke-opacity:1;stroke-miterlimit:10;" d="M 233.723087 84.512942 C 233.723087 69.998567 221.976953 58.243967 207.481723 58.243967 C 192.961501 58.243967 181.215366 69.998567 181.215366 84.512942 C 181.215366 99.001764 192.961501 110.781917 207.481723 110.781917 C 221.976953 110.781917 233.723087 99.001764 233.723087 84.512942 Z M 233.723087 84.512942 " transform="matrix(0.156301,0,0,0.152866,0,0.00274581)"/>
<use xlink:href="#surface20" mask="url(#mask5)"/>
<path style="fill-rule:nonzero;fill:rgb(50.980395%,51.372552%,51.372552%);fill-opacity:1;stroke-width:4;stroke-linecap:round;stroke-linejoin:round;stroke:rgb(11.372549%,11.372549%,10.588235%);stroke-opacity:1;stroke-miterlimit:10;" d="M 190.537299 97.775197 L 164.096 110.628596 C 162.196625 111.574075 159.897382 110.781917 158.972686 108.865406 C 158.04799 106.974449 158.847727 104.674636 160.747102 103.75471 L 187.188401 90.901311 C 189.087776 89.955833 191.387019 90.74799 192.311715 92.664501 C 193.236411 94.555459 192.436674 96.855272 190.537299 97.775197 Z M 190.537299 97.775197 " transform="matrix(0.156301,0,0,0.152866,0,0.00274581)"/>
<path style=" stroke:none;fill-rule:evenodd;fill:rgb(94.117647%,83.92157%,71.764708%);fill-opacity:1;" d="M 23.539062 22.164062 L 21.90625 22.402344 L 19.699219 22.640625 L 18.269531 22.679688 L 16.878906 22.640625 L 15.816406 22.320312 L 14.878906 21.320312 L 14.144531 19.285156 L 13.980469 18.84375 L 13 18.527344 L 12.425781 17.605469 L 12.019531 16.289062 L 12.46875 15.128906 L 13.53125 14.769531 L 14.386719 15.171875 L 14.796875 16.050781 L 15.285156 15.96875 L 15.449219 15.769531 L 15.285156 14.851562 L 15.246094 13.695312 L 15.488281 12.097656 L 15.480469 11.183594 L 16.222656 10.019531 L 17.53125 9.101562 L 19.820312 8.140625 L 22.351562 8.5 L 24.558594 10.058594 L 25.578125 11.65625 L 26.230469 12.8125 L 26.394531 15.6875 L 25.90625 18.164062 L 25.007812 20.363281 L 24.148438 21.519531 "/>
<path style=" stroke:none;fill-rule:evenodd;fill:rgb(20%,31.37255%,38.039216%);fill-opacity:1;" d="M 22.148438 29.074219 L 16.308594 29.3125 L 16.308594 30.273438 L 16.796875 33.628906 L 16.554688 33.90625 L 12.46875 32.546875 L 12.183594 32.066406 L 11.773438 27.554688 L 10.835938 24.835938 L 10.628906 24.199219 L 13.898438 22.003906 L 14.917969 21.601562 L 15.816406 22.679688 L 16.59375 23.359375 L 17.492188 23.636719 L 17.902344 23.757812 L 18.390625 25.835938 L 18.757812 26.273438 L 19.699219 25.957031 L 19.042969 27.195312 L 22.597656 28.832031 L 22.148438 29.074219 "/>
<path style=" stroke:none;fill-rule:evenodd;fill:rgb(42.745098%,41.960785%,42.745098%);fill-opacity:1;" d="M 12.472656 15.132812 L 13.535156 14.773438 L 14.390625 15.171875 L 14.800781 16.050781 L 15.289062 15.972656 L 15.414062 15.492188 L 15.167969 14.574219 L 15.414062 12.375 L 15.207031 11.175781 L 15.941406 10.339844 L 17.535156 9.101562 L 17.085938 8.5 L 14.839844 9.578125 L 13.898438 10.296875 L 13.367188 11.414062 L 12.550781 12.492188 L 12.308594 13.769531 L 12.472656 15.132812 "/>
<path style=" stroke:none;fill-rule:evenodd;fill:rgb(86.274511%,85.09804%,84.705883%);fill-opacity:1;" d="M 14.144531 11.378906 C 14.144531 11.378906 14.757812 9.898438 17.207031 9.179688 C 19.660156 8.460938 17.332031 8.660156 17.332031 8.660156 L 14.675781 9.660156 L 13.65625 10.660156 L 13.207031 11.457031 L 14.144531 11.378906 "/>
<path style=" stroke:none;fill-rule:evenodd;fill:rgb(86.274511%,85.09804%,84.705883%);fill-opacity:1;" d="M 12.917969 14.851562 C 12.917969 14.851562 12.0625 12.054688 15.328125 11.65625 L 15.207031 11.175781 L 12.960938 11.695312 L 12.304688 13.773438 L 12.46875 15.128906 L 12.917969 14.851562 "/>
<path style=" stroke:none;fill-rule:evenodd;fill:rgb(96.862745%,89.411765%,80.392158%);fill-opacity:1;" d="M 14.226562 18.566406 L 14.761719 18.0625 C 14.761719 18.0625 15.003906 18.089844 15.042969 18.371094 C 15.085938 18.648438 15.207031 21.167969 16.964844 22.523438 C 17.125 22.648438 15.65625 22.324219 15.65625 22.324219 L 14.351562 20.328125 "/>
<path style=" stroke:none;fill-rule:evenodd;fill:rgb(96.862745%,89.411765%,80.392158%);fill-opacity:1;" d="M 21.742188 17.808594 C 21.742188 17.808594 21.835938 16.597656 22.167969 16.691406 C 22.503906 16.785156 22.503906 17.109375 22.503906 17.109375 C 22.503906 17.109375 21.695312 17.621094 21.742188 17.808594 "/>
<path style=" stroke:none;fill-rule:nonzero;fill:rgb(96.862745%,89.411765%,80.392158%);fill-opacity:1;" d="M 25.132812 13.375 C 25.132812 13.375 24.460938 13.515625 24.398438 14.09375 C 24.335938 14.675781 25.132812 14.214844 25.257812 14.171875 "/>
<path style=" stroke:none;fill-rule:nonzero;fill:rgb(96.862745%,89.411765%,80.392158%);fill-opacity:1;" d="M 20.191406 13.414062 C 20.191406 13.414062 19.292969 13.535156 19.292969 14.09375 C 19.292969 14.652344 20.3125 14.613281 20.597656 14.371094 "/>
<path style=" stroke:none;fill-rule:evenodd;fill:rgb(96.862745%,89.411765%,80.392158%);fill-opacity:1;" d="M 14.636719 16.011719 C 14.636719 16.011719 13.085938 15.09375 12.921875 15.972656 C 12.757812 16.851562 12.390625 17.488281 13.164062 18.40625 L 12.632812 18.246094 L 12.144531 17.007812 L 11.980469 15.8125 L 12.917969 14.851562 L 13.980469 14.933594 L 14.59375 15.410156 L 14.636719 16.011719 "/>
<path style=" stroke:none;fill-rule:evenodd;fill:rgb(96.862745%,89.411765%,80.392158%);fill-opacity:1;" d="M 15.371094 13.496094 C 15.371094 13.496094 16.0625 9.980469 19.578125 9.300781 C 22.46875 8.742188 23.988281 9.421875 24.5625 10.058594 C 24.5625 10.058594 21.988281 7.0625 19.535156 7.980469 C 17.085938 8.902344 15.289062 10.578125 15.328125 11.65625 C 15.398438 13.492188 15.371094 13.496094 15.371094 13.496094 "/>
<path style=" stroke:none;fill-rule:evenodd;fill:rgb(96.862745%,89.411765%,80.392158%);fill-opacity:1;" d="M 24.847656 10.457031 C 24.847656 10.457031 23.660156 10.417969 23.621094 11.457031 C 23.621094 11.457031 23.621094 11.617188 23.703125 11.777344 C 23.703125 11.777344 24.644531 10.738281 25.214844 11.296875 "/>
<path style=" stroke:none;fill-rule:evenodd;fill:rgb(96.862745%,89.411765%,80.392158%);fill-opacity:1;" d="M 19.660156 11.882812 C 19.660156 11.882812 19.457031 10.289062 18.066406 11.21875 C 17.164062 11.816406 17.246094 12.65625 17.410156 12.816406 C 17.574219 12.976562 17.53125 13.296875 17.65625 13.074219 C 17.78125 12.851562 17.738281 12.132812 18.191406 11.9375 C 18.636719 11.738281 19.375 11.511719 19.660156 11.882812 "/>
<path style=" stroke:none;fill-rule:evenodd;fill:rgb(28.627452%,44.705883%,54.509807%);fill-opacity:1;" d="M 15.820312 22.683594 L 11.980469 24.359375 C 11.980469 24.359375 13.574219 30.554688 12.757812 32.46875 L 12.183594 32.269531 L 12.144531 29.914062 L 11.078125 25.4375 L 10.628906 24.199219 L 14.632812 21.5625 L 15.820312 22.683594 "/>
<path style=" stroke:none;fill-rule:evenodd;fill:rgb(28.627452%,44.705883%,54.509807%);fill-opacity:1;" d="M 16.214844 26.109375 L 16.757812 26.757812 L 16.757812 29.152344 L 16.105469 29.152344 C 16.105469 29.152344 16.023438 27.476562 16.023438 27.277344 C 16.023438 27.074219 16.105469 26.355469 16.105469 26.355469 "/>
<path style=" stroke:none;fill-rule:evenodd;fill:rgb(28.627452%,44.705883%,54.509807%);fill-opacity:1;" d="M 16.226562 29.511719 L 14.390625 29.59375 L 14.921875 29.953125 L 16.226562 30.152344 "/>
<path style=" stroke:none;fill-rule:evenodd;fill:rgb(20%,31.37255%,38.039216%);fill-opacity:1;" d="M 22.519531 29.113281 L 24.03125 29.074219 L 24.398438 32.75 L 22.847656 32.945312 L 22.519531 29.113281 "/>
<path style=" stroke:none;fill-rule:evenodd;fill:rgb(20%,31.37255%,38.039216%);fill-opacity:1;" d="M 22.925781 29.113281 L 25.214844 28.992188 C 25.214844 28.992188 26.15625 26.675781 26.15625 26.558594 C 26.15625 26.4375 26.972656 23.203125 26.972656 23.203125 L 25.132812 21.324219 L 24.765625 21.003906 L 23.785156 21.964844 L 23.785156 25.679688 L 22.925781 29.113281 "/>
<path style=" stroke:none;fill-rule:evenodd;fill:rgb(28.627452%,44.705883%,54.509807%);fill-opacity:1;" d="M 23.949219 28.835938 L 22.515625 29.113281 L 22.71875 30.230469 C 23.25 30.472656 24.152344 29.832031 24.152344 29.832031 "/>
<path style=" stroke:none;fill-rule:evenodd;fill:rgb(28.627452%,44.705883%,54.509807%);fill-opacity:1;" d="M 23.988281 21.84375 L 26.847656 23.921875 L 26.929688 22.960938 L 24.765625 21.003906 L 23.988281 21.84375 "/>
<path style=" stroke:none;fill-rule:evenodd;fill:rgb(100%,100%,100%);fill-opacity:1;" d="M 17.644531 36.984375 L 16.796875 33.628906 L 16.378906 31.152344 L 16.308594 29.316406 L 20.136719 29.117188 L 22.515625 29.117188 L 22.300781 33.308594 L 22.667969 36.546875 L 22.625 37.144531 L 19.523438 37.382812 L 17.644531 36.984375 "/>
<path style=" stroke:none;fill-rule:evenodd;fill:rgb(86.274511%,85.09804%,84.705883%);fill-opacity:1;" d="M 21.988281 29.074219 C 21.988281 29.074219 21.785156 33.226562 22.394531 36.183594 C 22.394531 36.183594 21.171875 36.941406 19.375 37.144531 L 22.804688 37.023438 L 23.210938 36.785156 L 22.722656 30.230469 L 22.597656 28.832031 "/>
<path style=" stroke:none;fill-rule:evenodd;fill:rgb(100%,100%,100%);fill-opacity:1;" d="M 24.46875 32.429688 L 26.058594 31.992188 L 29.082031 31.832031 L 29.53125 30.472656 L 28.714844 28.113281 L 27.773438 27.996094 L 26.46875 28.394531 L 25.214844 28.992188 L 24.546875 28.871094 L 24.027344 29.070312 "/>
<path style=" stroke:none;fill-rule:evenodd;fill:rgb(86.274511%,85.09804%,84.705883%);fill-opacity:1;" d="M 24.4375 31.628906 C 24.4375 31.628906 25.5 31.152344 25.664062 31.191406 L 25.214844 28.992188 L 25.746094 28.796875 C 25.746094 28.796875 26.113281 30.871094 26.113281 31.113281 C 26.113281 31.113281 28.398438 31.234375 28.601562 31.234375 C 28.601562 31.234375 29.09375 30.3125 28.96875 29.355469 L 29.417969 30.632812 L 29.460938 31.351562 L 28.808594 32.3125 L 28.074219 32.472656 L 26.847656 32.429688 L 26.441406 31.910156 L 25.011719 32.109375 L 24.5625 32.269531 "/>
<path style=" stroke:none;fill-rule:nonzero;fill:rgb(100%,100%,100%);fill-opacity:1;" d="M 22.832031 28.796875 L 21.933594 26.558594 L 20.996094 25.238281 C 20.996094 25.238281 21.199219 24.679688 21.484375 24.679688 C 21.773438 24.679688 22.425781 24.679688 22.425781 24.679688 L 23.324219 25 L 23.242188 26.476562 L 22.832031 28.796875 "/>
<path style=" stroke:none;fill-rule:evenodd;fill:rgb(86.274511%,85.09804%,84.705883%);fill-opacity:1;" d="M 23.007812 28.035156 C 23.007812 28.035156 21.867188 25.878906 21.867188 25.558594 C 21.867188 25.558594 22.070312 25.082031 22.355469 25.199219 C 22.640625 25.320312 23.253906 25.640625 23.253906 25.640625 L 23.253906 24.882812 L 21.867188 24.601562 L 20.925781 24.722656 L 22.519531 28.398438 L 22.84375 28.4375 "/>
<path style=" stroke:none;fill-rule:nonzero;fill:rgb(100%,100%,100%);fill-opacity:1;" d="M 18.015625 22.761719 L 16.882812 22.640625 L 15.820312 22.324219 L 15.820312 22.683594 L 16.339844 23.242188 L 17.972656 23.960938 "/>
<path style=" stroke:none;fill-rule:evenodd;fill:rgb(86.274511%,85.09804%,84.705883%);fill-opacity:1;" d="M 16.1875 22.882812 C 16.1875 22.882812 17.453125 23.402344 17.863281 23.28125 L 17.902344 23.761719 L 16.757812 23.523438 L 16.066406 23.042969 L 16.1875 22.882812 "/>
<path style=" stroke:none;fill-rule:evenodd;fill:rgb(82.745099%,21.960784%,20%);fill-opacity:1;" d="M 24.464844 24.816406 C 23.769531 24.796875 23.144531 24.714844 22.59375 24.5625 C 22.632812 24.34375 22.5625 24.128906 22.617188 23.96875 C 22.769531 23.863281 23.027344 23.863281 23.257812 23.839844 C 23.058594 23.742188 22.777344 23.703125 22.546875 23.761719 C 22.542969 23.605469 22.472656 23.511719 22.429688 23.394531 C 22.820312 23.257812 23.738281 22.363281 24.257812 22.660156 C 24.503906 22.800781 24.609375 23.601562 24.628906 23.996094 C 24.644531 24.316406 24.597656 24.644531 24.464844 24.816406 "/>
<path style="fill:none;stroke-width:2.5;stroke-linecap:butt;stroke-linejoin:miter;stroke:rgb(82.745099%,21.960784%,20%);stroke-opacity:1;stroke-miterlimit:5;" d="M 125.218794 119.741375 C 121.659965 119.843589 118.461017 120.272887 115.641945 121.070156 C 115.841879 122.214952 115.481998 123.339305 115.761906 124.177459 C 116.541649 124.729414 117.861215 124.729414 119.040827 124.852071 C 118.021162 125.36314 116.581636 125.567568 115.402024 125.260926 C 115.382031 126.078637 115.022149 126.569264 114.802221 127.182548 C 116.801563 127.898045 121.500017 132.579442 124.159142 131.025791 C 125.418728 130.289851 125.95855 126.09908 126.058517 124.034359 C 126.138491 122.358051 125.89857 120.640857 125.218794 119.741375 Z M 125.218794 119.741375 " transform="matrix(0.195377,0,0,-0.191082,0,47.696841)"/>
<path style=" stroke:none;fill-rule:evenodd;fill:rgb(82.745099%,21.960784%,20%);fill-opacity:1;" d="M 21.148438 23.707031 C 21.144531 23.761719 21.144531 23.8125 21.140625 23.863281 C 20.925781 24.003906 20.574219 24 20.339844 24.117188 C 20.6875 24.132812 20.964844 24.214844 21.203125 24.332031 C 21.195312 24.460938 21.191406 24.589844 21.1875 24.71875 C 20.789062 24.984375 20.429688 25.378906 19.960938 25.628906 C 19.738281 25.746094 18.964844 26.050781 18.730469 25.996094 C 18.597656 25.964844 18.585938 25.804688 18.53125 25.652344 C 18.417969 25.328125 18.160156 24.808594 18.136719 24.316406 C 18.105469 23.699219 18.042969 22.660156 18.726562 22.789062 C 19.277344 22.890625 19.914062 23.140625 20.339844 23.367188 C 20.601562 23.503906 20.753906 23.679688 21.148438 23.707031 "/>
<path style="fill:none;stroke-width:2.5;stroke-linecap:butt;stroke-linejoin:miter;stroke:rgb(82.745099%,21.960784%,20%);stroke-opacity:1;stroke-miterlimit:5;" d="M 108.244379 125.547125 C 108.224386 125.260926 108.224386 124.99517 108.204393 124.729414 C 107.104754 123.993474 105.305347 124.013916 104.105741 123.400633 C 105.885156 123.318862 107.304689 122.889563 108.524287 122.27628 C 108.4843 121.601668 108.464307 120.927056 108.444314 120.252445 C 106.404985 118.862335 104.56559 116.797614 102.16638 115.489276 C 101.026755 114.875993 97.068057 113.281456 95.868452 113.567655 C 95.188676 113.731197 95.128695 114.569351 94.848788 115.36662 C 94.268978 117.063371 92.949413 119.782261 92.829452 122.358051 C 92.669505 125.588011 92.34961 131.025791 95.848459 130.351179 C 98.667531 129.819667 101.926458 128.511329 104.105741 127.325647 C 105.445301 126.61015 106.225044 125.690225 108.244379 125.547125 Z M 108.244379 125.547125 " transform="matrix(0.195377,0,0,-0.191082,0,47.696841)"/>
<path style=" stroke:none;fill-rule:evenodd;fill:rgb(82.745099%,21.960784%,20%);fill-opacity:1;" d="M 21.542969 24.449219 C 21.480469 24.113281 21.410156 24.015625 21.4375 23.71875 C 22.359375 23.121094 22.53125 24.75 21.542969 24.449219 "/>
<path style="fill:none;stroke-width:2.5;stroke-linecap:butt;stroke-linejoin:miter;stroke:rgb(82.745099%,21.960784%,20%);stroke-opacity:1;stroke-miterlimit:5;" d="M 110.263715 121.662997 C 109.94382 123.421076 109.583939 123.932145 109.723893 125.485797 C 114.44234 128.613542 115.32205 120.088902 110.263715 121.662997 Z M 110.263715 121.662997 " transform="matrix(0.195377,0,0,-0.191082,0,47.696841)"/>
<path style=" stroke:none;fill-rule:evenodd;fill:rgb(93.725491%,23.921569%,22.745098%);fill-opacity:1;" d="M 22.875 24.722656 C 22.875 24.722656 22.589844 24.320312 22.792969 24.203125 C 22.996094 24.082031 23.199219 24.203125 23.324219 24.003906 C 23.445312 23.800781 23.324219 23.683594 23.363281 23.441406 C 23.40625 23.203125 23.609375 23.164062 23.816406 23.125 C 24.019531 23.082031 24.589844 23.003906 24.671875 23.203125 L 24.429688 22.484375 L 23.9375 22.324219 L 22.386719 23.203125 L 22.304688 23.644531 L 22.304688 24.523438 "/>
<path style=" stroke:none;fill-rule:evenodd;fill:rgb(93.725491%,23.921569%,22.745098%);fill-opacity:1;" d="M 18.585938 26.039062 C 18.535156 25.417969 18.484375 24.792969 18.425781 24.171875 C 18.339844 23.242188 18.65625 23.402344 19.480469 23.402344 C 19.605469 23.402344 20.253906 23.550781 20.300781 23.640625 C 20.523438 24.085938 19.929688 23.988281 20.558594 24.324219 C 21.089844 24.605469 22.027344 24.152344 21.8125 23.523438 C 21.691406 23.382812 21.1875 23.480469 21.003906 23.386719 C 20.6875 23.226562 20.367188 23.0625 20.046875 22.902344 C 19.640625 22.695312 18.703125 22.394531 18.269531 22.683594 C 17.171875 23.414062 18.339844 25.238281 18.730469 25.996094 "/>
<path style=" stroke:none;fill-rule:evenodd;fill:rgb(13.725491%,12.156863%,12.54902%);fill-opacity:1;" d="M 19.660156 11.882812 C 18.546875 11.628906 17.992188 12.339844 17.652344 13.074219 C 17.351562 13.003906 17.472656 12.601562 17.546875 12.398438 C 17.746094 11.863281 18.550781 11.148438 19.207031 11.246094 C 19.492188 11.289062 19.875 11.539062 19.660156 11.882812 "/>
<path style=" stroke:none;fill-rule:evenodd;fill:rgb(13.725491%,12.156863%,12.54902%);fill-opacity:1;" d="M 25.085938 13.125 C 25.101562 13.125 25.121094 13.125 25.136719 13.125 C 25.390625 13.636719 25.605469 14.179688 25.925781 14.628906 C 25.710938 15.113281 24.316406 15.542969 24.335938 14.675781 C 24.640625 14.542969 25.160156 14.648438 25.429688 14.484375 C 25.273438 14.066406 25.050781 13.710938 25.085938 13.125 "/>
<path style=" stroke:none;fill-rule:evenodd;fill:rgb(13.725491%,12.156863%,12.54902%);fill-opacity:1;" d="M 20.230469 13.136719 C 20.46875 13.566406 20.546875 14.015625 20.886719 14.339844 C 21.039062 14.484375 21.335938 14.664062 21.1875 15.066406 C 21.152344 15.164062 20.902344 15.375 20.757812 15.417969 C 20.226562 15.570312 18.992188 15.449219 19.410156 14.800781 C 19.847656 14.820312 20.4375 15.082031 20.765625 14.769531 C 20.511719 14.375 20.066406 13.597656 20.230469 13.136719 "/>
<path style=" stroke:none;fill-rule:evenodd;fill:rgb(13.725491%,12.156863%,12.54902%);fill-opacity:1;" d="M 24.886719 17.488281 C 24.085938 17.988281 23.195312 18.535156 21.886719 18.40625 C 21.605469 18.171875 21.5 17.640625 21.769531 17.292969 C 21.910156 17.527344 21.824219 17.964844 22.21875 18.035156 C 22.960938 18.15625 23.824219 17.589844 24.359375 17.390625 C 24.691406 16.84375 24.332031 16.644531 24.035156 16.292969 C 23.421875 15.570312 22.601562 14.679688 22.632812 13.601562 C 22.878906 13.425781 22.898438 13.871094 22.933594 13.949219 C 23.253906 14.679688 24.058594 15.613281 24.644531 16.238281 C 24.789062 16.394531 25.023438 16.539062 25.050781 16.640625 C 25.128906 16.9375 24.855469 17.289062 24.886719 17.488281 "/>
<path style=" stroke:none;fill-rule:evenodd;fill:rgb(13.725491%,12.156863%,12.54902%);fill-opacity:1;" d="M 14.355469 16.960938 C 14.105469 16.820312 14.042969 16.203125 13.75 16.1875 C 13.332031 16.164062 13.40625 16.984375 13.410156 17.46875 C 13.121094 17.210938 13.070312 16.421875 13.28125 16.015625 C 13.039062 15.898438 12.933594 16.144531 12.796875 16.230469 C 12.972656 15.003906 14.632812 15.660156 14.355469 16.960938 "/>
<path style=" stroke:none;fill-rule:evenodd;fill:rgb(13.725491%,12.156863%,12.54902%);fill-opacity:1;" d="M 25.394531 18 C 25.023438 18.691406 24.496094 19.453125 23.402344 19.476562 C 23.382812 19.253906 23.363281 18.914062 23.40625 18.777344 C 24.242188 18.699219 24.753906 18.285156 25.394531 18 "/>
<path style=" stroke:none;fill-rule:evenodd;fill:rgb(13.725491%,12.156863%,12.54902%);fill-opacity:1;" d="M 20.167969 18.445312 C 20.863281 18.804688 22.140625 18.839844 23.085938 18.816406 C 23.136719 19.015625 23.136719 19.269531 23.136719 19.515625 C 21.921875 19.574219 20.484375 19.28125 20.167969 18.445312 "/>
<path style=" stroke:none;fill-rule:evenodd;fill:rgb(13.725491%,12.156863%,12.54902%);fill-opacity:1;" d="M 20.035156 19.113281 C 20.515625 20.296875 22.167969 20.160156 23.5625 20.128906 C 23.503906 20.28125 23.367188 20.460938 23.203125 20.527344 C 22.757812 20.703125 21.523438 20.839844 20.90625 20.515625 C 20.511719 20.3125 20.257812 19.851562 20.042969 19.578125 C 19.9375 19.449219 19.421875 19.113281 20.035156 19.113281 "/>
<path style=" stroke:none;fill-rule:evenodd;fill:rgb(50.588238%,69.01961%,76.862746%);fill-opacity:1;" d="M 24.828125 25.632812 C 24.261719 26.578125 23.71875 27.550781 23.050781 28.382812 C 23.332031 27.574219 23.453125 26.226562 23.496094 25.195312 C 24.085938 24.921875 24.585938 25.253906 24.828125 25.632812 "/>
<path style=" stroke:none;fill-rule:evenodd;fill:rgb(13.725491%,12.156863%,12.54902%);fill-opacity:1;" d="M 27.863281 29.03125 C 27.230469 29.15625 26.789062 29.757812 26.171875 29.71875 C 26.511719 29.25 27.105469 29.054688 27.863281 29.03125 "/>
<path style=" stroke:none;fill-rule:evenodd;fill:rgb(13.725491%,12.156863%,12.54902%);fill-opacity:1;" d="M 28.144531 30 C 27.628906 30.050781 27.023438 30.132812 26.5 30.09375 C 26.75 29.722656 27.703125 29.851562 28.144531 30 "/>
<path style=" stroke:none;fill-rule:evenodd;fill:rgb(13.725491%,12.156863%,12.54902%);fill-opacity:1;" d="M 28.324219 30.832031 C 27.746094 30.84375 27.023438 30.835938 26.472656 30.789062 C 26.800781 30.449219 27.945312 30.660156 28.324219 30.832031 "/>
<path style=" stroke:none;fill-rule:evenodd;fill:rgb(86.274511%,85.09804%,84.705883%);fill-opacity:1;" d="M 23.738281 33.117188 C 23.824219 33.828125 24.109375 34.546875 24.074219 35.328125 C 23.753906 35.429688 23.570312 35.523438 23.140625 35.523438 C 23.109375 34.863281 23.019531 33.847656 23.046875 33.21875 C 23.257812 33.234375 23.566406 33.070312 23.738281 33.117188 "/>
<path style=" stroke:none;fill-rule:evenodd;fill:rgb(94.117647%,83.92157%,71.764708%);fill-opacity:1;" d="M 22.804688 22.632812 C 22.511719 22.816406 22.265625 23.050781 21.984375 23.246094 C 21.367188 23.277344 21.027344 23.207031 20.574219 22.859375 C 20.582031 22.828125 20.625 22.84375 20.628906 22.808594 C 21.292969 23.097656 22.132812 22.691406 22.804688 22.632812 "/>
<path style=" stroke:none;fill-rule:evenodd;fill:rgb(50.588238%,69.01961%,76.862746%);fill-opacity:1;" d="M 19.324219 27.050781 C 19.503906 26.28125 20.21875 25.882812 20.867188 25.453125 C 21.535156 26.285156 21.941406 27.351562 22.390625 28.382812 C 21.332031 28.074219 20.25 27.566406 19.324219 27.050781 "/>
<path style=" stroke:none;fill-rule:evenodd;fill:rgb(13.725491%,12.156863%,12.54902%);fill-opacity:1;" d="M 23.046875 33.21875 C 23.019531 33.847656 23.109375 34.863281 23.140625 35.523438 C 23.570312 35.523438 23.753906 35.429688 24.074219 35.328125 C 24.113281 34.546875 23.824219 33.828125 23.738281 33.117188 C 23.566406 33.070312 23.257812 33.234375 23.046875 33.21875 Z M 16.363281 29.628906 C 16.648438 32.171875 17.058594 34.3125 17.808594 36.5625 C 19.476562 37.058594 21.488281 37.101562 22.960938 36.65625 C 22.6875 35.386719 22.808594 33.835938 22.648438 32.480469 C 22.53125 31.460938 22.589844 30.433594 22.425781 29.394531 C 20.644531 29.03125 18.121094 29.308594 16.363281 29.628906 Z M 22.851562 29.410156 C 22.835938 30.503906 22.902344 31.582031 22.988281 32.675781 C 23.417969 32.609375 23.707031 32.570312 24.105469 32.484375 C 23.976562 31.429688 23.992188 30.246094 23.726562 29.3125 C 23.421875 29.316406 23.15625 29.3125 22.851562 29.410156 Z M 25.027344 29.234375 C 24.824219 29.1875 24.589844 29.234375 24.394531 29.238281 C 24.484375 30.125 24.707031 31.109375 24.785156 32.042969 C 25.089844 32.054688 25.253906 31.910156 25.503906 31.863281 C 25.519531 31.042969 25.433594 29.914062 25.027344 29.234375 Z M 28.320312 32.175781 C 28.957031 32.027344 29.359375 31.261719 29.179688 30.476562 C 29.0625 29.949219 28.847656 28.957031 28.621094 28.621094 C 28.453125 28.367188 27.996094 28.042969 27.628906 28.269531 C 27.035156 28.644531 25.992188 28.75 25.558594 29.203125 C 25.773438 29.910156 25.84375 30.878906 25.929688 31.777344 C 26.671875 31.820312 27.585938 31.578125 28.203125 31.835938 C 27.773438 31.972656 27.210938 31.972656 26.839844 32.171875 C 27.144531 32.316406 27.859375 32.289062 28.320312 32.175781 Z M 22.390625 28.382812 C 21.945312 27.355469 21.535156 26.285156 20.867188 25.453125 C 20.21875 25.878906 19.507812 26.28125 19.324219 27.050781 C 20.25 27.566406 21.332031 28.074219 22.390625 28.382812 Z M 23.496094 25.191406 C 23.453125 26.222656 23.332031 27.574219 23.050781 28.382812 C 23.722656 27.546875 24.261719 26.578125 24.828125 25.628906 C 24.585938 25.253906 24.085938 24.921875 23.496094 25.191406 Z M 22.242188 24.757812 C 21.988281 24.734375 21.773438 25.042969 21.445312 24.910156 C 21.367188 24.992188 21.300781 25.082031 21.222656 25.160156 C 21.953125 26.019531 22.285156 27.238281 22.847656 28.25 C 23.148438 27.277344 23.113281 26.214844 23.179688 25.160156 C 22.765625 25.179688 22.535156 24.789062 22.242188 24.757812 Z M 21.4375 23.71875 C 21.410156 24.015625 21.480469 24.109375 21.542969 24.449219 C 22.53125 24.75 22.359375 23.121094 21.4375 23.71875 Z M 20.34375 23.367188 C 19.917969 23.140625 19.277344 22.890625 18.726562 22.789062 C 18.046875 22.660156 18.109375 23.695312 18.136719 24.316406 C 18.160156 24.808594 18.421875 25.324219 18.535156 25.648438 C 18.585938 25.800781 18.597656 25.964844 18.730469 25.992188 C 18.964844 26.046875 19.742188 25.742188 19.960938 25.625 C 20.429688 25.378906 20.792969 24.984375 21.1875 24.71875 C 21.195312 24.585938 21.199219 24.460938 21.203125 24.328125 C 20.964844 24.210938 20.691406 24.128906 20.339844 24.117188 C 20.578125 24 20.925781 24 21.144531 23.859375 C 21.144531 23.808594 21.148438 23.757812 21.148438 23.707031 C 20.753906 23.679688 20.601562 23.503906 20.34375 23.367188 Z M 16.273438 22.644531 C 15.917969 22.996094 17.265625 23.472656 17.691406 23.5 C 17.691406 23.277344 17.824219 23.066406 17.796875 22.910156 C 17.285156 22.820312 16.617188 22.878906 16.273438 22.644531 Z M 20.628906 22.808594 C 20.625 22.84375 20.582031 22.828125 20.574219 22.859375 C 21.027344 23.207031 21.367188 23.277344 21.984375 23.246094 C 22.265625 23.050781 22.511719 22.816406 22.804688 22.632812 C 22.132812 22.691406 21.292969 23.097656 20.628906 22.808594 Z M 24.628906 23.996094 C 24.609375 23.605469 24.503906 22.800781 24.257812 22.660156 C 23.738281 22.363281 22.816406 23.257812 22.429688 23.394531 C 22.472656 23.511719 22.542969 23.605469 22.546875 23.761719 C 22.777344 23.703125 23.058594 23.742188 23.257812 23.839844 C 23.027344 23.863281 22.769531 23.859375 22.617188 23.96875 C 22.558594 24.128906 22.628906 24.34375 22.59375 24.5625 C 23.140625 24.714844 23.769531 24.796875 24.460938 24.816406 C 24.597656 24.644531 24.644531 24.316406 24.628906 23.996094 Z M 15.675781 22.984375 C 15.566406 22.90625 14.816406 21.949219 14.710938 21.992188 C 13.351562 22.515625 12.082031 23.421875 10.945312 24.28125 C 12.027344 26.550781 12.464844 29.335938 12.542969 32.019531 C 13.785156 32.589844 14.875 33.40625 16.554688 33.492188 C 16.359375 32.144531 16.183594 30.941406 16.074219 29.671875 C 15.648438 29.5 15.042969 29.679688 14.648438 29.617188 C 14.644531 29.152344 15.25 29.414062 15.300781 29.101562 C 15.339844 28.863281 14.96875 28.84375 15.089844 28.472656 C 15.398438 28.582031 15.5625 28.824219 15.890625 28.917969 C 16.191406 28.269531 15.886719 27.128906 15.929688 26.59375 C 15.9375 26.492188 15.980469 26.03125 16.210938 26.113281 C 16.417969 26.183594 16.199219 27.335938 16.222656 27.84375 C 16.242188 28.316406 16.164062 28.769531 16.359375 29.066406 C 17.988281 28.851562 19.640625 28.710938 21.402344 28.664062 C 21.015625 28.5 20.554688 28.347656 20.050781 28.070312 C 19.777344 27.917969 18.914062 27.605469 18.835938 27.351562 C 18.710938 26.945312 19.167969 26.730469 19.246094 26.382812 C 18.425781 26.820312 18.265625 25.964844 18.070312 25.355469 C 17.894531 24.804688 17.792969 24.394531 17.75 24.078125 C 17.042969 23.742188 16.285156 23.40625 15.675781 22.984375 Z M 23.910156 22.105469 C 25.042969 21.566406 25.246094 24.113281 24.800781 24.933594 C 24.871094 25.179688 25.105469 25.269531 25.203125 25.492188 C 24.570312 26.597656 23.867188 27.632812 23.222656 28.726562 C 23.703125 28.433594 24.386719 28.675781 24.953125 28.453125 C 25.160156 28.375 25.308594 27.914062 25.464844 27.542969 C 25.894531 26.527344 26.34375 25.246094 26.546875 24.273438 C 26.589844 24.050781 26.714844 23.570312 26.6875 23.375 C 26.636719 23.023438 26.148438 22.761719 25.898438 22.542969 C 25.441406 22.140625 25.152344 21.785156 24.675781 21.410156 C 24.484375 21.691406 24.066406 21.878906 23.910156 22.105469 Z M 13.085938 12.28125 C 12.546875 12.863281 12.660156 13.949219 12.726562 14.726562 C 13.699219 14.125 14.996094 14.773438 14.984375 15.792969 C 15.449219 15.78125 15.15625 15.222656 15.074219 14.867188 C 14.796875 13.695312 15.535156 12.421875 15.105469 11.351562 C 14.269531 11.414062 13.585938 11.746094 13.085938 12.28125 Z M 16.949219 8.910156 C 15.726562 9.25 14.160156 10.117188 13.660156 11.191406 C 14.046875 11.136719 14.316406 10.945312 14.699219 10.917969 C 14.84375 10.910156 15.035156 10.976562 15.203125 10.9375 C 15.535156 10.859375 15.8125 10.128906 16.0625 9.859375 C 16.308594 9.59375 16.601562 9.480469 16.800781 9.238281 C 16.929688 9.179688 17.121094 9.183594 17.128906 8.992188 C 17.074219 8.9375 17.015625 8.890625 16.949219 8.910156 Z M 23.308594 9.230469 C 22.039062 8.53125 19.894531 8.003906 18.546875 8.664062 C 17.457031 9.195312 15.984375 10.070312 15.484375 11.183594 C 15.953125 12.257812 15.34375 13.242188 15.304688 14.332031 C 15.285156 14.914062 15.585938 15.421875 15.609375 16.050781 C 15.449219 16.308594 14.957031 16.34375 14.621094 16.324219 C 14.507812 15.765625 14.304688 15.136719 13.71875 15.074219 C 12.886719 14.984375 12.277344 15.660156 12.238281 16.363281 C 12.195312 17.191406 12.890625 18.566406 13.875 18.46875 C 14.253906 18.433594 14.347656 18.058594 14.761719 18.0625 C 14.988281 18.5 14.417969 18.640625 14.355469 18.953125 C 14.339844 19.035156 14.402344 19.351562 14.441406 19.5 C 14.621094 20.222656 15.019531 21.160156 15.410156 21.710938 C 15.910156 22.40625 16.886719 22.511719 17.941406 22.582031 C 18.128906 22.183594 18.824219 22.21875 19.273438 22.320312 C 18.734375 22.109375 18.230469 21.601562 17.8125 21.152344 C 17.332031 20.636719 16.847656 20.082031 16.824219 19.410156 C 17.726562 20.636719 18.476562 21.710938 20.121094 22.25 C 21.367188 22.660156 22.820312 22.0625 23.777344 21.40625 C 24.175781 21.132812 24.414062 20.699219 24.695312 20.304688 C 25.75 18.820312 26.242188 16.699219 26.132812 14.640625 C 26.089844 13.792969 26.089844 12.949219 25.800781 12.378906 C 25.496094 11.78125 24.46875 11.25 23.867188 11.789062 C 23.753906 11.210938 24.367188 10.851562 25.085938 11.058594 C 24.574219 10.410156 24.039062 9.632812 23.308594 9.230469 Z M 25.671875 28.355469 C 26.660156 27.871094 28.511719 27.054688 29.132812 28.355469 C 29.363281 28.835938 29.632812 29.644531 29.753906 30.136719 C 29.921875 30.835938 29.570312 32.300781 28.835938 32.535156 C 28.191406 32.742188 27.433594 32.730469 26.65625 32.574219 C 26.5625 32.5 26.460938 32.371094 26.390625 32.234375 C 25.832031 32.214844 25.3125 32.261719 24.871094 32.488281 C 24.914062 32.890625 24.636719 32.953125 24.375 33.035156 C 24.179688 33.789062 24.761719 34.765625 24.621094 35.453125 C 24.523438 35.941406 23.910156 36.015625 23.457031 36.105469 C 23.441406 36.378906 23.476562 36.601562 23.507812 36.832031 C 23.40625 37.203125 22.945312 37.414062 22.507812 37.464844 C 21.066406 37.636719 18.878906 37.710938 17.492188 37.222656 C 17.105469 36.296875 16.800781 35.167969 16.476562 34.105469 C 15.125 34.25 14.035156 33.535156 13.003906 33.070312 C 12.644531 32.90625 12.152344 32.820312 12.019531 32.539062 C 11.890625 32.269531 11.941406 31.753906 11.910156 31.269531 C 11.828125 30.027344 11.757812 28.824219 11.421875 27.554688 C 11.273438 26.980469 11.007812 26.476562 10.824219 25.925781 C 10.65625 25.417969 10.359375 24.785156 10.28125 24.277344 C 10.167969 23.523438 10.894531 23.480469 11.359375 23.152344 C 12.078125 22.648438 12.640625 22.367188 13.417969 21.914062 C 13.648438 21.777344 14.34375 21.4375 14.421875 21.28125 C 14.578125 20.96875 14.152344 20.527344 14.039062 20.28125 C 13.859375 19.894531 13.765625 19.566406 13.738281 19.183594 C 13.085938 19.085938 12.59375 18.707031 12.292969 18.277344 C 11.796875 17.570312 11.457031 16.261719 11.886719 15.261719 C 11.917969 15.183594 12.085938 15.03125 12.109375 14.910156 C 12.160156 14.671875 12.019531 14.355469 12.011719 14.101562 C 11.964844 12.808594 12.234375 11.691406 13.125 11.300781 C 13.488281 9.890625 14.78125 9.417969 16.003906 8.71875 C 16.460938 8.457031 16.960938 8.289062 17.480469 8.101562 C 19.347656 7.433594 22.203125 7.558594 23.753906 8.703125 C 24.410156 9.1875 25.457031 10.210938 25.832031 10.953125 C 26.820312 12.914062 26.75 16.183594 26.058594 18.566406 C 25.964844 18.886719 25.828125 19.355469 25.640625 19.738281 C 25.511719 20.007812 25.101562 20.542969 25.152344 20.78125 C 25.203125 21.027344 26.082031 21.679688 26.273438 21.859375 C 26.613281 22.179688 27.257812 22.605469 27.308594 23.011719 C 27.367188 23.441406 27.117188 24.03125 26.988281 24.449219 C 26.566406 25.832031 26.152344 27.117188 25.671875 28.355469 "/>
<path style=" stroke:none;fill-rule:evenodd;fill:rgb(96.862745%,89.411765%,80.392158%);fill-opacity:1;" d="M 19.058594 18.75 C 19.113281 18.679688 19.410156 18.574219 19.820312 18.769531 C 19.820312 18.769531 19.332031 18.847656 19.371094 19.648438 L 19.167969 19.609375 C 19.167969 19.605469 18.957031 18.882812 19.058594 18.75 "/>
<path style=" stroke:none;fill-rule:evenodd;fill:rgb(11.372549%,9.803922%,9.803922%);fill-opacity:1;" d="M 22.640625 25.621094 C 22.640625 25.738281 22.539062 25.839844 22.414062 25.839844 C 22.292969 25.839844 22.191406 25.742188 22.191406 25.621094 C 22.191406 25.5 22.289062 25.398438 22.414062 25.398438 C 22.539062 25.398438 22.640625 25.496094 22.640625 25.621094 "/>
<path style=" stroke:none;fill-rule:evenodd;fill:rgb(11.372549%,9.803922%,9.803922%);fill-opacity:1;" d="M 22.863281 26.636719 C 22.863281 26.757812 22.765625 26.859375 22.640625 26.859375 C 22.515625 26.859375 22.414062 26.761719 22.414062 26.636719 C 22.414062 26.515625 22.515625 26.417969 22.640625 26.417969 C 22.765625 26.417969 22.863281 26.515625 22.863281 26.636719 "/>
<path style=" stroke:none;fill-rule:nonzero;fill:rgb(100%,100%,100%);fill-opacity:1;" d="M 6.386719 9.707031 C 6.753906 9.691406 7.144531 9.761719 7.480469 9.945312 L 7.609375 10.011719 C 7.652344 10.03125 7.691406 10.0625 7.730469 10.09375 C 7.808594 10.148438 7.886719 10.203125 7.960938 10.269531 C 8.027344 10.335938 8.097656 10.40625 8.164062 10.472656 C 8.230469 10.542969 8.28125 10.625 8.339844 10.699219 C 8.558594 11.011719 8.703125 11.371094 8.769531 11.734375 C 8.828125 12.097656 8.828125 12.472656 8.703125 12.824219 C 8.566406 12.484375 8.4375 12.171875 8.296875 11.875 C 8.15625 11.578125 8 11.300781 7.824219 11.042969 C 7.738281 10.910156 7.636719 10.796875 7.539062 10.671875 C 7.425781 10.5625 7.328125 10.4375 7.203125 10.339844 C 6.96875 10.109375 6.6875 9.9375 6.386719 9.707031 Z M 6.386719 9.707031 "/>
<path style=" stroke:none;fill-rule:nonzero;fill:rgb(100%,100%,100%);fill-opacity:1;" d="M 19.117188 2.371094 C 19.273438 2.355469 19.433594 2.355469 19.59375 2.371094 C 19.671875 2.382812 19.75 2.398438 19.828125 2.417969 C 19.867188 2.425781 19.90625 2.433594 19.945312 2.445312 L 20.0625 2.484375 C 20.136719 2.515625 20.214844 2.542969 20.289062 2.578125 C 20.359375 2.617188 20.429688 2.660156 20.5 2.703125 C 20.570312 2.742188 20.632812 2.796875 20.699219 2.851562 C 20.757812 2.90625 20.824219 2.953125 20.878906 3.019531 C 21.109375 3.253906 21.269531 3.554688 21.355469 3.859375 C 21.441406 4.167969 21.453125 4.496094 21.351562 4.796875 C 21.226562 4.507812 21.105469 4.253906 20.960938 4.019531 C 20.820312 3.78125 20.664062 3.566406 20.480469 3.378906 C 20.441406 3.324219 20.386719 3.285156 20.339844 3.238281 C 20.292969 3.191406 20.246094 3.144531 20.191406 3.105469 C 20.140625 3.0625 20.085938 3.019531 20.035156 2.972656 C 19.976562 2.933594 19.921875 2.894531 19.863281 2.855469 L 19.78125 2.789062 L 19.6875 2.734375 C 19.628906 2.695312 19.566406 2.65625 19.507812 2.613281 C 19.382812 2.535156 19.246094 2.46875 19.117188 2.371094 Z M 19.117188 2.371094 "/>
<path style=" stroke:none;fill-rule:nonzero;fill:rgb(100%,100%,100%);fill-opacity:1;" d="M 32.636719 9.898438 C 33.070312 9.882812 33.523438 9.957031 33.921875 10.175781 L 34.070312 10.253906 C 34.121094 10.28125 34.164062 10.316406 34.210938 10.351562 C 34.304688 10.414062 34.394531 10.484375 34.480469 10.554688 C 34.5625 10.632812 34.640625 10.71875 34.71875 10.796875 C 34.800781 10.878906 34.855469 10.976562 34.925781 11.0625 C 35.183594 11.433594 35.351562 11.851562 35.429688 12.277344 C 35.5 12.703125 35.496094 13.140625 35.355469 13.550781 C 35.191406 13.152344 35.042969 12.789062 34.878906 12.441406 C 34.714844 12.089844 34.53125 11.769531 34.320312 11.46875 C 34.222656 11.3125 34.101562 11.179688 33.988281 11.035156 C 33.855469 10.90625 33.742188 10.757812 33.59375 10.640625 C 33.320312 10.367188 32.988281 10.167969 32.636719 9.898438 Z M 32.636719 9.898438 "/>
</g>
</svg>
