<svg id="Layer_1" data-name="Layer 1" xmlns="http://www.w3.org/2000/svg" xmlns:xlink="http://www.w3.org/1999/xlink" viewBox="0 0 512 512"><defs><style>.cls-1{fill:#fff;stroke:#000;}.cls-1,.cls-11{stroke-miterlimit:10;}.cls-2{fill:#a3b1c7;}.cls-3{fill:#2d323a;}.cls-4{fill:#e67e24;}.cls-5,.cls-6{fill:#f2991e;}.cls-5{opacity:0.51;}.cls-6{opacity:0.95;}.cls-7{fill:#f8b545;}.cls-10,.cls-8,.cls-9{fill:#fde47c;}.cls-9{opacity:0.55;}.cls-10{opacity:0.31;}.cls-11{stroke:#2d323a;stroke-width:7.86098px;fill:url(#linear-gradient);}</style><linearGradient id="linear-gradient" x1="245.83674" y1="372.25951" x2="335.6765" y2="372.25951" gradientUnits="userSpaceOnUse"><stop offset="0" stop-color="#f8b545"/><stop offset="0.08659" stop-color="#fde47c"/><stop offset="0.17931" stop-color="#f8b545"/><stop offset="0.34024" stop-color="#f8b545"/><stop offset="0.38742" stop-color="#efb754"/><stop offset="0.70824" stop-color="#f2991e" stop-opacity="0.95"/><stop offset="0.86666" stop-color="#f2991e"/><stop offset="1" stop-color="#e67e24"/></linearGradient></defs><rect class="cls-1" x="21.13483" y="88.01124" width="476.76404" height="390.47191"/><path class="cls-2" d="M482,102.30337V466H30V102.30337ZM512,16H0V496H512V16Z"/><path class="cls-2" d="M.09551,102.30337H512.00562L511.99438,16h-512Z"/><polygon class="cls-3" points="82.688 421.903 61.475 400.69 126.275 335.89 61.526 271.141 82.739 249.928 168.702 335.89 82.688 421.903"/><circle class="cls-3" cx="49.71914" cy="59.13202" r="20"/><circle class="cls-3" cx="103.90348" cy="59.13202" r="20"/><circle class="cls-3" cx="158.08781" cy="59.13202" r="20"/><rect class="cls-4" x="204.39635" y="392.04157" width="84.16319" height="25.24896"/><path class="cls-5" d="M249.26844,416.14515l-2.37172,1.14538H225.43715v-25.249h37.87344V408.496l-.9432.033C256.40571,408.73732,251.21255,411.75682,249.26844,416.14515Z"/><path class="cls-6" d="M240.85212,411.937l-2.37172,5.35354H217.02083v-25.249h37.87344v12.24622l-.9432.033C247.98939,404.52916,242.79623,407.54866,240.85212,411.937Z"/><rect class="cls-7" x="200.18819" y="392.04157" width="12.62448" height="25.24896"/><rect class="cls-7" x="217.02083" y="392.04157" width="4.20816" height="25.24896"/><rect class="cls-8" x="221.22899" y="392.04157" width="4.20816" height="25.24896"/><rect class="cls-9" x="221.22899" y="392.04157" width="8.41632" height="25.24896"/><rect class="cls-8" x="212.81267" y="392.04157" width="4.20816" height="25.24896"/><rect class="cls-10" x="208.60451" y="392.04157" width="8.41632" height="25.24896"/><path class="cls-3" d="M288.23681,396.24973a.32277.32277,0,0,1,.32276.32275v16.18716a.32277.32277,0,0,1-.32276.32273h-83.5177a.32273.32273,0,0,1-.32275-.32273V396.57248a.32273.32273,0,0,1,.32275-.32275h83.5177m0-8.03376h-83.5177a8.366,8.366,0,0,0-8.3565,8.35651v16.18716a8.366,8.366,0,0,0,8.3565,8.35648h83.5177a8.366,8.366,0,0,0,8.35651-8.35648V396.57248a8.366,8.366,0,0,0-8.35651-8.35651Z"/><rect class="cls-4" x="316.86898" y="367.94029" width="84.16319" height="25.24896"/><path class="cls-5" d="M361.74107,392.04388l-2.37172,1.14537H337.90978v-25.249h37.87344v16.45438l-.9432.033C368.87835,384.636,363.68519,387.65554,361.74107,392.04388Z"/><path class="cls-6" d="M353.32475,387.83572l-2.37172,5.35353H329.49346v-25.249H367.3669v12.24622l-.9432.033C360.462,380.42788,355.26887,383.44738,353.32475,387.83572Z"/><rect class="cls-7" x="312.66082" y="367.94029" width="12.62448" height="25.24896"/><rect class="cls-7" x="329.49346" y="367.94029" width="4.20816" height="25.24896"/><rect class="cls-8" x="333.70162" y="367.94029" width="4.20816" height="25.24896"/><rect class="cls-9" x="333.70162" y="367.94029" width="8.41632" height="25.24896"/><rect class="cls-8" x="325.2853" y="367.94029" width="4.20816" height="25.24896"/><rect class="cls-10" x="321.07714" y="367.94029" width="8.41632" height="25.24896"/><path class="cls-3" d="M400.70941,372.14847a.32274.32274,0,0,1,.32275.32272v16.18717a.32274.32274,0,0,1-.32275.32272h-83.5177a.32275.32275,0,0,1-.32276-.32272V372.47119a.32275.32275,0,0,1,.32276-.32272h83.5177m0-8.03375h-83.5177a8.3659,8.3659,0,0,0-8.35645,8.35647v16.18717a8.3659,8.3659,0,0,0,8.35645,8.35647h83.5177a8.36589,8.36589,0,0,0,8.35644-8.35647V372.47119a8.36589,8.36589,0,0,0-8.35644-8.35647Z"/><rect class="cls-4" x="268.66643" y="319.73774" width="84.16319" height="25.24896"/><path class="cls-5" d="M313.53851,343.84132l-2.37172,1.14537H289.70723v-25.249h37.87343v16.45438l-.9432.033C320.67579,336.43348,315.48263,339.453,313.53851,343.84132Z"/><path class="cls-6" d="M305.12219,339.63316l-2.37172,5.35353H281.29091v-25.249h37.87343V331.984l-.9432.033C312.25947,332.22532,307.06631,335.24483,305.12219,339.63316Z"/><rect class="cls-7" x="264.45827" y="319.73774" width="12.62448" height="25.24896"/><rect class="cls-7" x="281.29091" y="319.73774" width="4.20816" height="25.24896"/><rect class="cls-8" x="285.49907" y="319.73774" width="4.20816" height="25.24896"/><rect class="cls-9" x="285.49907" y="319.73774" width="8.41632" height="25.24896"/><rect class="cls-8" x="277.08275" y="319.73774" width="4.20816" height="25.24896"/><rect class="cls-10" x="272.87459" y="319.73774" width="8.41632" height="25.24896"/><path class="cls-3" d="M352.50689,323.94589a.32277.32277,0,0,1,.32276.32276v16.18716a.32276.32276,0,0,1-.32276.32272h-83.5177a.32272.32272,0,0,1-.32275-.32272V324.26865a.32273.32273,0,0,1,.32275-.32276h83.5177m0-8.03375h-83.5177a8.366,8.366,0,0,0-8.3565,8.35651v16.18716a8.366,8.366,0,0,0,8.3565,8.35648h83.5177a8.3659,8.3659,0,0,0,8.35645-8.35648V324.26865a8.36593,8.36593,0,0,0-8.35645-8.35651Z"/><rect class="cls-4" x="300.80147" y="295.63646" width="84.16319" height="25.24896"/><path class="cls-5" d="M345.67355,319.74l-2.37172,1.14538H321.84226v-25.249H359.7157v16.45438l-.9432.033C352.81083,312.33221,347.61767,315.35171,345.67355,319.74Z"/><path class="cls-6" d="M337.25723,315.53188l-2.37172,5.35354H313.42594v-25.249h37.87344v12.24622l-.9432.033C344.39451,308.12405,339.20135,311.14355,337.25723,315.53188Z"/><rect class="cls-7" x="296.59331" y="295.63646" width="12.62448" height="25.24896"/><rect class="cls-7" x="313.42594" y="295.63646" width="4.20816" height="25.24896"/><rect class="cls-8" x="317.6341" y="295.63646" width="4.20816" height="25.24896"/><rect class="cls-9" x="317.6341" y="295.63646" width="8.41632" height="25.24896"/><rect class="cls-8" x="309.21778" y="295.63646" width="4.20816" height="25.24896"/><rect class="cls-10" x="305.00962" y="295.63646" width="8.41632" height="25.24896"/><path class="cls-3" d="M384.6419,299.8446a.32278.32278,0,0,1,.32276.32276v16.18716a.32275.32275,0,0,1-.32276.32273H301.1242a.32275.32275,0,0,1-.32275-.32273V300.16736a.32278.32278,0,0,1,.32275-.32276h83.5177m0-8.03375H301.1242a8.366,8.366,0,0,0-8.3565,8.35651v16.18716a8.366,8.366,0,0,0,8.3565,8.35648h83.5177a8.3659,8.3659,0,0,0,8.35645-8.35648V300.16736a8.36593,8.36593,0,0,0-8.35645-8.35651Z"/><rect class="cls-4" x="272.09555" y="266.93054" width="84.16319" height="25.24896"/><path class="cls-5" d="M316.96763,291.03412l-2.37172,1.14538H293.13635v-25.249h37.87343v16.45438l-.94319.033C324.10491,283.62629,318.91175,286.64579,316.96763,291.03412Z"/><path class="cls-6" d="M308.55131,286.826l-2.37172,5.35354H284.72v-25.249h37.87343v12.24622l-.94319.033C315.68859,279.41813,310.49543,282.43763,308.55131,286.826Z"/><rect class="cls-7" x="267.88739" y="266.93054" width="12.62448" height="25.24896"/><rect class="cls-7" x="284.72003" y="266.93054" width="4.20816" height="25.24896"/><rect class="cls-8" x="288.92819" y="266.93054" width="4.20816" height="25.24896"/><rect class="cls-9" x="288.92819" y="266.93054" width="8.41632" height="25.24896"/><rect class="cls-8" x="280.51187" y="266.93054" width="4.20816" height="25.24896"/><rect class="cls-10" x="276.30371" y="266.93054" width="8.41632" height="25.24896"/><path class="cls-3" d="M355.936,271.1387a.32276.32276,0,0,1,.32275.32273v16.18716a.32277.32277,0,0,1-.32275.32275h-83.5177a.32272.32272,0,0,1-.32269-.32275V271.46143a.32271.32271,0,0,1,.32269-.32273H355.936m0-8.03375h-83.5177a8.36593,8.36593,0,0,0-8.35644,8.35648v16.18716a8.366,8.366,0,0,0,8.35644,8.35651H355.936a8.36593,8.36593,0,0,0,8.35645-8.35651V271.46143a8.3659,8.3659,0,0,0-8.35645-8.35648Z"/><rect class="cls-4" x="286.068" y="238.16372" width="84.16319" height="25.24896"/><path class="cls-5" d="M330.94009,262.2673l-2.37172,1.14538H307.1088v-25.249h37.87344V254.6181l-.9432.033C338.07737,254.85947,332.88421,257.879,330.94009,262.2673Z"/><path class="cls-6" d="M322.52377,258.05914l-2.37172,5.35354H298.69248v-25.249h37.87344v12.24622l-.9432.033C329.66105,250.65131,324.46789,253.67081,322.52377,258.05914Z"/><rect class="cls-7" x="281.85984" y="238.16372" width="12.62448" height="25.24896"/><rect class="cls-7" x="298.69248" y="238.16372" width="4.20816" height="25.24896"/><rect class="cls-8" x="302.90064" y="238.16372" width="4.20816" height="25.24896"/><rect class="cls-9" x="302.90064" y="238.16372" width="8.41632" height="25.24896"/><rect class="cls-8" x="294.48432" y="238.16372" width="4.20816" height="25.24896"/><rect class="cls-10" x="290.27616" y="238.16372" width="8.41632" height="25.24896"/><path class="cls-3" d="M369.9085,242.37186a.32277.32277,0,0,1,.32276.32275v16.18716a.32277.32277,0,0,1-.32276.32276H286.39074a.32277.32277,0,0,1-.32275-.32276V242.69461a.32277.32277,0,0,1,.32275-.32275H369.9085m0-8.03374H286.39074a8.366,8.366,0,0,0-8.3565,8.35649v16.18716a8.366,8.366,0,0,0,8.3565,8.35651H369.9085a8.36593,8.36593,0,0,0,8.35645-8.35651V242.69461a8.36593,8.36593,0,0,0-8.35645-8.35649Z"/><rect class="cls-4" x="292.76771" y="343.83901" width="84.16319" height="25.24896"/><path class="cls-5" d="M337.63979,367.9426l-2.37172,1.14537H313.8085V343.839h37.87344v16.45438l-.9432.033C344.77707,360.53476,339.58391,363.55426,337.63979,367.9426Z"/><path class="cls-6" d="M329.22347,363.73444l-2.37172,5.35353H305.39218V343.839h37.87344v12.24622l-.9432.033C336.36075,356.3266,331.16759,359.3461,329.22347,363.73444Z"/><rect class="cls-7" x="288.55955" y="343.83901" width="12.62448" height="25.24896"/><rect class="cls-7" x="305.39218" y="343.83901" width="4.20816" height="25.24896"/><rect class="cls-8" x="309.60034" y="343.83901" width="4.20816" height="25.24896"/><rect class="cls-9" x="309.60034" y="343.83901" width="8.41632" height="25.24896"/><rect class="cls-8" x="301.18403" y="343.83901" width="4.20816" height="25.24896"/><rect class="cls-10" x="296.97587" y="343.83901" width="8.41632" height="25.24896"/><path class="cls-3" d="M376.60821,348.04718a.32266.32266,0,0,1,.32263.32272v16.18717a.32267.32267,0,0,1-.32263.32275H293.09045a.32277.32277,0,0,1-.32275-.32275V348.3699a.32276.32276,0,0,1,.32275-.32272h83.51776m0-8.03375H293.09045a8.366,8.366,0,0,0-8.35651,8.35647v16.18717a8.366,8.366,0,0,0,8.35651,8.3565h83.51776a8.3659,8.3659,0,0,0,8.35633-8.3565V348.3699a8.36588,8.36588,0,0,0-8.35633-8.35647Z"/><rect class="cls-4" x="220.46387" y="367.94029" width="84.16319" height="25.24896"/><path class="cls-5" d="M265.336,392.04388l-2.37172,1.14537H241.50467v-25.249h37.87344v16.45438l-.9432.033C272.47323,384.636,267.28007,387.65554,265.336,392.04388Z"/><path class="cls-6" d="M256.91964,387.83572l-2.37172,5.35353H233.08835v-25.249h37.87344v12.24622l-.9432.033C264.05691,380.42788,258.86375,383.44738,256.91964,387.83572Z"/><rect class="cls-7" x="216.25571" y="367.94029" width="12.62448" height="25.24896"/><rect class="cls-7" x="233.08835" y="367.94029" width="4.20816" height="25.24896"/><rect class="cls-8" x="237.29651" y="367.94029" width="4.20816" height="25.24896"/><rect class="cls-9" x="237.29651" y="367.94029" width="8.41632" height="25.24896"/><rect class="cls-8" x="228.88019" y="367.94029" width="4.20816" height="25.24896"/><rect class="cls-10" x="224.67203" y="367.94029" width="8.41632" height="25.24896"/><path class="cls-3" d="M304.30432,372.14847a.32271.32271,0,0,1,.32275.32272v16.18717a.32271.32271,0,0,1-.32275.32272h-83.5177a.32275.32275,0,0,1-.32276-.32272V372.47119a.32275.32275,0,0,1,.32276-.32272h83.5177m0-8.03375h-83.5177a8.366,8.366,0,0,0-8.35651,8.35647v16.18717a8.366,8.366,0,0,0,8.35651,8.35647h83.5177a8.366,8.366,0,0,0,8.3565-8.35647V372.47119a8.366,8.366,0,0,0-8.3565-8.35647Z"/><rect class="cls-4" x="366.15936" y="392.04157" width="84.16319" height="25.24896"/><path class="cls-5" d="M411.03145,416.14515l-2.37172,1.14538H387.20016v-25.249H425.0736V408.496l-.9432.033C418.16872,408.73732,412.97556,411.75682,411.03145,416.14515Z"/><path class="cls-6" d="M402.61513,411.937l-2.37172,5.35354H378.78384v-25.249h37.87344v12.24622l-.9432.033C409.7524,404.52916,404.55924,407.54866,402.61513,411.937Z"/><rect class="cls-7" x="361.9512" y="392.04157" width="12.62448" height="25.24896"/><rect class="cls-7" x="378.78384" y="392.04157" width="4.20816" height="25.24896"/><rect class="cls-8" x="382.992" y="392.04157" width="4.20816" height="25.24896"/><rect class="cls-9" x="382.992" y="392.04157" width="8.41632" height="25.24896"/><rect class="cls-8" x="374.57568" y="392.04157" width="4.20816" height="25.24896"/><rect class="cls-10" x="370.36752" y="392.04157" width="8.41632" height="25.24896"/><path class="cls-3" d="M449.99981,396.24973a.32277.32277,0,0,1,.32276.32275v16.18716a.32277.32277,0,0,1-.32276.32273h-83.5177a.32276.32276,0,0,1-.32275-.32273V396.57248a.32277.32277,0,0,1,.32275-.32275h83.5177m0-8.03376h-83.5177a8.36593,8.36593,0,0,0-8.35644,8.35651v16.18716a8.3659,8.3659,0,0,0,8.35644,8.35648h83.5177a8.3659,8.3659,0,0,0,8.35645-8.35648V396.57248a8.36593,8.36593,0,0,0-8.35645-8.35651Z"/><circle class="cls-11" cx="290.75662" cy="372.25951" r="44.91988"/><polygon class="cls-3" points="290.757 355.634 294.883 368.335 308.238 368.335 297.434 376.184 301.561 388.885 290.757 381.036 279.953 388.885 284.079 376.184 273.276 368.335 286.63 368.335 290.757 355.634"/><rect class="cls-4" x="357.17661" y="333.84536" width="84.16319" height="25.24896" transform="translate(516.67203 -168.9547) rotate(61.88208)"/><path class="cls-5" d="M390.449,354.341l-2.128-1.552-10.11363-18.9269,22.26907-11.89953,17.84928,33.4036-14.51242,7.75475-.4736-.81635C400.34626,357.14466,395.23565,353.98746,390.449,354.341Z"/><path class="cls-6" d="M390.194,344.93468l-5.83948.43124L374.2409,326.439,396.51,314.5395l17.84928,33.4036-10.80091,5.77149-.4736-.81634C400.09127,347.73839,394.98065,344.58118,390.194,344.93468Z"/><rect class="cls-7" x="374.10505" y="298.58601" width="12.62448" height="25.24896" transform="translate(475.61258 -170.97946) rotate(61.88208)"/><rect class="cls-7" x="384.26297" y="309.72054" width="4.20816" height="25.24896" transform="translate(488.57873 -170.34006) rotate(61.88208)"/><rect class="cls-8" x="386.24623" y="313.43205" width="4.20816" height="25.24896" transform="translate(492.90077 -170.12693) rotate(61.88208)"/><rect class="cls-9" x="385.13378" y="315.28781" width="8.41632" height="25.24896" transform="translate(495.0618 -170.02036) rotate(61.88208)"/><rect class="cls-8" x="382.27972" y="306.00903" width="4.20816" height="25.24896" transform="translate(484.25668 -170.55319) rotate(61.88208)"/><rect class="cls-10" x="379.18401" y="304.15327" width="8.41632" height="25.24896" transform="translate(482.09566 -170.65976) rotate(61.88208)"/><path class="cls-3" d="M386.71588,305.50217a.32268.32268,0,0,1,.28491.17071l39.36084,73.66092a.32274.32274,0,0,1-.13257.43674l-14.27673,7.62881a.32251.32251,0,0,1-.43677-.13253L372.15472,313.6059a.32276.32276,0,0,1,.13257-.43677l14.27673-7.62882a.32167.32167,0,0,1,.15186-.03814m0-8.03376a8.38469,8.38469,0,0,0-3.93775.98615l-14.2771,7.629a8.36581,8.36581,0,0,0-3.43225,11.308L404.43,391.053a8.35626,8.35626,0,0,0,11.31189,3.43014l14.27344-7.627a8.36594,8.36594,0,0,0,3.43261-11.3074l-39.36157-73.66208a8.342,8.342,0,0,0-7.37048-4.41825Z"/><rect class="cls-4" x="300.80147" y="392.04157" width="84.16319" height="25.24896"/><path class="cls-5" d="M345.67355,416.14515l-2.37172,1.14538H321.84226v-25.249H359.7157V408.496l-.9432.033C352.81083,408.73732,347.61767,411.75682,345.67355,416.14515Z"/><path class="cls-6" d="M337.25723,411.937l-2.37172,5.35354H313.42594v-25.249h37.87344v12.24622l-.9432.033C344.39451,404.52916,339.20135,407.54866,337.25723,411.937Z"/><rect class="cls-7" x="296.59331" y="392.04157" width="12.62448" height="25.24896"/><rect class="cls-7" x="313.42594" y="392.04157" width="4.20816" height="25.24896"/><rect class="cls-8" x="317.6341" y="392.04157" width="4.20816" height="25.24896"/><rect class="cls-9" x="317.6341" y="392.04157" width="8.41632" height="25.24896"/><rect class="cls-8" x="309.21778" y="392.04157" width="4.20816" height="25.24896"/><rect class="cls-10" x="305.00962" y="392.04157" width="8.41632" height="25.24896"/><path class="cls-3" d="M384.6419,396.24973a.32277.32277,0,0,1,.32276.32275v16.18716a.32277.32277,0,0,1-.32276.32273H301.1242a.32276.32276,0,0,1-.32275-.32273V396.57248a.32277.32277,0,0,1,.32275-.32275h83.5177m0-8.03376H301.1242a8.366,8.366,0,0,0-8.3565,8.35651v16.18716a8.366,8.366,0,0,0,8.3565,8.35648h83.5177a8.3659,8.3659,0,0,0,8.35645-8.35648V396.57248a8.36593,8.36593,0,0,0-8.35645-8.35651Z"/></svg>