<?xml version="1.0" encoding="UTF-8"?>
<svg id="Layer_1" xmlns="http://www.w3.org/2000/svg" viewBox="0 0 80 80">
    <defs>
        <style>.cls-1{fill:none;}.cls-2{fill:#f26322;}.cls-3{fill:#fff;}</style>
    </defs>
    <polygon class="cls-2" points="40 3 7.96 21.5 7.96 58.5 40 77 72.04 58.5 72.04 21.5 40 3"/>
    <g>
        <path class="cls-3"
              d="M13.04,53.25c-.35,.32-.43,.85-.19,1.26l2.27,3.93c.18,.32,.52,.51,.88,.51H56.91c.91,0,1.37-1.11,.71-1.75l-4.3-4.2-29.15-10.01-11.12,10.26h-.01Z"/>
        <path class="cls-3"
              d="M69.26,56.56L43.29,11.71c-.18-.32-.53-.52-.89-.52h-4.76c-.37,0-.71,.2-.89,.52l-16.52,28.62c-.32,.56-.06,1.28,.56,1.49l3.39,1.16,9.01-8.31c.4-.37,1.02-.36,1.4,.02l18.74,18.3,14.71,5.05c.9,.31,1.71-.67,1.23-1.49h-.01Z"/>
    </g>
    <rect class="cls-1" width="80" height="80"/>
</svg>
