<!-- Original: https://www.pngegg.com/en/png-pxoua -->
<svg viewBox="0 0 1137.86 1164.43" xmlns="http://www.w3.org/2000/svg"><path d="M916.39 1037.98c-3.25 1.08-6.23 3.05-9.81 3.06.86-3.65-.84-6.13-3.8-7.86-2.68-1.57-5.61-2.72-8.21-4.4-8.38-5.41-17.15-10.13-25.98-14.73-4.9-2.55-10.42.46-10.82 5.59-.28 3.61 1.87 5.85 4.78 7.55 8.75 5.12 17.49 10.25 26.23 15.38 1.7.99 3.82 1.72 2.83 4.43-3.36 1.17-6.71 2.35-10.07 3.52.69-4.06-1.33-6.72-4.64-8.55-2.15-1.19-4.67-1.78-6.63-3.19-8.13-5.84-17.17-10.1-25.79-15.08-4.59-2.65-9.07-1.51-11.18 2.42-2.02 3.77-.52 7.56 4.11 10.28 8.58 5.05 17.15 10.09 25.74 15.11 1.88 1.1 3.91 2.04 3.3 4.82l-9.96 3.39c.28-3.92-1.46-6.68-4.82-8.57-10.83-6.07-21.61-12.23-32.48-18.22-4.63-2.55-8.67-1.69-10.87 1.95-2.26 3.73-.79 8.04 3.8 10.76 8.58 5.08 17.18 10.13 25.82 15.11 1.94 1.12 3.82 2.08 3.54 4.75-3.32 1.12-6.65 2.25-9.97 3.37-.48-4.48-2.77-7.45-6.82-9.62-10.2-5.47-20.2-11.28-30.31-16.92-4.8-2.68-9.11-2-11.36 1.67-2.5 4.1-1.15 7.82 4.16 10.97 8.43 5 16.88 9.95 25.36 14.85 1.92 1.11 3.72 2.17 3.93 4.65-3.66 1.14-6.96 3.43-10.97 3.48.78-3.91-1.3-6.31-4.4-8.06-10.78-6.09-21.54-12.21-32.38-18.18-4.93-2.71-8.92-1.78-11.14 2.22-2.2 3.95-.79 7.58 4.23 10.55 8.55 5.06 17.12 10.09 25.72 15.07 1.78 1.03 3.6 1.87 2.89 4.45-2.93 1.01-5.87 2.01-8.8 3.02-1.69-3.06-2.4-6.58-6.04-8.53-10.87-5.84-21.51-12.11-32.32-18.07-4.72-2.6-8.79-1.66-10.87 2.06-2.29 4.09-.98 7.77 3.98 10.71 8.58 5.09 17.18 10.14 25.83 15.1 1.99 1.14 3.7 2.22 3.25 4.87-3.61 1.23-7 3.17-10.92 3.42 1.17-4.22-.67-7.03-4.21-9.05-2.55-1.45-5.09-2.92-7.64-4.36-8.54-4.79-17.01-9.72-25.66-14.29-4.71-2.49-9.77-.5-10.97 4.03-1.11 4.2 1.13 6.96 4.58 8.98 8.57 5.02 17.08 10.14 25.74 15.01 2.48 1.4 3.98 2.87 3.16 5.84-3.01 1.03-6.02 2.06-9.02 3.1-.42-4.98-3.37-7.84-7.63-10.14-9.94-5.35-19.69-11.07-29.54-16.58-4.73-2.64-9.14-1.94-11.39 1.68-2.45 3.94-1.02 7.94 4.15 11.03 8.41 5.02 16.87 9.97 25.36 14.84 1.94 1.11 3.59 2.27 4.02 4.61-32.21 11.84-64.42 23.7-96.64 35.52-14.95 5.48-29.95 10.82-44.86 16.38-3.01 1.13-5.58 1.03-8.59-.08-38.14-14-76.32-27.89-114.5-41.78-1.71-.62-3.47-1.1-5.21-1.64-2.62-3.03-1.28-4.86 1.72-6.56 8.81-5.01 17.58-10.1 26.29-15.29 4.83-2.87 6.12-6.47 4.04-10.25-2.38-4.31-6.35-5.11-11.48-2.17-10.09 5.78-20.08 11.74-30.27 17.35-4.43 2.44-6.79 5.67-6.46 10.75-3.26-1.13-6.52-2.26-10.19-3.54v33.29c0 1.66.14 3.36-.15 4.98-.72 4.1-3.13 6.56-7.46 6.59-3.99.02-7.07-3.04-7.1-7.41-.08-10.48.08-20.95.14-31.43 2.14.13 3.8-.96 5.45-2.12 8.14-5.71 14.84-13.34 24.16-17.53 4.82-2.17 9.3-5.15 13.84-7.91 5.05-3.07 6.58-6.94 4.43-10.6-2.5-4.27-6.63-4.93-12.06-1.81-9.93 5.72-19.76 11.63-29.8 17.16-4.57 2.52-7.32 5.58-6.22 11.06-3.64-1.15-7.29-2.31-10.93-3.46-1.12-2.69.51-3.81 2.57-4.98 8.79-5 17.55-10.07 26.26-15.21 4.92-2.9 6.26-6.76 3.99-10.71-2.2-3.81-6.44-4.61-11.23-1.88-10.66 6.07-21.24 12.29-31.9 18.36-3.35 1.91-5.28 4.46-4.72 8.47-3.44-.53-6.34-2.95-9.96-2.82-1.15-3.14.85-4.5 3.15-5.83 8.94-5.14 17.9-10.25 26.73-15.57 4.65-2.8 5.64-7.2 2.9-10.94-2.4-3.28-6.19-3.81-10.69-1.25-10.4 5.93-20.69 12.06-31.15 17.89-3.9 2.17-6.07 5.03-5.96 9.52-3.42-.63-6.29-3.19-9.98-2.83-.71-3.13.21-5.08 3.28-6.75 8.91-4.83 17.65-10 26.34-15.24 4.83-2.91 5.96-7.04 3.46-10.88-2.15-3.29-6.75-3.99-10.97-1.58a3222.7 3222.7 0 0 0-22.03 12.73c-6.55 3.81-14.23 6.41-16.33 15.04l-8.76-2.76c-.84-2.71.37-4.23 2.71-5.54 8.53-4.79 16.98-9.7 25.42-14.64 5.75-3.36 7.24-7.39 4.52-11.66-2.38-3.73-6.51-4.08-11.84-1.01-10.06 5.79-20.06 11.66-30.2 17.31-3.89 2.17-6.04 5.02-5.69 9.55l-8.82-2.87c-2.72-2.67-1.64-4.46 1.23-6.1 9.09-5.21 18.22-10.37 27.15-15.85 6.1-3.74 5.81-10.14-.35-13.24-3.12-1.57-5.82.06-8.39 1.53-10.25 5.86-20.39 11.92-30.71 17.66-4.03 2.24-5.86 5.19-5.08 9.73-3.76-.77-7.04-3.07-10.94-3.4-.99-2.98.46-4.5 2.98-5.91 8.57-4.79 17.02-9.79 25.5-14.74 5.32-3.11 6.86-6.78 4.64-10.93-2.1-3.92-6.57-4.66-11.68-1.74-10.41 5.93-20.72 12.03-31.16 17.9-3.77 2.12-5.63 5.02-5.28 9.32-3-1-6-2.01-9-3.01-2.21-2.64-.72-4 1.65-5.36 9.21-5.29 18.43-10.57 27.49-16.11 5.74-3.51 6-9.96.76-12.88-3.09-1.72-6.04-.87-8.93.83-9.88 5.78-19.69 11.7-29.77 17.14-4.4 2.38-7 5.38-7.2 10.37-3.56-1.22-7.12-2.43-11.07-3.78 0 12.73-.03 24.97.02 37.21 0 2.56-.17 5.04-2.08 6.93-2.14 2.11-4.64 3.08-7.69 1.93-3.6-1.36-5.08-4.07-5.06-7.73.04-10.46.13-20.91.21-31.37 1.25.22 2.17-.48 3.22-1.01 5.38-2.72 9.25-7.47 14.22-10.62 8.41-5.33 17.19-10.08 25.8-15.09 5.3-3.09 6.82-6.76 4.58-10.93-2.18-4.07-6.37-4.75-11.65-1.73-10.38 5.93-20.68 12.01-31.09 17.87-3.53 1.99-5.56 4.62-5.44 8.74-3.32-1.09-6.63-2.18-9.95-3.27-1.35-3.37 1.68-3.96 3.45-5.02 8.56-5.11 17.27-9.98 25.83-15.1 4.63-2.78 5.8-6.69 3.54-10.4-2.31-3.77-6.33-4.66-10.86-2.08-10.84 6.15-21.63 12.4-32.41 18.65-3.04 1.76-5.32 4.05-4.57 8.02l-9.96-2.94c-1.1-3.21 1.56-4.02 3.44-5.13 8.57-5.05 17.19-10.01 25.81-14.99 1.9-1.1 3.83-2.29 4.38-4.52.69-2.79.6-5.3-1.99-7.61-2.5-2.23-5.04-2.89-7.67-1.41-12 6.74-23.9 13.64-35.76 20.62-2.47 1.45-3.11 4.18-3.25 6.94-3.33-1.02-6.66-2.05-9.98-3.07-1.12-2.93.71-4.09 2.91-5.34 8.8-4.99 17.56-10.03 26.25-15.21 5.1-3.04 6.36-7.96 3.08-11.59-3.04-3.37-6.53-3.26-10.3-1.05-10.73 6.27-21.5 12.48-32.3 18.63-3.38 1.93-5.14 4.56-4.64 8.52-2.19-.71-4.51-1.18-6.56-2.19-3.9-1.93-4.31-.22-4.25 3.23.2 10.78.18 21.57.16 32.35 0 5.85-2.83 9.32-7.33 9.3-4.49-.02-7.24-3.48-7.22-9.36.02-9.79.15-19.58.24-29.37 1.96-.05 3.32-1.34 4.9-2.24 8.26-4.7 13.91-12.87 22.95-16.67 5.63-2.37 10.78-5.93 16.04-9.14 4.65-2.84 5.92-6.65 3.78-10.43-2.25-3.98-6.46-4.81-11.26-2.06-10.54 6.04-21.01 12.22-31.59 18.2-3.77 2.13-5.82 4.87-4.86 9.32-.16-.02-.34 0-.49-.06q-10.14-3.35-10.05 7.18c.05 8.8.07 17.6 0 26.4-.05 5.78-3.03 9.18-7.63 8.99-4.43-.18-6.97-3.39-6.96-9.07.02-9.8.14-19.59.22-29.39 2.54-.4 4.61-1.8 6.67-3.2 7.6-5.16 13.35-12.69 22.1-16.46 5.16-2.22 9.88-5.48 14.7-8.44 5.03-3.09 6.48-7 4.2-10.63-2.41-3.83-6.85-4.53-11.81-1.69-10.39 5.95-20.7 12.05-31.13 17.93-3.81 2.15-5.64 5-4.8 9.37-3.77-.64-6.93-3.47-10.99-3.06-.47-2.67.32-4.45 2.9-5.9 8.85-4.94 17.55-10.14 26.28-15.29 5-2.95 6.48-6.69 4.28-10.54-2.33-4.08-6.62-4.84-11.63-1.97-7.64 4.38-15.23 8.84-22.87 13.22-6.06 3.47-12.8 6.17-15.09 13.76-14.82-5.39-29.62-10.83-44.47-16.13-3.02-1.08-4.63-2.53-4.6-6.04.18-21.33.18-42.65.24-63.98.98.16 2.01.16 2.92.49 14.45 5.19 28.92 10.32 43.31 15.66 15.52 5.76 30.93 11.83 46.47 17.56 16.3 6.01 32.71 11.71 49.02 17.68 17.43 6.39 34.78 13.02 52.2 19.41 17.55 6.44 35.2 12.62 52.74 19.1 15.67 5.79 31.2 11.94 46.86 17.73 20.49 7.57 41.05 14.92 61.57 22.42 17.73 6.48 35.42 13.06 53.15 19.53 19.28 7.04 38.61 13.94 57.86 21.05 14.29 5.27 28.48 10.81 42.74 16.15 13.61 5.09 27.3 9.95 40.86 15.17 3.53 1.36 5.17.77 5.09-3-.07-3.56 1.92-4.13 4.81-3.93 2.96.21 5.99.55 8.28-2.05 1.08-.2 1.54-1.04 2.18-1.83 4.21-5.25 3.84-6.54-2.19-8.96-16.46-6.62-32.95-13.14-49.63-19.21C365.4 996.03 211.37 941.48 57.32 887c-14.23-5.03-28.42-10.17-42.68-15.12-3.65-1.27-7.47-3.4-11.25-.11-1.69.34-1.35 2.3-2.47 3.1-.77-6.59 1.76-11.24 7.59-13.94 64.6-30.03 129.2-60.09 193.84-90.04 3.24-1.5 3.78-2.85 2.69-6.3-3.41-10.74-8.57-21.03-9.74-32.38-1.68-16.36 2.25-31.08 14.27-42.95 4.62-4.56 9.32-9.06 14.22-13.31 1.78-1.54 1.98-3.18 2.18-5.19 1.23-12.45.4-24.97 1.38-37.45 2.36-30.02 17.3-50.05 45.7-60.44 12.93-4.73 25.66-6.87 39.4-1.63-.2-9.54 2.84-17.52 6.84-25.5 13.24-26.39 41.77-30.29 60.87-22.26 23.14 9.72 45.76 20.62 65.84 36.04 8.26 6.34 8.44 6.37 13.95-2.46 8.7-13.97 17.17-28.09 25.76-42.13 4.43-7.24 9.07-14.36 14.61-20.82 1.65-1.93 2.17-3.76 1.66-6.34-.7-3.58-1.02-7.28-1.03-10.93-.02-8.45 1.04-16.67 7.57-23.43-10.26-5.45-19.64-11.68-28.53-18.65-26.13-20.48-39.13-48.15-45.54-80.09-7.58-37.74-2.32-74.13 8.57-110.28 6.25-20.74 13.19-41.14 25.61-59.2 8.33-12.11 18.11-22.64 31.88-28.63 4.94-2.15 4.91-6.37 4.91-10.47-.02-15.62 3.99-30.28 10.32-44.37 7.86-17.48 17.94-33.44 32.88-45.84 13.56-11.25 29.33-10.77 42.35 1.22 6.22 5.72 10.92 12.6 13.67 20.59 1.44 4.18 3.26 4.59 6.84 2.46 3.41-2.03 7.12-3.57 10.75-5.23 12.75-5.85 23.36-3.76 32.91 6.63 8.04 8.75 12.95 19.28 16.4 30.49 6.77 21.98 5 44.11.57 66.19-.74 3.7-.32 6 2.64 8.56 17.4 15.12 25 35.02 27.89 57.37 5.3 40.91 2.15 81.47-4.59 121.87-4.49 26.91-9.57 53.79-20.94 78.81-9 19.8-18.6 39.33-27.11 59.36-8.31 19.57-16.1 39.34-22.82 59.52-.66 1.98-1.23 3.99-1.84 5.95 1.51.41 2.09-.12 2.73-.7 32.96-29.97 72.1-49 113.5-63.98 7.48-2.71 14.94-5.53 23-6.38 12.69-1.33 22.41 3.21 29.28 13.96 3.44 5.39 5.82 11.3 7.23 17.41 1.24 5.39 3.84 6.39 8.96 6.14 11.28-.56 22.8-3.11 33.86-.11 21.07 5.72 39.49 15.71 50.39 35.99 8.21 15.26 12.99 31.2 11.33 48.8-1.13 11.94-1.5 23.94-2.47 35.89-.23 2.84.52 4.57 2.61 6.4 10.5 9.23 21.51 17.95 29.85 29.39 18.38 25.22 25.24 53.51 22.24 84.34-.32 3.31.21 4.85 3.43 6.35 56.92 26.47 113.75 53.14 170.67 79.63 4.15 1.93 5.95 4.12 5.9 8.94-.25 26.66-.21 53.32-.03 79.98.03 4.24-1.41 6.28-5.38 7.54-8.04 2.55-15.94 5.54-23.9 8.35.55-3.62-1.14-6.13-4.11-7.83-10.92-6.23-21.84-12.46-32.84-18.54-4.53-2.5-8.91-1.53-11.01 2.01-2.33 3.95-1 7.76 3.93 10.69 8.57 5.1 17.19 10.12 25.81 15.14 1.75 1.02 3.55 1.92 3.19 4.42-3.33 1.11-6.65 2.22-9.98 3.32.1-3.93-1.89-6.5-5.21-8.36-10.62-5.94-21.17-12-31.81-17.88-4.9-2.71-9.35-1.82-11.35 1.91-2.06 3.84-.49 7.99 4.16 10.73 8.57 5.06 17.15 10.07 25.75 15.07 1.72 1 3.6 1.8 3.44 4.28l-9.9 3.42c-.72-4.66-3.53-7.43-7.63-9.62-9.8-5.24-19.41-10.85-29.09-16.32-5.42-3.06-9.74-2.43-12.1 1.79-2.25 4.02-.73 7.65 4.67 10.84 8.43 4.98 16.91 9.87 25.34 14.84 1.63.96 3.95 1.56 2.94 4.36-3.38 1.22-6.77 2.43-10.15 3.65.18-3.39-.79-6.42-3.79-8.14-11.65-6.68-23.35-13.28-35.13-19.73-2.84-1.55-5.86-.94-8.29 1.33-2.37 2.22-2.29 5.1-1.47 7.87.76 2.57 3.21 3.71 5.34 4.96 8.43 4.95 16.85 9.9 25.37 14.68 1.97 1.11 3.07 2.34 2.85 4.61-2.94.97-5.88 1.93-8.82 2.9-1.46-2.66-1.82-5.87-4.98-7.6-11.41-6.28-22.67-12.82-34.07-19.11-3.69-2.03-7.16-1.27-9.65 2.28-2.55 3.63-1.42 7.91 2.96 10.55 8.69 5.23 17.49 10.29 26.23 15.43 1.83 1.07 4.09 1.86 3.36 4.75-3.32 1.12-6.63 2.24-9.95 3.35.62-4.75-2.12-7.33-5.87-9.42-10.21-5.68-20.37-11.45-30.56-17.17-5.15-2.89-9.34-2.25-11.71 1.76-2.23 3.77-.81 7.71 4.13 10.66 8.41 5.02 16.88 9.94 25.36 14.84 2.07 1.19 4.06 2.31 3.63 5.19-3.76.73-6.95 3.39-10.98 3.21.9-3.66-.88-6.1-3.79-7.89-2.65-1.63-5.4-3.1-8.11-4.63-8.38-4.72-16.68-9.58-25.16-14.11-5.82-3.11-11.7-.12-11.77 5.67-.05 3.68 2.35 5.63 5.2 7.29 8.61 5.02 17.22 10.06 25.8 15.13 2 1.18 4.55 2.29 1.65 5.1-2.96.76-5.51 2.98-8.82 2.45.93-3.46-.68-5.95-3.44-7.53-11.46-6.59-22.95-13.12-34.55-19.44-3.84-2.09-7.9-.61-9.83 2.99-2.12 3.96-.73 7.06 2.63 9.49 1.47 1.06 3.08 1.93 4.65 2.85 7.6 4.44 15.19 8.89 22.82 13.29 1.82 1.05 3.53 2.04 2.64 4.58h-.08zM245.63 803.69c-7.36-6.5-14.92-12.73-23.36-17.77 3.93 6.2 7.2 12.62 12.1 17.87 6.47 9.21 14.32 16.96 24.22 22.98-2.61-4.65 2.33-9.76-.87-13.52-3.06-3.6-7.43-6.1-11.23-9.08-.26-.2-.58-.33-.87-.48zm393.76-69.44c1.26-2.06 2.01-4.27 1.98-6.71 1.26-7.62 1.26-7.59-6.41-7.71-4.98-.08-9.98-.1-14.95-.41-14.7-.92-14.97-.66-12.58 14.18.11.66.17 1.32.25 1.98.27 2.17 1.43 3.02 3.67 3.11 6.81.28 13.63.52 20.39 1.28 4.69.52 7.06-1.17 7.66-5.71zM185.5 863.83c-1.81 2.1-3.16 4.45-4.71 8 7.92-3.35 14.88-6.29 21.83-9.22 4.09-1.26 8.17-2.54 12.26-3.77 11.64-3.51 23.71-3.66 35.68-4.65h23.73l-7.58-4.5-6.97-5.89c-3.81-4.43-8.31-8.08-12.96-11.56-1.31-.98-2.63-1.95-4.48-1.88-20.44.81-37.8 7.89-50.52 24.56-2.4 2.75-4.83 5.48-6.26 8.91zm501.05-8.93c.54-1.18 1.18-2.33 1.61-3.55 2.07-5.89 2.05-5.96-4.03-6.29-10.27-.57-20.51-1.43-30.64-3.19-5.57-.97-11.07-2.34-17.08-3.64 3.55 9.27 7.95 17.36 13.61 24.77 4.38 6.89 9.64 12.96 16.09 18.02 2.36 1.86 3.99 1.93 6.18-.4 6.95-7.39 11.41-16.08 14.24-25.71h.02zm-28.77-120.78c-1.03 2.86-2.06 5.72-3.24 8.98 18.07-1.12 35.76-.82 53.21-3.75 18-3.02 17.78-3.19 22.13-21.3 1.19-4.98-.68-4.75-4.18-4.07-20.77 4.06-41.87 5.27-62.91 6.75-4.6.32-6 1.63-4.6 5.9-.14 2.49-.28 4.98-.41 7.47zm279.91 68.9c4.35-10.22 1.94-20.93 2.5-31.56-7.19 13.69-17.23 24.69-29.04 34.2-10.78 7.49-21.61 14.91-33.11 21.27-1.79.99-2.51 2.22-2.7 4.28-.71 7.76-3.6 14.8-7.77 21.33-2.76 4.32-5.58 8.6-8.37 12.89 33.94-11.18 62.14-29.37 78.48-62.41zM389.66 699.97c2.25-7.99 4.49-15.98 6.74-23.97 3.22-7.24 4.57-15.18 8.26-22.24 1.31-2.5-.07-3.09-2.04-3.73-4.89-1.6-9.82-3.12-14.6-5.02-16.52-6.58-32.27-14.59-46.34-25.61-10.41-8.16-17.72-18.95-24.59-29.92-3.17-5.07-6.32-7.42-12.52-8.07-17.31-1.81-32.3 3.03-45.34 13.93-5.85 4.89-9.87 11.3-8.56 19.65-.33 2.26.62 4.26 1.52 6.17 6.16 13.03 15.21 23.81 26.1 33.13 12.42 11.21 26.71 19.59 41.53 27.1 20.56 10.41 41.61 19.56 64.38 24.16 3.28.66 5.17.75 4.63-3.37-.09-.69.53-1.47.83-2.21zm40.01-89.91c7.02-9.32 11.54-20.04 17.05-30.22 1.82-3.37 1.24-5.09-1.79-7.13-20.98-14.13-43.11-26.25-65.72-37.51-6.12-3.05-12.67-3.7-19.43-3.16-17.39 1.38-28.66 11.53-30.72 27.79-2.12 15.97 3.97 29.02 14.9 40.02 18.5 18.64 42.47 27.3 66.51 35.78 1.97.7 3.03-.09 4.07-1.69 5.13-7.9 10.65-15.57 15.14-23.88zm352.57-86.03c-3.75-9.33-9.24-12.27-18.76-9.84-3.37.86-6.69 2.02-9.94 3.26-26.64 10.14-52.16 22.64-76.86 36.81-15.92 9.14-31.18 19.22-44.2 32.34-9.87 9.94-17.54 21.3-21.91 34.71-.48 1.46-2.04 3.57 1.59 3.57 7.48 0 14.96.06 22.3-1.67 4.51-.05 8.9-1.02 13.28-1.94 37.94-7.98 72.27-24.74 105.63-43.72 9.47-5.39 18.78-11 24.62-21.02 6.07-10.41 7.59-21.05 4.25-32.51zm-223.6 173.94c-1.18 27.01 2.01 53.5 9.6 79.44 4.24 14.48 8.41 28.99 15.15 42.59 3.83 10.2 9.67 19.21 16.28 27.8 4.95 6.43 10.6 11.92 18.49 14.53 2.51.83 5.33 1.68 7.5-.58 1.97-2.06.6-4.48-.24-6.56-4.72-11.71-9.37-23.46-14.39-35.05-11.59-26.78-19.04-54.52-20.82-83.77-1.14-18.8-.94-37.6-1.03-56.41.91-21.13 2.79-42.15 6.85-62.94 7.64-39.09 21.79-75.99 37.86-112.23 11.86-26.74 24.98-52.95 34.13-80.84 5.18-15.79 9.47-31.81 12.56-48.42-.59.36-.99.45-1.1.68-10.55 21.22-27.2 37.22-44.83 52.36-15.5 13.31-32.83 23.17-53.11 27.11-12.57 2.44-25.3 3.8-38.04 4.99-10.75-.82-18.73 4.2-19.38 12.39 6.23-3.05 12.67-5.13 19.43-6.21 2.16.03 4.32 0 6.48.11 12.99.67 22.84 6.14 28.16 18.52 1.91 4.44 3.5 8.97 4.41 13.72 4.35 22.76 1.81 45.35-1.58 67.93-2.36 15.74-6.34 31.16-9.41 46.75-2.23 9.45-4.77 18.84-6.63 28.36-3.6 18.39-6.56 36.89-6.34 55.73zm323.75-103.02c-3.29-10.73-8.74-20.05-17.68-27.08-2.87-3.14-6.56-5.09-10.34-6.79-14.37-6.47-29.54-6.78-44.9-5.84-5.03.31-8.49 2.44-11.52 6.45-3.5 4.63-7.41 9.07-11.69 12.98-34.8 31.81-74.36 54.23-121.82 60.55-17.95 2.39-35.77 6.32-54.02 5.7-3.86-.13-4.68 1.13-4.96 4.68-1.5 18.96-.77 37.96-1.29 56.94-.13 4.77 1.17 6.58 6.05 6.24 17.1-1.18 34.22-2.12 51.34-3.16 9.28-.57 18.6-.86 27.85-1.76 16.01-1.56 31.73-4.7 47.02-9.8 16.82-4.49 32.94-10.81 48.75-18.11 28.95-13.35 55.84-29.42 78.13-52.8 7.1-7.45 12.27-16.14 19-23.7 1.39-1.56 1.14-2.97.1-4.48zM401.57 808.96c-5.54-17.5-8.77-35.43-10.12-53.71-.56-7.51-.6-7.59-8.41-8.21-14.74-1.16-29.5-2.24-44.05-5.09-36.34-7.12-69.28-20.95-95.26-48.44-2.65-2.81-5.79-4.94-9.26-6.67-2.32-1.15-4.36-1.01-6.63.11-12.24 6.02-24.54 28.6-22.07 42.08 3.24 17.65 10.94 33.34 22.76 46.94 5.84 7.79 13.42 13.69 20.98 19.68 33.52 26.57 72.31 38.61 114.35 41.12 15.75.94 31.61.18 47.42.15 1.03 0 2.33.55 3.23-.96-4.29-8.95-8.61-17.97-12.93-27zm162.94 253.08c4.42 2.94 9.67 3.97 14.39 6.21 3.93 1.86 7.84 3.73 12.38 3.1 6.78-.93 13.39-2.58 19.8-4.96 56.75-21.07 113.52-42.1 170.23-63.3 74.63-27.9 149.23-55.86 223.78-83.95 41.1-15.48 82.15-31.07 122.89-47.47 1.61-.65 3.99-.74 4.23-2.95.25-2.3-1.81-3.12-3.51-4.25-4.24-2.82-9.05-4.52-13.36-7.06-2.93-1.73-5.06-1.58-7.82-.55-32.98 12.35-65.98 24.64-98.96 36.99-143.92 53.87-287.63 108.35-432.1 160.74-1.3.47-2.95.4-3.44 2.16-.78.1-1.57.19-2.35.29-.92-.35-1.53.14-2.1.76-5.31.3-10.25-3.17-16.33-1.51 3.96 3.05 8.27 4.07 12.26 5.73v.02zM456.76 370.05c.62 2.06 1.19 4.15 1.87 6.19 13.62 40.66 48.49 65.8 91.4 65.83 26.17.02 49.47-8.48 70.63-23.65 10.2-7.31 19.32-15.65 27.25-25.33 4.86-4.38 8.3-9.94 11.41-15.48 11.88-21.22 21.7-43.31 25.96-67.5 3.51-20.78 3.87-41.44.59-62.43-2.22-14.2-7.77-26.68-14.38-38.95-3.75-6.96-6.38-6.86-10.29-.11-4.02 6.93-8.37 13.59-13.79 19.52-12.03 13.18-23.86 15.06-39.07 5.75-6.23-3.82-12.18-8.13-18.02-12.54-3.73-2.81-6.87-3.15-10.72-.16-5.41 4.19-11.56 7.22-18.01 9.54-5.16 1.86-10.5 2.46-15.59.15-16.85-7.65-30.21-18.72-35.6-37.36-1.38-4.79-2.75-9.58-4.26-14.33-.8-2.51-2.29-4.32-5.16-2.44-4.98 3.26-10.39 5.98-13.95 11.08-19.54 28.02-29.22 59.63-34 93.04-2.02 10.45-2.71 21.05-3.01 31.65-.55 19.48.87 38.77 6.72 57.52h.02zm479.92 385.99c4.26-11.42-.23-22.17-3.14-32.78-4.16-15.18-14.22-26.81-25.19-37.67-1.9-1.88-3.29-2.2-5.43-.4-10.35 8.74-22.01 15.49-33.67 22.28-36.27 21.1-74.05 38.35-115.39 47.09-22.21 4.7-44.63 7.47-67.25 8.09-24.77.67-49.61.64-73.58-7.24-2.25-.74-2.69.11-2.47 2.04.15 1.32.27 2.65.53 3.95 3.21 16.5 8.28 32.51 12.56 48.73 1.75 6.64 5.1 9.47 11.61 11.18 15.59 4.1 31.21 7.6 47.33 8.58.94.3 1.88.83 2.83.88 13.77.75 27.54 1.79 41.32 2.06 40.74.79 81.1-1.75 120.4-13.89 16.12-4.98 31.94-10.59 46.38-19.38 13.01-7.91 24.07-18.32 34.23-29.54 3.64-4.03 8.31-7.83 8.92-13.97zm-428.74-247c-5.75 6.24-9.43 12.89-13.14 19.52-1.18 2.12.6 3.03 1.78 4.06 4.28 3.75 9.27 6.47 13.95 9.64 2.12 1.44 6.45 2.33 5.19 5.46-1.08 2.67-5.18 2.27-8.2 2.08-.82-.05-1.63-.32-2.44-.48-5.29-1.03-10.18-3.18-14.78-5.85-2.72-1.58-4.15-1.56-5.78 1.41-3.84 7-8.11 13.76-12.04 20.71-5.05 8.92-4.91 8.87 2.72 15.5 13.47 11.7 28.38 20.36 46.5 22.26 6.79.71 13.62 1 20.41 1.62 2.9.26 5.5 2.07 5.75 4.71.27 2.96-3 3.02-5.21 3.33-12.87 1.78-25.56.99-38.07-2.64-14.71-4.27-28.16-11.49-41.87-18.06-2.83-1.35-4.36-1.11-5.95 1.59-5.24 8.88-10.48 17.77-16.03 26.46-2.43 3.8-1.89 6.51 1.25 9.41 17.78 16.43 38.37 27.18 62.35 31.27 6.41 1.09 12.96.36 19.34 1.83 3.06.71 2.94 1.95 1.48 4.08-3.17 4.63-7.85 5.9-13.06 5.87-13.96-.06-27.46-2.89-40.58-7.37-15.28-5.22-29.81-12.13-43.7-21.07-2.04 4.65-4.1 9-5.89 13.45-5.28 13.11-10.73 26.17-12.6 40.35-.25 1.9-.32 3.39 1.44 4.84 10.83 8.93 22.07 17.3 35.02 22.83 19.28 8.23 39.64 11.06 60.49 10.58 6-.14 11.99-.71 17.94.44 5.61 1.09 6.56 3.91 2.95 8.33-1.23 1.51-2.79 2.3-4.61 2.76-5.04 1.27-10.19 1.7-15.35 1.79-31.52.55-62.06-3.82-90.62-18.13-2.84-1.42-5.7-2.99-9.21-3.52.21 12.32 1.54 24.05 2.46 35.83 1.32 16.85 10.19 28.68 23.2 38.26 8.18 6.02 16.13 12.39 26.37 14.73 34.12 7.82 65.42 3.12 92.71-20.39 2.97-2.56 3.86-4.9 3.09-8.52-2.33-10.9-4.42-21.83-6.03-32.88-6.95-47.73-4.71-94.94 6.88-141.78 3.28-13.25 7.93-26.15 8.79-40.06.45-7.27 1.08-14.63 1.96-21.87 1.22-9.94 1.55-19.82 1.29-29.77-.28-10.61-2.08-20.85-7.69-30.1-2.73-4.5-6.28-8.7-11.64-9.12-9.43-.74-18.55.85-26.31 7.04-1.32 1.05-1.79 2.12-1.6 3.83 1.51 14.15 4.06 27.94 11.34 40.53 3.74 6.47 6.6 13.4 9.5 20.31 6.18 14.74-.37 27.63-5.42 40.75-.83 2.15-3.16 4.16-5.54 3.41-2.49-.79-1.67-3.65-1.52-5.74.56-7.69 3.53-14.88 4.8-22.42.34-2.04.99-4.12-.53-6.3-3.56 4.13-6.63 8.33-10.34 11.83-5.48 5.18-11.72 9.35-19.48 10.38-1.07.14-2.45.4-3.09-.94-.59-1.24.17-2.24.94-3.14 2.41-2.83 5.51-4.8 8.53-6.87 5.39-3.7 10.49-7.67 13.8-13.5 2.67-4.69 3.23-9.27.15-14.08-7.42-11.6-12.11-24.37-16.02-38.48h-.03zm156.61-363.82c-.4-6.48-.54-12.99-1.25-19.43-1.06-9.6-2.69-19.08-8.33-27.36-10.97-16.11-30.91-18-44.59-4.1-3.41 3.46-5.99 7.55-8.76 11.5-2 2.86-3.88 5.84-6.19 8.43-2.75 3.08-5.25 2.37-6.57-1.54-.99-2.92.07-5.58 1.13-8.2 2.37-5.87 4.47-11.79 5.03-18.17.87-9.94-3.86-17.23-13.39-20.1-10.08-3.04-19.22-1.19-27.84 4.96-37.4 26.67-44.21 80.62-36.58 108.4 4.09 14.91 15.05 24 28.07 30.75 11.14 5.77 21.5 2.72 31.35-4.03 5.1-3.49 10.23-3.06 14.89 1.39 2.04 1.94 4.37 3.59 6.64 5.28 8.55 6.34 18.07 8.99 28.66 7.17 10.02-1.72 15.99-8.92 21.77-16.34 13.48-17.32 15.61-37.68 15.96-58.6zM488.28 883.53c8.04 4.45 15.4 10.25 24.92 11.44 11.82 1.47 23.62.44 35.42-.19 18.33-.99 35.6-4.89 49.53-18.03 1.51-1.42 3.15-2.06.99-4.51-16.54-18.83-28.07-40.67-37.44-63.71-1.59-3.91-2.53-3.71-5.57-1.25-22.44 18.12-46.87 30.15-77.04 25.68-19.54-2.89-39.04-5.3-54.34-19.65-.14-.13-.52-.02-.95-.02.13.51.16.99.36 1.4 7.4 15.66 17.92 29.15 29.25 42.08 1.06 1.21 2.44 1.65 3.88 2.08 19.67 5.88 39.82 7.76 60.24 6.82 11.01-.5 21.83-2.27 32.07-6.7 1.82-.79 3.64-3.62 5.48-1.84 1.9 1.83.58 4.69-.31 7.04-.78 2.06-2.01 3.85-3.52 5.4-6.69 6.82-14.92 10.33-24.35 11.33-12.76 1.36-25.59 1.36-38.61 2.63zm-142.91-33.1c.96 3.1 1.64 5.82 2.63 8.41 3.94 10.34 9.49 18.93 21.78 20.56 3.09.41 6.05 1.73 9.07 2.61 20.92 6.13 42.34 5.89 63.81 5.04 5.63-.22 5.68-.19 2.98-5.16-.95-1.74-2.15-3.36-3.38-4.92-5.42-6.94-11-13.77-16.29-20.81-1.98-2.64-4.01-3.71-7.46-3.56-12.13.52-24.26.4-36.4-.35-12.06-.75-24.15-1.21-36.75-1.82zm369.58 37.4c9.82-.6 20.77-1.25 31.72-1.94 1.8-.11 3.71-.05 5.12-1.52 8.92-9.22 16.89-19.06 20.46-31.73.82-2.92.61-4.5-3.34-4.39-17.8.47-35.58-.36-53.34-1.38-6.11-.35-10.29 2.27-12.52 7.86-3.97 9.89-9.33 19.08-14.32 28.45-2.22 4.18-1.04 4.86 3.12 4.72 7.31-.25 14.63-.07 23.1-.07zM816.6 680.25c-1.72-.5-2.65.4-3.67.86-19.32 8.8-37.91 19.24-58.24 25.7-2.26.72-2.25 2.11-2.07 3.81.73 7.07.93 14.11-1.57 20.79.52.31.68.49.79.46 22.29-6.15 43.94-13.92 64.32-25 2-1.09 2.32-2.52 2.16-4.46-.6-7.44-1.16-14.88-1.72-22.17zm30.88 157.57c-14.17 3.8-27.94 6.07-41.73 8.13-5.29.79-8.87 2.29-10.79 8.04-1.69 5.08-5.2 9.59-8.07 14.25-2.94 4.77-6.1 9.41-9.56 14.74 17.47-1.54 33.9-4.26 49.83-9.64.61-.21 1.27-.53 1.69-.99 8.87-9.82 16.32-20.41 18.63-34.52zM280.3 672.26c-1.6 8.08-3.73 14.9-3.78 22.09-.01 1.85.04 3.44 1.78 4.82 12.41 9.79 26.23 16.67 41.54 20.54 1.14.29 2.94 1.08 2.79-1.27-.33-5.29 1.78-10.09 2.7-15.13.33-1.81.38-3.34-1.8-4.54-14.54-8.04-30.21-14.21-43.22-26.5h-.01zm-7.45 150.58c-1.79 12.39 5.49 18.78 14.53 23.44 15.19 7.82 30.62 15.17 46.45 21.63 1.23.5 2.51 1.76 4.24.49-3.61-6.19-6.77-12.57-8.81-19.45-.47-1.59-1.49-2.41-3.09-2.85-9.83-2.72-18.82-7.44-27.97-11.78-8.23-3.91-16.27-8.22-25.36-11.47zm568.76-130.33c1.45-1.06 2.26-1.56 2.97-2.18 10.29-8.97 19.39-19.02 27.63-29.9 6.45-8.52 8.8-18.2 9.14-28.82-.75.23-1.11.24-1.32.43-13.02 11.61-25.31 24.1-40.18 33.48-1.7 1.07-1.56 2.38-1.18 3.85 1.91 7.27 2.76 14.68 2.95 23.15h-.01zM335.88 704.7c-1.6 5.85-1.48 11.51-1.68 17.15-.08 2.26.91 3.24 2.98 3.79 15.14 4.04 30.31 7.68 46.15 7.52 4.07-.04 5.79-.56 5.18-5.4-1.22-9.61-.85-9.76-10.37-11.39-14.44-2.46-28.53-6.13-42.26-11.68zm-93.93-75.89c-2.23 12.38-4.45 23.67-2.5 35.26.22 1.29-.03 2.71 1.18 3.67 5.62 4.43 11.21 8.89 16.88 13.25 1.6 1.23 2.91 1.47 3.13-1.39.53-6.97 1.35-13.92 1.95-20.88.1-1.2.8-2.61-.59-3.67-8.79-6.66-14.46-15.78-20.05-26.23zm363.71 291.61c-13.23 0-26.15-.05-39.08.05-2.14.01-4.3.49-6.39 1.01-1.23.31-2.91 1.07-1.57 2.76 2.98 3.76 5.82 8 10.58 9.49 7.43 2.33 15.2.84 22.82 1.01.7.02 1.61-.54 2.1-1.11 3.75-4.37 8.26-8.09 11.54-13.21z" fill="#020101"/><path d="M.83 874.86 0 908.49l465.49 157.88 96.56 34.73 19.05-28.47-12.59-1.56 26.53-23.23L242.76 905.1 3.3 866.81m548.38 70.69 57.17 3.11 1.66-24.57h-58.27" fill="#020101"/><g fill="#747474"><path d="M568.52 1081.87c-2.28 2.6-5.32 2.26-8.28 2.05-2.89-.21-4.89.37-4.81 3.93.08 3.77-1.55 4.36-5.09 3-13.56-5.22-27.25-10.08-40.86-15.17-14.26-5.33-28.45-10.87-42.74-16.15-19.26-7.1-38.58-14-57.86-21.05-17.73-6.48-35.42-13.06-53.15-19.53-20.51-7.5-41.08-14.84-61.57-22.42-15.66-5.79-31.2-11.94-46.86-17.73-17.54-6.48-35.18-12.66-52.74-19.1-17.43-6.4-34.77-13.02-52.2-19.41-16.31-5.98-32.72-11.67-49.02-17.68-15.53-5.73-30.94-11.8-46.47-17.56-14.39-5.34-28.86-10.47-43.31-15.66-.92-.33-1.95-.34-2.92-.49-.72-4.69-1.06-9.37.19-14.04 1.12-.8.77-2.76 2.47-3.1.9 1.33 2.3 1.76 3.73 2.29 43.96 16.18 87.88 32.44 131.84 48.62 45.04 16.57 90.16 32.91 135.41 48.91 39.96 14.13 79.57 29.23 119.34 43.91 12.65 4.67 25.36 9.18 37.94 14.02 19.96 7.68 40.19 14.58 59.97 22.82 22.06 9.19 44.91 16.46 67.33 24.82 3.3 1.23 7.08 1.88 9.66 4.74zm323.07-34.86c1-2.71-1.13-3.44-2.83-4.43-8.74-5.13-17.48-10.26-26.23-15.38-2.91-1.7-5.06-3.94-4.78-7.55.4-5.13 5.92-8.13 10.82-5.59 8.83 4.6 17.6 9.32 25.98 14.73 2.6 1.68 5.54 2.83 8.21 4.4 2.96 1.73 4.67 4.21 3.8 7.86-.03 10.25 1.09 20.5-.04 30.75-5.07-.53-9.23 3.15-14.21 3.07-1.35-6.17-.07-12.38-.35-18.57-.14-3.1.6-6.24-.39-9.3h.02zm-50.13 18.5c.28-2.68-1.6-3.64-3.54-4.75-8.64-4.98-17.24-10.03-25.82-15.11-4.59-2.72-6.06-7.03-3.8-10.76 2.2-3.63 6.24-4.5 10.87-1.95 10.87 5.99 21.66 12.15 32.48 18.22 3.36 1.89 5.11 4.65 4.82 8.57 0 8.73.06 17.45-.04 26.18-.02 1.48.96 3.28-.84 4.47l-14.01 3.57c-.04-9.48-.09-18.96-.13-28.44z"/><path d="M866.43 1056.33c.61-2.78-1.41-3.72-3.3-4.82a8249.49 8249.49 0 0 1-25.74-15.11c-4.63-2.72-6.13-6.52-4.11-10.28 2.11-3.93 6.58-5.07 11.18-2.42 8.62 4.98 17.66 9.24 25.79 15.08 1.96 1.41 4.49 2 6.63 3.19 3.31 1.83 5.33 4.49 4.64 8.55-.06 9.81-.11 19.62-.17 29.42-5.1.43-9.69 2.67-14.5 4.12-.83-7.43 0-14.87-.12-22.31-.03-1.81-.19-3.62-.3-5.42zM790.41 1084c.71-2.58-1.11-3.42-2.89-4.45-8.6-4.98-17.17-10.01-25.72-15.07-5.02-2.98-6.43-6.61-4.23-10.55 2.23-4 6.22-4.93 11.14-2.22 10.84 5.97 21.6 12.09 32.38 18.18 3.1 1.76 5.18 4.15 4.4 8.06l-.08 29.97c-4.99.19-9.53 2.37-14.37 3.21-1.06-6.74-.04-13.5-.22-20.24-.06-2.3.43-4.63-.41-6.88zm149.88-54.7c2.9-2.81.35-3.92-1.65-5.1-8.59-5.07-17.19-10.11-25.8-15.13-2.85-1.66-5.25-3.6-5.2-7.29.07-5.79 5.94-8.79 11.77-5.67 8.48 4.53 16.79 9.38 25.16 14.11 2.71 1.53 5.46 3.01 8.11 4.63 2.91 1.79 4.68 4.22 3.79 7.89-.35 10.05.82 20.11-.04 30.16-5.13-.52-9.62 1.71-14.27 3.26-1.22-7.22-.03-14.46-.3-21.69-.07-1.8 1.07-4.1-1.57-5.17zm-224.85 81.97c-.42-2.34-2.08-3.5-4.02-4.61-8.5-4.88-16.95-9.82-25.36-14.84-5.17-3.08-6.6-7.09-4.15-11.03 2.25-3.62 6.66-4.33 11.39-1.68 9.86 5.51 19.6 11.24 29.54 16.58 4.26 2.29 7.21 5.16 7.63 10.14-1.41 6.23-.06 12.51-.42 18.76-.18 3.09.84 6.24-.48 9.27-4.71 1.32-9.42 2.63-14.13 3.95-1.01-8.85.26-17.69 0-26.54z"/><path d="M916.39 1037.98c.88-2.55-.83-3.54-2.64-4.58-7.62-4.4-15.22-8.85-22.82-13.29-1.57-.92-3.18-1.79-4.65-2.85-3.36-2.44-4.76-5.53-2.63-9.49 1.93-3.61 5.99-5.08 9.83-2.99 11.61 6.32 23.1 12.86 34.55 19.44 2.76 1.59 4.36 4.08 3.44 7.53-.3 9.71.89 19.42-.01 29.12-4.87.28-9.2 3.11-14.16 3-1.39-6.17-.07-12.39-.37-18.58-.12-2.44.56-4.94-.54-7.31zm152.04-55.41c.16-2.48-1.72-3.28-3.44-4.28-8.6-5-17.19-10.02-25.75-15.07-4.66-2.75-6.22-6.89-4.16-10.73 2-3.73 6.45-4.62 11.35-1.91 10.65 5.88 21.2 11.95 31.81 17.88 3.32 1.85 5.31 4.42 5.21 8.36-.79 7.79.15 15.58-.05 23.38-.05 1.97-.23 3.95-.35 5.92-5.26-.34-9.63 2.65-14.48 3.86-.05-9.13-.09-18.26-.13-27.39v-.02zm-251.97 91.9c-.21-2.48-2-3.54-3.93-4.65-8.49-4.9-16.94-9.85-25.36-14.85-5.31-3.15-6.66-6.87-4.16-10.97 2.25-3.68 6.56-4.35 11.36-1.67 10.1 5.64 20.11 11.46 30.31 16.92 4.05 2.17 6.34 5.14 6.82 9.62-1.39 6.22-.04 12.5-.4 18.74-.18 3.08.86 6.23-.49 9.25-4.71 1.33-9.42 2.65-14.13 3.98-.94-8.79.2-17.58 0-26.38h-.02z"/><path d="M1042.65 991.87c1.01-2.79-1.31-3.4-2.94-4.36-8.43-4.97-16.91-9.86-25.34-14.84-5.4-3.19-6.92-6.82-4.67-10.84 2.36-4.22 6.68-4.85 12.1-1.79 9.68 5.47 19.29 11.08 29.09 16.32 4.1 2.19 6.91 4.97 7.63 9.62-1.67 5.51-.15 11.12-.55 16.67-.22 3.07.87 6.21-.51 9.22-4.82.82-9.41 2.43-14.01 4-1.28-5.86-.1-11.77-.36-17.65-.09-2.12.42-4.29-.44-6.35z"/><path d="M1017.38 1001.12c.23-2.27-.87-3.51-2.85-4.61-8.52-4.79-16.95-9.74-25.37-14.68-2.13-1.25-4.58-2.39-5.34-4.96-.82-2.77-.9-5.65 1.47-7.87 2.43-2.27 5.45-2.89 8.29-1.33 11.78 6.45 23.48 13.05 35.13 19.73 3 1.72 3.97 4.75 3.79 8.14-.84 7.44.16 14.89-.12 22.33-.06 1.5.97 3.3-.84 4.5l-13.93 3.63c-.08-8.29-.15-16.57-.23-24.86zm-49.94 18.41c.43-2.88-1.56-3.99-3.63-5.19-8.48-4.9-16.95-9.82-25.36-14.84-4.93-2.95-6.36-6.89-4.13-10.66 2.37-4.01 6.56-4.65 11.71-1.76 10.19 5.72 20.35 11.49 30.56 17.17 3.75 2.08 6.49 4.67 5.87 9.42.01 7.09.09 14.18-.02 21.27-.02 1.46 1.04 3.28-.87 4.41-4.69.94-8.97 3.46-13.85 3.69-.1-7.84-.19-15.67-.29-23.51zm-227.95 83.2c.82-2.96-.68-4.44-3.16-5.84-8.65-4.88-17.17-9.99-25.74-15.01-3.45-2.02-5.69-4.78-4.58-8.98 1.2-4.53 6.26-6.52 10.97-4.03 8.65 4.58 17.12 9.5 25.66 14.29 2.56 1.44 5.1 2.91 7.64 4.36 3.55 2.02 5.39 4.84 4.21 9.05-.29 8.11.94 16.22-.07 24.33-4.89-.14-8.99 3.45-13.96 2.95-1.43-4.88-.15-9.85-.47-14.76-.13-2.12.62-4.32-.52-6.36zm353.92-129.24c.36-2.5-1.44-3.4-3.19-4.42-8.62-5.02-17.23-10.04-25.81-15.14-4.93-2.93-6.26-6.75-3.93-10.69 2.09-3.54 6.47-4.51 11.01-2.01 11 6.08 21.92 12.32 32.84 18.54 2.98 1.7 4.66 4.21 4.11 7.83-.08 8.14-.15 16.28-.23 24.42-4.93.85-9.21 3.98-14.35 4.09-1.15-7.52.52-15.1-.46-22.62z"/><path d="M992.41 1010.31c.73-2.89-1.53-3.68-3.36-4.75-8.75-5.14-17.54-10.2-26.23-15.43-4.37-2.63-5.51-6.92-2.96-10.55 2.49-3.55 5.97-4.31 9.65-2.28 11.4 6.28 22.66 12.83 34.07 19.11 3.15 1.73 3.52 4.95 4.98 7.6-1.66 1.59-1.16 3.64-1.18 5.58-.07 6.46.74 12.92-.08 19.38-4.84.92-9.51 2.38-14.08 4.19-1.33-5.49-.17-11.04-.4-16.55-.09-2.11.46-4.26-.42-6.31h.01zm-226.98 82.85c.46-2.66-1.25-3.73-3.25-4.87-8.65-4.96-17.25-10.01-25.83-15.1-4.96-2.94-6.27-6.62-3.98-10.71 2.08-3.73 6.15-4.66 10.87-2.06 10.81 5.95 21.45 12.22 32.32 18.07 3.64 1.96 4.35 5.48 6.04 8.53-.39.51-1.11 1.02-1.13 1.55-.17 7.5-.24 15.01-.34 22.51-5-.03-9.33 3.17-14.36 2.96-.12-6.96-.23-13.91-.35-20.87h.01zm-461.94-25.63c-.36-4.53 1.79-7.38 5.69-9.55 10.14-5.64 20.14-11.52 30.2-17.31 5.33-3.07 9.46-2.72 11.84 1.01 2.73 4.27 1.23 8.3-4.52 11.66-8.44 4.94-16.89 9.86-25.42 14.64-2.35 1.32-3.56 2.83-2.71 5.54-.31 1.62 1.09 3.52-.82 4.87-5.75.53-9.09 5.52-14.02 7.57-.08-6.15-.16-12.29-.23-18.44h-.01zm-126.92-46.44c-.75-3.97 1.53-6.26 4.57-8.02 10.78-6.25 21.57-12.5 32.41-18.65 4.54-2.57 8.56-1.69 10.86 2.08 2.26 3.7 1.09 7.62-3.54 10.4-8.55 5.13-17.27 9.99-25.83 15.1-1.78 1.06-4.8 1.65-3.45 5.02-.46 1.41.82 3.2-.92 4.34-4.68 2.52-9.35 5.04-14.03 7.55-.7-5.94-.08-11.88-.08-17.82zm101.94 37.3c-.78-4.54 1.05-7.49 5.08-9.73 10.32-5.74 20.46-11.8 30.71-17.66 2.57-1.47 5.27-3.09 8.39-1.53 6.16 3.1 6.45 9.5.35 13.24-8.93 5.48-18.06 10.64-27.15 15.85-2.87 1.65-3.96 3.43-1.23 6.1-1.44.24-1 1.79-1.77 2.5-1.7-.78-2.71.49-3.93 1.25-3.44 2.17-6.92 4.29-10.38 6.44-.85-5.49-.05-10.98-.08-16.47zm-25.94-9.49c-.35-4.3 1.51-7.2 5.28-9.32 10.44-5.87 20.76-11.97 31.16-17.9 5.12-2.92 9.58-2.17 11.68 1.74 2.22 4.14.69 7.82-4.64 10.93-8.48 4.95-16.94 9.94-25.5 14.74-2.52 1.41-3.97 2.93-2.98 5.91-.07 1.33-.14 2.67-.2 4-1.89-.63-3.4 0-5.01 1.1-3.1 2.11-6.38 3.95-9.59 5.9-.07-5.7-.13-11.4-.2-17.09zm-25-9.02c.2-4.99 2.8-7.99 7.2-10.37 10.07-5.44 19.88-11.35 29.77-17.14 2.9-1.69 5.85-2.54 8.93-.83 5.24 2.92 4.98 9.36-.76 12.88-9.06 5.54-18.28 10.82-27.49 16.11-2.37 1.36-3.87 2.72-1.65 5.36l-.97 1.95c-5.66 1.05-9.3 5.65-14.2 8.04-1.58-5.27.42-10.72-.83-16.01zm201.9 73.62c-.33-5.08 2.03-8.31 6.46-10.75 10.19-5.61 20.18-11.57 30.27-17.35 5.13-2.93 9.1-2.14 11.48 2.17 2.08 3.78.79 7.37-4.04 10.25-8.71 5.19-17.47 10.28-26.29 15.29-3 1.71-4.34 3.53-1.72 6.56-1.26.3-.76 1.55-1.23 2.28-1.87-.67-2.95.65-4.35 1.51-3.3 2.04-6.26 4.73-10.21 5.58l-.38-15.54zm-102.15-37.2c2.11-8.64 9.78-11.24 16.33-15.04 7.33-4.26 14.67-8.51 22.03-12.73 4.22-2.41 8.82-1.71 10.97 1.58 2.5 3.84 1.37 7.97-3.46 10.88-8.69 5.24-17.42 10.41-26.34 15.24-3.07 1.67-3.99 3.62-3.28 6.75l.08-.11c-5.31 1.92-9.71 5.45-14.52 8.26-1.03-3.44-.24-6.94-.35-10.41-.05-1.65.22-3.34-1.45-4.43zm-200.73-73.37c-.51-3.96 1.26-6.6 4.64-8.52 10.8-6.15 21.57-12.36 32.3-18.63 3.77-2.2 7.26-2.32 10.3 1.05 3.28 3.63 2.02 8.55-3.08 11.59-8.69 5.17-17.45 10.22-26.25 15.21-2.2 1.25-4.04 2.41-2.91 5.34-.08.6.28 1.49-.89 1.39-5.32 1.31-8.72 6.14-13.95 7.62-.05-5.02-.11-10.04-.16-15.05zm-77.11-27.89c2.29-7.59 9.03-10.28 15.09-13.76 7.64-4.38 15.23-8.85 22.87-13.22 5.02-2.87 9.3-2.11 11.63 1.97 2.2 3.85.73 7.59-4.28 10.54-8.73 5.15-17.43 10.35-26.28 15.29-2.59 1.45-3.38 3.22-2.9 5.9l-.02.12c-2.26-.4-3.66 1.28-5.33 2.24-2.98 1.71-5.43 4.35-8.98 5.05-1.19-3.01-.32-6.13-.42-9.2-.06-1.8.12-3.57-1.38-4.93zm102.1 37c.15-2.76.78-5.48 3.25-6.94 11.86-6.98 23.76-13.88 35.76-20.62 2.62-1.47 5.17-.82 7.67 1.41 2.59 2.31 2.68 4.82 1.99 7.61-.55 2.22-2.48 3.42-4.38 4.52-8.61 4.98-17.24 9.94-25.81 14.99-1.88 1.11-4.55 1.92-3.44 5.13.2.32.15.6-.16.82-5.38 1.71-8.81 6.85-14.43 8.13-1.02-4.99.16-10.05-.44-15.06zm201.98 73.76c-.11-4.49 2.07-7.35 5.96-9.52 10.46-5.83 20.75-11.96 31.15-17.89 4.5-2.57 8.3-2.03 10.69 1.25 2.74 3.75 1.76 8.14-2.9 10.94-8.83 5.32-17.79 10.43-26.73 15.57-2.3 1.33-4.3 2.69-3.15 5.83l.05-.12c-5.67 1.32-9.42 6.06-14.61 8.23-1.07-4.74.17-9.55-.47-14.3h.01zm50.95 18.42c-1.1-5.48 1.65-8.54 6.22-11.06 10.04-5.53 19.86-11.45 29.8-17.16 5.42-3.12 9.55-2.46 12.06 1.81 2.15 3.67.62 7.53-4.43 10.6-4.54 2.76-9.01 5.74-13.84 7.91-9.32 4.19-16.02 11.82-24.16 17.53-1.65 1.16-3.31 2.25-5.45 2.12l-.19-11.75zM76.6 984.82c-.84-4.38.99-7.23 4.8-9.37 10.43-5.88 20.74-11.98 31.13-17.93 4.96-2.84 9.41-2.14 11.81 1.69 2.28 3.63.83 7.54-4.2 10.63-4.82 2.96-9.55 6.21-14.7 8.44-8.75 3.77-14.51 11.3-22.1 16.46-2.06 1.4-4.13 2.8-6.67 3.2-.81-4.37-.23-8.74-.08-13.11zm301.95 109.99c-.56-4.01 1.36-6.56 4.72-8.47 10.66-6.08 21.24-12.29 31.9-18.36 4.79-2.73 9.04-1.92 11.23 1.88 2.28 3.95.93 7.81-3.99 10.71-8.71 5.14-17.47 10.21-26.26 15.21-2.06 1.17-3.69 2.3-2.57 4.98l-.27.12c-2.15.19-3.86 1.31-5.7 2.35-2.92 1.64-5.12 4.72-8.91 4.73-.73-4.38-.12-8.77-.15-13.16zM101.59 993.88c-.96-4.45 1.09-7.19 4.86-9.32 10.58-5.98 21.04-12.16 31.59-18.2 4.8-2.75 9.01-1.92 11.26 2.06 2.14 3.78.87 7.59-3.78 10.43-5.26 3.21-10.41 6.77-16.04 9.14-9.04 3.8-14.69 11.97-22.95 16.67-1.58.9-2.95 2.19-4.9 2.24-.83-4.34-.3-8.68-.03-13.02zm99.95 36.42c-.12-4.12 1.91-6.75 5.44-8.74 10.41-5.87 20.71-11.94 31.09-17.87 5.28-3.02 9.47-2.33 11.65 1.73 2.24 4.17.72 7.84-4.58 10.93-8.61 5.01-17.39 9.76-25.8 15.09-4.97 3.16-8.84 7.9-14.22 10.62-1.05.53-1.96 1.23-3.22 1.01l-.36-12.77z"/></g><path d="M378.7 1107.97c3.79-.01 5.98-3.09 8.91-4.73 1.84-1.04 3.55-2.16 5.7-2.35-.02 12.47-.03 24.93-.08 37.4-.02 4.42-1.45 7.93-6.38 8.67-4.9.74-8.31-2.51-8.33-8.05-.03-10.31.11-20.62.18-30.94zm-24.68-7.87c5.19-2.17 8.94-6.91 14.61-8.23-.02 12.12-.03 24.24-.07 36.36-.02 5.91-2.67 9.35-7.19 9.45-4.66.1-7.57-3.53-7.56-9.68.01-9.3.13-18.6.21-27.9zM51.28 989.17c3.54-.71 6-3.34 8.98-5.05 1.67-.96 3.07-2.65 5.33-2.24.03 12.1.09 24.21.08 36.31 0 5.74-2.5 8.74-7.12 8.83s-7.53-2.96-7.55-8.5c-.03-9.78.18-19.56.29-29.34h-.01zm100.74 37.93c5.62-1.28 9.06-6.43 14.43-8.13.05 12.28.12 24.56.12 36.85 0 5.44-2.84 8.82-7.24 8.88-4.37.06-7.48-3.37-7.5-8.72-.04-9.63.12-19.25.19-28.88zm177.11 64.03c4.81-2.81 9.21-6.34 14.52-8.26-.01 11.81 0 23.62-.04 35.43-.02 5.93-2.64 9.36-7.16 9.46-4.6.1-7.54-3.33-7.54-9.18-.01-9.15.14-18.3.23-27.45zm-202.38-73.15c5.23-1.48 8.62-6.31 13.95-7.62 1.44 12.74.7 25.53.43 38.28-.08 4.06-3.16 6.47-7.54 6.34-4.07-.12-6.91-3.02-6.95-7.55-.08-9.82.06-19.63.11-29.45zm151.84 56.88c3.46-2.14 6.94-4.27 10.38-6.44 1.22-.77 2.23-2.04 3.93-1.25.07 11.31.22 22.62.17 33.93-.02 5.48-3.05 8.77-7.5 8.68-4.4-.1-7.11-3.42-7.12-8.97 0-8.65.09-17.3.14-25.95zm151.26 54.18c3.95-.84 6.92-3.54 10.21-5.58 1.39-.86 2.48-2.18 4.35-1.51.03 11.13.1 22.25.09 33.38 0 5.76-2.95 9.23-7.55 9.1-4.37-.12-7.21-3.53-7.23-8.99-.03-8.8.08-17.6.13-26.4zM688.43 55.76c-.24 1.25.71 3.29-.96 3.88-1.74.62-2.39-1.45-3.07-2.62-1.76-2.99-3.13-6.21-4.92-9.17-3.93-6.52-9.26-11.11-17.19-12.08-3.35-.41-7.04-1.26-7.39-5.36-.36-4.29 2.25-7.06 6.31-8.44 7.19-2.44 15.35.79 20.17 8.03 3.71 5.58 6.9 17.15 7.06 25.75zM252.77 1066c3.21-1.95 6.5-3.78 9.59-5.9 1.62-1.1 3.12-1.73 5.01-1.1.03 10.95.12 21.89.08 32.84-.02 5.38-2.99 8.81-7.38 8.82-4.4 0-7.38-3.4-7.4-8.78-.04-8.62.06-17.25.1-25.87zm-24.37-10.12c4.9-2.39 8.54-7 14.2-8.04.06 11.66.16 23.31.15 34.97 0 5.26-2.7 8.44-6.98 8.61-4.44.18-7.54-3.15-7.56-8.56-.05-8.99.12-17.98.2-26.97zm-51.75-16.96c4.68-2.52 9.35-5.04 14.03-7.55 1.17 11.76.49 23.56.41 35.33-.03 4.38-3.5 7.22-7.46 7.12-4.14-.1-7.06-3.21-7.09-7.97-.06-8.98.06-17.95.11-26.93zm127.08 47.05c4.93-2.04 8.27-7.04 14.02-7.57 1.55 8.53.32 17.14.68 25.71.11 2.65.16 5.33-.05 7.97-.35 4.34-3.45 7.19-7.46 7.13-4.02-.05-7.15-2.94-7.23-7.33-.15-8.64 0-17.28.04-25.91zM552.66 20.18c.08-.5.16-1.49.4-2.45C555.07 9.77 571.22-1.1 579.24.09c3.29.48 4.6 2 3.39 5.47-1.77 5.06-5.22 8.78-9.06 12.23-3.58 3.23-7.57 5.91-11.82 8.18-5.63 3-8.94 1.05-9.09-5.79zm213.11 1093.85c5.03.2 9.36-2.99 14.36-2.96.07 6.64.25 13.27.19 19.91-.05 5.27-3.28 8.63-7.72 8.44-3.32-.15-7.67-3.75-7.17-8.47.59-5.59.27-11.27.34-16.91zm227.46-80.86c4.57-1.82 9.24-3.28 14.08-4.19.07 6.5.22 12.99.19 19.49-.02 5.17-2.82 8.33-7.17 8.39-4.38.06-7.36-3.02-7.44-8.2-.08-5.16.21-10.32.34-15.48zm100.64-37.06c5.14-.11 9.42-3.24 14.35-4.09.06 6.62.2 13.25.16 19.87-.03 5.12-2.85 8.19-7.26 8.22-4.37.04-7.36-3.04-7.44-8.11-.09-5.3.12-10.6.2-15.89zm-353.39 127.75c4.97.5 9.07-3.09 13.96-2.95.08 6.32.27 12.65.22 18.97-.04 5.33-2.72 8.23-7.25 8.22s-7.19-2.89-7.24-8.26c-.05-5.32.19-10.65.31-15.97zm227.25-80.82c4.88-.23 9.15-2.76 13.85-3.69 1.47 6.68.95 13.46.51 20.14-.27 4.07-3.48 6.48-7.68 6.14-4.14-.33-6.65-3.02-6.79-7.21-.18-5.12.05-10.26.11-15.39zm75.72-27.17c4.6-1.57 9.19-3.18 14.01-4 .09 6.3.3 12.59.22 18.89-.06 4.66-3.16 7.83-7.21 7.84-4.05 0-7.14-3.17-7.22-7.82-.08-4.97.12-9.94.2-14.91zm-25.84 10.11 13.93-3.63c1.28 6.07.81 12.22.49 18.3-.21 4.12-3.08 6.55-7.36 6.63-4.02.07-7.03-2.96-7.16-7.35-.14-4.65.05-9.3.09-13.95zm50.95-16.02c4.85-1.2 9.22-4.19 14.48-3.86.05 4.95.22 9.91.12 14.86-.11 5.29-3.25 8.57-7.7 8.38-4.3-.19-6.95-3.33-7-8.49-.04-3.63.07-7.27.11-10.9h-.01zm-277.53 101.16c4.84-.84 9.38-3.02 14.37-3.21.04 4.95.18 9.91.09 14.86-.08 4.63-3.07 7.8-7.14 7.88-3.99.08-7.25-3.06-7.46-7.65-.18-3.95.08-7.92.14-11.88zm75.81-27.05c4.81-1.45 9.4-3.69 14.5-4.12.04 4.98.18 9.97.08 14.95-.09 4.65-3.14 7.83-7.24 7.87-4.09.04-7.23-3.07-7.44-7.74-.16-3.64.05-7.3.1-10.96zm-50.37 16.78c4.71-1.33 9.42-2.65 14.13-3.98.07 5.47.29 10.94.16 16.41-.11 4.95-2.87 7.69-7.23 7.69s-7.1-2.79-7.21-7.69c-.1-4.14.09-8.29.15-12.43zm125.68-44.69c4.65-1.55 9.15-3.78 14.27-3.26.04 4.8.18 9.6.1 14.4-.09 4.91-2.76 7.73-7.1 7.81-4.28.08-7.24-2.73-7.45-7.53-.17-3.79.1-7.61.18-11.42zm-24.86 7.71c4.96.11 9.29-2.72 14.16-3 .05 5.15.2 10.3.13 15.45-.07 4.86-2.82 7.91-6.97 8.06-4.29.15-7.41-3.03-7.53-8.05-.1-4.15.13-8.3.21-12.46zm-201.84 73.93c4.71-1.32 9.42-2.63 14.13-3.95.07 5.45.27 10.91.15 16.36-.11 4.87-2.92 7.67-7.23 7.67s-7.08-2.84-7.21-7.69c-.11-4.13.09-8.26.15-12.39zm176.88-62.93c4.97.07 9.14-3.6 14.21-3.07.05 4.64.2 9.29.11 13.93-.1 4.68-3.11 7.85-7.17 7.88s-7.14-3.13-7.28-7.79c-.11-3.64.08-7.3.14-10.94h-.01zm-50.74 19.07 14.01-3.57c1.25 4.91.82 9.92.45 14.84-.31 4.11-3.02 6.59-7.36 6.62-4.02.02-6.98-2.99-7.15-7.39-.14-3.49.03-6.99.06-10.49h-.01z" fill="#020101"/><path d="M507.94 509.04c3.92 14.11 8.6 26.89 16.02 38.48 3.08 4.82 2.52 9.4-.15 14.08-3.32 5.83-8.42 9.8-13.8 13.5-3.02 2.07-6.13 4.04-8.53 6.87-.77.9-1.52 1.9-.94 3.14.63 1.34 2.02 1.08 3.09.94 7.77-1.04 14-5.2 19.48-10.38 3.71-3.51 6.78-7.7 10.34-11.83 1.52 2.18.87 4.26.53 6.3-1.27 7.55-4.24 14.73-4.8 22.42-.15 2.08-.97 4.95 1.52 5.74 2.38.75 4.71-1.26 5.54-3.41 5.05-13.11 11.6-26.01 5.42-40.75-2.9-6.91-5.76-13.84-9.5-20.31-7.27-12.59-9.82-26.38-11.34-40.53-.18-1.71.28-2.78 1.6-3.83 7.75-6.19 16.88-7.78 26.31-7.04 5.36.42 8.91 4.62 11.64 9.12 5.61 9.25 7.42 19.49 7.69 30.1.26 9.95-.07 19.83-1.29 29.77-.89 7.24-1.51 14.6-1.96 21.87-.86 13.91-5.51 26.81-8.79 40.06-11.6 46.84-13.83 94.05-6.88 141.78 1.61 11.05 3.7 21.98 6.03 32.88.77 3.62-.11 5.96-3.09 8.52-27.29 23.51-58.59 28.21-92.71 20.39-10.23-2.34-18.19-8.71-26.37-14.73-13.01-9.57-21.88-21.41-23.2-38.26-.92-11.77-2.25-23.51-2.46-35.83 3.51.53 6.37 2.1 9.21 3.52 28.56 14.31 59.1 18.68 90.62 18.13 5.16-.09 10.31-.51 15.35-1.79 1.82-.46 3.38-1.25 4.61-2.76 3.61-4.42 2.66-7.24-2.95-8.33-5.95-1.15-11.94-.58-17.94-.44-20.85.48-41.21-2.35-60.49-10.58-12.95-5.53-24.19-13.9-35.02-22.83-1.76-1.45-1.69-2.94-1.44-4.84 1.87-14.18 7.32-27.24 12.6-40.35 1.8-4.45 3.85-8.8 5.89-13.45 13.89 8.94 28.42 15.85 43.7 21.07 13.12 4.48 26.62 7.31 40.58 7.37 5.22.02 9.89-1.24 13.06-5.87 1.46-2.13 1.58-3.38-1.48-4.08-6.38-1.47-12.93-.74-19.34-1.83-23.98-4.09-44.56-14.84-62.35-31.27-3.14-2.9-3.68-5.6-1.25-9.41 5.56-8.68 10.8-17.57 16.03-26.46 1.59-2.7 3.12-2.94 5.95-1.59 13.71 6.57 27.16 13.79 41.87 18.06 12.51 3.63 25.2 4.42 38.07 2.64 2.21-.31 5.48-.37 5.21-3.33-.24-2.65-2.85-4.45-5.75-4.71-6.8-.61-13.63-.9-20.41-1.62-18.12-1.9-33.03-10.56-46.5-22.26-7.63-6.63-7.77-6.58-2.72-15.5 3.93-6.95 8.2-13.71 12.04-20.71 1.63-2.97 3.06-2.99 5.78-1.41 4.6 2.67 9.49 4.81 14.78 5.85.82.16 1.62.43 2.44.48 3.02.19 7.12.59 8.2-2.08 1.26-3.13-3.07-4.02-5.19-5.46-4.68-3.17-9.67-5.89-13.95-9.64-1.18-1.03-2.96-1.95-1.78-4.06 3.71-6.63 7.39-13.28 13.14-19.52h.03z" fill="#f9cc00"/><path d="M682.59 829.89c-16.12-.98-31.74-4.48-47.33-8.58-6.51-1.71-9.86-4.54-11.61-11.18-4.28-16.22-9.36-32.23-12.56-48.73-.25-1.3-.38-2.63-.53-3.95-.22-1.93.22-2.78 2.47-2.04 23.98 7.88 48.81 7.91 73.58 7.24 22.62-.61 45.04-3.39 67.25-8.09 41.34-8.74 79.12-25.99 115.39-47.09 11.66-6.79 23.32-13.54 33.67-22.28 2.14-1.81 3.53-1.49 5.43.4 10.97 10.86 21.04 22.49 25.19 37.67 2.91 10.61 7.4 21.36 3.14 32.78-1.68-.16-3.25.16-4.89.63-44.61 12.8-89.23 25.55-133.85 38.28-36.33 10.37-72.69 20.68-109 31.13-2.33.67-5.53.42-6.36 3.81z" fill="#ec0000"/><path d="M685.28 310.11c-4.27 24.18-14.08 46.28-25.96 67.5-3.1 5.54-6.54 11.11-11.41 15.48-9.65-1.27-19.28-2.7-28.95-3.76-12.79-1.4-25.46-3.94-38.37-4.31-1.73-3.99-2.7-8.84-8.31-9.07-4.67-.19-5.62 3.71-6.89 7.08-4.72-.68-9.42-1.42-14.15-2.04a6277.46 6277.46 0 0 0-36.19-4.67c-9.13-1.15-18.28-2.2-27.42-3.29-.04-1.32-.08-2.64-.11-3.97-.04-1.89-.28-3.8-2.27-4.57-1.8-.7-3.25.53-4.34 1.72-1.67 1.81-3.08 3.87-4.59 5.82-6.52-.66-13.04-1.33-19.56-1.99-5.85-18.75-7.27-38.04-6.72-57.52.3-10.6.99-21.2 3.01-31.65 5.57.72 11.13 1.45 16.7 2.14 11.79 1.46 23.58 2.86 35.36 4.37 11.61 1.49 23.21 3.13 34.82 4.61 11.62 1.48 23.26 2.81 34.88 4.28 12.11 1.53 24.2 3.18 36.3 4.73 11.62 1.48 23.25 2.91 34.87 4.32 13.1 1.59 26.1 4.02 39.3 4.78z" fill="#fd5700"/><path d="M685.28 310.11c-13.2-.76-26.2-3.19-39.3-4.78-11.63-1.42-23.25-2.84-34.87-4.32-12.1-1.54-24.19-3.2-36.3-4.73-11.62-1.47-23.26-2.8-34.88-4.28-11.61-1.48-23.21-3.13-34.82-4.61-11.78-1.51-23.58-2.91-35.36-4.37-5.57-.69-11.13-1.43-16.7-2.14 4.77-33.41 14.46-65.02 33.99-93.04 3.55-5.1 8.97-7.82 13.95-11.08 2.86-1.87 4.36-.07 5.16 2.44 1.51 4.75 2.88 9.54 4.26 14.33 5.38 18.63 18.74 29.71 35.6 37.36 5.09 2.31 10.44 1.71 15.59-.15 6.45-2.32 12.6-5.35 18.01-9.54 3.85-2.98 6.99-2.65 10.72.16 5.84 4.4 11.79 8.72 18.02 12.54 15.21 9.31 27.03 7.43 39.07-5.75 5.42-5.93 9.77-12.59 13.79-19.52 3.91-6.75 6.54-6.85 10.29.11 6.61 12.27 12.16 24.76 14.38 38.95 3.27 20.99 2.92 41.65-.59 62.43z" fill="#ec0000"/><path d="M664.55 145.22c-.35 20.91-2.48 41.28-15.96 58.6-5.77 7.42-11.74 14.61-21.77 16.34-10.59 1.82-20.1-.83-28.66-7.17-2.27-1.68-4.61-3.33-6.64-5.28-4.66-4.45-9.79-4.88-14.89-1.39-9.85 6.75-20.21 9.8-31.35 4.03-13.02-6.75-23.97-15.84-28.07-30.75-7.63-27.78-.82-81.73 36.58-108.4 8.62-6.15 17.75-8 27.84-4.96 9.53 2.87 14.26 10.16 13.39 20.1-.56 6.38-2.66 12.31-5.03 18.17-1.06 2.62-2.12 5.28-1.13 8.2 1.32 3.91 3.82 4.62 6.57 1.54 2.31-2.59 4.19-5.58 6.19-8.43 2.77-3.95 5.35-8.04 8.76-11.5 13.68-13.89 33.62-12.01 44.59 4.1 5.64 8.28 7.27 17.76 8.33 27.36.71 6.44.85 12.95 1.25 19.43zm-120.97 32.31c.41 6.44 1.78 12.88 6.52 18.09 4.23 4.64 9.64 5.82 14.37 3.15 1.58-.89 3.48-1.87 3.06-4.08-.41-2.16-1.53-4.05-3.96-4.64-.81-.2-1.64-.29-2.44-.49-3.88-.98-4.93-3.65-4.08-7.22.7-2.94 4.98-5.09 8.02-3.92 3.47 1.34 5.08 4.36 3.41 7.56s-.36 4.77 1.93 5.91c2.45 1.23 4.09-.82 5.14-2.6 6.26-10.63 4.58-22.52-4.32-30.33-5.72-5.02-12.48-5.15-18.83-.89-6.88 4.61-8.36 11.6-8.82 19.46zm74.27 6.77c-.32-7.07-2.25-12.99-6.37-18.07-3.37-4.15-7.64-6.33-13.15-5.32-12.39 2.28-19.58 18.34-13.05 29.08 1.27 2.08 2.4 2.42 4.85 1.44 4.13-1.65 2.12-5.15 2.92-7.73.89-2.88 2.11-4.89 5.42-4.71 3.36.18 4.47 2.61 4.87 5.38.67 4.63-2.61 7.67-7.49 7.08-3.23-.39-6 .46-5.94 4.11.08 5.87 9.43 11.3 14.69 8.52 8.09-4.27 12.44-11.21 13.27-19.79h-.02z" fill="#fefefe"/><path d="M568.59 1057.81c.57-.62 1.18-1.11 2.1-.76.23.5.4 1.4.68 1.44 1.17.16 1.37-.89 1.67-1.73.49-1.77 2.15-1.69 3.44-2.16 144.47-52.4 288.17-106.87 432.1-160.74 32.98-12.35 65.99-24.63 98.96-36.99 2.76-1.03 4.88-1.18 7.82.55 4.3 2.54 9.12 4.24 13.36 7.06 1.7 1.13 3.76 1.95 3.51 4.25-.24 2.21-2.62 2.3-4.23 2.95-40.74 16.4-81.8 31.99-122.89 47.47-74.56 28.08-149.16 56.05-223.78 83.95-56.71 21.2-113.48 42.22-170.23 63.3-6.41 2.38-13.02 4.02-19.8 4.96-4.54.63-8.45-1.24-12.38-3.1-4.72-2.23-9.97-3.27-14.39-6.21.4-2.33 4.33-1.26 4.07-4.23z" fill="#747474"/><path d="M661.55 705.6c-17.11 1.03-34.23 1.98-51.34 3.16-4.88.34-6.18-1.47-6.05-6.24.53-18.97-.21-37.97 1.29-56.94.28-3.55 1.1-4.81 4.96-4.68 18.25.62 36.07-3.31 54.02-5.7 47.46-6.32 87.02-28.74 121.82-60.55 4.28-3.91 8.19-8.35 11.69-12.98 3.03-4.01 6.49-6.14 11.52-6.45 15.37-.94 30.54-.63 44.9 5.84 3.78 1.7 7.47 3.65 10.34 6.79-2.31.2-3.85 1.87-5.62 3.04-12.3 8.16-24.58 16.36-36.82 24.6-27.94 18.8-55.83 37.68-83.81 56.43-24.12 16.17-48.34 32.18-72.46 48.34-1.9 1.27-4.91 1.94-4.46 5.32zm-433.03 70.36c-11.81-13.6-19.52-29.29-22.76-46.94-2.47-13.48 9.83-36.06 22.07-42.08 2.27-1.12 4.31-1.26 6.63-.11 3.47 1.72 6.6 3.86 9.26 6.67 25.98 27.5 58.92 41.32 95.26 48.44 14.55 2.85 29.31 3.93 44.05 5.09 7.81.62 7.85.69 8.41 8.21 1.35 18.28 4.59 36.22 10.12 53.71-1.81-.11-3.59-.23-5.41-.61-12.44-2.58-24.92-4.97-37.39-7.45-32.85-6.53-65.68-13.22-98.58-19.52-10.51-2.01-20.83-5.33-31.67-5.42h.01zm314.99-315.29c12.74-1.2 25.47-2.55 38.04-4.99 20.28-3.94 37.61-13.8 53.11-27.11 17.63-15.14 34.28-31.15 44.83-52.36.12-.23.51-.32 1.1-.68-3.09 16.61-7.38 32.63-12.56 48.42-9.15 27.89-22.27 54.1-34.13 80.84-16.08 36.24-30.22 73.14-37.86 112.23-4.06 20.79-5.94 41.81-6.85 62.94-3.51-.63-2.9-3.91-3.35-6.01-3.93-18.42-7.55-36.91-11.38-55.36-.37-1.76-.19-4.18-2.85-4.7 3.08-15.6 7.05-31.01 9.41-46.75 3.39-22.58 5.93-45.17 1.58-67.93-.91-4.75-2.5-9.28-4.41-13.72-5.32-12.38-15.17-17.84-28.16-18.52-2.16-.11-4.32-.08-6.48-.11-.02-2.06-.04-4.12-.05-6.18z" fill="#ec0000"/><path d="M487.63 373.04c9.14 1.09 18.29 2.15 27.42 3.29 12.07 1.51 24.13 3.08 36.19 4.67 4.72.62 9.43 1.36 14.15 2.04-.44 1.03-1.31 1.97-.82 3.21 2.65 6.82 2.33 13.92 1.96 21.01-.16 2.97-.66 5.94-.52 8.88.06 1.22-.24 3.21 1.64 3.77 1.62.48 2.81-.48 3.96-1.52 2.5-2.25 4.33-4.92 5.74-7.99 3.72-8.15 3.3-16.77 3.25-25.38 12.91.37 25.57 2.91 38.37 4.31 9.67 1.06 19.3 2.49 28.95 3.76-7.93 9.68-17.05 18.02-27.25 25.33-21.16 15.17-44.46 23.66-70.63 23.65-42.92-.03-77.78-25.17-91.4-65.83-.68-2.04-1.25-4.13-1.87-6.19 6.52.66 13.04 1.33 19.56 1.99-2.92 7.69-4.37 15.61-3.97 23.86.17 3.47 1.03 6.19 4.99 6.85 3.82.64 6.42-.89 8.01-4.32 2.22-4.76 1.53-9.79 1.07-14.71-.35-3.71-.01-7.22 1.21-10.69h-.01zm.65 510.49c13.02-1.27 25.85-1.28 38.61-2.63 9.43-1 17.66-4.51 24.35-11.33 1.52-1.55 2.74-3.34 3.52-5.4.9-2.36 2.21-5.22.31-7.04-1.84-1.77-3.66 1.05-5.48 1.84-10.23 4.43-21.06 6.2-32.07 6.7-20.42.93-40.57-.95-60.24-6.82-1.45-.43-2.82-.87-3.88-2.08-11.33-12.93-21.85-26.42-29.25-42.08-.19-.41-.23-.88-.36-1.4.43 0 .81-.12.95.02 15.31 14.35 34.81 16.76 54.34 19.65 30.17 4.47 54.6-7.56 77.04-25.68 3.04-2.46 3.98-2.66 5.57 1.25 9.38 23.04 20.9 44.88 37.44 63.71 2.16 2.45.51 3.09-.99 4.51-13.94 13.14-31.21 17.04-49.53 18.03-11.8.63-23.6 1.66-35.42.19-9.52-1.19-16.88-6.99-24.92-11.44z" fill="#f9cc00"/><path d="M661.55 705.6c-.46-3.38 2.56-4.04 4.46-5.32 24.12-16.17 48.34-32.18 72.46-48.34 27.98-18.75 55.87-37.63 83.81-56.43 12.25-8.24 24.52-16.44 36.82-24.6 1.77-1.17 3.31-2.84 5.62-3.04 8.94 7.04 14.4 16.35 17.68 27.09-9.17 4.68-17.18 11.14-25.68 16.84-38.84 26.02-77.71 51.99-116.54 78.02-1.57 1.05-3.79 1.69-3.76 4.23-15.29 5.1-31.01 8.25-47.02 9.8-9.25.9-18.56 1.19-27.85 1.76zm21.04 124.29c.83-3.39 4.02-3.14 6.36-3.81 36.31-10.44 72.66-20.76 109-31.13 44.62-12.74 89.24-25.49 133.85-38.28 1.64-.47 3.21-.8 4.89-.63-.62 6.14-5.28 9.94-8.92 13.97-10.16 11.23-21.23 21.63-34.23 29.54-14.44 8.78-30.26 14.4-46.38 19.38-39.3 12.14-79.66 14.68-120.4 13.89-13.78-.27-27.55-1.31-41.32-2.06-.96-.05-1.89-.58-2.83-.88h-.02z" fill="#fd5700"/><path d="M250.67 614.99c-1.31-8.36 2.71-14.77 8.56-19.65 13.05-10.9 28.04-15.74 45.34-13.93 6.2.65 9.34 3.01 12.52 8.07 6.87 10.97 14.18 21.76 24.59 29.92 14.08 11.03 29.82 19.03 46.34 25.61 4.78 1.9 9.71 3.42 14.6 5.02 1.97.64 3.35 1.23 2.04 3.73-3.69 7.05-5.04 15-8.26 22.24-13.26-5.67-26.51-11.37-39.78-17.02-28.99-12.34-57.93-24.78-87.01-36.9-6.2-2.59-11.96-6.55-18.95-7.09z" fill="#ec0000"/><path d="M571.61 613.88c2.66.52 2.49 2.94 2.85 4.7 3.83 18.45 7.45 36.94 11.38 55.36.45 2.1-.16 5.38 3.35 6.01.09 18.81-.12 37.61 1.03 56.41 1.78 29.25 9.23 56.98 20.82 83.77 5.01 11.59 9.67 23.34 14.39 35.05.84 2.09 2.21 4.51.24 6.56-2.17 2.26-4.98 1.41-7.5.58-7.89-2.61-13.54-8.1-18.49-14.53-6.61-8.58-12.45-17.59-16.28-27.8 1.73-1.49 1.02-3.25.65-5.05-7.54-36.73-14.99-73.48-22.71-110.17-.47-2.23.65-5.55-2.7-6.81-.22-18.84 2.74-37.33 6.34-55.73 1.86-9.52 4.4-18.91 6.63-28.36z" fill="#fd5700"/><path d="M634.47 623.22c-7.35 1.73-14.82 1.66-22.3 1.67-3.63 0-2.07-2.11-1.59-3.57 4.37-13.41 12.04-24.77 21.91-34.71 13.02-13.12 28.28-23.2 44.2-32.34 24.7-14.18 50.22-26.67 76.86-36.81 3.26-1.24 6.57-2.4 9.94-3.26 9.52-2.44 15.01.51 18.76 9.84-1.56.12-2.8.95-4.06 1.78-46.61 30.89-93.22 61.78-139.85 92.65-1.83 1.21-3.8 2.18-3.86 4.77v-.02z" fill="#ec0000"/><path d="M228.52 775.96c10.85.09 21.16 3.41 31.67 5.42 32.9 6.3 65.72 12.99 98.58 19.52 12.46 2.48 24.95 4.86 37.39 7.45 1.82.38 3.59.5 5.41.61 4.32 9.02 8.64 18.05 12.93 27-.9 1.5-2.2.95-3.23.96-15.81.04-31.66.79-47.42-.15-42.04-2.51-80.83-14.55-114.35-41.12-7.56-5.99-15.14-11.89-20.98-19.68z" fill="#fd5700"/><path d="M329.05 559.82c2.06-16.27 13.33-26.41 30.72-27.79 6.76-.54 13.31.11 19.43 3.16 22.61 11.26 44.73 23.38 65.72 37.51 3.03 2.04 3.61 3.76 1.79 7.13-5.5 10.18-10.02 20.9-17.05 30.22-4.82-2.59-9.58-5.29-14.47-7.74a35237.33 35237.33 0 0 0-80.18-40.1c-1.92-.96-3.73-2.21-5.97-2.39z" fill="#ec0000"/><path d="M634.47 623.22c.06-2.59 2.04-3.56 3.86-4.77 46.63-30.86 93.24-61.76 139.85-92.65 1.25-.83 2.5-1.66 4.06-1.78 3.35 11.46 1.82 22.09-4.24 32.51-5.84 10.02-15.15 15.63-24.62 21.02-33.37 18.99-67.7 35.74-105.63 43.72-4.38.92-8.77 1.89-13.28 1.94zm-383.8-8.23c6.99.53 12.74 4.5 18.95 7.09 29.08 12.12 58.02 24.56 87.01 36.9 13.27 5.65 26.52 11.34 39.78 17.02-2.25 7.99-4.49 15.98-6.74 23.97-17.09-7.21-34.21-14.37-51.28-21.64-19.37-8.24-38.71-16.57-58.05-24.88-1.02-.44-1.53.13-2.04.83-10.89-9.32-19.94-20.1-26.1-33.13-.9-1.91-1.85-3.91-1.52-6.17h-.01zm78.38-55.17c2.24.18 4.05 1.43 5.97 2.39 26.74 13.35 53.47 26.7 80.18 40.1 4.89 2.45 9.65 5.15 14.47 7.74-4.49 8.31-10.01 15.97-15.14 23.88-1.04 1.6-2.1 2.38-4.07 1.69-24.03-8.47-48-17.14-66.51-35.78-10.92-11-17.01-24.04-14.9-40.02z" fill="#fd5700"/><path d="M345.37 850.43c12.6.61 24.69 1.07 36.75 1.82 12.13.76 24.27.87 36.4.35 3.44-.15 5.47.92 7.46 3.56 5.3 7.04 10.87 13.87 16.29 20.81 1.22 1.57 2.43 3.18 3.38 4.92 2.7 4.97 2.64 4.94-2.98 5.16-21.47.84-42.89 1.09-63.81-5.04-3.02-.89-5.99-2.2-9.07-2.61-12.29-1.63-17.85-10.22-21.78-20.56-.99-2.6-1.67-5.31-2.63-8.41zm369.58 37.4c-8.47 0-15.79-.18-23.1.07-4.16.14-5.34-.54-3.12-4.72 4.98-9.37 10.35-18.57 14.32-28.45 2.23-5.57 6.41-8.19 12.52-7.86 17.77 1.02 35.55 1.85 53.34 1.38 3.95-.1 4.16 1.47 3.34 4.39-3.57 12.67-11.54 22.51-20.46 31.73-1.42 1.47-3.32 1.4-5.12 1.52-10.95.69-21.9 1.34-31.72 1.94zm21.46-193.79c-.03-2.54 2.19-3.18 3.76-4.23 38.83-26.03 77.7-52 116.54-78.02 8.51-5.7 16.51-12.16 25.68-16.84 1.04 1.52 1.29 2.92-.1 4.48-6.73 7.57-11.9 16.26-19 23.7-22.28 23.38-49.18 39.44-78.13 52.8-15.81 7.29-31.92 13.62-48.75 18.11zm201.28 108.98c-16.34 33.03-44.54 51.23-78.48 62.41 2.79-4.3 5.61-8.57 8.37-12.89 4.17-6.53 7.05-13.57 7.77-21.33.19-2.07.9-3.29 2.7-4.28 11.5-6.36 22.33-13.79 33.11-21.27 5.27.78 10.09-1.52 15.14-2.15 3.75-.47 7.49-3.3 11.39-.48zM816.6 680.25c.56 7.28 1.12 14.73 1.72 22.17.16 1.95-.16 3.38-2.16 4.46-20.38 11.08-42.03 18.85-64.32 25-.11.03-.27-.15-.79-.46 2.5-6.68 2.3-13.72 1.57-20.79-.18-1.7-.18-3.09 2.07-3.81 20.34-6.46 38.93-16.91 58.24-25.7 1.01-.46 1.95-1.37 3.67-.86zm30.88 157.57c-2.32 14.1-9.76 24.7-18.63 34.52-.42.47-1.08.79-1.69.99-15.93 5.38-32.35 8.1-49.83 9.64 3.47-5.32 6.62-9.97 9.56-14.74 2.88-4.66 6.38-9.17 8.07-14.25 1.92-5.75 5.5-7.25 10.79-8.04 13.79-2.06 27.55-4.33 41.73-8.13zM658.19 726.65c-1.41-4.27 0-5.58 4.6-5.9 21.04-1.49 42.14-2.69 62.91-6.75 3.5-.68 5.37-.91 4.18 4.07-4.35 18.11-4.13 18.27-22.13 21.3-17.45 2.93-35.14 2.63-53.21 3.75 1.18-3.27 2.21-6.12 3.24-8.98 5.88-.75 11.76-1.45 17.62-2.3 1.24-.18 2.83-.62 2.92-2.23.11-2-1.66-1.5-2.86-1.81-5.69-1.46-11.51-.74-17.26-1.13v-.02zM280.3 672.26c13.01 12.29 28.69 18.46 43.22 26.5 2.18 1.21 2.14 2.73 1.8 4.54-.92 5.04-3.03 9.84-2.7 15.13.15 2.35-1.66 1.56-2.79 1.27-15.32-3.87-29.14-10.75-41.54-20.54-1.74-1.37-1.79-2.97-1.78-4.82.05-7.2 2.18-14.01 3.78-22.09h.01zm-2.01-17.97c.51-.7 1.03-1.27 2.04-.83 19.35 8.3 38.68 16.63 58.05 24.88 17.07 7.26 34.18 14.43 51.28 21.64-.29.74-.92 1.52-.83 2.21.54 4.12-1.35 4.03-4.63 3.37-22.77-4.61-43.82-13.75-64.38-24.16-14.82-7.5-29.11-15.89-41.53-27.1zm-5.44 168.55c9.09 3.25 17.14 7.56 25.36 11.47 9.15 4.35 18.14 9.07 27.97 11.78 1.6.44 2.61 1.26 3.09 2.85 2.04 6.88 5.2 13.26 8.81 19.45-1.73 1.28-3.01.02-4.24-.49-15.83-6.46-31.27-13.81-46.45-21.63-9.04-4.66-16.33-11.05-14.53-23.44h-.01zm568.76-130.33c-.19-8.47-1.04-15.88-2.95-23.15-.39-1.46-.52-2.78 1.18-3.85 14.87-9.38 27.16-21.87 40.18-33.48.21-.19.58-.2 1.32-.43-.34 10.63-2.69 20.3-9.14 28.82-8.24 10.88-17.34 20.93-27.63 29.9-.71.62-1.52 1.12-2.97 2.18h.01zM335.88 704.7c13.72 5.55 27.82 9.21 42.26 11.68 9.52 1.62 9.16 1.78 10.37 11.39.61 4.84-1.11 5.36-5.18 5.4-15.84.15-31.02-3.48-46.15-7.52-2.07-.55-3.06-1.53-2.98-3.79.21-5.64.09-11.31 1.68-17.15z" fill="#f9cc00"/><path d="M191.76 854.92c12.72-16.67 30.09-23.75 50.52-24.56 1.85-.07 3.17.9 4.48 1.88 4.65 3.48 9.15 7.14 12.96 11.56l-34.23 5.61c-11.25 1.84-22.49 3.68-33.74 5.51z" fill="#ec0000"/><path d="M558.64 697.97c3.34 1.26 2.23 4.58 2.7 6.81 7.72 36.69 15.17 73.44 22.71 110.17.37 1.8 1.08 3.56-.65 5.05-6.74-13.6-10.91-28.11-15.15-42.59-7.59-25.94-10.78-52.43-9.6-79.44z" fill="#f9cc00"/><path d="M241.95 628.81c5.59 10.45 11.26 19.57 20.05 26.23 1.39 1.06.69 2.46.59 3.67-.6 6.97-1.42 13.91-1.95 20.88-.22 2.86-1.53 2.62-3.13 1.39-5.67-4.36-11.26-8.82-16.88-13.25-1.22-.96-.97-2.38-1.18-3.67-1.96-11.59.27-22.88 2.5-35.26zM650.02 863c-5.66-7.41-10.06-15.5-13.61-24.77 6.01 1.29 11.51 2.67 17.08 3.64 10.13 1.76 20.37 2.62 30.64 3.19 6.08.34 6.1.4 4.03 6.29-.43 1.22-1.07 2.37-1.61 3.55-12.34 1.94-24.49 4.76-36.52 8.09h-.01zm-458.26-8.08c11.25-1.84 22.49-3.67 33.74-5.51l34.23-5.61 6.97 5.89c-2.01 1.65-4.56 1.58-6.91 2.18-3.08.79-6.56-.02-9.24 2.31-11.97.99-24.04 1.14-35.68 4.65-4.09 1.23-8.17 2.51-12.26 3.77-1.79-1.32-3.72-.74-5.62-.42-3.82.65-7.57 1.75-11.49 1.63 1.44-3.43 3.87-6.16 6.26-8.91z" fill="#fd5700"/><path d="M639.39 734.25c-.59 4.54-2.96 6.23-7.66 5.71-6.76-.75-13.59-1-20.39-1.28-2.24-.09-3.4-.94-3.67-3.11-.08-.66-.15-1.32-.25-1.98-2.39-14.84-2.12-15.1 12.58-14.18 4.97.31 9.97.33 14.95.41 7.68.12 7.68.09 6.41 7.72-5.64.18-11.21.87-16.71 2.11-1.31.29-2.9.41-2.84 2.13.06 1.64 1.71 1.1 2.73 1.42 4.87 1.52 9.9.65 14.85 1.04zM650.02 863c12.03-3.34 24.18-6.16 36.52-8.09-2.83 9.63-7.3 18.32-14.24 25.71-2.19 2.33-3.82 2.26-6.18.4-6.45-5.06-11.72-11.13-16.09-18.02z" fill="#f9cc00"/><path d="M937.69 803.02c-3.91-2.82-7.64.01-11.39.48-5.05.63-9.87 2.93-15.14 2.15 11.8-9.51 21.85-20.51 29.04-34.2-.56 10.63 1.85 21.35-2.5 31.56z" fill="#fd5700"/><path d="M245.63 803.69c.29.16.61.28.87.48 3.8 2.98 8.16 5.48 11.23 9.08 3.19 3.75-1.75 8.86.87 13.52-9.91-6.02-17.76-13.77-24.22-22.98 3.74-1.87 7.52 1.01 11.27-.1z" fill="#f9cc00"/><path d="M245.63 803.69c-3.74 1.12-7.53-1.77-11.27.1-4.89-5.26-8.17-11.67-12.1-17.87 8.45 5.03 16 11.27 23.36 17.77zm297.88-343.02c.02 2.06.03 4.12.05 6.18-6.76 1.08-13.2 3.16-19.43 6.21.64-8.18 8.63-13.21 19.38-12.39zm114.68 265.98c5.75.39 11.57-.33 17.26 1.13 1.2.31 2.97-.19 2.86 1.81-.09 1.61-1.68 2.05-2.92 2.23-5.86.85-11.75 1.55-17.62 2.3.14-2.49.27-4.98.41-7.47zm-18.8 7.6c-4.94-.39-9.97.48-14.85-1.04-1.02-.32-2.67.22-2.73-1.42-.06-1.72 1.53-1.84 2.84-2.13 5.51-1.24 11.08-1.92 16.71-2.11.03 2.43-.71 4.65-1.98 6.7z" fill="#fd5700"/><path d="M185.5 863.83c3.93.12 7.68-.98 11.49-1.63 1.9-.33 3.83-.9 5.62.42-6.95 2.94-13.9 5.87-21.82 9.22 1.56-3.55 2.9-5.9 4.71-8zm65.05-9.64c2.68-2.34 6.17-1.52 9.24-2.31 2.35-.6 4.89-.53 6.91-2.18 2.56 1.52 5.13 3.04 7.58 4.5h-23.73z" fill="#f9cc00"/><path d="M580.59 385.03c.05 8.6.48 17.23-3.25 25.38-1.4 3.07-3.24 5.74-5.74 7.99-1.15 1.04-2.34 2-3.96 1.52-1.89-.56-1.59-2.55-1.64-3.77-.14-2.95.37-5.92.52-8.88.37-7.1.7-14.19-1.96-21.01-.48-1.24.38-2.18.82-3.21 1.27-3.37 2.21-7.27 6.89-7.08 5.61.23 6.58 5.08 8.31 9.07h.01zm-92.96-11.99c-1.23 3.47-1.56 6.98-1.21 10.69.46 4.92 1.14 9.95-1.07 14.71-1.59 3.43-4.19 4.95-8.01 4.32-3.96-.66-4.82-3.37-4.99-6.85-.4-8.26 1.05-16.18 3.97-23.86 1.52-1.95 2.92-4.01 4.59-5.82 1.09-1.18 2.54-2.41 4.34-1.72 2 .77 2.23 2.68 2.27 4.57.03 1.32.07 2.64.11 3.97zm55.95-195.51c.46-7.86 1.95-14.85 8.82-19.46 6.35-4.26 13.11-4.13 18.83.89 8.9 7.81 10.58 19.7 4.32 30.33-1.04 1.77-2.68 3.82-5.14 2.6-2.3-1.15-3.6-2.72-1.93-5.91 1.67-3.2.06-6.22-3.41-7.56-3.05-1.18-7.32.98-8.02 3.92-.85 3.57.2 6.25 4.08 7.22.8.2 1.64.29 2.44.49 2.43.59 3.54 2.48 3.96 4.64.42 2.22-1.48 3.2-3.06 4.08-4.73 2.67-10.14 1.49-14.37-3.15-4.74-5.21-6.11-11.65-6.52-18.09zm74.27 6.77c-.83 8.58-5.17 15.52-13.27 19.79-5.26 2.78-14.61-2.65-14.69-8.52-.05-3.65 2.71-4.5 5.94-4.11 4.88.59 8.16-2.45 7.49-7.08-.4-2.77-1.51-5.2-4.87-5.38-3.31-.18-4.53 1.83-5.42 4.71-.79 2.58 1.21 6.08-2.92 7.73-2.44.98-3.58.64-4.85-1.44-6.53-10.74.66-26.8 13.05-29.08 5.52-1.01 9.78 1.17 13.15 5.32 4.12 5.08 6.06 11 6.37 18.07h.02z" fill="#020101"/></svg>