<?xml version="1.0" encoding="UTF-8"?>
<svg id="ring_mid_copy" data-name="ring_mid copy" xmlns="http://www.w3.org/2000/svg" viewBox="0 0 40 40">
  <defs>
    <style>
      .cls-1 {
        fill: #fff;
      }

      .cls-2 {
        fill: #f15a29;
      }

      .cls-3 {
        fill: #fbb040;
      }

      .cls-4 {
        fill: #32bcab;
      }
    </style>
  </defs>
  <path id="bot" class="cls-4" d="m0,26.04c7,5.96,23,5.96,30-.04v7c-7,6-23,6-30,0"/>
  <path id="mid" class="cls-3" d="m0,16.04c7,4.96,23,4.96,30-.04v7c-7,6-23,6-30,0"/>
  <path id="top" class="cls-2" d="m0,6.04c7-5.04,23-5.04,30-.04v7c-7,5-23,5-30,0"/>
  <path id="hand" class="cls-2" d="m39.96,21.92c-.56.03-.99.12-1.27.26s-.53.38-.73.72c-.2.34-.35.76-.43,1.27-.06.38-.09,1.04-.09,1.98,0,1.54-.07,2.62-.2,3.24-.13.61-.38,1.1-.75,1.47s-.89.66-1.6.88c-.47.14-1.21.21-2.22.21h-.61v-2.87c.83,0,1.37-.05,1.62-.16.25-.11.44-.26.56-.47.12-.2.18-.55.19-1.03s.04-1.41.1-2.78c.04-.83.14-1.49.31-1.99.17-.5.4-.92.68-1.27.28-.35.64-.65,1.08-.91-.57-.38-.99-.76-1.25-1.12-.36-.53-.61-1.19-.74-2.01-.08-.56-.15-1.78-.19-3.68,0-.6-.06-1-.16-1.19-.1-.2-.27-.35-.52-.46-.25-.11-.81-.16-1.68-.16v-2.85h.61c1.04,0,1.84.08,2.39.25.56.17,1.02.45,1.4.85s.63.9.77,1.48.2,1.51.2,2.76c0,1.46.06,2.41.17,2.85.17.64.43,1.09.77,1.37.35.27.88.43,1.58.47v2.87Z"/>
  <polyline id="arrow" class="cls-1" points="25 10 12 10 6 5 18 5"/>
  <polygon id="hole" class="cls-2" points="9 6 13 9 17 6 9 6"/>
</svg>