<svg width="40" height="40" viewBox="0 0 40 40" fill="none" xmlns="http://www.w3.org/2000/svg">
<g clip-path="url(#clip0_185_2)">
<path d="M31.0321 31.0145C30.4308 31.0145 29.9433 30.527 29.9433 29.9257V11.1624H10.0566V29.9258C10.0566 30.5271 9.56913 31.0145 8.96782 31.0145C8.3665 31.0145 7.87903 30.5271 7.87903 29.9258V10.0737C7.87903 9.47234 8.3665 8.98486 8.96782 8.98486H31.032C31.6333 8.98486 32.1208 9.47234 32.1208 10.0737V29.9258C32.1208 30.5271 31.6333 31.0145 31.0321 31.0145Z" fill="#222429"/>
<path d="M8.96818 17.0421C12.8166 17.0421 15.9364 13.9223 15.9364 10.0739C15.9364 6.22547 12.8166 3.10571 8.96818 3.10571C5.11976 3.10571 2 6.22547 2 10.0739C2 13.9223 5.11976 17.0421 8.96818 17.0421Z" fill="#F3AE42"/>
<path d="M30.0517 3.51182L24.4702 9.09323C23.9287 9.63477 23.9287 10.5126 24.4702 11.0541L30.0516 16.6354C30.5931 17.177 31.471 17.177 32.0125 16.6354L37.5938 11.0541C38.1353 10.5126 38.1353 9.6347 37.5938 9.09323L32.0125 3.51182C31.4711 2.97034 30.5931 2.97034 30.0517 3.51182Z" fill="#F3AE42"/>
<path d="M14.1243 22.9578H3.8116C2.81105 22.9578 2 23.7687 2 24.7693V35.0819C2 36.0824 2.81105 36.8935 3.8116 36.8935H14.1243C15.1248 36.8935 15.9359 36.0824 15.9359 35.0819V24.7693C15.9359 23.7687 15.1247 22.9578 14.1243 22.9578Z" fill="#F3AE42"/>
<path d="M31.0319 36.8944C34.8803 36.8944 38.0001 33.7746 38.0001 29.9262C38.0001 26.0778 34.8803 22.958 31.0319 22.958C27.1835 22.958 24.0637 26.0778 24.0637 29.9262C24.0637 33.7746 27.1835 36.8944 31.0319 36.8944Z" fill="#F3AE42"/>
</g>
<defs>
<clipPath id="clip0_185_2">
<rect width="36" height="36" fill="white" transform="translate(2 2)"/>
</clipPath>
</defs>
</svg>
