<?xml version="1.0" encoding="UTF-8" standalone="no"?>

<svg width="10.583333mm" height="10.584441mm" viewBox="0 0 10.583333 10.584441" version="1.1" id="quarkusPluginIcon"
     xmlns="http://www.w3.org/2000/svg">
    <defs id="defs2">
        <style id="style824">.cls-1{fill:#091313;}.cls-2{fill:#4695eb;}.cls-3{fill:#ff004a;}</style>
    </defs>
    <g id="layer1" transform="translate(-7.2908176,-7.308545)">
        <g id="g864" transform="matrix(0.26458333,0,0,0.26458333,7.0262343,7.0439617)">
            <polygon class="cls-2" points="96.61,51.59 126.05,68.59 126.05,34.6 " id="polygon830"
                     transform="matrix(0.20920503,0,0,0.20920503,0.79079497,0.79079497)"/>
            <polygon class="cls-3" points="67.17,68.59 96.61,51.59 67.17,34.6 " id="polygon832"
                     transform="matrix(0.20920503,0,0,0.20920503,0.79079497,0.79079497)"/>
            <polygon class="cls-1" points="96.61,51.59 67.17,68.59 96.61,85.59 126.05,68.59 " id="polygon834"
                     transform="matrix(0.20920503,0,0,0.20920503,0.79079497,0.79079497)"/>
            <polygon class="cls-2" points="65.57,105.36 65.57,71.37 36.13,88.36 " id="polygon836"
                     transform="matrix(0.20920503,0,0,0.20920503,0.79079497,0.79079497)"/>
            <polygon class="cls-3" points="95.01,122.36 65.57,105.36 65.57,139.35 " id="polygon838"
                     transform="matrix(0.20920503,0,0,0.20920503,0.79079497,0.79079497)"/>
            <polygon class="cls-1" points="65.57,105.36 95.01,122.36 95.01,88.36 65.57,71.37 " id="polygon840"
                     transform="matrix(0.20920503,0,0,0.20920503,0.79079497,0.79079497)"/>
            <polygon class="cls-2" points="127.65,105.36 98.21,122.36 127.65,139.35 " id="polygon842"
                     transform="matrix(0.20920503,0,0,0.20920503,0.79079497,0.79079497)"/>
            <polygon class="cls-3" points="127.65,71.37 127.65,105.36 157.09,88.36 " id="polygon844"
                     transform="matrix(0.20920503,0,0,0.20920503,0.79079497,0.79079497)"/>
            <polygon class="cls-1" points="127.65,105.36 127.65,71.37 98.21,88.36 98.21,122.36 " id="polygon846"
                     transform="matrix(0.20920503,0,0,0.20920503,0.79079497,0.79079497)"/>
            <path class="cls-2"
                  d="M 34.368203,1 H 7.6359835 A 6.6548121,6.6548121 0 0 0 1,7.6359835 V 34.368203 a 6.6548121,6.6548121 0 0 0 6.6359835,6.635983 H 25.943516 l -4.941423,-12.002095 -3.583682,7.57741 H 7.6359835 A 2.2405859,2.2405859 0 0 1 5.4246865,34.368203 V 7.6359835 a 2.2405859,2.2405859 0 0 1 2.211297,-2.211297 H 34.368203 a 2.2405859,2.2405859 0 0 1 2.211298,2.211297 V 34.368203 a 2.2405859,2.2405859 0 0 1 -2.211298,2.211298 h -5.801257 l 1.822178,4.424685 h 3.974893 a 6.6548121,6.6548121 0 0 0 6.635984,-6.635983 V 7.6359835 A 6.6548121,6.6548121 0 0 0 34.368203,1 Z"
                  id="path848" style="stroke-width:0.209205"/>
        </g>
    </g>
</svg>