<?xml version="1.0" encoding="UTF-8"?>
<svg xmlns="http://www.w3.org/2000/svg" xmlns:xlink="http://www.w3.org/1999/xlink" width="11px" height="11px" viewBox="0 0 11 11" version="1.1">
<g id="surface1">
<path style=" stroke:none;fill-rule:nonzero;fill:rgb(90.196078%,86.27451%,82.352941%);fill-opacity:1;" d="M 8.261719 5.449219 C 8.628906 5.585938 10.242188 6.117188 10.242188 7.636719 C 10.242188 9.152344 8.933594 9.664062 7.964844 9.339844 C 6.828125 8.960938 5.5 6.117188 5.5 6.117188 L 5.5 5.167969 Z M 8.261719 5.449219 "/>
<path style=" stroke:none;fill-rule:nonzero;fill:rgb(100%,78.431373%,39.215686%);fill-opacity:1;" d="M 7.644531 9.175781 C 6.589844 8.457031 5.5 6.117188 5.5 6.117188 L 5.5 5.519531 L 5.738281 5.550781 C 5.738281 5.550781 8.28125 5.5625 8.597656 7.984375 C 8.710938 8.839844 8.265625 9.140625 7.644531 9.175781 Z M 7.644531 9.175781 "/>
<path style=" stroke:none;fill-rule:nonzero;fill:rgb(56.078431%,40%,30.196078%);fill-opacity:1;" d="M 9.484375 7.746094 C 8.9375 7.488281 8.632812 7.101562 8.335938 6.722656 C 7.839844 6.085938 7.324219 5.425781 5.738281 5.550781 L 5.53125 6.039062 C 6.59375 7.109375 8.46875 7.535156 8.546875 7.550781 C 8.550781 7.550781 8.550781 7.550781 8.550781 7.550781 C 8.761719 7.757812 9.019531 7.945312 9.347656 8.097656 C 9.417969 7.996094 9.460938 7.875 9.484375 7.746094 Z M 8.09375 7.027344 C 7.519531 6.84375 6.609375 6.488281 5.960938 5.917969 C 7.1875 5.875 7.585938 6.378906 8.039062 6.957031 C 8.054688 6.980469 8.074219 7.003906 8.09375 7.027344 Z M 8.09375 7.027344 "/>
<path style=" stroke:none;fill-rule:nonzero;fill:rgb(41.176471%,31.372549%,27.45098%);fill-opacity:1;" d="M 8.722656 8.394531 C 9.578125 8.429688 9.617188 7.414062 9.394531 6.835938 C 9.234375 6.414062 9.285156 6.207031 9.441406 6.066406 C 9.871094 6.40625 10.242188 6.90625 10.242188 7.636719 C 10.242188 9.152344 8.933594 9.664062 7.964844 9.339844 C 7.777344 9.277344 7.582031 9.144531 7.386719 8.972656 C 7.371094 8.574219 7.765625 8.351562 8.722656 8.394531 Z M 8.722656 8.394531 "/>
<path style=" stroke:none;fill-rule:nonzero;fill:rgb(41.176471%,31.372549%,27.45098%);fill-opacity:1;" d="M 5.519531 5.464844 C 5.601562 5.304688 7.5 1.566406 10.050781 1.566406 C 10.507812 1.566406 11 1.871094 11 2.324219 C 11 2.699219 10.6875 5.539062 9.515625 5.734375 C 9.394531 5.753906 9.273438 5.765625 9.144531 5.765625 C 8.738281 5.765625 8.28125 5.679688 7.839844 5.597656 C 7.039062 5.449219 6.207031 5.296875 5.824219 5.683594 C 5.757812 5.75 5.652344 5.757812 5.578125 5.703125 C 5.503906 5.648438 5.476562 5.546875 5.519531 5.464844 Z M 5.519531 5.464844 "/>
<path style=" stroke:none;fill-rule:nonzero;fill:rgb(90.196078%,86.27451%,82.352941%);fill-opacity:1;" d="M 6.070312 5.3125 C 6.699219 4.222656 8.230469 1.945312 10.039062 1.945312 C 10.339844 1.945312 10.621094 2.140625 10.621094 2.347656 C 10.621094 3.078125 10.183594 5.457031 9.429688 5.585938 C 8.996094 5.664062 8.417969 5.550781 7.855469 5.441406 C 7.226562 5.320312 6.585938 5.199219 6.070312 5.3125 Z M 6.070312 5.3125 "/>
<path style=" stroke:none;fill-rule:nonzero;fill:rgb(56.078431%,40%,30.196078%);fill-opacity:1;" d="M 7.914062 3.316406 C 7.742188 3.28125 7.542969 3.355469 7.320312 3.539062 C 7.503906 3.328125 7.699219 3.121094 7.910156 2.933594 C 7.9375 2.9375 7.960938 2.9375 7.988281 2.941406 C 8.050781 2.957031 8.109375 2.976562 8.164062 3 C 9.171875 2.371094 10.101562 2.199219 10.535156 2.152344 C 10.585938 2.210938 10.621094 2.28125 10.621094 2.347656 C 10.621094 2.402344 10.617188 2.460938 10.613281 2.527344 C 10.261719 2.5625 9.417969 2.699219 8.492188 3.246094 C 8.632812 3.402344 8.703125 3.558594 8.707031 3.578125 C 9.542969 3.371094 10.191406 3.40625 10.488281 3.441406 C 10.464844 3.5625 10.4375 3.6875 10.40625 3.816406 C 10.019531 3.777344 9.011719 3.753906 7.808594 4.292969 C 8.890625 4.3125 9.867188 4.511719 10.183594 4.582031 C 10.136719 4.707031 10.085938 4.828125 10.035156 4.9375 C 9.585938 4.84375 8.28125 4.597656 7.058594 4.691406 C 6.792969 4.859375 6.523438 5.054688 6.253906 5.28125 C 6.191406 5.289062 6.128906 5.296875 6.070312 5.3125 C 6.1875 5.109375 6.332031 4.867188 6.507812 4.605469 C 7.152344 4.144531 7.777344 3.855469 8.335938 3.679688 C 8.285156 3.582031 8.140625 3.359375 7.914062 3.316406 Z M 7.914062 3.316406 "/>
<path style=" stroke:none;fill-rule:nonzero;fill:rgb(100%,43.137255%,23.529412%);fill-opacity:1;" d="M 8.261719 9.179688 C 8.359375 9.085938 8.320312 8.890625 8.179688 8.75 C 8.035156 8.609375 7.84375 8.570312 7.75 8.664062 C 7.652344 8.761719 7.691406 8.953125 7.832031 9.097656 C 7.972656 9.238281 8.167969 9.277344 8.261719 9.179688 Z M 8.261719 9.179688 "/>
<path style=" stroke:none;fill-rule:nonzero;fill:rgb(100%,43.137255%,23.529412%);fill-opacity:1;" d="M 9.652344 8.839844 C 9.734375 8.757812 9.703125 8.59375 9.582031 8.472656 C 9.460938 8.351562 9.296875 8.320312 9.214844 8.402344 C 9.132812 8.484375 9.164062 8.648438 9.285156 8.769531 C 9.40625 8.890625 9.570312 8.921875 9.652344 8.839844 Z M 9.652344 8.839844 "/>
<path style=" stroke:none;fill-rule:nonzero;fill:rgb(100%,43.137255%,23.529412%);fill-opacity:1;" d="M 9.957031 8.359375 C 10.027344 8.289062 10 8.140625 9.890625 8.035156 C 9.785156 7.925781 9.640625 7.898438 9.566406 7.972656 C 9.492188 8.042969 9.523438 8.1875 9.628906 8.296875 C 9.738281 8.402344 9.882812 8.433594 9.957031 8.359375 Z M 9.957031 8.359375 "/>
<path style=" stroke:none;fill-rule:nonzero;fill:rgb(100%,43.137255%,23.529412%);fill-opacity:1;" d="M 10.039062 7.792969 C 10.105469 7.726562 10.078125 7.597656 9.984375 7.5 C 9.886719 7.402344 9.757812 7.378906 9.691406 7.445312 C 9.625 7.507812 9.652344 7.640625 9.746094 7.734375 C 9.84375 7.832031 9.976562 7.859375 10.039062 7.792969 Z M 10.039062 7.792969 "/>
<path style=" stroke:none;fill-rule:nonzero;fill:rgb(100%,43.137255%,23.529412%);fill-opacity:1;" d="M 9.972656 7.234375 C 10.03125 7.175781 10.007812 7.054688 9.917969 6.964844 C 9.828125 6.875 9.707031 6.851562 9.648438 6.910156 C 9.589844 6.972656 9.613281 7.09375 9.703125 7.183594 C 9.789062 7.269531 9.910156 7.292969 9.972656 7.234375 Z M 9.972656 7.234375 "/>
<path style=" stroke:none;fill-rule:nonzero;fill:rgb(100%,43.137255%,23.529412%);fill-opacity:1;" d="M 9.730469 6.703125 C 9.777344 6.652344 9.757812 6.554688 9.6875 6.484375 C 9.613281 6.414062 9.519531 6.394531 9.46875 6.441406 C 9.421875 6.492188 9.441406 6.585938 9.511719 6.660156 C 9.582031 6.730469 9.679688 6.75 9.730469 6.703125 Z M 9.730469 6.703125 "/>
<path style=" stroke:none;fill-rule:nonzero;fill:rgb(100%,43.137255%,23.529412%);fill-opacity:1;" d="M 9.101562 9.160156 C 9.210938 9.050781 9.167969 8.828125 9.003906 8.664062 C 8.839844 8.5 8.617188 8.457031 8.507812 8.570312 C 8.398438 8.679688 8.441406 8.902344 8.605469 9.066406 C 8.769531 9.230469 8.992188 9.273438 9.101562 9.160156 Z M 9.101562 9.160156 "/>
<path style=" stroke:none;fill-rule:nonzero;fill:rgb(90.196078%,86.27451%,82.352941%);fill-opacity:1;" d="M 2.738281 5.449219 C 2.371094 5.585938 0.757812 6.117188 0.757812 7.636719 C 0.757812 9.152344 2.066406 9.664062 3.035156 9.339844 C 4.171875 8.960938 5.5 6.117188 5.5 6.117188 L 5.5 5.167969 Z M 2.738281 5.449219 "/>
<path style=" stroke:none;fill-rule:nonzero;fill:rgb(100%,78.431373%,39.215686%);fill-opacity:1;" d="M 3.355469 9.175781 C 4.410156 8.457031 5.5 6.117188 5.5 6.117188 L 5.5 5.519531 L 5.261719 5.550781 C 5.261719 5.550781 2.71875 5.5625 2.402344 7.984375 C 2.289062 8.839844 2.734375 9.140625 3.355469 9.175781 Z M 3.355469 9.175781 "/>
<path style=" stroke:none;fill-rule:nonzero;fill:rgb(56.078431%,40%,30.196078%);fill-opacity:1;" d="M 1.652344 8.097656 C 1.980469 7.945312 2.238281 7.757812 2.449219 7.550781 C 2.449219 7.550781 2.449219 7.550781 2.453125 7.550781 C 2.53125 7.535156 4.40625 7.109375 5.46875 6.039062 L 5.261719 5.550781 C 3.675781 5.425781 3.160156 6.085938 2.664062 6.722656 C 2.367188 7.101562 2.0625 7.488281 1.515625 7.746094 C 1.539062 7.875 1.582031 7.996094 1.652344 8.097656 Z M 2.960938 6.957031 C 3.414062 6.378906 3.8125 5.875 5.039062 5.917969 C 4.390625 6.488281 3.480469 6.84375 2.90625 7.027344 C 2.925781 7.003906 2.945312 6.980469 2.960938 6.957031 Z M 2.960938 6.957031 "/>
<path style=" stroke:none;fill-rule:nonzero;fill:rgb(41.176471%,31.372549%,27.45098%);fill-opacity:1;" d="M 2.277344 8.394531 C 1.421875 8.429688 1.382812 7.414062 1.605469 6.835938 C 1.765625 6.414062 1.714844 6.207031 1.558594 6.066406 C 1.128906 6.40625 0.757812 6.90625 0.757812 7.636719 C 0.757812 9.152344 2.066406 9.664062 3.035156 9.339844 C 3.222656 9.277344 3.417969 9.144531 3.613281 8.972656 C 3.628906 8.574219 3.234375 8.351562 2.277344 8.394531 Z M 2.277344 8.394531 "/>
<path style=" stroke:none;fill-rule:nonzero;fill:rgb(41.176471%,31.372549%,27.45098%);fill-opacity:1;" d="M 5.480469 5.464844 C 5.398438 5.304688 3.5 1.566406 0.949219 1.566406 C 0.492188 1.566406 0 1.871094 0 2.324219 C 0 2.699219 0.3125 5.539062 1.484375 5.734375 C 1.605469 5.753906 1.726562 5.765625 1.855469 5.765625 C 2.261719 5.765625 2.71875 5.679688 3.160156 5.597656 C 3.960938 5.449219 4.792969 5.296875 5.175781 5.683594 C 5.242188 5.75 5.347656 5.757812 5.421875 5.703125 C 5.496094 5.648438 5.523438 5.546875 5.480469 5.464844 Z M 5.480469 5.464844 "/>
<path style=" stroke:none;fill-rule:nonzero;fill:rgb(90.196078%,86.27451%,82.352941%);fill-opacity:1;" d="M 3.144531 5.441406 C 2.582031 5.550781 2.003906 5.664062 1.570312 5.585938 C 0.816406 5.457031 0.378906 3.078125 0.378906 2.347656 C 0.378906 2.140625 0.660156 1.945312 0.960938 1.945312 C 2.769531 1.945312 4.300781 4.222656 4.929688 5.3125 C 4.414062 5.199219 3.773438 5.320312 3.144531 5.441406 Z M 3.144531 5.441406 "/>
<path style=" stroke:none;fill-rule:nonzero;fill:rgb(90.196078%,86.27451%,82.352941%);fill-opacity:1;" d="M 5.308594 5.074219 C 5.265625 5.074219 5.222656 5.039062 5.214844 4.992188 C 5.214844 4.980469 5.019531 3.761719 4.285156 2.761719 C 4.253906 2.71875 4.265625 2.660156 4.304688 2.628906 C 4.347656 2.597656 4.40625 2.605469 4.4375 2.648438 C 5.203125 3.6875 5.394531 4.914062 5.402344 4.964844 C 5.410156 5.015625 5.375 5.066406 5.324219 5.074219 C 5.320312 5.074219 5.316406 5.074219 5.308594 5.074219 Z M 5.308594 5.074219 "/>
<path style=" stroke:none;fill-rule:nonzero;fill:rgb(90.196078%,86.27451%,82.352941%);fill-opacity:1;" d="M 5.691406 5.074219 C 5.683594 5.074219 5.679688 5.074219 5.675781 5.074219 C 5.625 5.066406 5.589844 5.015625 5.597656 4.964844 C 5.605469 4.914062 5.796875 3.6875 6.5625 2.648438 C 6.59375 2.605469 6.652344 2.597656 6.695312 2.628906 C 6.734375 2.660156 6.746094 2.71875 6.714844 2.761719 C 5.976562 3.765625 5.785156 4.980469 5.785156 4.992188 C 5.777344 5.039062 5.734375 5.074219 5.691406 5.074219 Z M 5.691406 5.074219 "/>
<path style=" stroke:none;fill-rule:nonzero;fill:rgb(90.196078%,86.27451%,82.352941%);fill-opacity:1;" d="M 5.5 8.394531 C 5.394531 8.394531 5.308594 8.308594 5.308594 8.203125 L 5.308594 6.117188 C 5.308594 6.011719 5.394531 5.929688 5.5 5.929688 C 5.605469 5.929688 5.691406 6.011719 5.691406 6.117188 L 5.691406 8.203125 C 5.691406 8.308594 5.605469 8.394531 5.5 8.394531 Z M 5.5 8.394531 "/>
<path style=" stroke:none;fill-rule:nonzero;fill:rgb(81.176471%,75.686275%,70.588235%);fill-opacity:1;" d="M 5.5 6.308594 C 5.289062 6.308594 5.121094 6.136719 5.121094 5.929688 L 5.121094 5.167969 C 5.121094 4.960938 5.289062 4.789062 5.5 4.789062 C 5.710938 4.789062 5.878906 4.960938 5.878906 5.167969 L 5.878906 5.929688 C 5.878906 6.136719 5.710938 6.308594 5.5 6.308594 Z M 5.5 6.308594 "/>
<path style=" stroke:none;fill-rule:nonzero;fill:rgb(56.078431%,40%,30.196078%);fill-opacity:1;" d="M 3.085938 3.316406 C 3.257812 3.28125 3.457031 3.355469 3.679688 3.539062 C 3.496094 3.328125 3.300781 3.121094 3.089844 2.933594 C 3.0625 2.9375 3.039062 2.9375 3.011719 2.941406 C 2.949219 2.957031 2.890625 2.976562 2.835938 3 C 1.828125 2.371094 0.898438 2.199219 0.464844 2.152344 C 0.414062 2.210938 0.378906 2.28125 0.378906 2.347656 C 0.378906 2.402344 0.382812 2.460938 0.386719 2.527344 C 0.738281 2.5625 1.582031 2.699219 2.507812 3.246094 C 2.367188 3.402344 2.296875 3.558594 2.292969 3.578125 C 1.457031 3.371094 0.808594 3.40625 0.511719 3.441406 C 0.535156 3.5625 0.5625 3.6875 0.59375 3.816406 C 0.980469 3.777344 1.988281 3.753906 3.191406 4.292969 C 2.109375 4.3125 1.132812 4.511719 0.816406 4.582031 C 0.863281 4.707031 0.914062 4.828125 0.964844 4.9375 C 1.414062 4.84375 2.71875 4.597656 3.941406 4.691406 C 4.207031 4.859375 4.476562 5.054688 4.746094 5.28125 C 4.808594 5.289062 4.871094 5.296875 4.929688 5.3125 C 4.8125 5.109375 4.664062 4.867188 4.492188 4.605469 C 3.847656 4.144531 3.222656 3.855469 2.664062 3.679688 C 2.714844 3.582031 2.859375 3.359375 3.085938 3.316406 Z M 3.085938 3.316406 "/>
<path style=" stroke:none;fill-rule:nonzero;fill:rgb(100%,43.137255%,23.529412%);fill-opacity:1;" d="M 3.253906 8.664062 C 3.15625 8.570312 2.964844 8.609375 2.820312 8.75 C 2.679688 8.890625 2.640625 9.082031 2.738281 9.179688 C 2.832031 9.273438 3.027344 9.238281 3.167969 9.097656 C 3.308594 8.953125 3.347656 8.761719 3.253906 8.664062 Z M 3.253906 8.664062 "/>
<path style=" stroke:none;fill-rule:nonzero;fill:rgb(100%,43.137255%,23.529412%);fill-opacity:1;" d="M 1.785156 8.402344 C 1.703125 8.320312 1.539062 8.351562 1.417969 8.472656 C 1.296875 8.59375 1.265625 8.757812 1.347656 8.839844 C 1.429688 8.921875 1.59375 8.890625 1.714844 8.769531 C 1.835938 8.648438 1.867188 8.480469 1.785156 8.402344 Z M 1.785156 8.402344 "/>
<path style=" stroke:none;fill-rule:nonzero;fill:rgb(100%,43.137255%,23.529412%);fill-opacity:1;" d="M 1.433594 7.972656 C 1.359375 7.898438 1.214844 7.925781 1.109375 8.035156 C 1 8.140625 0.972656 8.289062 1.042969 8.359375 C 1.117188 8.433594 1.261719 8.40625 1.371094 8.296875 C 1.476562 8.1875 1.507812 8.042969 1.433594 7.972656 Z M 1.433594 7.972656 "/>
<path style=" stroke:none;fill-rule:nonzero;fill:rgb(100%,43.137255%,23.529412%);fill-opacity:1;" d="M 1.308594 7.445312 C 1.246094 7.378906 1.113281 7.402344 1.015625 7.5 C 0.921875 7.597656 0.894531 7.726562 0.960938 7.792969 C 1.023438 7.859375 1.15625 7.832031 1.253906 7.734375 C 1.347656 7.640625 1.375 7.507812 1.308594 7.445312 Z M 1.308594 7.445312 "/>
<path style=" stroke:none;fill-rule:nonzero;fill:rgb(100%,43.137255%,23.529412%);fill-opacity:1;" d="M 1.351562 6.910156 C 1.292969 6.851562 1.171875 6.875 1.082031 6.964844 C 0.992188 7.054688 0.96875 7.175781 1.027344 7.234375 C 1.089844 7.292969 1.210938 7.269531 1.296875 7.183594 C 1.386719 7.09375 1.410156 6.972656 1.351562 6.910156 Z M 1.351562 6.910156 "/>
<path style=" stroke:none;fill-rule:nonzero;fill:rgb(100%,43.137255%,23.529412%);fill-opacity:1;" d="M 1.53125 6.441406 C 1.480469 6.394531 1.382812 6.414062 1.3125 6.484375 C 1.242188 6.554688 1.222656 6.652344 1.269531 6.703125 C 1.320312 6.75 1.417969 6.730469 1.488281 6.660156 C 1.558594 6.589844 1.578125 6.492188 1.53125 6.441406 Z M 1.53125 6.441406 "/>
<path style=" stroke:none;fill-rule:nonzero;fill:rgb(100%,43.137255%,23.529412%);fill-opacity:1;" d="M 2.492188 8.566406 C 2.382812 8.457031 2.160156 8.5 1.996094 8.664062 C 1.832031 8.828125 1.789062 9.050781 1.898438 9.160156 C 2.007812 9.273438 2.230469 9.230469 2.394531 9.066406 C 2.558594 8.902344 2.601562 8.679688 2.492188 8.566406 Z M 2.492188 8.566406 "/>
</g>
</svg>
