<?xml version="1.0" encoding="UTF-8" standalone="no"?>
<svg id="redis-pro" version="1.1"
     height="64" width="64" viewBox="0 0 32 32"
     xmlns:xlink="http://www.w3.org/1999/xlink"
     xmlns="http://www.w3.org/2000/svg">

    <g id="g24" transform="matrix(.8248327 0 0 .828327 -7.883573 -9.449691)">
        <use id="use2" fill="#a41e11" xlink:href="#B"/>
        <path id="path4" fill="#d82c20"
              d="M45.536 34.95c-2.013 1.05-12.44 5.337-14.66 6.494s-3.453 1.146-5.207.308-12.85-5.32-14.85-6.276-2.04-1.613-.077-2.382l15.332-5.936c2.332-.836 3.14-.867 5.126-.14S43.55 31.87 45.51 32.6s2.037 1.31.024 2.36z"/>
        <use id="use6" fill="#a41e11" y="-6.218" xlink:href="#B"/>
        <use id="use8" fill="#d82c20" xlink:href="#C"/>

        <path id="path10" fill="#a41e11"
              d="M45.536 26.098c-2.013 1.05-12.44 5.337-14.66 6.495s-3.453 1.146-5.207.308-12.85-5.32-14.85-6.276c-1-.478-1.524-.88-1.524-1.26V21.55s14.447-3.145 16.78-3.982 3.14-.867 5.126-.14 13.853 2.868 15.814 3.587v3.76c0 .377-.452.8-1.477 1.324z"/>
        <use id="use12" fill="#d82c20" y="-6.449" xlink:href="#C"/>

        <g id="g18" fill="#fff">
            <path id="path14"
                  d="M29.096 20.712l-1.182-1.965-3.774-.34 2.816-1.016-.845-1.56 2.636 1.03 2.486-.814-.672 1.612 2.534.95-3.268.34zM22.8 24.624l8.74-1.342-2.64 3.872z"/>
            <ellipse id="ellipse16" cx="20.444" rx="4.672" ry="1.811" cy="21.402"/>
        </g>

        <path id="path20" fill="#7a0c00" d="M42.132 21.138l-5.17 2.042-.004-4.087z"/>
        <path id="path22" fill="#ad2115" d="M36.963 23.18l-.56.22-5.166-2.042 5.723-2.264z"/>
    </g>

    <defs id="defs28">
        <path id="B"
              d="M45.536 38.764c-2.013 1.05-12.44 5.337-14.66 6.494s-3.453 1.146-5.207.308-12.85-5.32-14.85-6.276c-1-.478-1.524-.88-1.524-1.26v-3.813s14.447-3.145 16.78-3.982 3.14-.867 5.126-.14 13.853 2.868 15.814 3.587v3.76c0 .377-.452.8-1.477 1.324z"/>
        <path id="C"
              d="M45.536 28.733c-2.013 1.05-12.44 5.337-14.66 6.494s-3.453 1.146-5.207.308-12.85-5.32-14.85-6.276-2.04-1.613-.077-2.382l15.332-5.935c2.332-.837 3.14-.867 5.126-.14s12.35 4.853 14.312 5.57 2.037 1.31.024 2.36z"/>
    </defs>

    <g id="g932" fill="none" transform="matrix(0.01833503,0,0,0.01826978,-5,-7.7)">
        <path id="path2"
              fill="#49007a"
              stroke="#FFFFFF" stroke-width="20" stroke-opacity="0.8"
              d="m 1228.8829,1704.5813 c 0,-26.5094 21.4903,-48 48,-48 h 672 c 26.5104,0 48,21.4906 48,48 v 240 c 0,26.5104 -21.4896,48 -48,48 h -672 c -26.5097,0 -48,-21.4896 -48,-48 z"/>

        <g id="g7" transform="matrix(0.19708773,0,0,0.1511106,1163.37,1549.1818)">
            <path id="char-P"
                  fill="#ffffff" fill-opacity="1" transform="matrix(1,0,0,-1,432.18,2580)"
                  d="M 457,1245 V 807 h 121 q 145,0 203.5,49 58.5,49 58.5,170 0,121 -58.5,170 -58.5,49 -203.5,49 z m -295,248 h 405 q 309,0 444.5,-110 Q 1147,1273 1147,1026 1147,779 1011.5,669 876,559 567,559 H 457 V 0 H 162 Z"/>

            <path id="char-R"
                  fill="#ffffff" fill-opacity="1" transform="matrix(1,0,0,-1,1665.18,2580)"
                  d="m 807,705 q 44,-9 76.5,-41.5 Q 916,631 963,537 L 1233,0 H 909 L 729,377 q -8,16 -21,44 -79,169 -186,169 H 428 V 0 H 133 v 1493 h 426 q 288,0 413.5,-102 Q 1098,1289 1098,1059 1098,905 1023,814 948,723 807,705 Z M 428,1245 V 838 h 139 q 121,0 173.5,47.5 52.5,47.5 52.5,156.5 0,109 -52,156 -52,47 -174,47 z"/>

            <path id="char-O"
                  fill="#ffffff" fill-opacity="1" transform="matrix(1,0,0,-1,2898.18,2580)"
                  d="M 616,1255 Q 503,1255 451,1134.5 399,1014 399,745 399,477 451,356.5 503,236 616,236 730,236 782,356.5 834,477 834,745 834,1014 782,1134.5 730,1255 616,1255 Z M 92,745 q 0,383 132.5,579 132.5,196 391.5,196 260,0 392.5,-196 Q 1141,1128 1141,745 1141,363 1008.5,167 876,-29 616,-29 357,-29 224.5,167 92,363 92,745 Z"/>
        </g>
    </g>
</svg>
