<?xml version="1.0" encoding="iso-8859-1"?>
<svg fill="#6E6E6E" height="40px" width="40px" version="1.1" id="Layer_1" xmlns="http://www.w3.org/2000/svg"
     viewBox="0 0 40 40" xml:space="preserve">
<g>
    <path d="M20 18.46c4.665 0 8.46-3.795 8.46-8.46C28.46 5.335 24.665 1.54 20 1.54S11.54 5.335 11.54 10C11.54 14.665 15.335 18.46 20 18.46zM20 3.56c3.551 0 6.44 2.889 6.44 6.44s-2.889 6.44-6.44 6.44-6.44-2.889-6.44-6.44S16.449 3.56 20 3.56z"/>
    <path d="M33.432 33.795l-2.637-10.94c-.313-1.299-1.464-2.205-2.801-2.205-1.675 0-14.491 0-15.989 0-1.336 0-2.487.907-2.801 2.205l-2.637 10.94c-.436 1.811.935 3.555 2.801 3.555h21.264C32.495 37.35 33.869 35.609 33.432 33.795zM9.368 35.43c-.621 0-1.079-.581-.934-1.185l2.637-10.941c.105-.433.488-.735.934-.735H16.377l-1.211 8.565c-.036.254 .031.51 .185.715l2.715 3.581H9.368zM17.123 31.008l1.193-8.439h3.367l1.193 8.439-2.877 3.793L17.123 31.008zM30.631 35.43h-8.698l2.715-3.58c.155-.204.221-.461.185-.715l-1.211-8.565h4.371c.445 0 .829.302 .934.735l2.637 10.94C31.71 34.849 31.253 35.43 30.631 35.43Zm-20.39-8.723L13.411 26.707Q13.791 26.707 14.044 26.453L15.185 22.651Q14.932 22.524 13.917 22.524L13.917 23.031Q13.917 25.06 12.777 25.186l-2.281 0L10.241 26.707 11.636 26.707Q11.89 26.707 12.777 26.707L16.072 34.946Q15.945 35.453 14.551 35.326L12.016 28.102Q11.509 26.961 10.875 26.707L11.256 26.707ZM22.663 35.073Q26.212 33.171 26.846 22.524L28.113 22.524Q28.113 28.482 26.212 33.932 25.325 35.073 23.677 35.326 22.283 35.453 22.663 35.073ZM27.606 28.228 30.142 28.228 30.395 29.369 27.48 29.369 27.606 28.228z"/>
</g>
</svg>