<svg xmlns="http://www.w3.org/2000/svg" viewBox="0 0 300 300"><defs><style>.cls-1{fill:#c7e549;}.cls-2{fill:#fff;}.cls-3{fill:none;stroke:#fff;stroke-miterlimit:10;stroke-width:8.59px;}</style></defs><g id="Ebene_2" data-name="Ebene 2"><g id="Ebene_1-2" data-name="Ebene 1"><rect class="cls-1" width="300" height="300" rx="65.15"/><path class="cls-2" d="M206.05,145.58c0,43.06-26.47,66.79-59.13,66.79S87.8,188.64,87.8,145.58s26.47-78,59.12-78S206.05,102.51,206.05,145.58Z"/><ellipse class="cls-1" cx="146.92" cy="146.27" rx="43.84" ry="49.28"/><polygon class="cls-2" points="175.01 209 124.99 219 124.99 207.66 175.01 197.66 175.01 209"/><polygon class="cls-2" points="175.01 224.07 124.99 234.07 124.99 224.73 175.01 214.73 175.01 224.07"/><polygon class="cls-2" points="175.01 239.19 124.99 249.19 124.99 239.84 175.01 229.84 175.01 239.19"/><path class="cls-2" d="M168.09,246.82a18.09,18.09,0,0,1-35,6.44Z"/><line class="cls-3" x1="148.39" y1="27.78" x2="148.39" y2="49.97"/><line class="cls-3" x1="246.48" y1="113.45" x2="224.29" y2="113.45"/><line class="cls-3" x1="69.56" y1="113.45" x2="47.37" y2="113.45"/><line class="cls-3" x1="216.46" y1="54.32" x2="200.77" y2="70"/><line class="cls-3" x1="80.33" y1="54.32" x2="96.02" y2="70"/></g></g></svg>