<svg viewBox="0 0 36 36" xmlns="http://www.w3.org/2000/svg">
  <rect id="backgroundrect" width="100%" height="100%" x="0" y="0" fill="none" stroke="none" transform="matrix(1, 0, 0, 1, 0, 3.3306690738754696e-15)"/>
  <g class="currentLayer" style="" transform="matrix(1, 0, 0, 1, 0, 3.3306690738754696e-15)">
    <g id="SVGRepo_iconCarrier" class="" stroke-width="0" style="" transform="matrix(1.654171, 0, 0, 1, -0.476937, 0)">
      <path d="M2.183750006734149,9.246175300438061 C2.448237246346213,11.605993018167432 2.7127244859582587,12.150896382079464 2.7127244859582587,14.510714099808835 C2.7127244859582587,15.962359544351447 0.7290701888678056,17.23237053425671 0.7290701888678056,17.23237053425671 L0.7290701888678056,19.048715080630213 C0.7290701888678056,19.048715080630213 2.7127244859582587,20.31872607053548 2.7127244859582587,21.771801707634275 C2.7127244859582587,24.131619425363645 2.448237246346213,24.67509259671949 2.183750006734149,27.036340507005047 C1.7870191473160622,30.847803669277027 3.2416989651823864,32.66271802309435 4.564135163242687,32.66271802309435 C5.88657136130299,32.66271802309435 7.3412511791693165,32.66271802309435 7.3412511791693165,32.66271802309435 L7.3412511791693165,29.032889315459713 C7.3412511791693165,29.032889315459713 4.9608660226607775,29.39615822473442 4.9608660226607775,27.216544769086205 C4.9608660226607775,25.583264869906255 5.225353262272839,25.583264869906255 5.4898405018849035,21.953436162271636 C5.622084121690927,20.31872607053548 4.828622402854752,19.048715080630213 4.03516068401856,18.140542807443452 C4.828622402854752,17.23237053425671 5.622084121690927,16.14399399898879 5.4898405018849035,14.510714099808835 C5.093109642466817,10.879455199618013 4.9608660226607775,10.879455199618013 4.9608660226607775,9.246175300438061 C4.9608660226607775,7.067992037346052 7.3412511791693165,7.249626491983398 7.3412511791693165,7.249626491983398 L7.3412511791693165,3.6183675917925773 C7.3412511791693165,3.6183675917925773 6.0188149811090135,3.6183675917925773 4.564135163242687,3.6183675917925773 C3.109455345376364,3.6183675917925773 1.7870191473160622,5.4332819456098935 2.183750006734149,9.246175300438061 z" style="fill: rgb(53, 146, 196);" stroke-width="0" id="svg_1"/>
      <g id="g-4" stroke-width="0"/>
      <g id="g-5" stroke-linecap="round" stroke-linejoin="round" stroke-width="0"/>
    </g>
    <g id="g-11" style="" class="" stroke-width="0" transform="matrix(1.519838, 0, 0, 1.53594, -18.405291, -18.466841)">
      <path d="M35.40580389155759,29.571397210715546 C35.40580389155759,31.665555759156423 32.246800044072394,33.36344528394484 28.350518916716315,33.36344528394484 C24.45423778936024,33.36344528394484 21.295233941875036,31.665555759156423 21.295233941875036,29.571397210715546 L21.295233941875036,25.75470082501027 C21.73795307404634,26.338676228287575 22.36675534742906,26.82500639367924 23.066110470560186,27.200419152928927 C24.452473968116514,27.94555659931849 26.322124486449464,28.386382187831384 28.350518916716315,28.386382187831384 C30.378913346983175,28.386382187831384 32.24856386531612,27.94555659931849 33.634927362872446,27.200419152928927 C34.334282486003566,26.82500639367924 34.963084759386284,26.338676228287575 35.40580389155759,25.75470082501027 L35.40580389155759,29.571397210715546 z" style="fill: rgb(73, 156, 84);" stroke-width="0" id="svg_4"/>
      <path d="M28.350518916716315,22.698310077987443 C30.378913346983175,22.698310077987443 32.24856386531612,22.25748448947455 33.634927362872446,21.512347043084983 C34.334282486003566,21.13693428383529 34.963084759386284,20.65060411844363 35.40580389155759,20.06662871516633 L35.40580389155759,23.8833251008716 C35.40580389155759,24.35733111002526 33.83071152092429,25.391612221998557 33.043165335607604,25.928187024360504 C31.87639758289323,26.55577098047995 30.218405613805547,26.9643641603704 28.350518916716315,26.9643641603704 C26.482632219627096,26.9643641603704 24.8246402505394,26.55577098047995 23.656990587203147,25.928187024360504 C22.618099874657773,25.36980794557748 21.295233941875036,24.35733111002526 21.295233941875036,23.8833251008716 L21.295233941875036,20.06662871516633 C21.73795307404634,20.65060411844363 22.36675534742906,21.13693428383529 23.066110470560186,21.512347043084983 C24.452473968116514,22.25748448947455 26.322124486449464,22.698310077987443 28.350518916716315,22.698310077987443 z" style="fill: rgb(73, 156, 84);" stroke-width="0" id="svg_5"/>
      <path d="M33.043165335607604,20.240114914516568 C31.87639758289323,20.867698870636005 30.218405613805547,21.276292050526454 28.350518916716315,21.276292050526454 C26.482632219627096,21.276292050526454 24.8246402505394,20.867698870636005 23.656990587203147,20.240114914516568 C23.203688527569597,20.049564498836787 22.182436027461346,19.441888795101793 21.47249797686793,18.4597483441354 C21.351676221673756,18.29289822891332 21.30052540560618,18.079595524794176 21.330510366749266,17.871032880766563 C21.350794311051907,17.730727102057074 21.379015450951265,17.585681263256053 21.415173786447333,17.495620121516854 C22.025455936771095,15.735161803520166 24.898720742775232,14.403204917798359 28.350518916716315,14.403204917798359 C31.802317090657407,14.403204917798359 34.67558189666154,15.735161803520166 35.2858640469853,17.495620121516854 C35.322022382481364,17.585681263256053 35.35024352238072,17.730727102057074 35.370527466683406,17.871032880766563 C35.40051242782645,18.079595524794176 35.348479701136995,18.29289822891332 35.22765794594286,18.4597483441354 C34.518601805971294,19.441888795101793 33.49734930586304,20.049564498836787 33.043165335607604,20.240114914516568 z" style="fill: rgb(73, 156, 84);" stroke-width="0" id="svg_6"/>
    </g>
  </g>
</svg>
