<?xml version="1.0" encoding="UTF-8" standalone="no"?><!DOCTYPE svg PUBLIC "-//W3C//DTD SVG 1.1//EN" "http://www.w3.org/Graphics/SVG/1.1/DTD/svg11.dtd"><svg width="40" height="40" viewBox="0 0 200 200" version="1.1" xmlns="http://www.w3.org/2000/svg" xmlns:xlink="http://www.w3.org/1999/xlink" xml:space="preserve" xmlns:serif="http://www.serif.com/" style="fill-rule:evenodd;clip-rule:evenodd;stroke-linejoin:round;stroke-miterlimit:2;"><g><rect x="-18.995" y="-20.28" width="237.251" height="237.251" style="fill:none;fill-rule:nonzero;stroke:#599900;stroke-width:1px;"/><path d="M50.192,19.784c17.78,-3.03 36.008,2.177 49.504,14.142l0.367,0.328l0.338,-0.298c12.867,-11.292 29.998,-16.504 46.974,-14.292l2.441,0.358c28.438,4.91 49.416,29.821 49.416,58.68c0,15.085 -5.732,29.621 -16.029,40.646l-1.787,1.836l-0.476,0.407l-73.939,73.234c-3.513,3.477 -9.114,3.827 -13.031,0.814l-0.933,-0.814l-74.366,-73.661c-11.517,-11.206 -18.021,-26.61 -18.021,-42.679c-0,-28.906 21.047,-53.844 49.542,-58.701Z" style="fill:#599900;fill-rule:nonzero;stroke:#599900;stroke-width:1px;"/><path d="M109.782,83.634c-0.688,15.058 -0.918,30.236 -0.69,45.533l-16.558,0c0.229,-15.297 -0.001,-30.475 -0.69,-45.533c-0.9,-4.698 -3.659,-7.802 -8.278,-9.314c-7.397,-1.304 -12.341,1.57 -14.833,8.624c-0.345,15.636 -0.46,31.274 -0.345,46.913l-17.248,0l0,-70.369l16.558,-0c-0.211,1.99 0.019,3.83 0.69,5.519c12.739,-9.798 24.812,-9.108 36.22,2.069c11.339,-10.475 23.642,-11.74 36.909,-3.794c4.365,3.781 7.239,8.496 8.624,14.143c0.345,17.476 0.46,34.953 0.345,52.432l-17.248,0c0.324,-16.143 -0.021,-32.24 -1.034,-48.293c-4.334,-6.886 -10.198,-8.611 -17.593,-5.174c-2.566,1.802 -4.175,4.217 -4.829,7.244Z" style="fill:#fff;fill-rule:nonzero;stroke:#599900;stroke-width:1px;"/></g></svg>