<?xml version="1.0" encoding="UTF-8" standalone="no"?>
<!-- Created with Inkscape (http://www.inkscape.org/) -->

<svg
   width="4.233345mm"
   height="4.2333374mm"
   viewBox="0 0 4.233345 4.2333374"
   version="1.1"
   id="svg5"
   xml:space="preserve"
   inkscape:export-filename="pluginIcon.svg"
   inkscape:export-xdpi="6000"
   inkscape:export-ydpi="6000"
   xmlns:inkscape="http://www.inkscape.org/namespaces/inkscape"
   xmlns:sodipodi="http://sodipodi.sourceforge.net/DTD/sodipodi-0.dtd"
   xmlns="http://www.w3.org/2000/svg"
   xmlns:svg="http://www.w3.org/2000/svg"><sodipodi:namedview
     id="namedview7"
     pagecolor="#ffffff"
     bordercolor="#999999"
     borderopacity="1"
     inkscape:showpageshadow="0"
     inkscape:pageopacity="0"
     inkscape:pagecheckerboard="0"
     inkscape:deskcolor="#d1d1d1"
     inkscape:document-units="mm"
     showgrid="false" /><defs
     id="defs2" /><g
     inkscape:label="Calque 1"
     inkscape:groupmode="layer"
     id="layer1"
     transform="translate(-98.23289,-146.81712)"><g
       inkscape:label="Calque 1"
       id="layer1-9"
       transform="translate(-4.6504381,0.43378776)"
       style="fill:#6e6e6e;fill-opacity:1"><path
         d="m 106.44825,148.83421 h -0.44562 v 0.66843 h -0.66842 v 0.44561 h 0.66842 v 0.66841 h 0.44562 v -0.66841 h 0.66842 v -0.44561 h -0.66842 z m -3.34211,1.11404 h 0.66842 v -0.44561 h -0.44561 v -0.44563 h -0.44562 v 0.66843 a 0.22280705,0.2228073 0 0 0 0.22281,0.22281 z m 3.34211,-3.34212 a 0.22280705,0.2228073 0 0 0 -0.22281,-0.22279 h -0.66842 v 0.44561 h 0.44561 v 0.44561 h 0.44562 z m -3.1193,0.22282 h 0.44561 v -0.44561 h -0.66842 a 0.22280705,0.2228073 0 0 0 -0.22281,0.22279 v 0.66843 h 0.44562 z m -0.44562,0.89122 h 0.44562 v 0.89124 h -0.44562 z m 3.1193,0 h 0.44562 v 0.66842 h -0.44562 z m -1.78245,-1.33683 h 0.89122 v 0.44561 h -0.89122 z m 0,3.1193 h 0.66842 v 0.44561 h -0.66842 z"
         id="path132"
         style="fill:#6e6e6e;fill-opacity:1;stroke-width:0.222807"
         inkscape:label="path132"
         inkscape:export-filename="path132.svg"
         inkscape:export-xdpi="1.9352384"
         inkscape:export-ydpi="1.9352384" /><g
         id="g3636"
         transform="matrix(0.00423652,0,0,0.00423652,103.58004,147.06557)"
         style="fill:#6e6e6e;fill-opacity:1"><path
           d="m 160,389 a 20.91,20.91 0 0 1 -13.82,-5.2 l -128,-112 a 21,21 0 0 1 0,-31.6 l 128,-112 a 21.001593,21.001593 0 0 1 27.66,31.61 L 63.89,256 173.83,352.19 A 21,21 0 0 1 160,389 Z"
           id="path3621"
           style="fill:#6e6e6e;fill-opacity:1" /><path
           d="M 352,389 A 21,21 0 0 1 338.16,352.19 L 448.11,256 338.17,159.81 a 21.001593,21.001593 0 0 1 27.66,-31.61 l 128,112 a 21,21 0 0 1 0,31.6 l -128,112 A 20.89,20.89 0 0 1 352,389 Z"
           id="path3623"
           style="fill:#6e6e6e;fill-opacity:1" /><path
           d="m 208,437 a 21,21 0 0 1 -20.12,-27 l 96,-320 a 21,21 0 1 1 40.23,12 l -96,320 A 21,21 0 0 1 208,437 Z"
           id="path3625"
           style="fill:#6e6e6e;fill-opacity:1" /></g></g></g></svg>
