
<svg width="120px" height="120px" viewBox="0 0 120 120" version="1.1" xmlns="http://www.w3.org/2000/svg" xmlns:xlink="http://www.w3.org/1999/xlink">
    <defs>
        <linearGradient x1="7.25080837%" y1="62.2141138%" x2="92.7495295%" y2="37.7858862%" id="linearGradient-s_y39h5uh9-1">
            <stop stop-color="#A300C4" offset="0%"></stop>
            <stop stop-color="#7F07D2" offset="23.9216%"></stop>
            <stop stop-color="#633EE6" offset="50.1961%"></stop>
            <stop stop-color="#27BBE3" offset="72.9412%"></stop>
            <stop stop-color="#2EFFD9" offset="100%"></stop>
        </linearGradient>
    </defs>
    <g id="Page-1" stroke="none" stroke-width="1" fill="none" fill-rule="evenodd">
        <rect id="Rectangle" fill="#FFFFFF" x="0" y="0" width="120" height="120" rx="60"></rect>
        <g id="intellij-sfcc_logo-5" transform="translate(5.000000, 26.000662)">
            <path d="M25.1838182,38.811051 L28.1799849,36.997755 L28.1784043,36.8597095 C28.1784043,32.881681 31.4029783,29.6568435 35.3812703,29.6568435 C36.3064912,29.6568435 37.1906146,29.8315079 38.0030808,30.1492233 L38.2667899,29.7042637 C37.1102637,28.8198769 35.6765928,28.2795499 34.1177852,28.2373986 C34.6549508,22.0972722 39.8079466,17.2804329 46.0876992,17.2804329 C50.1560896,17.2804329 53.7510681,19.301851 55.9255481,22.3952291 C55.8149009,18.0952701 52.8216321,14.5129369 48.8059309,13.5092092 C52.1182324,10.0035387 56.8109887,7.81535958 62.0148296,7.81535958 C70.9050646,7.81535958 78.3023535,14.1999636 79.8756506,22.6339108 L81.0521986,22.6339108 C82.3135761,20.2547337 84.8152555,18.6337529 87.6957696,18.6337529 C91.8460915,18.6337529 95.2108186,21.9984801 95.2108186,26.1490654 C95.2108186,28.5411514 94.0932824,30.6721628 92.3516436,32.0486661 C98.4056234,32.5784552 103.155021,37.6603207 103.155021,43.8520825 C103.155021,50.3968614 97.8497532,55.7021288 91.3049742,55.7021288 C90.5430896,55.7021288 89.797802,55.6294178 89.0759611,55.4918992 L33.5231885,55.4918992 L25.1838182,38.811051 L25.1838182,38.811051 Z M77.2325009,47.0953612 L83.1255154,37.344186 L77.2058929,27.5484884 L83.0844179,27.5484884 L89.0040404,37.344186 L83.1110259,47.0953612 L77.2325009,47.0953612 Z M48.5377433,47.0953612 L42.6449922,37.344186 L48.5646147,27.5484884 L54.4431397,27.5484884 L48.5235172,37.344186 L54.4165317,47.0953612 L48.5380067,47.0953612 L48.5377433,47.0953612 Z M57.1500432,47.0953612 L68.731375,27.5484884 L74.5753886,27.5484884 L62.9940568,47.0953612 L57.1500432,47.0953612 Z" id="Shape" fill="url(#linearGradient-s_y39h5uh9-1)"></path>
            <path d="M85.5257682,68.0572003 C83.4434942,68.0572003 81.5574872,67.2131206 80.1928391,65.848209 C78.8281909,64.4835608 77.9838477,62.5975538 77.9838477,60.5152798 C77.9838477,60.4085843 77.9862188,60.3021523 77.9904339,60.1962472 L83.0409494,60.1962472 C83.0275137,60.3008351 83.0209275,60.4072671 83.0209275,60.5152798 C83.0209275,61.2070879 83.3012336,61.8335616 83.75436,62.286688 C84.207223,62.739551 84.8339601,63.0201205 85.5257682,63.0201205 C86.2173129,63.0201205 86.84405,62.739551 87.296913,62.286688 C87.7500394,61.8335616 88.0303455,61.2070879 88.0303455,60.5152798 C88.0303455,59.8234717 87.7500394,59.196998 87.296913,58.7438716 C86.8472113,58.29417 86.226797,58.0149177 85.5410481,58.0104391 L85.5410481,55.5619757 L79.8382413,55.5619757 C79.9520498,55.4313067 80.0703369,55.3048528 80.1928391,55.1823506 C81.5574872,53.8177024 83.4434942,52.9733593 85.5257682,52.9733593 C87.6077788,52.9733593 89.4940492,53.817439 90.858434,55.1823506 C92.2230821,56.5469988 93.0674253,58.4330058 93.0674253,60.5152798 C93.0674253,62.5975538 92.2233456,64.4835608 90.858434,65.848209 C89.4937858,67.2128572 87.6077788,68.0572003 85.5257682,68.0572003 Z" id="Path" fill="#001D40" fill-rule="nonzero"></path>
            <path d="M48.236625,68.0572003 C46.1609371,68.0572003 44.2786183,67.2131206 42.9137067,65.848209 L42.9036958,65.848209 C41.5390476,64.4835608 40.6947045,62.5975538 40.6947045,60.5152798 C40.6947045,60.4085843 40.6970755,60.3021523 40.7012906,60.1962472 L45.7518061,60.1962472 C45.7383704,60.3008351 45.7317842,60.4072671 45.7317842,60.5152798 C45.7317842,61.2070879 46.0120904,61.8335616 46.4652168,62.286688 L46.4602113,62.2916935 C46.9128108,62.7413951 47.5408651,63.0201205 48.236625,63.0201205 C48.9284331,63.0201205 49.5549067,62.739551 50.0077697,62.286688 C50.4608961,61.8335616 50.7412022,61.2070879 50.7412022,60.5152798 C50.7412022,59.8234717 50.4608961,59.196998 50.0077697,58.7438716 C49.5580681,58.29417 48.9376537,58.0149177 48.2519048,58.0104391 L48.2519048,55.5619757 L42.549098,55.5619757 C42.6629065,55.4313067 42.7811936,55.3048528 42.9036958,55.1823506 L42.9137067,55.1823506 C44.2786183,53.8177024 46.1609371,52.9733593 48.236625,52.9733593 C50.3188989,52.9733593 52.204906,53.817439 53.5695541,55.1823506 C54.9342023,56.5469988 55.7785454,58.4330058 55.7785454,60.5152798 C55.7785454,62.5975538 54.9344658,64.4835608 53.5695541,65.848209 C52.204906,67.2128572 50.3188989,68.0572003 48.236625,68.0572003 Z" id="Path" fill="#001D40" fill-rule="nonzero"></path>
            <path d="M0,23.5538629 L21.4581706,23.5538629 L24.4877949,29.1560334 L24.5981786,29.0021812 C25.7641888,27.4057009 27.3156199,26.0974301 29.1412979,25.2277962 C29.2227026,24.5077994 29.3538985,23.7825336 29.5351491,23.0575314 C30.39767,19.6148243 32.3242476,16.6378891 34.9234018,14.4536617 L34.9234018,14.4439142 C36.927169,12.7602334 39.3342714,11.5528622 41.9639853,10.9724916 C44.3813621,7.05584593 47.8741238,4.01963545 51.921175,2.14363937 C56.1953164,0.162001605 61.0898721,-0.523747278 65.9889064,0.415436267 C71.3465994,1.44155686 75.9821881,4.27227977 79.304764,8.20868385 C80.5305763,9.66132286 81.5777725,11.2649162 82.4171102,12.984689 C82.6281301,12.8793108 82.8438921,12.7784111 83.0636057,12.6819901 C83.8083664,12.355581 84.5786813,12.0950333 85.3632223,11.9103579 C87.6881297,11.3623911 90.0588766,11.5731475 92.2193939,12.3842965 C94.4228529,13.2109888 96.3986948,14.6567782 97.8710922,16.5501617 C99.3110859,18.4011305 100.176768,20.5845676 100.467875,22.8451942 C100.685218,24.5357246 100.575888,26.2655084 100.139622,27.9267963 C102.386813,28.8201403 104.441425,30.2435368 106.105611,32.1411355 C108.804611,35.2192338 110.010402,38.8255405 109.999932,42.3546577 C109.993278,44.5992142 109.493785,46.8045173 108.57436,48.8143437 C107.654935,50.8244336 106.31347,52.6490578 104.622149,54.1317296 C101.907606,56.5119605 98.3036699,58.013337 94.1080354,58.0004282 L94.1080354,58.0104391 L34.3783329,58.0104391 L18.4675362,28.5906792 L2.7572216,28.5906792 L0,23.5535994 L0,23.5538629 Z M27.4552461,34.6422879 L37.3692307,52.9736228 L94.1082988,52.9736228 L94.1082988,52.9831688 C97.0027756,52.9923274 99.4720511,51.9717392 101.316961,50.3544467 C102.468481,49.3449231 103.382638,48.1011965 104.009638,46.7294353 C104.637429,45.3576741 104.978064,43.8636741 104.982588,42.3549212 C104.989656,39.9825936 104.167442,37.5449315 102.327801,35.4473777 C100.951035,33.8775054 99.1696156,32.7857868 97.230656,32.2433524 C95.6776442,31.8084037 94.0221521,31.7301603 92.3924777,32.0426068 L89.7232469,27.5376871 C91.5344354,26.9696984 93.3980495,26.7476138 95.2289964,26.8477231 C95.5472387,25.7478378 95.6339123,24.5965805 95.4898075,23.4750926 C95.3140893,22.1091272 94.7827195,20.7789904 93.896752,19.6393248 C92.9852302,18.4667284 91.7860259,17.5810243 90.4687979,17.086537 C89.2161141,16.61655 87.8446164,16.4935209 86.5042052,16.8091287 C85.9989165,16.9279427 85.5186552,17.0886445 85.0705342,17.2851749 C84.7543995,17.4237473 84.4401089,17.5876105 84.1305604,17.7743934 C84.5038628,19.3476905 84.7161999,20.9794725 84.7507113,22.6505079 L79.7331265,22.7485097 C79.6453991,18.4841158 78.0699944,14.5374374 75.4682058,11.454597 C72.866944,8.37333735 69.2382443,6.15696956 65.0444539,5.35398739 C61.2081592,4.61897418 57.3747623,5.1558763 54.0268957,6.70809774 C51.9003628,7.69417461 49.9693066,9.09096315 48.3580734,10.8318116 C50.4377129,11.1974741 52.413028,11.9588319 54.1839093,13.0545021 C56.0135389,14.1865278 57.6221377,15.6760492 58.8990585,17.4532532 L55.974549,22.3894333 C55.017978,20.2468303 53.4552187,18.504928 51.5473457,17.3241649 C49.5491109,16.0875513 47.1617669,15.4660831 44.686959,15.6449627 C42.224533,15.8233153 39.9549492,16.7843649 38.1506104,18.3002308 L38.1461318,18.294435 C36.4050199,19.7586656 35.0980663,21.7497874 34.4718561,24.0607322 C34.646784,24.0631032 34.8214484,24.0691624 34.9961128,24.0794368 C36.9795947,24.1935088 38.9322534,24.7954819 40.6649351,25.8732379 L38.0091401,30.1423737 C36.9980359,29.5137925 35.8654833,29.1631465 34.7210756,29.0970216 C33.5658667,29.0306333 32.3953779,29.2487663 31.3186758,29.7572163 C30.2372316,30.2683007 29.3265002,31.0296585 28.6520794,31.9535622 C28.0740798,32.7452162 27.6620509,33.6596359 27.4552461,34.6417611 L27.4552461,34.6422879 Z" id="Shape" fill="#001D40" fill-rule="nonzero"></path>
            <path d="M75.8894553,47.0953612 L81.7824698,37.344186 L75.8628473,27.5484884 L81.7413723,27.5484884 L87.6612582,37.344186 L81.7682437,47.0953612 L75.8897187,47.0953612 L75.8894553,47.0953612 Z M47.1946976,47.0953612 L41.3019466,37.344186 L47.2215691,27.5484884 L53.1000941,27.5484884 L47.1804716,37.344186 L53.0734861,47.0953612 L47.1949611,47.0953612 L47.1946976,47.0953612 Z M55.8069976,47.0953612 L67.3883294,27.5484884 L73.232343,27.5484884 L61.6510112,47.0953612 L55.8069976,47.0953612 Z" id="Shape" fill="#001D40" fill-rule="nonzero"></path>
            <path d="M27.4038742,52.9736228 L24.6927556,47.9602531 L13.304266,47.9602531 L16.015648,52.9736228 L27.4038742,52.9736228 Z M9.47692838,40.8835775 L20.865418,40.8835775 L18.141654,35.8472881 L6.75342782,35.8472881 L9.47692838,40.8835775 Z" id="Shape" fill="#001D40"></path>
        </g>
    </g>
</svg>
