<svg width="40" height="40" viewBox="0 0 40 40" fill="none" xmlns="http://www.w3.org/2000/svg">
    <path d="M26.4853 15.8345C22.5489 15.9623 21.379 18.8367 21.1108 20.3938C21.4602 19.8167 22.5611 18.5502 24.1819 18.5502C26.0709 18.5502 27.509 20.7053 28.3864 21.378C29.4525 22.1953 31.5946 23.2744 34.4068 22.3995C36.6492 21.7019 37.6891 19.2685 37.9166 18.1142C36.832 19.6215 35.1867 20.5269 33.1515 19.4595C31.75 18.7246 30.7019 15.6975 26.4853 15.8345Z"
          fill="#07B6D5"/>
    <path d="M12.6572 23.2903C16.2999 24.7511 18.4928 22.6529 19.3471 21.3698C18.8023 21.7454 17.3018 22.4357 15.8225 21.7871C14.0984 21.0313 13.6296 18.5316 13.0921 17.5799C12.439 16.4237 10.9064 14.603 7.99731 14.2589C5.67766 13.9845 3.77598 15.7411 3.11649 16.6808C4.69645 15.7689 6.55242 15.6188 7.99211 17.3862C8.98351 18.6032 8.75512 21.7254 12.6572 23.2903Z"
          fill="#07B6D5"/>
    <path d="M27.3577 24.1494C25.3523 20.7758 22.3356 21.1098 20.8776 21.6098C21.5384 21.6426 23.1496 22.0061 23.9305 23.42C24.8405 25.0679 23.694 27.338 23.5427 28.4205C23.3588 29.7357 23.4698 32.1129 25.5712 34.1538C27.2468 35.7812 29.8245 35.5416 30.9192 35.196C29.1103 34.9602 27.5451 33.9517 27.4755 31.6732C27.4276 30.1042 29.506 27.7633 27.3577 24.1494Z"
          fill="#07B6D5"/>
    <path d="M19.5179 29.648C22.2035 26.7861 21.0465 23.9802 20.1619 22.7178C20.3137 23.3619 20.411 25.0107 19.2688 26.1529C17.9377 27.4839 15.4387 27.0116 14.3567 27.1662C13.0421 27.354 10.7888 28.1196 9.41026 30.7043C8.31104 32.7653 9.2557 35.1756 9.89118 36.1317C9.61637 34.3283 10.1516 32.5448 12.3215 31.8465C13.8157 31.3656 16.641 32.7138 19.5179 29.648Z"
          fill="#07B6D5"/>
    <path d="M15.7613 14.7568C15.7414 18.6952 18.5698 19.9721 20.1159 20.2985C19.5522 19.9277 18.3279 18.7801 18.3887 17.1604C18.4596 15.2727 20.6671 13.9165 21.3723 13.0649C22.2289 12.0303 23.3877 9.93017 22.6189 7.08714C22.0059 4.82016 19.6132 3.68965 18.4682 3.41902C19.9338 4.55944 20.7768 6.23748 19.6339 8.23122C18.8469 9.60416 15.7826 10.5379 15.7613 14.7568Z"
          fill="#07B6D5"/>
</svg>
