<svg width="33" height="8" viewBox="0 0 33 8" fill="none" xmlns="http://www.w3.org/2000/svg">
<path d="M2.44 3.28L3.48 0.792H4.12L3.48 3.28H2.44ZM0.6 3.28L1.64 0.792H2.28L1.64 3.28H0.6ZM7.19688 7.08C6.99421 7.08 6.83154 7.02133 6.70888 6.904C6.59154 6.78667 6.53288 6.62933 6.53288 6.432C6.53288 6.224 6.59154 6.05867 6.70888 5.936C6.83154 5.81333 6.99421 5.752 7.19688 5.752C7.39954 5.752 7.55954 5.81333 7.67688 5.936C7.79954 6.05867 7.86088 6.224 7.86088 6.432C7.86088 6.62933 7.79954 6.78667 7.67688 6.904C7.55954 7.02133 7.39954 7.08 7.19688 7.08ZM16.7906 7.08C16.588 7.08 16.4253 7.02133 16.3026 6.904C16.1853 6.78667 16.1266 6.62933 16.1266 6.432C16.1266 6.224 16.1853 6.05867 16.3026 5.936C16.4253 5.81333 16.588 5.752 16.7906 5.752C16.9933 5.752 17.1533 5.81333 17.2706 5.936C17.3933 6.05867 17.4546 6.224 17.4546 6.432C17.4546 6.62933 17.3933 6.78667 17.2706 6.904C17.1533 7.02133 16.9933 7.08 16.7906 7.08ZM26.3844 7.08C26.1817 7.08 26.019 7.02133 25.8964 6.904C25.779 6.78667 25.7204 6.62933 25.7204 6.432C25.7204 6.224 25.779 6.05867 25.8964 5.936C26.019 5.81333 26.1817 5.752 26.3844 5.752C26.587 5.752 26.747 5.81333 26.8644 5.936C26.987 6.05867 27.0484 6.224 27.0484 6.432C27.0484 6.62933 26.987 6.78667 26.8644 6.904C26.747 7.02133 26.587 7.08 26.3844 7.08ZM31.3013 3.28L31.9413 0.792H32.9813L31.9413 3.28H31.3013ZM29.4613 3.28L30.1013 0.792H31.1413L30.1013 3.28H29.4613Z" fill="black"/>
</svg>
