<svg xmlns="http://www.w3.org/2000/svg" width="16px" height="16px" viewBox="0 0 16 16" version="1.1">
<g id="surface1">
<path style=" stroke:none;fill-rule:nonzero;fill:#1C1C1C;fill-opacity:1;" d="M 15.695312 7.578125 L 16.03125 7.925781 L 16 1.710938 C 16 0.765625 15.234375 0 14.289062 0 L 1.726562 0 C 0.78125 0 0.015625 0.765625 0.015625 1.710938 L 0.015625 14.273438 C 0.015625 15.21875 0.78125 15.984375 1.726562 15.984375 L 5.621094 15.984375 C 5.675781 15.984375 5.730469 15.976562 5.78125 15.960938 C 6.082031 15.941406 6.320312 15.691406 6.320312 15.390625 L 6.375 11.273438 C 6.378906 11.113281 6.3125 10.957031 6.195312 10.847656 C 5.152344 9.875 4.613281 8.808594 4.613281 7.707031 C 4.617188 6.578125 5.179688 5.523438 6.117188 4.894531 L 6.117188 6.824219 C 6.117188 7.140625 6.371094 7.394531 6.6875 7.394531 L 9.332031 7.394531 C 9.644531 7.394531 9.902344 7.140625 9.902344 6.824219 L 9.902344 4.882812 C 10.839844 5.515625 11.402344 6.574219 11.402344 7.707031 C 11.402344 8.824219 10.871094 9.886719 9.820312 10.875 C 9.703125 10.984375 9.640625 11.136719 9.640625 11.296875 L 9.699219 15.414062 C 9.703125 15.691406 9.910156 15.925781 10.183594 15.96875 C 10.242188 15.988281 10.300781 16 10.363281 16 L 14.289062 16 C 15.234375 16 16 15.234375 16 14.289062 L 16 7.46875 C 16 7.15625 15.746094 6.898438 15.429688 6.898438 C 15.117188 6.898438 14.859375 7.15625 14.859375 7.46875 L 14.859375 14.273438 C 14.859375 14.589844 14.605469 14.84375 14.289062 14.84375 L 10.832031 14.84375 L 10.785156 11.515625 C 11.929688 10.375 12.542969 9.050781 12.542969 7.695312 C 12.539062 5.777344 11.332031 4.066406 9.519531 3.425781 C 9.347656 3.363281 9.152344 3.390625 9 3.496094 C 8.847656 3.605469 8.757812 3.777344 8.757812 3.964844 L 8.757812 6.25 L 7.257812 6.25 L 7.257812 3.964844 C 7.257812 3.777344 7.167969 3.605469 7.015625 3.496094 C 6.863281 3.390625 6.671875 3.363281 6.496094 3.425781 C 4.683594 4.070312 3.472656 5.785156 3.472656 7.707031 C 3.472656 9.058594 4.082031 10.375 5.230469 11.527344 L 5.183594 14.84375 L 1.726562 14.84375 C 1.414062 14.84375 1.15625 14.589844 1.15625 14.273438 L 1.15625 1.710938 C 1.15625 1.398438 1.414062 1.140625 1.726562 1.140625 L 14.289062 1.140625 C 14.605469 1.140625 14.859375 1.398438 14.859375 1.710938 L 14.859375 7.597656 Z M 15.695312 7.578125 "/>
<path style=" stroke:none;fill-rule:nonzero;fill:#D81E06;fill-opacity:1;" d="M 9.132812 8.5625 L 6.851562 8.5625 C 6.535156 8.5625 6.28125 8.820312 6.28125 9.132812 C 6.28125 9.449219 6.535156 9.707031 6.851562 9.707031 L 9.132812 9.707031 C 9.449219 9.707031 9.707031 9.449219 9.707031 9.132812 C 9.707031 8.820312 9.449219 8.5625 9.132812 8.5625 Z M 9.132812 8.5625 "/>
</g>
</svg>
