<?xml version="1.0" encoding="utf-8"?>
<!-- Generator: Adobe Illustrator 26.0.3, SVG Export Plug-In . SVG Version: 6.00 Build 0)  -->
<svg version="1.1" xmlns="http://www.w3.org/2000/svg" xmlns:xlink="http://www.w3.org/1999/xlink" x="0px" y="0px"
	 viewBox="0 0 36 36" style="enable-background:new 0 0 36 36;" xml:space="preserve">
<style type="text/css">
	.st0{fill:none;stroke:#F5922E;stroke-width:2;stroke-miterlimit:10;}
	.st1{fill:url(#SVGID_1_);}
	.st2{fill:url(#SVGID_00000168825764102389972290000014323490185820356517_);}
	.st3{display:none;fill:#273348;}
</style>
<g id="Layer_2">
</g>
<g id="Layer_1">
	<path class="st0" d="M28.3,12.8l5.9,0c0,0,0.8,8.8-5.9,7.7"/>
	<linearGradient id="SVGID_1_" gradientUnits="userSpaceOnUse" x1="2.1598" y1="19.3105" x2="29.5526" y2="19.3105">
		<stop  offset="0" style="stop-color:#F27D2D"/>
		<stop  offset="0.4722" style="stop-color:#F2802D"/>
		<stop  offset="0.8148" style="stop-color:#F4892E"/>
		<stop  offset="1" style="stop-color:#F5922E"/>
	</linearGradient>
	<path class="st1" d="M19.1,30h-6.5C6.8,30,2.2,25.3,2.2,19.5V8.6h27.4v10.9C29.6,25.3,24.9,30,19.1,30z"/>
		<linearGradient id="SVGID_00000144336321466126348890000017732674847044576168_" gradientUnits="userSpaceOnUse" x1="3.3809" y1="26.2615" x2="14.9361" y2="6.2472">
		<stop  offset="0" style="stop-color:#2381B9"/>
		<stop  offset="0.3595" style="stop-color:#2484BC"/>
		<stop  offset="0.6206" style="stop-color:#288DC4"/>
		<stop  offset="0.85" style="stop-color:#2D9DD2"/>
		<stop  offset="1" style="stop-color:#33ACE0"/>
	</linearGradient>
	<path style="fill:url(#SVGID_00000144336321466126348890000017732674847044576168_);" d="M12.6,30c-0.4,0-0.7,0-1.1-0.1
		c-5.3-0.5-9.4-5-9.4-10.4V8.6h16.9"/>
	<polygon class="st3" points="12.3,14.3 11.3,17.6 10.3,14.3 8,14.3 7,17.6 6,14.3 3.7,14.3 5.8,21.4 5.9,21.4 8.1,21.4 8.2,21.4 
		9.2,18.2 10.1,21.4 10.2,21.4 12.5,21.4 12.5,21.4 14.7,14.3 	"/>
	<polygon class="st3" points="27.7,21.5 25.5,14.4 25.5,14.4 23.2,14.4 23.2,14.4 22.2,17.7 21.2,14.4 21.2,14.4 18.9,14.4 
		18.8,14.4 16.7,21.5 19,21.5 20,18.2 21,21.5 23.3,21.5 24.3,18.2 25.4,21.5 	"/>
</g>
</svg>
