<?xml version="1.0" encoding="UTF-8"?>
<svg xmlns="http://www.w3.org/2000/svg" xmlns:xlink="http://www.w3.org/1999/xlink" width="40px" height="40px" viewBox="0 0 40 40" version="1.1">
<defs>
<filter id="alpha" filterUnits="objectBoundingBox" x="0%" y="0%" width="100%" height="100%">
  <feColorMatrix type="matrix" in="SourceGraphic" values="0 0 0 0 1 0 0 0 0 1 0 0 0 0 1 0 0 0 1 0"/>
</filter>
<mask id="mask0">
  <g filter="url(#alpha)">
<rect x="0" y="0" width="40" height="40" style="fill:rgb(0%,0%,0%);fill-opacity:0.976471;stroke:none;"/>
  </g>
</mask>
<clipPath id="clip1">
  <rect x="0" y="0" width="40" height="40"/>
</clipPath>
<g id="surface5" clip-path="url(#clip1)">
<path style=" stroke:none;fill-rule:evenodd;fill:rgb(1.176471%,0.784314%,0.392157%);fill-opacity:1;" d="M 33.632812 -0.0390625 C 34.832031 -0.0390625 36.027344 -0.0390625 37.226562 -0.0390625 C 38.023438 0.0585938 38.832031 0.160156 39.648438 0.273438 C 39.761719 1.089844 39.863281 1.898438 39.960938 2.695312 C 39.960938 3.894531 39.960938 5.089844 39.960938 6.289062 C 39.179688 14.078125 35.664062 20.304688 29.414062 24.960938 C 30.03125 26.457031 30.605469 27.96875 31.132812 29.492188 C 27.574219 30.867188 24.003906 32.222656 20.429688 33.554688 C 19.894531 32.089844 19.332031 30.632812 18.75 29.179688 C 18.433594 28.851562 18.109375 28.539062 17.773438 28.242188 C 17.574219 27.925781 17.324219 27.636719 17.03125 27.382812 C 16.691406 27.710938 16.363281 28.050781 16.054688 28.398438 C 15.808594 28.605469 15.574219 28.824219 15.351562 29.0625 C 15.273438 29.113281 15.195312 29.113281 15.117188 29.0625 C 13.699219 27.644531 12.277344 26.222656 10.859375 24.804688 C 10.808594 24.726562 10.808594 24.648438 10.859375 24.570312 C 11.226562 24.214844 11.578125 23.851562 11.914062 23.476562 C 12.132812 23.296875 12.339844 23.101562 12.539062 22.890625 C 12.078125 22.386719 11.582031 21.933594 11.054688 21.523438 C 10.9375 21.339844 10.78125 21.199219 10.585938 21.09375 C 9.1875 20.535156 7.78125 20.003906 6.367188 19.492188 C 7.699219 15.917969 9.054688 12.347656 10.429688 8.789062 C 11.953125 9.316406 13.464844 9.890625 14.960938 10.507812 C 19.617188 4.257812 25.84375 0.742188 33.632812 -0.0390625 Z M 33.632812 -0.0390625 "/>
</g>
<mask id="mask1">
  <g filter="url(#alpha)">
<rect x="0" y="0" width="40" height="40" style="fill:rgb(0%,0%,0%);fill-opacity:0.901961;stroke:none;"/>
  </g>
</mask>
<clipPath id="clip2">
  <rect x="0" y="0" width="40" height="40"/>
</clipPath>
<g id="surface8" clip-path="url(#clip2)">
<path style=" stroke:none;fill-rule:evenodd;fill:rgb(0%,0%,0%);fill-opacity:1;" d="M 7.617188 0.117188 C 7.972656 0.355469 8.300781 0.644531 8.59375 0.976562 C 8.644531 1.027344 8.644531 1.082031 8.59375 1.132812 C 6.886719 2.839844 5.183594 4.542969 3.476562 6.25 C 3.425781 6.300781 3.371094 6.300781 3.320312 6.25 C 3.046875 5.976562 2.773438 5.703125 2.5 5.429688 C 2.449219 5.378906 2.449219 5.324219 2.5 5.273438 C 4.222656 3.566406 5.925781 1.847656 7.617188 0.117188 Z M 7.617188 0.117188 "/>
</g>
<mask id="mask2">
  <g filter="url(#alpha)">
<rect x="0" y="0" width="40" height="40" style="fill:rgb(0%,0%,0%);fill-opacity:0.933333;stroke:none;"/>
  </g>
</mask>
<clipPath id="clip3">
  <rect x="0" y="0" width="40" height="40"/>
</clipPath>
<g id="surface11" clip-path="url(#clip3)">
<path style=" stroke:none;fill-rule:evenodd;fill:rgb(0%,0%,0%);fill-opacity:1;" d="M 14.414062 0.117188 C 14.785156 0.371094 15.121094 0.667969 15.429688 1.015625 C 13.855469 2.589844 12.277344 4.167969 10.703125 5.742188 C 10.417969 5.457031 10.128906 5.167969 9.84375 4.882812 C 9.792969 4.832031 9.792969 4.777344 9.84375 4.726562 C 11.382812 3.199219 12.90625 1.664062 14.414062 0.117188 Z M 14.414062 0.117188 "/>
</g>
<mask id="mask3">
  <g filter="url(#alpha)">
<rect x="0" y="0" width="40" height="40" style="fill:rgb(0%,0%,0%);fill-opacity:0.937255;stroke:none;"/>
  </g>
</mask>
<clipPath id="clip4">
  <rect x="0" y="0" width="40" height="40"/>
</clipPath>
<g id="surface14" clip-path="url(#clip4)">
<path style=" stroke:none;fill-rule:evenodd;fill:rgb(0%,0%,0%);fill-opacity:1;" d="M 8.554688 5.976562 C 8.933594 6.265625 9.234375 6.601562 9.453125 6.992188 C 7.34375 9.101562 5.234375 11.210938 3.125 13.320312 C 2.839844 13.035156 2.550781 12.746094 2.265625 12.460938 C 2.214844 12.410156 2.214844 12.355469 2.265625 12.304688 C 4.378906 10.207031 6.472656 8.097656 8.554688 5.976562 Z M 8.554688 5.976562 "/>
</g>
<mask id="mask4">
  <g filter="url(#alpha)">
<rect x="0" y="0" width="40" height="40" style="fill:rgb(0%,0%,0%);fill-opacity:0.878431;stroke:none;"/>
  </g>
</mask>
<clipPath id="clip5">
  <rect x="0" y="0" width="40" height="40"/>
</clipPath>
<g id="surface17" clip-path="url(#clip5)">
<path style=" stroke:none;fill-rule:evenodd;fill:rgb(0%,0%,0%);fill-opacity:1;" d="M 1.445312 6.289062 C 1.863281 6.484375 2.203125 6.785156 2.460938 7.1875 C 2.035156 7.707031 1.566406 8.1875 1.054688 8.632812 C 0.714844 8.347656 0.402344 8.035156 0.117188 7.695312 C 0.5625 7.226562 1.003906 6.757812 1.445312 6.289062 Z M 1.445312 6.289062 "/>
</g>
<mask id="mask5">
  <g filter="url(#alpha)">
<rect x="0" y="0" width="40" height="40" style="fill:rgb(0%,0%,0%);fill-opacity:0.882353;stroke:none;"/>
  </g>
</mask>
<clipPath id="clip6">
  <rect x="0" y="0" width="40" height="40"/>
</clipPath>
<g id="surface20" clip-path="url(#clip6)">
<path style=" stroke:none;fill-rule:evenodd;fill:rgb(0%,0%,0%);fill-opacity:1;" d="M 1.367188 13.164062 C 1.742188 13.394531 2.054688 13.695312 2.304688 14.0625 C 1.925781 14.542969 1.496094 14.972656 1.015625 15.351562 C 0.679688 15.105469 0.378906 14.820312 0.117188 14.492188 C 0.535156 14.046875 0.953125 13.605469 1.367188 13.164062 Z M 1.367188 13.164062 "/>
</g>
<mask id="mask6">
  <g filter="url(#alpha)">
<rect x="0" y="0" width="40" height="40" style="fill:rgb(0%,0%,0%);fill-opacity:0.960784;stroke:none;"/>
  </g>
</mask>
<clipPath id="clip7">
  <rect x="0" y="0" width="40" height="40"/>
</clipPath>
<g id="surface23" clip-path="url(#clip7)">
<path style=" stroke:none;fill-rule:evenodd;fill:rgb(0.784314%,0%,0%);fill-opacity:1;" d="M 9.882812 21.601562 C 9.882812 21.652344 9.882812 21.707031 9.882812 21.757812 C 9.882812 21.941406 9.882812 22.121094 9.882812 22.304688 C 7.53125 22.71875 5.511719 23.761719 3.828125 25.429688 C 2.898438 26.453125 2.351562 27.652344 2.1875 29.023438 C 2.800781 28.707031 3.453125 28.496094 4.140625 28.398438 C 4.820312 28.355469 5.304688 28.640625 5.585938 29.257812 C 3.484375 31.769531 2.0625 34.636719 1.328125 37.851562 C 1.289062 38.109375 1.277344 38.371094 1.289062 38.632812 C 2.890625 38.484375 4.402344 38.03125 5.820312 37.265625 C 7.257812 36.441406 8.585938 35.464844 9.804688 34.335938 C 10.089844 34.503906 10.335938 34.710938 10.546875 34.960938 C 10.597656 35.433594 10.574219 35.902344 10.46875 36.367188 C 10.324219 36.839844 10.183594 37.308594 10.039062 37.773438 C 12.210938 37.355469 13.890625 36.210938 15.078125 34.335938 C 16.007812 32.839844 16.632812 31.226562 16.953125 29.492188 C 17.140625 29.417969 17.335938 29.394531 17.539062 29.414062 C 17.566406 29.414062 17.589844 29.414062 17.617188 29.414062 C 17.824219 29.441406 18.035156 29.464844 18.242188 29.492188 C 17.824219 32.34375 16.625 34.804688 14.648438 36.875 C 12.773438 38.582031 10.5625 39.347656 8.007812 39.179688 C 8.332031 38.402344 8.632812 37.621094 8.90625 36.835938 C 6.804688 38.464844 4.449219 39.507812 1.835938 39.960938 C 1.210938 39.960938 0.585938 39.960938 -0.0390625 39.960938 C -0.0390625 39.335938 -0.0390625 38.710938 -0.0390625 38.085938 C 0.476562 35.125 1.621094 32.429688 3.398438 30 C 3.132812 30.027344 2.871094 30.105469 2.617188 30.234375 C 1.996094 30.558594 1.371094 30.855469 0.742188 31.132812 C 0.511719 27.507812 1.917969 24.734375 4.960938 22.8125 C 6.449219 21.878906 8.0625 21.292969 9.804688 21.054688 C 9.789062 21.246094 9.816406 21.429688 9.882812 21.601562 Z M 9.882812 21.601562 "/>
</g>
<mask id="mask7">
  <g filter="url(#alpha)">
<rect x="0" y="0" width="40" height="40" style="fill:rgb(0%,0%,0%);fill-opacity:0.894118;stroke:none;"/>
  </g>
</mask>
<clipPath id="clip8">
  <rect x="0" y="0" width="40" height="40"/>
</clipPath>
<g id="surface26" clip-path="url(#clip8)">
<path style=" stroke:none;fill-rule:evenodd;fill:rgb(0%,0%,0%);fill-opacity:1;" d="M 35.429688 27.929688 C 35.800781 28.183594 36.136719 28.480469 36.445312 28.828125 C 36.144531 29.128906 35.847656 29.425781 35.546875 29.726562 C 35.234375 29.425781 34.933594 29.113281 34.648438 28.789062 C 34.910156 28.5 35.171875 28.214844 35.429688 27.929688 Z M 35.429688 27.929688 "/>
</g>
<mask id="mask8">
  <g filter="url(#alpha)">
<rect x="0" y="0" width="40" height="40" style="fill:rgb(0%,0%,0%);fill-opacity:0.941176;stroke:none;"/>
  </g>
</mask>
<clipPath id="clip9">
  <rect x="0" y="0" width="40" height="40"/>
</clipPath>
<g id="surface29" clip-path="url(#clip9)">
<path style=" stroke:none;fill-rule:evenodd;fill:rgb(0%,0%,0%);fill-opacity:1;" d="M 33.789062 29.570312 C 34.167969 29.859375 34.46875 30.195312 34.6875 30.585938 C 33.152344 32.121094 31.613281 33.660156 30.078125 35.195312 C 29.792969 34.910156 29.503906 34.621094 29.21875 34.335938 C 29.167969 34.285156 29.167969 34.230469 29.21875 34.179688 C 30.757812 32.652344 32.28125 31.117188 33.789062 29.570312 Z M 33.789062 29.570312 "/>
</g>
<mask id="mask9">
  <g filter="url(#alpha)">
<rect x="0" y="0" width="40" height="40" style="fill:rgb(0%,0%,0%);fill-opacity:0.909804;stroke:none;"/>
  </g>
</mask>
<clipPath id="clip10">
  <rect x="0" y="0" width="40" height="40"/>
</clipPath>
<g id="surface32" clip-path="url(#clip10)">
<path style=" stroke:none;fill-rule:evenodd;fill:rgb(0%,0%,0%);fill-opacity:1;" d="M 38.789062 30.429688 C 39.144531 30.667969 39.472656 30.957031 39.765625 31.289062 C 39.816406 31.339844 39.816406 31.394531 39.765625 31.445312 C 37.695312 33.515625 35.625 35.585938 33.554688 37.65625 C 33.503906 37.707031 33.449219 37.707031 33.398438 37.65625 C 33.125 37.382812 32.851562 37.109375 32.578125 36.835938 C 32.527344 36.785156 32.527344 36.730469 32.578125 36.679688 C 34.664062 34.605469 36.734375 32.523438 38.789062 30.429688 Z M 38.789062 30.429688 "/>
</g>
<mask id="mask10">
  <g filter="url(#alpha)">
<rect x="0" y="0" width="40" height="40" style="fill:rgb(0%,0%,0%);fill-opacity:0.933333;stroke:none;"/>
  </g>
</mask>
<clipPath id="clip11">
  <rect x="0" y="0" width="40" height="40"/>
</clipPath>
<g id="surface35" clip-path="url(#clip11)">
<path style=" stroke:none;fill-rule:evenodd;fill:rgb(0%,0%,0%);fill-opacity:1;" d="M 28.320312 35.039062 C 28.699219 35.328125 29 35.664062 29.21875 36.054688 C 27.980469 37.292969 26.746094 38.527344 25.507812 39.765625 C 25.457031 39.816406 25.402344 39.816406 25.351562 39.765625 C 25.105469 39.519531 24.855469 39.269531 24.609375 39.023438 C 24.558594 38.945312 24.558594 38.867188 24.609375 38.789062 C 25.863281 37.550781 27.097656 36.300781 28.320312 35.039062 Z M 28.320312 35.039062 "/>
</g>
<mask id="mask11">
  <g filter="url(#alpha)">
<rect x="0" y="0" width="40" height="40" style="fill:rgb(0%,0%,0%);fill-opacity:0.87451;stroke:none;"/>
  </g>
</mask>
<clipPath id="clip12">
  <rect x="0" y="0" width="40" height="40"/>
</clipPath>
<g id="surface38" clip-path="url(#clip12)">
<path style=" stroke:none;fill-rule:evenodd;fill:rgb(0%,0%,0%);fill-opacity:1;" d="M 31.601562 37.617188 C 32.019531 37.8125 32.359375 38.113281 32.617188 38.515625 C 32.242188 38.980469 31.824219 39.410156 31.367188 39.804688 C 31.027344 39.519531 30.714844 39.207031 30.429688 38.867188 C 30.820312 38.449219 31.210938 38.03125 31.601562 37.617188 Z M 31.601562 37.617188 "/>
</g>
</defs>
<g id="surface1">
<use xlink:href="#surface5" mask="url(#mask0)"/>
<use xlink:href="#surface8" mask="url(#mask1)"/>
<use xlink:href="#surface11" mask="url(#mask2)"/>
<path style=" stroke:none;fill-rule:evenodd;fill:rgb(98.823529%,37.64706%,25.882354%);fill-opacity:1;" d="M 38.632812 2.929688 C 38.644531 3.164062 38.632812 3.398438 38.59375 3.632812 C 37.605469 4.410156 36.496094 4.957031 35.273438 5.273438 C 34.011719 4.050781 32.761719 2.816406 31.523438 1.5625 C 33.859375 1.144531 36.203125 1.105469 38.554688 1.445312 C 38.59375 1.9375 38.621094 2.433594 38.632812 2.929688 Z M 38.632812 2.929688 "/>
<path style=" stroke:none;fill-rule:evenodd;fill:rgb(83.137256%,82.745099%,83.92157%);fill-opacity:1;" d="M 37.695312 11.132812 C 34.824219 8.144531 31.90625 5.1875 28.945312 2.265625 C 28.871094 2.226562 28.792969 2.214844 28.710938 2.226562 C 29.140625 2.070312 29.585938 1.953125 30.039062 1.875 C 32.707031 4.542969 35.378906 7.214844 38.046875 9.882812 C 37.953125 10.308594 37.835938 10.722656 37.695312 11.132812 Z M 37.695312 11.132812 "/>
<path style=" stroke:none;fill-rule:evenodd;fill:rgb(99.215686%,99.215686%,99.215686%);fill-opacity:1;" d="M 28.710938 2.226562 C 28.792969 2.214844 28.871094 2.226562 28.945312 2.265625 C 31.90625 5.1875 34.824219 8.144531 37.695312 11.132812 C 36.050781 16.625 32.875 20.988281 28.164062 24.21875 C 25.535156 26.007812 22.683594 27.324219 19.609375 28.164062 C 19.292969 27.863281 18.996094 27.550781 18.710938 27.226562 C 20.6875 25.210938 22.679688 23.207031 24.6875 21.210938 C 24.738281 21.160156 24.738281 21.105469 24.6875 21.054688 C 22.734375 19.085938 20.765625 17.132812 18.789062 15.195312 C 16.757812 17.203125 14.726562 19.207031 12.695312 21.210938 C 12.359375 20.925781 12.046875 20.613281 11.757812 20.273438 C 13.558594 13.855469 17.175781 8.765625 22.617188 5 C 24.511719 3.78125 26.542969 2.859375 28.710938 2.226562 Z M 28.710938 2.226562 "/>
<path style=" stroke:none;fill-rule:evenodd;fill:rgb(88.235295%,33.725491%,24.705882%);fill-opacity:1;" d="M 38.632812 2.929688 C 38.796875 4.757812 38.691406 6.582031 38.320312 8.398438 C 37.304688 7.355469 36.289062 6.3125 35.273438 5.273438 C 36.496094 4.957031 37.605469 4.410156 38.59375 3.632812 C 38.632812 3.398438 38.644531 3.164062 38.632812 2.929688 Z M 38.632812 2.929688 "/>
<path style=" stroke:none;fill-rule:evenodd;fill:rgb(1.568628%,1.568628%,1.176471%);fill-opacity:1;" d="M 33.789062 13.867188 C 32.21875 16.296875 30.003906 17.195312 27.148438 16.5625 C 25.691406 16.070312 24.574219 15.171875 23.789062 13.867188 C 22.542969 11.136719 23.011719 8.753906 25.195312 6.71875 C 27.210938 5.210938 29.347656 5.03125 31.601562 6.171875 C 33.847656 7.605469 34.773438 9.648438 34.375 12.304688 C 34.21875 12.84375 34.023438 13.363281 33.789062 13.867188 Z M 33.789062 13.867188 "/>
<use xlink:href="#surface14" mask="url(#mask3)"/>
<use xlink:href="#surface17" mask="url(#mask4)"/>
<path style=" stroke:none;fill-rule:evenodd;fill:rgb(84.705883%,72.549021%,22.352941%);fill-opacity:1;" d="M 33.007812 9.804688 C 31.640625 8.445312 30 7.9375 28.085938 8.28125 C 26.5 8.722656 25.34375 9.671875 24.609375 11.132812 C 24.511719 11.410156 24.472656 11.699219 24.492188 11.992188 C 24.167969 9.375 25.261719 7.644531 27.773438 6.796875 C 29.804688 6.441406 31.40625 7.105469 32.578125 8.789062 C 32.765625 9.109375 32.910156 9.449219 33.007812 9.804688 Z M 33.007812 9.804688 "/>
<path style=" stroke:none;fill-rule:evenodd;fill:rgb(99.215686%,85.09804%,26.666668%);fill-opacity:1;" d="M 33.007812 9.804688 C 33.597656 12.414062 32.660156 14.25 30.195312 15.3125 C 27.761719 15.914062 25.953125 15.117188 24.765625 12.929688 C 24.648438 12.621094 24.558594 12.308594 24.492188 11.992188 C 24.472656 11.699219 24.511719 11.410156 24.609375 11.132812 C 25.34375 9.671875 26.5 8.722656 28.085938 8.28125 C 30 7.9375 31.640625 8.445312 33.007812 9.804688 Z M 33.007812 9.804688 "/>
<path style=" stroke:none;fill-rule:evenodd;fill:rgb(98.823529%,37.64706%,25.882354%);fill-opacity:1;" d="M 13.242188 11.210938 C 11.699219 13.699219 10.511719 16.355469 9.6875 19.179688 C 9.65625 19.222656 9.617188 19.25 9.570312 19.257812 C 9.03125 19.09375 8.511719 18.886719 8.007812 18.632812 C 9.035156 16.003906 10.066406 13.371094 11.09375 10.742188 C 11.125 10.59375 11.21875 10.515625 11.367188 10.507812 C 11.992188 10.742188 12.617188 10.976562 13.242188 11.210938 Z M 13.242188 11.210938 "/>
<path style=" stroke:none;fill-rule:evenodd;fill:rgb(100%,99.607843%,98.823529%);fill-opacity:1;" d="M 31.523438 11.132812 C 31.941406 11.132812 32.355469 11.132812 32.773438 11.132812 C 32.761719 12.277344 32.34375 13.242188 31.523438 14.023438 C 31.210938 13.75 30.925781 13.449219 30.664062 13.125 C 31.21875 12.574219 31.503906 11.910156 31.523438 11.132812 Z M 31.523438 11.132812 "/>
<path style=" stroke:none;fill-rule:evenodd;fill:rgb(88.627452%,34.117648%,25.098041%);fill-opacity:1;" d="M 13.242188 11.210938 C 13.589844 11.347656 13.929688 11.503906 14.257812 11.679688 C 12.652344 14.148438 11.457031 16.804688 10.664062 19.648438 C 10.273438 19.578125 9.90625 19.449219 9.570312 19.257812 C 9.617188 19.25 9.65625 19.222656 9.6875 19.179688 C 10.511719 16.355469 11.699219 13.699219 13.242188 11.210938 Z M 13.242188 11.210938 "/>
<use xlink:href="#surface20" mask="url(#mask5)"/>
<path style=" stroke:none;fill-rule:evenodd;fill:rgb(100%,99.607843%,98.823529%);fill-opacity:1;" d="M 29.179688 15.039062 C 29.074219 15.039062 28.972656 15.039062 28.867188 15.039062 C 28.867188 14.648438 28.867188 14.257812 28.867188 13.867188 C 29.042969 13.890625 29.199219 13.863281 29.335938 13.789062 C 29.507812 13.703125 29.679688 13.703125 29.84375 13.789062 C 30 14.144531 30.117188 14.507812 30.195312 14.882812 C 29.863281 14.972656 29.523438 15.023438 29.179688 15.039062 Z M 29.179688 15.039062 "/>
<path style=" stroke:none;fill-rule:evenodd;fill:rgb(100%,95.686275%,80.392158%);fill-opacity:1;" d="M 29.335938 13.789062 C 29.199219 13.863281 29.042969 13.890625 28.867188 13.867188 C 28.867188 14.257812 28.867188 14.648438 28.867188 15.039062 C 28.972656 15.039062 29.074219 15.039062 29.179688 15.039062 C 29.070312 15.113281 28.9375 15.140625 28.789062 15.117188 C 28.789062 14.675781 28.789062 14.230469 28.789062 13.789062 C 28.972656 13.789062 29.152344 13.789062 29.335938 13.789062 Z M 29.335938 13.789062 "/>
<path style=" stroke:none;fill-rule:evenodd;fill:rgb(83.529413%,83.137256%,84.313726%);fill-opacity:1;" d="M 23.789062 13.867188 C 24.574219 15.171875 25.691406 16.070312 27.148438 16.5625 C 30.003906 17.195312 32.21875 16.296875 33.789062 13.867188 C 33.257812 16.640625 31.578125 18.097656 28.75 18.242188 C 26.5 18.132812 24.9375 17.039062 24.0625 14.960938 C 23.914062 14.609375 23.824219 14.246094 23.789062 13.867188 Z M 23.789062 13.867188 "/>
<path style=" stroke:none;fill-rule:evenodd;fill:rgb(84.705883%,84.313726%,85.09804%);fill-opacity:1;" d="M 18.710938 27.226562 C 18.441406 26.996094 18.179688 26.746094 17.929688 26.484375 C 19.6875 24.726562 21.445312 22.96875 23.203125 21.210938 C 23.253906 21.160156 23.253906 21.105469 23.203125 21.054688 C 21.742188 19.582031 20.273438 18.125 18.789062 16.679688 C 16.992188 18.4375 15.210938 20.207031 13.4375 21.992188 C 13.175781 21.742188 12.925781 21.480469 12.695312 21.210938 C 14.726562 19.207031 16.757812 17.203125 18.789062 15.195312 C 20.765625 17.132812 22.734375 19.085938 24.6875 21.054688 C 24.738281 21.105469 24.738281 21.160156 24.6875 21.210938 C 22.679688 23.207031 20.6875 25.210938 18.710938 27.226562 Z M 18.710938 27.226562 "/>
<path style=" stroke:none;fill-rule:evenodd;fill:rgb(99.215686%,38.039216%,25.882354%);fill-opacity:1;" d="M 18.789062 23.789062 C 17.402344 24.101562 15.996094 24.21875 14.570312 24.140625 C 14.15625 24.097656 13.765625 24.007812 13.398438 23.867188 C 15.167969 22.046875 16.964844 20.25 18.789062 18.476562 C 19.699219 19.335938 20.585938 20.222656 21.445312 21.132812 C 20.585938 22.046875 19.699219 22.929688 18.789062 23.789062 Z M 18.789062 23.789062 "/>
<use xlink:href="#surface23" mask="url(#mask6)"/>
<path style=" stroke:none;fill-rule:evenodd;fill:rgb(89.019608%,34.117648%,25.098041%);fill-opacity:1;" d="M 11.054688 21.523438 C 11.582031 21.933594 12.078125 22.386719 12.539062 22.890625 C 12.339844 23.101562 12.132812 23.296875 11.914062 23.476562 C 11.824219 23.429688 11.746094 23.363281 11.679688 23.28125 C 11.367188 23.242188 11.054688 23.230469 10.742188 23.242188 C 10.828125 23.113281 10.933594 22.996094 11.054688 22.890625 C 10.675781 22.496094 10.285156 22.121094 9.882812 21.757812 C 9.882812 21.707031 9.882812 21.652344 9.882812 21.601562 C 10.273438 21.558594 10.664062 21.53125 11.054688 21.523438 Z M 11.054688 21.523438 "/>
<path style=" stroke:none;fill-rule:evenodd;fill:rgb(98.431373%,38.039216%,25.882354%);fill-opacity:1;" d="M 9.882812 21.757812 C 10.285156 22.121094 10.675781 22.496094 11.054688 22.890625 C 10.933594 22.996094 10.828125 23.113281 10.742188 23.242188 C 10.59375 23.21875 10.460938 23.246094 10.351562 23.320312 C 7.882812 23.648438 5.839844 24.742188 4.21875 26.601562 C 4.089844 26.847656 3.949219 27.082031 3.789062 27.304688 C 4.78125 27.238281 5.601562 27.578125 6.25 28.320312 C 6.445312 28.660156 6.640625 29 6.835938 29.335938 C 5.191406 31.269531 3.902344 33.429688 2.96875 35.820312 C 2.800781 36.28125 2.660156 36.75 2.539062 37.226562 C 2.566406 37.277344 2.589844 37.332031 2.617188 37.382812 C 5.34375 36.53125 7.6875 35.070312 9.648438 33.007812 C 10.203125 33.34375 10.738281 33.707031 11.25 34.101562 C 11.65625 34.65625 11.773438 35.269531 11.601562 35.9375 C 11.628906 36.003906 11.652344 36.066406 11.679688 36.132812 C 13.191406 35.179688 14.296875 33.878906 15 32.226562 C 15.277344 31.59375 15.496094 30.941406 15.664062 30.273438 C 15.691406 30.222656 15.714844 30.167969 15.742188 30.117188 C 16.183594 29.714844 16.613281 29.300781 17.03125 28.867188 C 17.214844 29.039062 17.386719 29.222656 17.539062 29.414062 C 17.335938 29.394531 17.140625 29.417969 16.953125 29.492188 C 16.632812 31.226562 16.007812 32.839844 15.078125 34.335938 C 13.890625 36.210938 12.210938 37.355469 10.039062 37.773438 C 10.183594 37.308594 10.324219 36.839844 10.46875 36.367188 C 10.574219 35.902344 10.597656 35.433594 10.546875 34.960938 C 10.335938 34.710938 10.089844 34.503906 9.804688 34.335938 C 8.585938 35.464844 7.257812 36.441406 5.820312 37.265625 C 4.402344 38.03125 2.890625 38.484375 1.289062 38.632812 C 1.277344 38.371094 1.289062 38.109375 1.328125 37.851562 C 2.0625 34.636719 3.484375 31.769531 5.585938 29.257812 C 5.304688 28.640625 4.820312 28.355469 4.140625 28.398438 C 3.453125 28.496094 2.800781 28.707031 2.1875 29.023438 C 2.351562 27.652344 2.898438 26.453125 3.828125 25.429688 C 5.511719 23.761719 7.53125 22.71875 9.882812 22.304688 C 9.882812 22.121094 9.882812 21.941406 9.882812 21.757812 Z M 9.882812 21.757812 "/>
<path style=" stroke:none;fill-rule:evenodd;fill:rgb(85.882354%,73.333335%,22.745098%);fill-opacity:1;" d="M 10.351562 23.320312 C 10.460938 23.246094 10.59375 23.21875 10.742188 23.242188 C 11.054688 23.230469 11.367188 23.242188 11.679688 23.28125 C 11.746094 23.363281 11.824219 23.429688 11.914062 23.476562 C 11.578125 23.851562 11.226562 24.214844 10.859375 24.570312 C 10.808594 24.648438 10.808594 24.726562 10.859375 24.804688 C 12.277344 26.222656 13.699219 27.644531 15.117188 29.0625 C 15.195312 29.113281 15.273438 29.113281 15.351562 29.0625 C 15.574219 28.824219 15.808594 28.605469 16.054688 28.398438 C 16.015625 28.984375 15.910156 29.558594 15.742188 30.117188 C 15.714844 30.167969 15.691406 30.222656 15.664062 30.273438 C 15.511719 30.386719 15.367188 30.519531 15.234375 30.664062 C 13.242188 28.671875 11.25 26.679688 9.257812 24.6875 C 9.699219 24.246094 10.144531 23.800781 10.585938 23.359375 C 10.511719 23.320312 10.433594 23.308594 10.351562 23.320312 Z M 10.351562 23.320312 "/>
<path style=" stroke:none;fill-rule:evenodd;fill:rgb(100%,85.09804%,26.666668%);fill-opacity:1;" d="M 10.351562 23.320312 C 10.433594 23.308594 10.511719 23.320312 10.585938 23.359375 C 10.144531 23.800781 9.699219 24.246094 9.257812 24.6875 C 11.25 26.679688 13.242188 28.671875 15.234375 30.664062 C 15.367188 30.519531 15.511719 30.386719 15.664062 30.273438 C 15.496094 30.941406 15.277344 31.59375 15 32.226562 C 14.296875 33.878906 13.191406 35.179688 11.679688 36.132812 C 11.652344 36.066406 11.628906 36.003906 11.601562 35.9375 C 11.773438 35.269531 11.65625 34.65625 11.25 34.101562 C 10.738281 33.707031 10.203125 33.34375 9.648438 33.007812 C 7.6875 35.070312 5.34375 36.53125 2.617188 37.382812 C 2.589844 37.332031 2.566406 37.277344 2.539062 37.226562 C 2.660156 36.75 2.800781 36.28125 2.96875 35.820312 C 3.902344 33.429688 5.191406 31.269531 6.835938 29.335938 C 6.640625 29 6.445312 28.660156 6.25 28.320312 C 5.601562 27.578125 4.78125 27.238281 3.789062 27.304688 C 3.949219 27.082031 4.089844 26.847656 4.21875 26.601562 C 5.839844 24.742188 7.882812 23.648438 10.351562 23.320312 Z M 10.351562 23.320312 "/>
<path style=" stroke:none;fill-rule:evenodd;fill:rgb(88.627452%,34.117648%,25.098041%);fill-opacity:1;" d="M 18.789062 23.789062 C 17.621094 24.996094 16.433594 26.195312 15.234375 27.382812 C 14.335938 26.484375 13.4375 25.585938 12.539062 24.6875 C 12.816406 24.398438 13.101562 24.125 13.398438 23.867188 C 13.765625 24.007812 14.15625 24.097656 14.570312 24.140625 C 15.996094 24.21875 17.402344 24.101562 18.789062 23.789062 Z M 18.789062 23.789062 "/>
<path style=" stroke:none;fill-rule:evenodd;fill:rgb(88.627452%,33.725491%,25.098041%);fill-opacity:1;" d="M 28.710938 26.757812 C 28.664062 26.75 28.625 26.722656 28.59375 26.679688 C 26.183594 28.242188 23.59375 29.414062 20.820312 30.195312 C 20.726562 30.214844 20.671875 30.265625 20.664062 30.351562 C 20.445312 30.011719 20.34375 29.648438 20.351562 29.257812 C 23.152344 28.421875 25.78125 27.222656 28.242188 25.664062 C 28.445312 26.007812 28.601562 26.375 28.710938 26.757812 Z M 28.710938 26.757812 "/>
<path style=" stroke:none;fill-rule:evenodd;fill:rgb(98.823529%,38.039216%,25.882354%);fill-opacity:1;" d="M 28.710938 26.757812 C 28.96875 27.378906 29.230469 28.003906 29.492188 28.632812 C 26.769531 29.746094 24.035156 30.839844 21.289062 31.914062 C 21.035156 31.414062 20.828125 30.890625 20.664062 30.351562 C 20.671875 30.265625 20.726562 30.214844 20.820312 30.195312 C 23.59375 29.414062 26.183594 28.242188 28.59375 26.679688 C 28.625 26.722656 28.664062 26.75 28.710938 26.757812 Z M 28.710938 26.757812 "/>
<path style=" stroke:none;fill-rule:evenodd;fill:rgb(89.411765%,34.509805%,25.098041%);fill-opacity:1;" d="M 17.773438 28.242188 C 17.742188 28.640625 17.691406 29.03125 17.617188 29.414062 C 17.589844 29.414062 17.566406 29.414062 17.539062 29.414062 C 17.386719 29.222656 17.214844 29.039062 17.03125 28.867188 C 16.613281 29.300781 16.183594 29.714844 15.742188 30.117188 C 15.910156 29.558594 16.015625 28.984375 16.054688 28.398438 C 16.363281 28.050781 16.691406 27.710938 17.03125 27.382812 C 17.324219 27.636719 17.574219 27.925781 17.773438 28.242188 Z M 17.773438 28.242188 "/>
<use xlink:href="#surface26" mask="url(#mask7)"/>
<path style=" stroke:none;fill-rule:evenodd;fill:rgb(100%,99.607843%,98.431373%);fill-opacity:1;" d="M 10.195312 28.789062 C 10.519531 29.074219 10.832031 29.371094 11.132812 29.6875 C 9.542969 31.277344 7.957031 32.863281 6.367188 34.453125 C 6.289062 34.503906 6.210938 34.503906 6.132812 34.453125 C 5.910156 34.230469 5.691406 34.011719 5.46875 33.789062 C 5.417969 33.710938 5.417969 33.632812 5.46875 33.554688 C 7.058594 31.976562 8.636719 30.386719 10.195312 28.789062 Z M 10.195312 28.789062 "/>
<use xlink:href="#surface29" mask="url(#mask8)"/>
<use xlink:href="#surface32" mask="url(#mask9)"/>
<path style=" stroke:none;fill-rule:evenodd;fill:rgb(100%,99.215686%,97.254902%);fill-opacity:1;" d="M 4.414062 34.570312 C 4.773438 34.796875 5.085938 35.085938 5.351562 35.429688 C 5.066406 35.769531 4.753906 36.082031 4.414062 36.367188 C 4.101562 36.105469 3.816406 35.820312 3.554688 35.507812 C 3.84375 35.195312 4.128906 34.882812 4.414062 34.570312 Z M 4.414062 34.570312 "/>
<use xlink:href="#surface35" mask="url(#mask10)"/>
<use xlink:href="#surface38" mask="url(#mask11)"/>
</g>
</svg>
